<?xml version="1.0" standalone="no"?>
<!DOCTYPE svg PUBLIC "-//W3C//DTD SVG 20010904//EN"
 "http://www.w3.org/TR/2001/REC-SVG-20010904/DTD/svg10.dtd">
<svg version="1.0" xmlns="http://www.w3.org/2000/svg"
 width="1024.000000pt" height="1280.000000pt" viewBox="0 0 1024.000000 1280.000000"
 preserveAspectRatio="xMidYMid meet">

<g transform="translate(0.000000,1280.000000) scale(0.100000,-0.100000)"
fill="#000000" stroke="none">
<path d="M1421 11764 c0 -11 3 -14 6 -6 3 7 2 16 -1 19 -3 4 -6 -2 -5 -13z"/>
<path d="M0 11635 c1 -115 3 -136 13 -120 17 28 16 230 -1 247 -9 9 -12 -16
-12 -127z"/>
<path d="M1213 11703 c15 -2 39 -2 55 0 15 2 2 4 -28 4 -30 0 -43 -2 -27 -4z"/>
<path d="M1889 11623 c-13 -16 -12 -17 3 -5 9 8 23 10 29 6 8 -4 9 -3 5 4 -10
17 -21 15 -37 -5z"/>
<path d="M8201 11604 c0 -11 3 -14 6 -6 3 7 2 16 -1 19 -3 4 -6 -2 -5 -13z"/>
<path d="M8601 11594 c0 -11 3 -14 6 -6 3 7 2 16 -1 19 -3 4 -6 -2 -5 -13z"/>
<path d="M1350 11579 c0 -5 11 -9 25 -9 14 0 25 2 25 4 0 2 -11 6 -25 8 -14 3
-25 1 -25 -3z"/>
<path d="M8171 11564 c0 -11 3 -14 6 -6 3 7 2 16 -1 19 -3 4 -6 -2 -5 -13z"/>
<path d="M8422 11555 c0 -16 2 -22 5 -12 2 9 2 23 0 30 -3 6 -5 -1 -5 -18z"/>
<path d="M1652 11540 c0 -14 2 -19 5 -12 2 6 2 18 0 25 -3 6 -5 1 -5 -13z"/>
<path d="M7880 11550 c0 -5 5 -10 11 -10 5 0 7 5 4 10 -3 6 -8 10 -11 10 -2 0
-4 -4 -4 -10z"/>
<path d="M8601 11524 c0 -11 3 -14 6 -6 3 7 2 16 -1 19 -3 4 -6 -2 -5 -13z"/>
<path d="M1652 11485 c0 -16 2 -22 5 -12 2 9 2 23 0 30 -3 6 -5 -1 -5 -18z"/>
<path d="M7094 11492 c11 -13 30 -22 45 -21 l26 1 -28 8 c-16 5 -36 14 -45 22
-13 9 -12 7 2 -10z"/>
<path d="M7965 11490 c3 -5 8 -10 11 -10 2 0 4 5 4 10 0 6 -5 10 -11 10 -5 0
-7 -4 -4 -10z"/>
<path d="M8000 11476 c0 -2 7 -9 15 -16 9 -7 15 -8 15 -2 0 5 -7 12 -15 16 -8
3 -15 4 -15 2z"/>
<path d="M5846 11457 c3 -10 9 -15 12 -12 3 3 0 11 -7 18 -10 9 -11 8 -5 -6z"/>
<path d="M6841 11424 c0 -11 3 -14 6 -6 3 7 2 16 -1 19 -3 4 -6 -2 -5 -13z"/>
<path d="M1331 10814 c0 -11 3 -14 6 -6 3 7 2 16 -1 19 -3 4 -6 -2 -5 -13z"/>
<path d="M9660 9129 c-30 -5 -59 -14 -64 -19 -12 -12 13 -390 28 -409 11 -14
102 -9 117 6 11 13 61 300 62 366 l2 62 -45 2 c-25 0 -70 -3 -100 -8z"/>
<path d="M2185 8716 c-65 -14 -96 -23 -225 -68 -188 -65 -318 -144 -402 -243
-60 -72 -130 -204 -161 -305 -43 -141 -77 -277 -77 -306 0 -28 2 -30 30 -26
18 3 41 -3 63 -17 19 -11 37 -18 40 -14 4 3 7 -1 7 -11 0 -9 -5 -14 -11 -11
-5 4 -21 -5 -34 -19 -15 -16 -19 -27 -12 -30 7 -2 2 -5 -11 -5 -17 -1 -27 8
-38 34 -17 41 -41 46 -50 10 -7 -28 -22 -32 -38 -10 -8 12 -11 -1 -9 -55 1
-61 -2 -72 -19 -81 -15 -8 -19 -18 -16 -41 4 -26 1 -32 -24 -42 -15 -7 -25
-15 -22 -19 4 -4 2 -12 -3 -19 -6 -7 -14 -29 -18 -48 -4 -19 -16 -62 -26 -94
-15 -45 -16 -62 -8 -73 7 -8 10 -32 6 -63 -4 -33 -2 -50 5 -50 6 0 8 -9 5 -20
-3 -11 0 -20 6 -20 6 0 0 -8 -13 -17 -14 -9 -27 -20 -30 -24 -3 -4 -14 -9 -25
-12 -12 -3 -5 -5 17 -6 30 -1 45 6 79 39 23 22 46 40 51 40 4 0 8 -21 8 -46 0
-27 4 -43 10 -39 14 9 13 -51 -1 -74 -13 -20 -5 -71 11 -71 6 0 16 11 22 25 8
19 14 22 19 13 6 -10 15 -6 35 15 14 16 28 27 30 25 2 -2 -1 -21 -7 -42 -7
-27 -7 -41 1 -51 15 -18 9 -67 -8 -73 -9 -3 -13 3 -10 19 2 20 -1 24 -24 24
-14 1 -33 7 -42 14 -14 12 -19 11 -30 -4 -11 -15 -11 -26 -1 -54 6 -20 18 -36
26 -36 18 0 27 -21 28 -64 1 -28 3 -31 15 -22 9 8 16 8 20 2 4 -5 1 -13 -4
-16 -6 -4 -15 -18 -21 -32 -5 -13 -13 -22 -18 -18 -10 6 -31 -25 -31 -44 0
-16 37 -13 43 3 3 8 1 17 -6 20 -7 2 -5 5 5 5 24 1 28 -10 29 -71 0 -29 5 -66
11 -81 6 -15 7 -31 4 -35 -11 -10 -38 30 -33 49 2 8 -11 31 -30 50 -30 29 -34
31 -31 13 1 -12 -6 -31 -16 -43 -11 -12 -20 -37 -20 -55 -1 -19 -4 -32 -8 -29
-5 2 -8 -8 -9 -24 0 -15 -5 -84 -10 -153 -5 -69 -9 -137 -9 -152 -1 -16 -5
-28 -9 -28 -5 0 -11 -14 -15 -31 -4 -22 -10 -30 -21 -26 -21 9 -74 -12 -85
-33 -12 -22 -4 -46 16 -54 8 -3 14 -10 14 -17 0 -6 -7 -9 -14 -6 -10 4 -13 1
-9 -9 3 -8 -1 -22 -10 -32 -18 -21 -47 -119 -47 -160 0 -26 10 -65 27 -112 4
-8 5 -19 4 -24 -1 -5 11 -23 27 -40 17 -17 54 -77 82 -133 48 -93 55 -102 76
-97 13 3 37 -1 55 -10 18 -9 38 -16 46 -16 7 0 13 -5 13 -11 0 -7 11 -9 29 -6
23 5 30 2 34 -13 3 -11 11 -20 17 -20 7 0 10 8 7 20 -3 13 0 20 10 20 10 0 12
-6 8 -20 -4 -11 -2 -20 4 -20 6 0 11 7 11 15 0 8 5 15 10 15 6 0 10 -4 10 -10
0 -5 6 -10 13 -10 6 1 2 9 -10 19 -29 24 -29 48 -2 56 12 4 18 12 15 21 -3 9
1 14 13 14 10 0 21 7 25 15 3 8 13 15 22 15 16 0 16 -1 1 -18 -23 -25 -21 -40
6 -62 22 -18 22 -19 3 -33 -19 -14 -19 -15 3 -27 13 -7 37 -9 53 -6 26 5 29 4
18 -9 -10 -12 -10 -15 2 -15 8 0 18 4 24 9 11 12 165 91 175 91 4 0 40 15 81
34 40 18 96 41 123 52 75 27 182 96 250 159 22 21 74 64 115 96 143 110 198
178 245 302 19 51 22 71 15 107 -5 25 -5 47 -1 50 3 3 40 46 82 95 75 91 124
163 115 172 -3 3 6 16 20 30 17 17 23 31 19 46 -5 16 -4 18 3 8 7 -9 12 -10
16 -2 4 6 5 11 2 11 -3 0 -1 11 4 25 6 16 6 25 0 25 -6 0 -10 7 -10 15 0 9 6
12 15 9 11 -5 13 -2 9 10 -3 8 -14 18 -25 21 -10 4 -19 13 -19 21 0 9 -11 14
-35 14 -37 0 -85 18 -85 32 0 4 -9 8 -19 8 -20 0 -81 79 -81 104 0 8 -7 19
-15 26 -9 7 -13 15 -10 18 3 3 -9 21 -27 40 -24 26 -28 33 -13 27 27 -11 86
-30 175 -56 41 -13 91 -32 110 -44 19 -12 45 -27 58 -34 23 -12 23 -12 11 11
-7 13 -12 28 -11 35 2 7 -25 16 -66 23 -38 6 -81 18 -97 26 -15 8 -35 14 -44
15 -9 0 -36 11 -61 24 -25 14 -53 27 -62 31 -20 7 -24 29 -8 39 14 9 -7 35
-26 35 -8 0 -14 9 -14 20 0 11 -5 20 -11 20 -18 0 -41 28 -28 36 8 4 7 9 -2
15 -16 9 -20 59 -6 56 5 -1 26 -17 46 -34 88 -80 190 -102 309 -66 51 15 54
17 32 24 -19 6 -13 8 22 6 36 -2 44 1 36 10 -6 7 -27 13 -46 13 -36 0 -36 0
-14 16 20 14 26 13 68 -5 26 -12 48 -21 50 -21 10 0 3 20 -12 34 -14 15 -13
16 10 16 14 0 26 4 26 9 0 14 96 11 116 -3 15 -11 14 -17 -11 -77 -15 -35 -31
-85 -35 -111 -5 -26 -13 -55 -19 -66 -5 -10 -13 -43 -17 -73 -3 -30 -13 -64
-20 -76 -8 -12 -14 -30 -14 -39 0 -37 37 16 43 61 6 41 19 87 79 277 14 45 29
73 45 83 27 18 30 51 7 83 -8 12 -17 32 -19 43 -6 28 -11 33 -27 23 -17 -11
-39 -11 -61 -1 -14 6 -16 16 -11 62 6 45 3 58 -15 83 -11 17 -21 34 -21 39 0
19 -63 83 -81 83 -11 0 -30 6 -42 14 -12 7 -46 17 -76 20 -30 4 -62 11 -71 16
-10 5 -20 6 -24 3 -4 -4 -26 -6 -49 -5 -50 3 -111 -24 -165 -73 -21 -18 -51
-35 -67 -37 -24 -2 -29 -7 -27 -25 3 -21 0 -22 -45 -18 -26 3 -50 10 -52 16
-1 5 -15 22 -30 36 -14 14 -20 22 -12 18 9 -5 12 -3 9 6 -3 8 -10 13 -17 12
-16 -4 -24 42 -12 66 18 34 2 102 -32 132 -53 48 -67 59 -76 59 -5 0 -11 4
-13 9 -5 14 -102 59 -144 66 -21 4 -59 13 -83 21 -47 16 -103 10 -136 -12 -11
-8 -26 -14 -35 -14 -9 0 -27 -8 -40 -17 -29 -21 -69 -18 -86 5 -12 16 -14 15
-34 -5 -20 -22 -47 -32 -36 -14 3 5 -11 12 -31 16 -23 4 -39 3 -41 -4 -2 -5
-14 -1 -26 10 -21 19 -23 24 -13 62 5 23 18 54 29 69 10 14 18 31 18 36 0 6 3
12 8 14 4 2 18 24 32 51 13 26 28 47 33 47 4 0 13 14 18 30 6 17 17 30 25 30
8 0 14 4 14 9 0 4 11 19 24 32 13 14 34 51 45 83 11 33 29 69 40 80 10 12 24
32 31 45 7 14 28 41 46 60 18 20 41 45 51 56 28 31 144 81 157 68 3 -3 19 -7
35 -8 16 -2 41 -12 56 -23 27 -22 53 -20 94 7 22 14 23 14 17 -6 -8 -26 9 -39
30 -22 12 10 17 9 29 -8 11 -16 24 -20 62 -18 35 2 59 -4 89 -21 22 -13 50
-24 60 -24 11 0 24 -4 30 -9 9 -10 159 -61 177 -61 6 0 29 -9 51 -19 23 -11
75 -29 117 -40 42 -10 98 -33 126 -50 28 -17 55 -31 61 -31 24 0 89 -43 126
-83 21 -23 36 -35 33 -27 -24 68 -57 134 -92 185 -22 33 -46 72 -54 86 -20 41
-150 170 -221 220 -89 63 -162 101 -266 137 -83 29 -98 31 -224 30 -74 0 -162
-6 -195 -12z m-639 -1037 c39 -24 38 -20 22 -53 -9 -21 -16 -24 -37 -20 -14 4
-30 10 -35 15 -9 8 1 79 11 79 3 0 21 -9 39 -21z m354 -40 c18 -32 5 -52 -27
-44 -30 7 -43 21 -42 45 0 8 4 5 9 -7 11 -27 32 -31 29 -5 -3 39 13 45 31 11z
m40 1 c0 -5 -4 -10 -10 -10 -5 0 -10 5 -10 10 0 6 5 10 10 10 6 0 10 -4 10
-10z m60 -47 c0 -12 -4 -11 -20 7 -11 13 -20 25 -20 27 0 2 9 -1 20 -7 11 -6
20 -18 20 -27z m-524 1 c37 -17 54 -30 50 -39 -3 -8 8 -24 24 -37 17 -13 30
-31 30 -40 0 -9 4 -19 9 -22 13 -8 21 18 14 46 -5 19 -3 21 8 11 7 -7 21 -13
30 -13 20 0 70 -39 51 -40 -8 0 0 -14 18 -31 23 -23 30 -38 26 -54 -4 -14 0
-28 10 -35 12 -11 12 -15 2 -21 -16 -11 54 -80 104 -102 37 -17 168 -38 183
-29 5 3 28 8 50 10 22 2 45 8 52 14 26 22 33 -4 11 -43 -12 -21 -19 -41 -16
-44 3 -3 -11 -22 -31 -43 l-36 -37 -95 2 c-57 1 -113 7 -140 17 -25 9 -53 16
-63 16 -35 0 -5 -19 63 -41 39 -13 70 -26 70 -29 0 -3 -21 -11 -46 -18 -26 -7
-58 -21 -72 -32 -13 -11 -33 -20 -43 -20 -10 0 -21 -5 -24 -10 -4 -6 -14 -10
-23 -9 -40 4 -52 -2 -52 -23 l-1 -23 -12 22 c-9 16 -16 19 -29 12 -25 -14 -43
-2 -57 38 -10 25 -16 32 -22 22 -6 -11 -11 -10 -26 3 -20 18 -114 38 -156 34
-21 -3 -27 1 -27 15 0 21 20 27 20 7 1 -7 8 0 16 16 9 15 14 39 11 52 -2 13 0
25 5 26 15 5 -2 58 -19 58 -10 0 -12 6 -8 20 4 13 1 22 -8 26 -8 3 -15 17 -15
32 -5 84 -2 126 7 135 14 14 14 37 1 37 -5 0 -10 -8 -10 -17 0 -10 -11 -31
-24 -46 -17 -20 -27 -47 -32 -85 -3 -32 -10 -64 -15 -74 -6 -11 -4 -18 6 -22
16 -6 21 -36 6 -36 -27 0 -38 65 -17 99 4 6 3 11 -2 11 -6 0 -13 -11 -16 -25
-4 -14 -11 -25 -16 -25 -14 0 -13 53 1 67 9 9 4 11 -20 8 -34 -4 -42 13 -16
35 8 7 15 17 15 23 0 15 41 47 60 47 25 0 36 17 50 78 14 61 31 69 26 12 -5
-53 5 -50 28 8 35 85 58 132 67 132 5 0 34 -12 65 -26z m301 10 c-3 -3 -12 -4
-19 -1 -8 3 -5 6 6 6 11 1 17 -2 13 -5z m238 -30 c29 -6 72 -40 62 -50 -2 -2
-16 0 -31 6 -15 5 -38 10 -50 10 -22 0 -66 30 -66 45 0 4 12 4 28 1 15 -4 41
-9 57 -12z m-130 -34 c2 -4 -7 -5 -20 -2 -14 2 -27 8 -30 12 -2 4 7 5 20 2 14
-2 27 -8 30 -12z m131 -59 c32 -25 29 -26 -22 -5 -22 10 -52 21 -69 25 -25 7
-22 8 17 5 28 -2 57 -12 74 -25z m-24 -25 l22 -16 -30 0 c-38 0 -113 37 -87
42 24 5 67 -7 95 -26z m-235 -48 c-3 -8 -6 -5 -6 6 -1 11 2 17 5 13 3 -3 4
-12 1 -19z m98 -88 c3 -5 1 -10 -4 -10 -6 0 -11 5 -11 10 0 6 2 10 4 10 3 0 8
-4 11 -10z m568 -55 l22 -16 -25 4 c-45 8 -110 30 -110 37 0 23 66 9 113 -25z
m446 28 c3 -4 13 -9 21 -11 8 -2 17 -8 18 -13 2 -5 17 -9 33 -9 16 0 29 -4 29
-9 0 -5 -9 -7 -20 -4 -11 3 -20 0 -20 -6 0 -7 -8 -8 -25 -1 -14 5 -25 8 -25 6
0 -5 -140 31 -147 38 -3 2 -16 1 -29 -4 -14 -6 -26 -6 -29 0 -4 6 5 10 19 10
14 0 26 4 26 8 0 10 142 5 149 -5z m-689 -31 c0 -12 -68 -13 -75 -2 -4 6 11
10 34 10 23 0 41 -4 41 -8z m199 -39 c11 -10 22 -29 23 -43 2 -14 7 -28 11
-31 5 -3 10 -19 11 -35 5 -71 51 -200 83 -231 12 -13 26 -35 29 -48 8 -32 -4
-98 -19 -107 -21 -13 -55 -8 -61 8 -5 14 -17 16 -73 11 -90 -9 -138 5 -196 58
-47 42 -59 48 -137 60 -53 9 -73 32 -67 78 6 47 22 65 84 97 69 35 148 94 180
135 15 19 33 35 39 35 7 0 14 7 18 15 7 20 49 19 75 -2z m427 -44 c16 -17 16
-22 4 -29 -10 -6 -23 -4 -38 6 -12 8 -27 12 -32 9 -14 -9 -29 27 -16 40 14 16
57 2 82 -26z m144 -9 c0 -12 -8 -12 -35 0 -18 8 -17 9 8 9 15 1 27 -3 27 -9z
m-1775 -50 c-3 -5 -12 -10 -18 -10 -7 0 -6 4 3 10 19 12 23 12 15 0z m1380
-14 c14 -8 22 -17 17 -20 -6 -3 -21 3 -33 14 -28 23 -22 25 16 6z m-1278 -108
c-3 -7 -5 -2 -5 12 0 14 2 19 5 13 2 -7 2 -19 0 -25z m136 -45 c-7 -2 -19 -2
-25 0 -7 3 -2 5 12 5 14 0 19 -2 13 -5z m508 -106 c-10 -23 -22 -50 -25 -61
-4 -11 -12 -16 -22 -12 -9 3 -25 6 -35 6 -13 0 -18 4 -13 12 5 7 2 9 -8 6 -8
-4 -21 -2 -29 3 -12 8 -11 12 4 23 9 7 17 19 17 26 0 7 7 10 15 6 8 -3 15 0
15 7 0 7 9 13 20 14 13 1 20 -4 20 -15 0 -15 2 -15 10 -2 6 10 6 16 -1 19 -6
2 0 14 12 27 23 25 23 25 31 4 5 -13 1 -36 -11 -63z m-525 23 c0 -11 -6 -15
-18 -12 -26 7 -23 29 5 29 7 0 13 -8 13 -17z m-96 -80 c0 -5 -4 -10 -10 -10
-5 0 -10 -7 -10 -16 0 -13 -3 -14 -14 -4 -8 6 -12 18 -9 26 6 16 43 19 43 4z
m230 -82 c1 -36 36 -105 61 -119 20 -10 25 -9 41 11 16 19 20 21 36 9 41 -32
93 -98 114 -146 12 -29 26 -53 30 -53 5 0 8 -6 8 -13 0 -16 88 -74 126 -83 16
-4 50 -17 76 -29 25 -12 58 -21 72 -20 22 3 26 -1 26 -21 0 -16 8 -28 23 -34
46 -19 -25 -11 -93 11 -37 11 -88 19 -120 18 -63 -1 -92 3 -101 14 -3 5 -18 5
-33 1 -21 -5 -24 -9 -15 -20 6 -8 20 -14 31 -14 10 0 28 -9 40 -20 12 -11 34
-20 49 -20 15 0 31 -4 34 -10 3 -5 15 -10 26 -10 10 0 19 -6 19 -14 0 -8 12
-24 28 -35 15 -12 32 -25 39 -31 8 -6 21 -7 37 0 32 12 123 1 141 -17 10 -10
20 -11 40 -3 23 9 26 14 21 38 -4 15 -18 37 -32 50 l-26 22 36 15 c19 8 40 15
46 15 5 0 10 4 10 9 0 5 14 11 31 15 17 3 28 10 24 16 -3 5 1 10 9 10 9 0 16
4 16 9 0 11 73 39 110 43 14 2 27 -1 28 -7 2 -5 8 -15 14 -22 5 -7 7 -17 3
-23 -4 -7 1 -7 13 1 17 10 23 10 37 -1 14 -12 14 -15 -6 -36 -11 -12 -32 -25
-45 -28 -15 -4 -24 -14 -24 -26 0 -10 -9 -27 -19 -37 -10 -10 -44 -52 -74 -93
-31 -41 -62 -82 -69 -90 -23 -24 -88 -74 -122 -92 -34 -19 -95 -24 -97 -8 -1
6 -2 14 -3 19 -2 18 -16 24 -16 7 0 -9 -5 -23 -12 -29 -16 -18 -65 -9 -71 13
-3 13 -11 16 -31 13 -14 -3 -26 -9 -26 -14 0 -17 -39 15 -42 34 -3 17 -12 20
-78 21 -67 1 -75 3 -78 21 -2 15 -15 23 -53 32 -27 7 -57 19 -65 28 -8 8 -20
15 -25 15 -5 0 -9 11 -9 24 0 15 -7 26 -20 29 -13 3 -20 14 -20 30 0 14 -4 28
-10 32 -5 3 -7 21 -5 40 4 25 1 35 -9 35 -17 0 -28 24 -15 37 5 5 4 24 -3 47
-9 29 -9 42 0 57 10 15 10 24 0 42 -7 12 -11 27 -10 33 1 6 -4 24 -13 40 -10
21 -11 30 -3 35 8 5 9 11 1 21 -6 7 -13 27 -16 43 -24 122 -25 138 -17 161 12
30 30 31 30 2z m317 -24 c4 -11 14 -14 34 -10 21 4 39 -1 66 -20 20 -13 48
-27 62 -30 35 -7 91 -35 91 -46 0 -12 -24 -10 -38 4 -8 8 -15 8 -25 0 -8 -7
-17 -8 -21 -4 -4 4 -11 7 -14 7 -13 1 -87 39 -104 53 -9 8 -30 15 -45 17 -71
5 -84 34 -20 44 4 0 10 -6 14 -15z m723 -19 c0 -5 -5 -3 -10 5 -8 13 -10 12
-10 -3 0 -11 8 -21 18 -23 24 -7 46 -55 29 -66 -6 -4 -18 -8 -25 -8 -7 0 -11
-4 -8 -9 4 -5 -3 -7 -13 -4 -11 3 -22 11 -25 19 -3 8 -12 14 -21 14 -17 0 -21
25 -5 35 6 3 10 15 10 25 0 25 41 55 52 37 4 -6 8 -16 8 -22z m-186 -150 c15
-8 41 -15 56 -15 24 0 69 -34 59 -45 -6 -5 -92 16 -99 24 -3 4 -31 15 -62 24
-32 10 -58 20 -58 23 0 10 78 2 104 -11z m-474 -11 c0 -3 -7 -12 -15 -21 -17
-16 -45 -11 -45 8 0 6 7 9 15 5 8 -3 15 -1 15 4 0 6 7 10 15 10 8 0 15 -3 15
-6z m60 -4 c0 -5 -4 -10 -10 -10 -5 0 -10 5 -10 10 0 6 5 10 10 10 6 0 10 -4
10 -10z m71 -39 c1 -13 2 -13 6 2 5 18 23 24 23 6 0 -5 5 -7 10 -4 6 3 10 2
10 -3 0 -10 38 -25 54 -23 5 1 6 -7 3 -18 -8 -30 16 -44 63 -36 36 6 40 5 40
-14 0 -30 17 -26 28 7 9 24 11 25 11 5 1 -14 -9 -29 -25 -40 -25 -16 -27 -16
-39 1 -11 14 -16 15 -33 5 -16 -10 -27 -9 -63 8 -24 11 -58 26 -76 33 -17 6
-34 21 -37 32 -4 17 -8 19 -19 9 -12 -9 -21 -9 -41 0 -37 17 -34 40 4 33 17
-4 30 -2 30 4 0 17 50 11 51 -7z m159 -52 c0 -18 -20 -18 -29 0 -9 16 -8 18 9
14 11 -3 20 -9 20 -14z m-140 -53 c86 -33 101 -43 81 -55 -8 -5 -26 -2 -44 7
-17 8 -44 16 -61 18 -36 2 -68 14 -77 27 -11 15 2 48 15 39 6 -5 45 -21 86
-36z m-702 -24 c4 -41 -13 -42 -27 -1 -14 41 -14 41 7 37 11 -2 18 -14 20 -36z
m1362 -152 c0 -13 -6 -20 -17 -19 -11 0 -13 3 -5 6 6 2 12 11 12 19 0 8 2 14
5 14 3 0 5 -9 5 -20z m-50 -46 c0 -8 -5 -12 -10 -9 -6 4 -8 11 -5 16 9 14 15
11 15 -7z m-1170 -824 c0 -11 -4 -20 -10 -20 -5 0 -10 9 -10 20 0 11 5 20 10
20 6 0 10 -9 10 -20z m-63 -22 c-3 -8 -6 -5 -6 6 -1 11 2 17 5 13 3 -3 4 -12
1 -19z m178 -77 c3 -5 1 -12 -5 -16 -5 -3 -10 1 -10 9 0 18 6 21 15 7z"/>
<path d="M1530 7640 c0 -5 5 -10 10 -10 6 0 10 5 10 10 0 6 -4 10 -10 10 -5 0
-10 -4 -10 -10z"/>
<path d="M1447 7413 c-4 -3 -7 -12 -7 -20 0 -11 4 -11 19 -1 11 7 17 16 15 20
-6 10 -18 10 -27 1z"/>
<path d="M1366 7258 c-10 -38 -7 -58 9 -58 9 0 12 6 8 16 -4 10 1 17 16 21 26
7 26 12 4 29 -25 18 -30 17 -37 -8z"/>
<path d="M1675 7110 c-3 -5 -1 -10 4 -10 6 0 11 5 11 10 0 6 -2 10 -4 10 -3 0
-8 -4 -11 -10z"/>
<path d="M1757 6012 c1 -8 3 -16 3 -18 0 -2 7 -4 15 -4 8 0 15 5 15 10 0 6 -6
10 -14 10 -8 0 -16 3 -19 8 -2 4 -2 1 0 -6z"/>
<path d="M1685 6010 c-3 -5 3 -10 15 -10 12 0 18 5 15 10 -3 6 -10 10 -15 10
-5 0 -12 -4 -15 -10z"/>
<path d="M2095 5890 c-3 -5 -1 -10 4 -10 6 0 11 5 11 10 0 6 -2 10 -4 10 -3 0
-8 -4 -11 -10z"/>
<path d="M9640 8643 c-41 -16 -60 -46 -60 -95 0 -65 31 -98 90 -98 54 0 79 14
96 56 17 42 10 95 -16 119 -20 18 -85 29 -110 18z"/>
<path d="M87 8524 l28 -25 -26 5 c-30 6 -89 -11 -89 -26 0 -5 9 -6 20 -3 12 4
20 2 20 -5 0 -7 6 -5 16 4 8 9 23 15 32 15 15 -1 15 -2 -1 -6 -9 -2 -14 -9
-11 -15 3 -5 -3 -16 -15 -24 -12 -8 -21 -22 -21 -30 0 -8 -4 -14 -10 -14 -5 0
-10 5 -10 10 0 6 -4 10 -8 10 -5 0 -9 -7 -9 -15 0 -8 3 -13 5 -10 3 3 12 0 19
-7 11 -9 16 -9 23 3 27 43 34 48 52 38 10 -5 23 -7 28 -4 6 3 19 0 31 -8 14
-11 17 -17 9 -22 -7 -4 -16 -1 -21 6 -6 10 -9 11 -9 2 0 -7 -6 -13 -14 -13
-16 0 -32 -38 -21 -48 4 -4 10 -1 12 6 8 21 43 14 43 -8 0 -14 -7 -20 -22 -20
-12 0 -30 -7 -40 -17 -18 -16 -24 -9 -19 21 2 9 -18 26 -31 26 -5 0 -8 -9 -8
-20 0 -23 -10 -26 -28 -8 -9 9 -12 9 -12 -1 0 -28 22 -50 55 -57 67 -12 45
-39 -24 -29 -29 4 -32 4 -14 -4 29 -13 30 -25 2 -16 -18 6 -19 5 -7 -14 10
-17 10 -25 0 -41 -18 -30 -15 -68 7 -75 22 -7 35 -32 20 -40 -11 -7 -3 -25 12
-25 5 0 9 7 9 15 0 21 13 19 28 -6 10 -15 11 -24 3 -32 -8 -8 -11 -8 -11 1 0
7 -8 12 -17 12 -12 0 -14 -3 -7 -8 8 -5 8 -15 2 -32 -9 -23 -10 -24 -22 -7
-12 15 -15 16 -26 2 -17 -20 -12 -23 38 -26 30 -2 42 -7 42 -18 0 -9 7 -25 15
-35 12 -16 18 -17 27 -8 9 9 8 12 -5 12 -21 0 -23 33 -3 49 11 9 15 8 22 -6 4
-10 8 -23 9 -29 0 -6 9 -23 19 -39 18 -28 18 -28 -3 -22 -12 3 -43 -2 -69 -10
-57 -19 -54 -17 -46 -37 7 -18 25 -22 22 -4 -4 14 69 44 80 33 4 -4 1 -10 -6
-12 -6 -3 -12 -9 -12 -14 0 -6 6 -7 13 -3 9 6 9 4 -1 -8 -7 -8 -10 -23 -6 -31
5 -15 9 -15 36 -1 16 9 32 13 34 11 3 -3 6 -28 8 -56 2 -31 9 -57 18 -64 22
-17 28 -43 15 -57 -9 -10 -9 -11 1 -6 9 5 25 -6 47 -31 l34 -38 1 27 c0 15 -5
30 -10 33 -17 11 -41 78 -36 100 3 13 -2 27 -14 38 -21 18 -27 47 -10 47 6 0
10 -4 10 -10 0 -5 11 -10 25 -10 16 0 25 6 25 16 0 8 -5 12 -10 9 -6 -3 -19
-3 -30 0 -16 5 -18 12 -13 37 4 22 3 29 -5 24 -7 -4 -12 -14 -12 -22 0 -17
-16 -18 -27 -1 -13 20 -33 80 -39 117 -3 19 -11 47 -19 62 -9 19 -10 29 -2 37
8 8 7 11 -2 11 -8 0 -10 7 -6 20 4 12 1 27 -5 35 -10 12 -10 18 0 30 8 10 9
15 1 15 -7 0 -8 7 -2 23 23 57 35 121 23 125 -15 5 -5 22 12 22 8 0 16 -9 19
-20 3 -11 12 -20 20 -20 19 0 31 16 18 24 -16 10 0 44 22 50 54 14 62 -2 21
-45 -19 -19 -24 -33 -19 -48 3 -12 11 -19 16 -15 5 3 7 9 4 13 -2 5 7 6 20 3
27 -5 35 12 10 22 -19 7 -19 21 0 40 11 10 15 32 14 68 -2 29 -4 47 -7 40 -2
-6 -10 -12 -18 -12 -8 0 -14 -5 -14 -12 0 -9 -3 -9 -12 0 -19 19 -18 92 1 93
11 0 10 3 -4 8 -14 6 -23 4 -29 -7 -8 -13 -11 -13 -23 4 -12 16 -15 17 -23 4
-6 -9 -5 -17 3 -22 7 -4 8 -8 2 -8 -19 1 -47 28 -36 35 6 3 11 0 12 -7 1 -15
17 21 18 40 1 6 -9 12 -22 12 -13 0 -29 -6 -36 -12 -10 -11 -11 -10 -6 5 4 9
3 17 -3 17 -6 0 -12 -6 -15 -12 -4 -10 -7 -10 -18 0 -7 6 -21 12 -32 12 -15 0
-14 -4 10 -26z m63 -71 c0 -14 -2 -15 -9 -4 -5 8 -14 10 -21 6 -9 -5 -11 -4
-6 3 11 18 36 14 36 -5z m100 -20 c0 -29 -12 -24 -17 7 -2 11 2 20 7 20 6 0
10 -12 10 -27z m-20 -32 c0 -5 -11 -16 -25 -25 -29 -19 -32 -14 -8 14 18 21
33 26 33 11z m-87 -130 c-2 -11 1 -21 5 -21 4 0 8 -16 9 -35 2 -26 -1 -35 -12
-35 -9 0 -15 10 -15 26 0 14 -7 32 -15 40 -11 12 -12 20 -4 35 13 25 35 19 32
-10z m-25 -76 c7 -16 8 -33 3 -48 -5 -12 -7 -34 -6 -49 3 -25 1 -26 -21 -16
-30 14 -33 48 -4 48 11 0 20 5 20 10 0 12 -48 3 -67 -13 -19 -15 -16 18 4 51
32 49 54 55 71 17z m92 -405 c0 -5 -9 -10 -21 -10 -11 0 -17 5 -14 10 3 6 13
10 21 10 8 0 14 -4 14 -10z"/>
<path d="M230 8519 c0 -5 5 -7 10 -4 6 3 10 8 10 11 0 2 -4 4 -10 4 -5 0 -10
-5 -10 -11z"/>
<path d="M246 8238 c5 -7 -1 -9 -20 -6 -37 7 -32 -3 16 -33 42 -27 81 -29 71
-3 -4 11 -9 12 -18 4 -10 -8 -14 -5 -19 14 -3 13 -13 26 -21 30 -10 4 -14 2
-9 -6z"/>
<path d="M226 8175 c4 -8 10 -12 15 -9 14 8 10 24 -6 24 -9 0 -12 -6 -9 -15z"/>
<path d="M180 8164 c0 -8 5 -12 10 -9 6 3 10 10 10 16 0 5 -4 9 -10 9 -5 0
-10 -7 -10 -16z"/>
<path d="M284 8111 c0 -11 4 -17 8 -15 4 3 8 12 8 20 0 8 -4 14 -8 14 -4 0 -8
-9 -8 -19z"/>
<path d="M206 8055 c-4 -12 -1 -16 14 -13 24 3 28 22 7 26 -8 2 -17 -4 -21
-13z"/>
<path d="M256 8034 c-10 -25 -1 -27 19 -4 15 17 16 20 3 20 -9 0 -19 -7 -22
-16z"/>
<path d="M3236 8037 c3 -10 9 -15 12 -12 3 3 0 11 -7 18 -10 9 -11 8 -5 -6z"/>
<path d="M3254 7965 c12 -49 15 -303 6 -405 -13 -141 -16 -157 -47 -252 -16
-49 -26 -88 -22 -88 4 0 21 34 38 75 36 86 68 228 76 341 8 117 -18 322 -45
347 -10 10 -11 6 -6 -18z"/>
<path d="M9748 7941 c-27 -4 -53 -12 -59 -18 -14 -14 7 -360 23 -379 10 -13
100 -6 109 8 11 16 62 366 56 382 -7 17 -42 19 -129 7z"/>
<path d="M2 7890 c1 -32 12 -40 22 -14 3 8 0 22 -8 30 -13 12 -15 10 -14 -16z"/>
<path d="M7536 7873 c-33 -65 -84 -93 -182 -100 l-74 -6 0 -78 0 -78 108 -3
107 -3 3 -157 3 -158 129 0 130 0 0 305 0 305 -105 0 c-104 0 -105 0 -119 -27z"/>
<path d="M8150 7869 c-88 -10 -132 -24 -182 -56 -38 -24 -78 -86 -78 -123 0
-19 6 -20 136 -20 l136 0 27 29 c33 36 103 49 162 32 33 -10 39 -16 39 -40 0
-35 -10 -40 -190 -85 -167 -42 -200 -56 -255 -107 -47 -44 -75 -107 -75 -171
l0 -38 400 0 400 0 0 75 0 75 -255 0 c-151 0 -255 4 -255 9 0 13 11 16 200 50
181 33 231 49 273 89 51 48 59 144 16 203 -51 71 -264 105 -499 78z"/>
<path d="M9075 7874 c-171 -17 -257 -67 -272 -159 l-6 -35 130 0 c117 0 132 2
148 20 27 30 84 44 149 36 51 -7 86 -25 86 -46 0 -4 -8 -17 -17 -29 -16 -18
-31 -21 -108 -23 l-90 -3 -3 -57 -3 -58 88 0 c99 0 133 -14 133 -55 0 -35 -30
-47 -119 -47 -81 0 -117 12 -127 44 -5 16 -21 18 -150 18 -160 0 -157 1 -128
-68 39 -95 120 -129 328 -138 241 -12 418 23 463 92 44 68 20 171 -48 201 -39
17 -51 33 -26 33 7 0 26 13 42 30 23 24 29 39 29 79 1 82 -50 129 -164 151
-60 12 -271 20 -335 14z"/>
<path d="M5527 7843 c-2 -5 -7 -57 -11 -118 -4 -60 -9 -130 -13 -154 l-6 -43
174 7 c258 10 262 10 291 2 52 -14 62 -83 15 -109 -12 -6 -52 -12 -89 -12 -54
-1 -72 3 -97 22 -28 20 -41 22 -170 22 l-139 0 10 -40 c13 -48 70 -104 125
-120 73 -21 219 -32 338 -26 132 7 206 22 261 57 70 43 94 151 53 236 -27 55
-87 88 -191 104 -81 13 -225 7 -276 -11 -45 -17 -60 -8 -54 29 l4 31 249 0
249 0 0 65 0 65 -359 0 c-198 0 -362 -3 -364 -7z"/>
<path d="M6427 7808 c-3 -24 -9 -96 -13 -162 l-7 -118 174 7 c253 10 288 9
310 -11 28 -25 24 -70 -7 -91 -41 -26 -151 -24 -191 5 -28 20 -43 22 -167 22
-151 0 -151 0 -120 -67 37 -77 124 -110 319 -119 194 -10 354 17 413 70 74 65
76 191 6 262 -43 42 -112 63 -234 71 -86 5 -123 1 -233 -23 -27 -6 -28 -5 -25
27 l3 34 248 3 247 2 0 65 0 65 -359 0 -358 0 -6 -42z"/>
<path d="M1570 7836 c0 -2 7 -6 15 -10 8 -3 15 -1 15 4 0 6 -7 10 -15 10 -8 0
-15 -2 -15 -4z"/>
<path d="M1718 7763 c-17 -3 -28 -11 -28 -19 0 -9 5 -13 13 -10 6 3 20 9 30
12 9 4 17 10 17 15 0 5 -1 8 -2 8 -2 -1 -15 -4 -30 -6z"/>
<path d="M88 7718 c8 -8 8 -17 0 -32 -16 -30 -17 -31 -31 -14 -6 9 -22 19 -35
23 -22 6 -23 4 -20 -27 3 -28 7 -33 28 -32 31 2 132 23 138 29 3 2 -1 18 -8
35 -11 25 -18 30 -48 30 -27 0 -33 -3 -24 -12z"/>
<path d="M1147 7683 c-3 -10 -9 -37 -12 -61 -4 -24 -13 -56 -21 -70 -8 -15
-14 -47 -14 -72 -1 -25 -8 -63 -16 -85 -9 -22 -18 -51 -21 -65 -5 -24 -4 -24
16 5 12 17 26 48 32 69 10 36 54 106 72 114 4 2 7 11 8 20 0 14 2 13 9 -3 7
-17 9 -16 9 10 1 17 5 36 10 44 6 9 0 29 -18 59 -30 51 -47 62 -54 35z"/>
<path d="M153 7633 c-15 -5 -17 -23 -4 -23 5 0 11 7 15 15 3 8 4 15 3 14 -1 0
-8 -3 -14 -6z"/>
<path d="M218 7573 c7 -3 16 -2 19 1 4 3 -2 6 -13 5 -11 0 -14 -3 -6 -6z"/>
<path d="M9691 7464 c-47 -60 -11 -154 58 -154 70 0 109 47 98 118 -8 47 -29
62 -88 62 -39 0 -51 -5 -68 -26z"/>
<path d="M185 7430 c-40 -41 -65 -51 -65 -25 0 23 -16 18 -39 -11 -18 -23 -21
-24 -22 -8 -1 11 -1 23 0 28 3 16 -33 35 -46 24 -19 -15 -16 -26 8 -33 16 -5
18 -10 10 -18 -9 -9 -14 -8 -21 3 -8 12 -10 10 -10 -10 0 -36 11 -70 22 -70 5
0 8 12 6 27 -2 15 2 28 10 30 6 3 12 0 12 -5 0 -19 58 -24 82 -8 12 9 35 16
50 16 22 0 27 5 30 28 4 32 47 47 44 15 0 -9 5 -18 12 -18 20 0 16 -19 -7 -31
-17 -9 -19 -13 -7 -17 8 -3 20 0 26 8 6 7 22 16 35 19 22 6 25 12 25 47 0 40
-1 41 -27 35 -76 -19 -86 -19 -80 -2 10 27 -7 18 -48 -24z"/>
<path d="M1050 7268 c0 -21 2 -38 4 -38 9 0 12 50 5 62 -6 8 -9 -1 -9 -24z"/>
<path d="M30 7209 c0 -5 -4 -7 -10 -4 -6 3 -7 -1 -4 -9 9 -22 19 -20 21 4 1
11 0 20 -3 20 -2 0 -4 -5 -4 -11z"/>
<path d="M305 7193 c-11 -3 -25 -9 -31 -14 -6 -5 -48 -7 -94 -4 -86 5 -154 -5
-174 -25 -8 -9 -2 -10 27 -5 30 6 36 5 32 -7 -4 -10 -16 -13 -35 -10 -28 4
-30 2 -30 -30 0 -33 2 -36 43 -44 31 -7 43 -14 45 -30 2 -17 8 -20 34 -16 19
3 29 1 25 -6 -7 -10 -39 -18 -109 -29 -21 -3 -38 -10 -38 -15 0 -11 77 -5 127
11 18 5 40 8 50 6 10 -2 51 -6 91 -9 l72 -5 0 29 c0 30 -15 40 -59 40 -15 0
-36 7 -47 15 -10 8 -26 15 -34 15 -24 1 -51 26 -45 43 7 15 45 12 45 -4 0 -5
5 -9 10 -9 6 0 10 13 10 29 0 27 3 29 52 35 48 7 67 18 68 39 0 7 -4 8 -35 0z
m-210 -42 c3 -5 1 -12 -5 -16 -5 -3 -10 1 -10 9 0 18 6 21 15 7z m85 -6 c0
-18 -36 -20 -46 -3 -5 8 -2 9 9 5 10 -3 17 -2 17 3 0 6 5 10 10 10 6 0 10 -7
10 -15z m-60 -50 c0 -13 -4 -14 -20 -5 -11 6 -20 13 -20 15 0 3 9 5 20 5 11 0
20 -7 20 -15z"/>
<path d="M1072 7156 c1 -10 8 -17 13 -17 15 1 12 24 -3 29 -9 3 -13 -2 -10
-12z"/>
<path d="M8308 6893 l-3 -238 -327 -3 -328 -2 0 -29 0 -28 183 -8 c276 -10
351 -32 440 -129 l37 -41 0 -407 0 -408 50 0 50 0 0 405 0 406 46 49 c88 94
178 119 439 126 l170 5 3 29 3 30 -328 2 -328 3 0 238 0 237 -52 0 -53 0 -2
-237z"/>
<path d="M210 6913 c8 -3 22 -11 30 -17 13 -10 13 -9 1 7 -7 9 -21 17 -30 16
-13 0 -14 -1 -1 -6z"/>
<path d="M307 6896 c-5 -14 -2 -26 13 -40 l20 -20 0 22 c0 12 -4 22 -9 22 -5
0 -11 8 -13 18 -3 15 -4 15 -11 -2z"/>
<path d="M31 6892 c-18 -3 -21 -6 -11 -12 10 -6 11 -12 4 -22 -14 -17 -17 -88
-5 -88 5 0 13 21 17 48 3 26 11 53 17 60 13 16 8 19 -22 14z"/>
<path d="M75 6880 c-3 -5 -1 -10 4 -10 6 0 11 5 11 10 0 6 -2 10 -4 10 -3 0
-8 -4 -11 -10z"/>
<path d="M188 6823 c7 -3 16 -2 19 1 4 3 -2 6 -13 5 -11 0 -14 -3 -6 -6z"/>
<path d="M4867 6795 c-20 -19 -33 -62 -94 -306 l-47 -186 -63 5 c-54 4 -67 1
-107 -22 -126 -74 -219 -278 -219 -486 -1 -154 50 -240 142 -240 45 0 73 16
106 63 l30 42 5 -35 c4 -20 10 -41 14 -48 19 -32 131 9 142 53 7 28 -1 45 -23
45 -13 0 -15 10 -9 73 11 117 70 392 151 705 72 277 75 295 60 318 -8 13 -22
24 -29 24 -8 0 -21 3 -29 6 -8 3 -22 -2 -30 -11z m-209 -547 c57 -71 -26 -476
-123 -603 -33 -45 -50 -44 -65 1 -31 94 49 472 123 581 23 34 47 42 65 21z"/>
<path d="M187 6790 c6 -7 9 -18 7 -24 -3 -7 6 -12 21 -14 33 -2 32 2 -7 29
-18 12 -28 16 -21 9z"/>
<path d="M0 6736 c0 -9 5 -16 10 -16 14 0 12 -44 -2 -58 -10 -10 -10 -15 2
-22 9 -6 10 -10 3 -10 -9 0 -12 -73 -13 -294 l0 -293 25 5 c14 2 25 11 25 18
0 8 9 14 21 14 18 0 18 -2 -7 -25 -15 -14 -33 -25 -40 -25 -20 0 -17 -37 2
-44 9 -4 20 -3 23 0 3 4 1 9 -6 11 -18 6 -4 33 18 33 10 0 19 7 19 15 0 8 4
15 9 15 17 0 23 -20 11 -35 -10 -12 -9 -15 5 -15 12 0 16 -6 12 -20 -3 -11 -1
-23 4 -26 6 -3 7 -14 4 -24 -3 -10 -1 -21 4 -24 6 -4 7 -21 4 -39 -3 -17 -7
-70 -10 -117 -3 -52 -11 -101 -22 -125 -51 -112 -101 -236 -101 -250 0 -10 5
-13 12 -9 8 5 9 0 2 -17 -4 -13 -10 -202 -11 -420 -4 -380 -3 -398 17 -443 11
-26 20 -60 20 -75 0 -35 -19 -91 -31 -91 -5 0 -9 -214 -9 -511 0 -476 1 -513
18 -525 16 -13 16 -13 0 -14 -15 0 -18 -10 -18 -62 0 -37 4 -58 9 -53 17 18
51 85 51 100 0 8 5 15 10 15 20 0 9 -34 -28 -89 -29 -43 -38 -67 -40 -104 -1
-26 2 -45 7 -42 11 6 8 -21 -2 -31 -4 -4 -7 -202 -7 -440 0 -336 3 -433 12
-437 10 -4 10 -6 1 -6 -16 -1 -17 -47 -2 -57 8 -4 7 -9 -2 -15 -11 -7 -12 -12
-1 -29 14 -24 16 -80 2 -80 -6 0 -10 -27 -10 -60 0 -58 6 -69 26 -52 5 5 19 4
31 -3 19 -10 21 -14 10 -28 -11 -15 -15 -15 -38 -3 l-27 14 -1 -58 c0 -50 3
-61 26 -84 14 -14 21 -26 15 -26 -6 0 -14 4 -17 10 -17 28 -25 1 -25 -81 0
-80 2 -90 15 -79 8 7 15 9 15 4 0 -5 4 -3 9 4 6 11 11 10 25 -3 9 -9 13 -22 9
-28 -4 -7 1 -5 11 3 16 13 18 12 14 -10 -5 -34 -57 -48 -78 -20 -14 19 -15 18
-18 -20 -1 -24 2 -40 8 -40 7 0 8 -5 3 -12 -22 -36 -12 -100 15 -97 22 3 101
-33 85 -38 -7 -3 -13 -12 -13 -20 0 -12 -3 -13 -13 -4 -8 6 -17 8 -20 4 -4 -3
-7 -1 -7 5 0 7 5 12 10 12 6 0 10 5 10 11 0 7 -8 9 -22 4 -13 -3 -29 -7 -35
-7 -17 -2 -17 -15 0 -21 7 -3 5 -6 -5 -6 -10 -1 -18 -6 -18 -12 0 -5 4 -7 10
-4 5 3 10 0 10 -9 0 -8 6 -16 12 -19 9 -3 6 -11 -9 -24 -24 -21 -31 -67 -12
-79 8 -5 7 -9 -1 -14 -9 -6 -3 -13 18 -24 17 -9 37 -16 45 -16 8 0 17 -6 20
-14 5 -12 0 -12 -26 -5 -64 18 -67 16 -67 -60 0 -58 3 -70 18 -74 16 -4 16 -5
0 -6 -38 -2 -16 -21 25 -21 41 -1 42 -1 17 -15 -14 -8 -33 -14 -42 -15 -17 0
-18 -17 -18 -215 0 -118 4 -215 9 -215 5 0 11 8 13 18 4 15 13 17 42 14 22 -3
36 -10 36 -18 0 -8 10 -14 21 -14 18 0 19 2 9 15 -11 13 -6 15 31 15 24 -1 73
-7 109 -15 l65 -13 -93 1 c-50 1 -92 -1 -92 -4 0 -6 110 -19 163 -19 22 0 27
4 27 24 0 13 -6 27 -12 29 -10 4 -9 8 2 16 13 10 11 14 -10 31 l-25 20 23 0
c20 0 23 4 20 32 -2 26 -7 32 -23 30 -19 -3 -18 -1 3 15 23 19 23 19 21 271
-1 241 -2 252 -20 252 -10 0 -19 5 -19 10 0 6 6 10 14 10 19 0 30 31 14 41 -9
6 -9 11 2 23 18 22 10 26 -32 20 -24 -4 -38 -13 -41 -25 -3 -10 -17 -23 -32
-29 -16 -6 -23 -14 -19 -22 5 -8 2 -9 -10 -5 -10 4 -25 7 -34 8 -10 0 -2 7 16
15 17 8 32 21 32 29 0 8 -3 14 -8 14 -20 -3 -32 2 -32 15 0 9 11 13 33 11 37
-2 87 13 87 26 0 5 10 9 23 9 17 0 23 6 25 25 1 14 -4 25 -10 25 -9 0 -9 3 0
12 21 21 13 28 -33 28 -25 0 -45 -4 -45 -8 0 -4 -8 -8 -19 -9 -13 -1 -18 5
-18 23 0 26 14 33 23 11 3 -9 16 -12 34 -9 28 4 37 20 31 55 0 4 8 7 19 7 20
0 20 7 20 396 l0 396 -22 19 c-23 20 -23 20 -1 10 l22 -11 0 136 c0 135 0 136
-27 159 -24 21 -28 21 -39 6 -11 -14 -12 -12 -13 15 0 24 5 33 22 37 12 4 24
4 27 2 2 -3 -1 -5 -8 -5 -7 0 -9 -5 -6 -10 4 -6 11 -7 17 -4 6 4 8 2 5 -3 -4
-6 0 -16 8 -23 12 -10 14 -6 12 22 -3 36 -14 61 -25 54 -4 -2 -7 7 -7 20 0 13
5 24 11 24 7 0 15 11 18 25 4 14 6 203 6 420 l-1 395 -47 0 c-51 0 -85 -15
-65 -28 8 -5 2 -13 -18 -24 -24 -14 -29 -15 -29 -3 0 8 9 15 19 15 14 0 18 5
14 20 -3 12 1 22 11 26 9 3 16 13 16 22 0 8 -3 12 -7 9 -9 -10 -35 31 -28 43
3 6 -2 10 -12 10 -14 0 -15 2 -4 9 16 10 53 2 63 -13 5 -8 11 -7 19 1 8 8 6
14 -12 23 l-22 13 24 13 c29 16 39 17 39 4 0 -5 -7 -10 -16 -10 -8 0 -12 -4
-9 -10 4 -6 13 -5 25 2 10 7 17 15 14 19 -2 4 2 9 10 12 9 4 14 29 15 87 1 54
-2 80 -9 75 -5 -3 -10 -2 -10 4 0 5 4 12 9 16 5 3 10 71 10 151 1 115 -2 150
-14 167 -18 25 -20 63 -4 73 8 4 7 9 -2 14 -10 7 -10 12 0 23 8 10 9 17 1 22
-5 3 -10 17 -10 31 0 13 -5 24 -11 24 -6 0 -8 -9 -4 -20 3 -11 2 -20 -4 -20
-6 0 -7 -14 -4 -34 5 -33 4 -35 -22 -32 -27 3 -45 20 -45 45 0 11 3 11 15 1
23 -19 30 -4 12 24 -11 15 -23 23 -34 20 -28 -8 -61 45 -74 121 -10 61 -10 67
7 80 11 8 25 15 33 15 8 0 38 11 68 26 31 14 63 23 76 20 12 -3 5 2 -15 12
-23 10 -38 24 -38 35 0 9 -5 17 -11 17 -5 0 -7 -5 -4 -10 3 -6 -1 -18 -10 -27
-13 -13 -14 -18 -3 -24 9 -6 7 -9 -9 -9 -12 0 -23 -5 -25 -11 -4 -13 -78 -30
-78 -18 0 5 4 9 10 9 6 0 6 9 0 26 -16 41 -13 46 23 39 29 -5 31 -5 14 9 -11
8 -25 12 -32 10 -17 -7 -31 16 -15 26 9 5 9 9 1 14 -6 4 -9 11 -6 16 3 5 -3
18 -14 29 -23 23 -47 100 -34 111 4 4 28 17 53 30 25 12 52 26 60 31 57 32
108 49 129 44 21 -5 23 -4 12 9 -9 11 -10 16 -2 16 6 0 11 7 11 15 0 17 -36
20 -74 5 -16 -6 -27 -6 -31 0 -4 6 -16 10 -28 10 -19 0 -17 -3 13 -22 34 -22
35 -22 10 -26 -51 -7 -122 -35 -151 -60 -25 -21 -32 -23 -40 -11 -20 31 -8 43
38 42 7 -1 10 3 7 8 -3 5 4 9 15 9 11 0 23 5 27 12 5 8 2 9 -12 4 -10 -4 -34
-10 -51 -13 -32 -6 -33 -5 -34 33 -2 80 -9 170 -15 215 -5 34 -2 55 11 80 21
41 45 70 54 64 4 -2 7 5 8 15 1 10 13 51 27 90 15 40 24 75 21 80 -3 5 -1 11
4 14 4 3 14 43 20 88 7 46 14 97 17 114 5 36 35 67 84 88 19 8 30 15 23 16
-19 0 -63 -19 -80 -36 -24 -24 -25 -12 -2 62 33 108 67 177 84 170 8 -3 15 -1
15 5 0 6 7 8 16 5 12 -4 15 -2 11 9 -4 8 -2 17 3 20 14 8 12 283 -1 287 -9 3
-9 10 0 27 16 29 7 52 -16 46 -11 -3 -9 -1 4 6 21 11 22 19 22 113 -1 111 -4
126 -24 99 -7 -10 -17 -15 -21 -11 -4 4 -1 15 7 24 13 16 11 17 -16 10 -56
-13 -75 -14 -69 -5 3 5 12 9 20 9 8 0 12 5 9 10 -3 6 -17 10 -31 10 -13 0 -24
-4 -24 -10 0 -5 -7 -10 -15 -10 -8 0 -15 4 -15 10 0 10 -88 6 -98 -5 -11 -10
18 -22 42 -18 13 3 37 -2 52 -11 l29 -16 -45 6 c-38 5 -49 2 -64 -15 -10 -11
-24 -17 -32 -14 -23 9 -16 23 11 23 14 0 25 5 25 10 0 6 -6 10 -14 10 -14 0
-26 29 -26 68 0 26 14 28 54 7 20 -11 33 -12 40 -5 5 5 30 10 55 10 30 0 41
-3 32 -9 -19 -12 10 -26 71 -35 38 -6 48 -4 48 7 0 9 -11 14 -30 14 -17 0 -36
5 -42 11 -9 9 -6 12 14 12 32 0 58 9 58 21 0 4 -54 8 -121 8 -66 0 -143 3
-170 7 -41 6 -49 4 -49 -10z m310 -356 c0 -5 -5 -10 -11 -10 -5 0 -7 5 -4 10
3 6 8 10 11 10 2 0 4 -4 4 -10z m-125 -119 c3 -5 1 -12 -5 -16 -5 -3 -10 1
-10 9 0 18 6 21 15 7z m125 -6 c0 -8 -7 -15 -15 -15 -9 0 -12 6 -9 15 4 8 10
15 15 15 5 0 9 -7 9 -15z m-97 -25 c-3 -12 -8 -19 -11 -16 -5 6 5 36 12 36 2
0 2 -9 -1 -20z m77 -30 c0 -5 -5 -10 -11 -10 -5 0 -7 5 -4 10 3 6 8 10 11 10
2 0 4 -4 4 -10z m-16 -88 c-4 -9 -8 -24 -8 -32 -1 -18 -34 -26 -49 -11 -8 8
-5 11 11 11 13 0 22 6 22 15 0 8 6 26 12 41 10 22 14 24 16 10 2 -9 0 -25 -4
-34z m-140 -15 c15 -14 10 -37 -9 -37 -7 0 -12 11 -12 25 0 28 3 30 21 12z
m116 -67 c0 -11 -7 -23 -15 -27 -19 -7 -20 -5 -29 25 -6 19 -4 22 18 22 19 0
26 -5 26 -20z m-64 -47 c3 -12 -1 -32 -10 -44 l-15 -22 -11 28 c-8 22 -8 35 1
51 6 12 8 28 4 36 -3 7 1 4 10 -7 9 -11 18 -30 21 -42z m-39 -215 c-3 -7 -5
-2 -5 12 0 14 2 19 5 13 2 -7 2 -19 0 -25z m10 -40 c-3 -8 -6 -5 -6 6 -1 11 2
17 5 13 3 -3 4 -12 1 -19z m-84 -245 c-18 -55 -43 -96 -43 -73 0 8 6 27 14 41
7 14 16 37 20 52 3 15 11 27 16 27 5 0 2 -21 -7 -47z m-23 -143 c-7 -16 -17
-30 -22 -30 -5 0 -7 4 -4 9 3 4 10 21 16 36 6 15 13 25 17 22 3 -4 0 -20 -7
-37z m137 -1132 c-3 -7 -5 -2 -5 12 0 14 2 19 5 13 2 -7 2 -19 0 -25z m-67
-54 c0 -35 -15 -30 -17 6 -1 18 2 28 7 25 6 -4 10 -17 10 -31z m-43 -16 c-3
-8 -6 -5 -6 6 -1 11 2 17 5 13 3 -3 4 -12 1 -19z m163 -248 c0 -5 -7 -10 -15
-10 -8 0 -15 5 -15 10 0 6 7 10 15 10 8 0 15 -4 15 -10z m-73 -42 c-3 -8 -6
-5 -6 6 -1 11 2 17 5 13 3 -3 4 -12 1 -19z m63 -243 c-27 -14 -36 -13 -25 4 3
6 16 11 28 11 21 -1 21 -1 -3 -15z m94 -180 c-6 -16 -34 -21 -34 -7 0 13 11
22 26 22 8 0 11 -6 8 -15z m-166 -66 c-7 -13 -19 -29 -25 -37 -7 -7 -17 -20
-22 -29 -8 -14 -13 -15 -33 -5 -12 7 -16 11 -7 8 10 -3 22 5 29 20 8 13 19 24
27 24 7 0 13 6 13 13 0 14 21 39 28 33 2 -2 -3 -14 -10 -27z m85 14 c4 -3 1
-13 -6 -21 -10 -13 -9 -15 6 -9 9 3 17 2 17 -2 0 -9 -24 -21 -41 -21 -10 0
-12 43 -2 53 8 9 18 9 26 0z m-43 -59 c0 -6 -8 -18 -18 -28 -18 -15 -20 -15
-35 2 -13 14 -14 21 -5 30 14 14 58 12 58 -4z m-63 -50 c4 -11 13 -13 34 -9
18 4 29 2 29 -4 0 -6 -7 -11 -15 -11 -7 0 -18 -6 -22 -14 -7 -13 -33 -20 -57
-17 -5 0 -1 10 9 21 17 18 17 20 2 14 -11 -4 -17 -1 -17 8 0 29 27 38 37 12z
m120 10 c-3 -3 -12 -4 -19 -1 -8 3 -5 6 6 6 11 1 17 -2 13 -5z m0 -46 c-3 -8
-6 -5 -6 6 -1 11 2 17 5 13 3 -3 4 -12 1 -19z m-163 -43 c3 -9 0 -15 -8 -15
-7 0 -21 -9 -31 -20 -18 -20 -18 -21 13 -32 18 -7 32 -18 32 -25 0 -18 -11
-16 -39 6 -14 10 -32 16 -40 13 -8 -3 0 15 19 41 36 50 45 56 54 32z m63 -120
c6 -14 9 -25 6 -25 -9 0 -33 29 -33 39 0 19 15 11 27 -14z m63 -69 c0 -18 -2
-19 -15 -5 -9 8 -17 26 -20 38 -4 23 -4 23 15 6 11 -10 20 -27 20 -39z m47 2
c-3 -8 -6 -5 -6 6 -1 11 2 17 5 13 3 -3 4 -12 1 -19z m-92 -20 c6 -4 2 -8 -7
-8 -10 0 -18 7 -18 17 0 9 3 12 8 7 4 -5 12 -12 17 -16z m-60 -8 c3 -5 1 -10
-4 -10 -6 0 -11 5 -11 10 0 6 2 10 4 10 3 0 8 -4 11 -10z m42 -32 c-3 -8 -6
-5 -6 6 -1 11 2 17 5 13 3 -3 4 -12 1 -19z m169 -15 c-7 -7 -26 7 -26 19 0 6
6 6 15 -2 9 -7 13 -15 11 -17z m-241 -24 c11 -17 -1 -21 -15 -4 -8 9 -8 15 -2
15 6 0 14 -5 17 -11z m133 -135 c-3 -27 -4 -26 -9 8 -3 22 -1 34 4 29 5 -5 7
-21 5 -37z m62 -120 c0 -8 -5 -12 -10 -9 -6 4 -8 11 -5 16 9 14 15 11 15 -7z
m-86 -44 c7 -41 -8 -21 -18 25 -5 19 -4 26 2 20 5 -5 12 -26 16 -45z m-68 -25
c4 -20 3 -27 -3 -20 -6 6 -14 24 -17 40 -5 20 -4 27 3 20 5 -5 13 -23 17 -40z
m114 13 c0 -5 -4 -8 -10 -8 -5 0 -10 10 -10 23 0 18 2 19 10 7 5 -8 10 -18 10
-22z m-157 -8 c3 -11 1 -20 -4 -20 -5 0 -9 9 -9 20 0 11 2 20 4 20 2 0 6 -9 9
-20z m-13 -62 c0 -7 3 -24 6 -38 4 -18 1 -16 -10 9 -19 39 -19 41 -6 41 6 0
10 -6 10 -12z m60 -73 c0 -5 -5 -3 -10 5 -5 8 -10 20 -10 25 0 6 5 3 10 -5 5
-8 10 -19 10 -25z m175 25 c3 -5 1 -10 -4 -10 -6 0 -11 5 -11 10 0 6 2 10 4
10 3 0 8 -4 11 -10z m-205 -50 c6 -11 7 -20 2 -20 -6 0 -12 9 -15 20 -3 11 -3
20 -1 20 2 0 8 -9 14 -20z m80 16 c0 -3 -4 -8 -10 -11 -5 -3 -10 -1 -10 4 0 6
5 11 10 11 6 0 10 -2 10 -4z m125 -8 c20 9 23 9 18 -3 -3 -8 -9 -12 -14 -9 -5
3 -9 -1 -9 -9 0 -15 -46 -12 -56 4 -10 17 7 31 22 18 11 -9 21 -9 39 -1z
m-145 -28 c0 -5 -2 -10 -4 -10 -3 0 -8 5 -11 10 -3 6 -1 10 4 10 6 0 11 -4 11
-10z m-10 -20 c8 -5 11 -12 7 -16 -4 -4 -15 0 -24 9 -18 18 -8 23 17 7z m120
-10 c0 -5 -4 -10 -10 -10 -5 0 -10 5 -10 10 0 6 5 10 10 10 6 0 10 -4 10 -10z
m-76 -41 c-6 -48 -14 -48 -14 0 0 23 4 40 9 37 5 -3 7 -20 5 -37z m-55 22 c11
-7 10 -11 -7 -20 -26 -14 -42 -14 -42 -1 0 6 7 10 16 10 8 0 12 5 9 10 -8 12
5 13 24 1z m161 -21 c0 -5 -5 -10 -11 -10 -7 0 -8 -11 -4 -31 7 -30 6 -30 -13
-13 -19 16 -20 18 -4 40 18 25 32 31 32 14z m-160 -45 c0 -8 -4 -15 -10 -15
-5 0 -10 7 -10 15 0 8 5 15 10 15 6 0 10 -7 10 -15z m-73 -17 c-3 -8 -6 -5 -6
6 -1 11 2 17 5 13 3 -3 4 -12 1 -19z m50 -17 c10 9 13 8 13 -5 0 -9 -4 -16 -9
-16 -19 0 -41 12 -41 23 0 8 4 7 12 -1 8 -8 15 -9 25 -1z m160 -21 c2 -23 -10
-26 -26 -6 -10 11 -8 15 6 19 10 3 18 5 18 6 1 0 1 -8 2 -19z m-86 -48 c-4 -9
-6 -23 -3 -31 3 -8 0 -11 -7 -7 -6 4 -11 1 -11 -6 0 -10 -3 -9 -10 2 -6 9 -5
17 3 22 6 4 12 19 13 35 4 47 5 49 15 25 5 -14 5 -31 0 -40z m-92 -12 c-18
-31 -25 -37 -31 -26 -5 9 -15 13 -25 9 -11 -4 -14 -3 -9 6 4 6 16 9 26 6 12
-4 23 3 34 20 26 40 30 29 5 -15z m211 -31 c0 -5 -4 -9 -10 -9 -5 0 -10 -9
-10 -19 0 -11 -5 -23 -10 -26 -6 -4 -8 -11 -5 -16 4 -5 2 -9 -4 -9 -11 0 -18
22 -20 62 0 15 -1 31 -2 35 -5 30 3 33 31 13 17 -12 30 -26 30 -31z m-153 -69
c-1 -11 -9 -21 -19 -21 -10 -1 -24 -2 -30 -3 -27 -2 -12 29 17 35 17 4 31 7
32 8 1 0 1 -8 0 -19z m158 -20 c3 -5 1 -10 -4 -10 -6 0 -11 5 -11 10 0 6 2 10
4 10 3 0 8 -4 11 -10z m-5 -50 c0 -5 -4 -10 -10 -10 -5 0 -10 5 -10 10 0 6 5
10 10 10 6 0 10 -4 10 -10z m-225 -50 c3 -5 2 -10 -4 -10 -5 0 -13 5 -16 10
-3 6 -2 10 4 10 5 0 13 -4 16 -10z m189 1 c3 -5 -5 -11 -19 -13 -28 -6 -35 8
-7 15 9 3 18 5 19 6 1 0 4 -3 7 -8z m36 -1 c0 -5 -2 -10 -4 -10 -3 0 -8 5 -11
10 -3 6 -1 10 4 10 6 0 11 -4 11 -10z m-155 -17 c-4 -10 -7 -25 -7 -33 0 -8
-6 -29 -14 -47 -16 -35 -10 -55 36 -132 12 -18 19 -38 17 -45 -2 -6 -15 12
-30 39 -14 28 -35 60 -46 72 -12 12 -21 27 -21 34 0 6 -13 31 -30 56 -34 50
-40 78 -10 43 11 -13 20 -27 20 -31 0 -4 7 -15 16 -24 15 -15 17 -15 29 2 7
10 16 33 20 51 3 17 11 32 17 32 6 0 7 -7 3 -17z m115 -40 c0 -20 -3 -24 -11
-16 -7 7 -9 19 -6 27 10 24 17 19 17 -11z m-23 -33 c3 -10 2 -11 -4 -4 -4 6
-15 14 -23 17 -11 5 -9 6 4 4 11 -1 21 -9 23 -17z m-13 -35 c3 -8 1 -15 -4
-15 -6 0 -10 7 -10 15 0 8 2 15 4 15 2 0 6 -7 10 -15z m71 -24 c6 -21 5 -22
-8 -10 -8 8 -13 17 -10 22 2 4 -1 7 -7 7 -6 0 -8 5 -4 11 8 13 19 2 29 -30z
m-99 -31 c2 -34 -6 -38 -28 -12 -12 12 -13 23 -7 41 12 31 33 14 35 -29z m61
-96 c-3 -3 -12 -4 -19 -1 -8 3 -5 6 6 6 11 1 17 -2 13 -5z m-216 -66 c24 -27
30 -30 38 -18 6 8 12 12 15 9 12 -11 -12 -26 -51 -32 l-43 -5 0 39 c0 21 3 39
7 39 3 0 19 -15 34 -32z m48 18 c9 -11 7 -15 -9 -19 -11 -3 -20 -4 -20 -2 0 2
-3 10 -6 19 -8 20 19 22 35 2z m126 -57 c4 -16 11 -29 16 -29 5 0 9 -5 9 -11
0 -6 -7 -9 -16 -7 -11 2 -21 21 -29 50 -10 39 -9 46 1 37 7 -6 16 -24 19 -40z
m-105 -49 c13 -24 8 -25 -30 -5 -36 19 -38 25 -5 25 14 0 29 -8 35 -20z m25
-60 c3 -5 -1 -10 -9 -10 -8 0 -18 5 -21 10 -3 6 1 10 9 10 8 0 18 -4 21 -10z
m-36 -55 c-27 -28 -52 -33 -42 -9 3 9 0 20 -8 25 -9 6 0 9 30 9 l43 0 -23 -25z
m91 -75 c0 -4 -18 -11 -40 -15 -22 -4 -42 -11 -46 -16 -7 -12 -24 -12 -24 1 0
6 7 10 15 10 8 0 15 5 15 10 0 6 11 10 24 10 14 0 28 5 31 10 7 11 25 4 25
-10z m3 -47 c-16 -6 -17 -33 -2 -33 5 0 7 5 3 11 -4 7 -1 10 7 7 8 -3 14 -10
14 -17 0 -16 -73 -42 -81 -30 -3 5 0 9 7 9 8 0 7 5 -2 17 -12 15 -12 16 4 10
11 -4 17 -2 17 7 0 14 15 24 35 24 6 0 4 -2 -2 -5z m92 1 c13 -5 14 -8 3 -15
-18 -12 -30 -11 -22 2 4 7 -1 7 -16 -1 -25 -13 -42 -4 -20 10 18 11 32 12 55
4z m-131 -130 c3 -8 2 -12 -4 -9 -6 3 -10 10 -10 16 0 14 7 11 14 -7z m141
-24 c-3 -5 -16 -10 -28 -9 -21 0 -21 1 -2 9 28 12 37 12 30 0z m-20 -30 c3 -6
-1 -7 -9 -4 -18 7 -21 14 -7 14 6 0 13 -4 16 -10z m-211 -25 c-4 -9 0 -15 9
-15 16 0 33 -18 25 -26 -4 -3 -63 21 -77 32 -8 7 12 24 29 24 13 0 17 -5 14
-15z m163 1 c-13 -10 -15 -15 -5 -19 7 -2 10 -7 7 -11 -3 -4 -18 -2 -33 4 -23
8 -25 12 -14 25 7 8 24 14 38 14 23 0 24 -1 7 -13z m83 -10 c0 -2 -7 -9 -15
-16 -13 -11 -14 -10 -9 4 5 14 24 23 24 12z m-160 -16 c-8 -5 -22 -10 -30 -10
-13 0 -13 1 0 10 8 5 22 10 30 10 13 0 13 -1 0 -10z m44 -50 c14 -14 -1 -13
-47 3 -20 8 -35 16 -31 19 7 8 64 -8 78 -22z m-64 -190 c13 -8 13 -10 -2 -10
-9 0 -20 5 -23 10 -8 13 5 13 25 0z m107 -256 c-3 -3 -12 -4 -19 -1 -8 3 -5 6
6 6 11 1 17 -2 13 -5z m26 -21 c-7 -2 -21 -2 -30 0 -10 3 -4 5 12 5 17 0 24
-2 18 -5z"/>
<path d="M3755 6674 c-65 -25 -75 -27 -75 -15 0 16 -62 13 -88 -5 -19 -13 -22
-24 -22 -91 0 -65 -10 -109 -65 -292 -35 -119 -82 -283 -104 -366 -23 -82 -50
-182 -61 -222 -35 -124 -23 -161 47 -150 20 4 40 10 45 15 11 11 32 94 53 207
19 105 70 314 79 323 10 9 66 -49 87 -90 32 -63 42 -174 28 -312 -7 -67 -12
-137 -13 -156 -1 -35 0 -35 40 -34 23 0 51 8 66 19 l25 19 -1 196 c-1 163 -5
203 -20 245 -25 67 -66 118 -115 140 -23 10 -41 21 -41 25 0 4 27 17 60 29 95
35 197 127 245 221 23 46 32 179 15 220 -7 17 -28 44 -47 60 -38 34 -75 38
-138 14z m92 -71 c11 -27 -13 -137 -42 -194 -14 -30 -47 -76 -73 -103 -50 -51
-120 -101 -130 -92 -7 7 60 213 92 281 40 87 135 154 153 108z"/>
<path d="M7024 6657 c-105 -50 -194 -217 -194 -364 0 -49 24 -89 104 -173 92
-97 106 -127 106 -229 0 -108 -15 -170 -51 -214 -47 -57 -92 -49 -129 23 -8
14 -16 77 -19 145 -6 115 -7 120 -29 123 -42 6 -91 -17 -99 -46 -9 -37 23
-184 53 -249 34 -72 69 -95 143 -95 73 0 110 19 156 79 51 67 79 166 80 283 0
134 -23 177 -159 299 l-38 35 4 75 c6 89 56 220 96 252 71 56 126 -15 115
-149 -6 -78 0 -87 52 -78 39 8 45 21 46 99 1 69 -24 158 -51 182 -34 30 -124
31 -186 2z"/>
<path d="M5400 6530 c-11 -11 -20 -26 -20 -34 0 -8 -7 -16 -15 -20 -21 -8 -19
-59 3 -79 21 -19 64 -22 92 -7 23 13 41 72 33 112 -10 48 -58 63 -93 28z"/>
<path d="M2972 6517 c-24 -29 -17 -51 20 -72 30 -16 40 -17 50 -7 9 9 8 12
-10 12 -16 0 -23 8 -28 35 -7 40 -17 50 -32 32z"/>
<path d="M9166 6338 c-9 -12 -16 -42 -16 -66 0 -23 -27 -162 -61 -307 -33
-146 -59 -277 -57 -292 3 -24 9 -29 43 -34 22 -4 47 -3 55 1 11 6 22 50 38
149 26 163 70 319 116 410 47 94 106 130 106 65 0 -13 -11 -81 -25 -151 -63
-327 -70 -423 -35 -480 17 -29 25 -33 63 -33 30 0 49 6 60 18 22 24 22 58 1
66 -15 6 -16 19 -11 104 4 53 18 160 32 237 14 77 25 168 25 201 0 52 -4 65
-26 87 -34 35 -96 45 -132 21 -15 -10 -34 -24 -42 -33 -13 -13 -15 -12 -18 8
-2 15 -15 28 -37 37 -47 19 -61 18 -79 -8z"/>
<path d="M9759 6346 c-109 -39 -186 -150 -230 -333 -27 -113 -29 -250 -4 -311
38 -92 123 -119 214 -67 23 14 45 25 46 25 2 0 5 -10 7 -22 2 -19 10 -24 40
-26 47 -4 108 24 108 49 0 10 -10 25 -21 33 -20 14 -21 21 -15 81 13 130 60
290 124 429 l36 78 -32 29 c-33 30 -77 38 -84 17 -3 -8 -13 -5 -33 10 -32 25
-98 29 -156 8z m129 -48 c17 -17 15 -47 -8 -120 -11 -34 -43 -136 -70 -226
-73 -239 -118 -318 -159 -277 -27 27 -22 240 7 335 63 199 176 342 230 288z"/>
<path d="M7830 6331 c-5 -11 -10 -40 -10 -65 0 -25 -27 -162 -60 -306 -33
-144 -60 -274 -60 -289 0 -31 18 -41 77 -41 37 0 35 -6 58 145 43 279 137 515
205 515 27 0 26 -18 -15 -238 -36 -188 -53 -349 -42 -393 4 -14 16 -35 28 -48
18 -20 28 -22 62 -17 52 9 67 21 67 57 0 20 -5 29 -17 29 -14 0 -15 11 -10 98
4 53 18 162 32 242 14 80 25 171 25 203 0 51 -4 62 -29 88 -42 42 -106 41
-156 -2 -32 -28 -35 -29 -35 -11 0 46 -98 73 -120 33z"/>
<path d="M5185 6329 c-11 -6 -39 -32 -63 -57 -29 -32 -41 -40 -37 -26 9 33 -3
50 -46 69 -34 16 -42 16 -53 4 -21 -21 -156 -630 -156 -700 0 -35 27 -51 78
-47 l37 3 26 155 c15 85 32 175 38 200 19 75 62 172 99 223 31 43 38 48 61 41
28 -7 71 -7 79 1 9 8 2 106 -8 125 -12 22 -26 24 -55 9z"/>
<path d="M5674 6329 c-52 -15 -127 -72 -162 -123 -52 -78 -76 -172 -76 -301 0
-94 3 -116 22 -152 12 -24 34 -51 49 -60 28 -19 88 -23 140 -10 l31 8 -15 -60
c-11 -43 -20 -61 -32 -61 -27 0 -103 -33 -175 -75 -88 -51 -159 -122 -181
-180 -16 -40 -16 -49 -4 -81 22 -59 58 -78 148 -82 63 -3 87 0 128 18 94 40
155 128 192 276 11 43 62 247 112 453 l92 374 -27 24 c-35 30 -75 40 -86 22
-7 -11 -12 -10 -28 4 -20 19 -76 21 -128 6z m98 -56 c33 -30 20 -148 -39 -328
-44 -136 -94 -215 -135 -215 -25 0 -35 25 -42 105 -8 92 21 232 68 329 39 79
52 97 81 114 28 16 45 15 67 -5z m-145 -777 c-3 -8 -11 -34 -17 -58 -16 -58
-86 -189 -113 -209 -58 -43 -100 -27 -100 37 0 72 55 142 166 211 57 36 72 40
64 19z"/>
<path d="M7431 6318 c-101 -50 -177 -173 -212 -342 -45 -217 -4 -365 105 -383
40 -6 116 17 137 43 11 13 14 11 26 -17 13 -30 15 -31 56 -25 49 8 87 30 87
51 0 8 -9 24 -20 35 -17 17 -20 29 -15 73 16 133 65 301 125 428 16 35 30 72
30 82 0 35 -102 76 -112 45 -3 -8 -12 -5 -28 10 -33 30 -118 30 -179 0z m154
-83 c-1 -60 -110 -417 -158 -515 -27 -54 -36 -65 -57 -65 -41 0 -52 36 -46
150 8 166 74 350 160 443 33 35 45 42 70 40 30 -3 31 -4 31 -53z"/>
<path d="M8735 6321 c-133 -60 -226 -263 -229 -496 -1 -117 13 -164 63 -209
43 -39 135 -29 193 22 19 16 17 18 33 -34 4 -13 13 -14 48 -9 23 4 52 13 65
21 25 16 30 52 8 60 -24 9 -26 29 -10 131 16 109 48 213 105 347 22 49 39 97
39 107 0 10 -12 27 -26 38 -29 23 -84 29 -84 9 0 -6 -10 -2 -23 10 -30 29
-123 30 -182 3z m153 -73 c5 -60 -147 -536 -186 -580 -25 -30 -51 -22 -69 20
-12 29 -14 57 -9 127 11 161 73 330 158 429 34 40 45 47 72 44 28 -3 31 -7 34
-40z"/>
<path d="M6215 6322 c-58 -10 -94 -24 -123 -48 -37 -31 -72 -84 -72 -109 0 -9
-9 -30 -21 -46 -59 -84 -105 -284 -90 -393 11 -74 21 -97 57 -125 91 -72 230
-5 303 146 66 135 108 375 82 470 -21 77 -72 116 -136 105z m23 -141 c3 -99
-18 -222 -59 -333 -46 -126 -99 -218 -125 -218 -20 0 -36 67 -36 149 0 62 8
98 42 200 53 156 70 196 109 249 49 67 65 56 69 -47z"/>
<path d="M4104 6286 c-50 -23 -114 -88 -114 -115 0 -8 -11 -33 -24 -56 -121
-205 -130 -485 -19 -543 34 -18 109 -14 152 8 109 55 205 264 218 476 8 128
-1 176 -41 219 -28 30 -40 35 -77 35 -25 0 -66 -10 -95 -24z m94 -117 c6 -146
-40 -335 -116 -474 -63 -115 -102 -93 -102 58 0 83 15 144 75 301 44 117 104
211 129 203 7 -2 12 -36 14 -88z"/>
<path d="M5322 6258 c-19 -23 -100 -369 -128 -545 -21 -133 -17 -143 56 -143
51 0 63 11 53 50 -3 12 2 56 11 98 9 43 37 168 61 280 25 112 45 212 45 222 0
10 -14 24 -34 34 -41 19 -50 20 -64 4z"/>
<path d="M60 6009 c0 -5 5 -7 10 -4 6 3 10 8 10 11 0 2 -4 4 -10 4 -5 0 -10
-5 -10 -11z"/>
<path d="M308 5813 c6 -2 18 -2 25 0 6 3 1 5 -13 5 -14 0 -19 -2 -12 -5z"/>
<path d="M245 5600 c-3 -6 1 -7 9 -4 18 7 21 14 7 14 -6 0 -13 -4 -16 -10z"/>
<path d="M714 5552 c-5 -4 -20 -24 -32 -46 -18 -30 -20 -41 -11 -53 9 -10 9
-17 1 -25 -7 -7 -12 -25 -12 -40 0 -19 -5 -28 -16 -28 -8 0 -12 -4 -9 -10 3
-5 -5 -25 -18 -42 -13 -18 -27 -46 -31 -63 -5 -24 -4 -26 4 -12 6 9 17 17 24
17 8 0 16 7 20 15 3 8 11 15 18 14 10 0 10 -2 1 -6 -18 -7 -16 -23 3 -23 11 0
14 -6 9 -20 -8 -24 22 -41 35 -20 5 7 19 14 32 15 15 1 22 7 20 18 -2 12 2 15
14 10 13 -5 16 -3 11 10 -5 13 -1 17 16 16 12 0 33 2 47 6 19 5 22 4 10 -4
-13 -9 -13 -11 3 -11 16 0 21 10 18 39 -2 8 2 10 10 5 8 -5 11 -2 6 8 -4 13 0
15 22 12 28 -5 28 -5 29 54 0 32 2 63 3 68 5 25 -6 32 -66 37 -68 6 -96 17
-130 48 -11 10 -25 15 -31 11z m-27 -164 c-3 -8 -6 -5 -6 6 -1 11 2 17 5 13 3
-3 4 -12 1 -19z m-10 -44 c-3 -3 -12 -4 -19 -1 -8 3 -5 6 6 6 11 1 17 -2 13
-5z"/>
<path d="M170 5490 c-13 -8 -12 -10 3 -10 9 0 17 5 17 10 0 12 -1 12 -20 0z"/>
<path d="M4550 5400 c-30 -4 -208 -11 -395 -14 -551 -10 -630 -18 -699 -71
-41 -31 -83 -90 -97 -136 -7 -19 -11 -101 -10 -189 2 -233 22 -1111 28 -1224
3 -69 2 -101 -7 -106 -11 -7 -39 -107 -40 -143 0 -9 11 -22 25 -29 13 -6 22
-15 19 -19 -2 -4 0 -39 6 -76 24 -145 12 -278 -23 -256 -5 3 -28 7 -50 9 -26
2 -50 13 -66 28 -23 21 -57 38 -86 41 -5 1 -32 11 -58 24 -68 32 -131 17 -109
-26 10 -21 -4 -87 -17 -78 -10 5 -25 -25 -16 -33 3 -3 5 0 5 6 0 7 5 12 10 12
6 0 10 -18 10 -40 0 -22 5 -40 10 -40 6 0 10 -4 10 -10 0 -5 -6 -7 -14 -4 -19
7 -54 -52 -48 -82 2 -13 11 -24 19 -24 10 0 14 7 10 20 -3 11 -1 20 4 20 4 0
6 7 3 15 -4 8 -1 15 5 15 13 0 6 -93 -11 -148 -8 -27 -14 -32 -36 -30 -23 3
-27 -1 -27 -26 0 -16 -6 -31 -13 -34 -7 -2 -12 -8 -12 -13 0 -10 28 -8 47 4
18 12 22 -3 21 -98 0 -119 0 -115 17 -109 11 4 15 -1 15 -17 0 -48 20 -99 39
-99 27 0 33 -11 14 -25 -15 -11 -15 -15 -4 -29 10 -12 11 -20 3 -28 -8 -8 -8
-17 -1 -30 5 -10 9 -28 8 -41 -4 -49 0 -72 13 -59 8 8 8 15 -1 26 -10 12 -9
14 8 9 12 -3 21 -12 21 -19 0 -8 9 -14 20 -14 11 0 20 7 20 15 0 8 -5 15 -11
15 -5 0 -7 4 -4 10 11 18 33 -13 25 -35 -12 -32 -11 -107 1 -100 5 4 9 15 7
25 -3 20 28 60 49 60 7 0 13 9 13 19 0 12 8 21 23 24 12 2 7 3 -10 1 -18 -1
-33 1 -33 5 0 13 26 32 33 24 4 -3 13 0 22 7 11 9 12 16 5 25 -8 9 -7 15 2 18
7 3 0 6 -17 6 l-30 1 29 23 c20 16 25 26 18 31 -8 5 -9 13 -2 25 11 21 4 31
-22 31 -26 0 -22 18 5 22 17 2 21 8 19 28 -2 14 -8 29 -13 34 -15 16 -10 36 8
36 14 0 14 2 -2 20 -17 19 -17 21 -1 39 15 16 15 19 1 24 -12 5 -14 18 -10 64
3 32 7 87 8 123 2 36 7 75 10 86 5 15 0 34 -14 58 l-21 36 21 0 c24 0 36 -20
47 -75 6 -37 6 -39 -9 -26 -15 12 -17 10 -17 -20 0 -19 5 -54 11 -79 6 -25 21
-101 34 -170 65 -335 90 -440 107 -440 6 0 8 -11 5 -29 -3 -15 -2 -32 2 -37 5
-5 11 -81 14 -169 6 -186 21 -244 78 -308 20 -24 63 -56 95 -72 57 -29 64 -30
229 -34 94 -1 427 -4 740 -5 l570 -1 50 23 c54 25 105 69 136 118 18 29 22 31
67 26 41 -3 52 0 79 22 55 47 44 83 -31 102 -37 9 -50 39 -48 108 2 44 -2 64
-15 78 -13 15 -19 46 -24 136 -3 64 -5 119 -3 121 2 2 24 -5 50 -16 81 -35
154 -12 154 48 0 23 -5 30 -27 35 -16 3 -52 17 -80 30 -85 38 -97 39 -117 8
-15 -21 -16 -31 -7 -51 10 -21 9 -23 -8 -13 -11 5 -33 24 -50 41 -30 29 -36
51 -31 109 3 32 57 140 73 144 7 2 33 9 58 16 38 10 53 21 85 63 21 29 50 64
64 78 14 14 31 48 39 75 8 27 37 99 66 159 64 134 64 136 53 158 -12 24 -26
21 -27 -5 -2 -47 -7 -83 -15 -100 -7 -15 -10 -15 -39 3 -45 27 -50 24 -44 -18
3 -21 0 -55 -7 -76 -8 -20 -10 -40 -5 -43 16 -9 4 -58 -24 -102 -15 -23 -31
-42 -36 -42 -5 0 -14 13 -21 29 -9 22 -20 31 -48 36 -20 4 -41 10 -47 15 -5 4
-25 10 -44 12 l-33 5 6 -44 c6 -46 5 -48 -24 -33 -32 17 -60 75 -66 137 -8 72
6 119 46 161 15 16 49 61 75 98 25 38 61 88 80 111 34 43 65 145 65 212 0 29
9 42 54 79 31 25 18 40 -64 76 -68 30 -110 40 -110 26 0 -14 -54 -2 -67 15
-25 35 -26 118 -3 206 12 47 19 97 16 114 -3 16 -8 108 -11 203 -3 97 -10 182
-16 194 -6 11 -8 39 -5 62 7 53 7 257 0 268 -3 5 -8 62 -10 126 -11 317 -17
349 -84 426 -68 76 -146 96 -385 94 -93 0 -195 -4 -225 -8z m460 -20 c0 -5 -2
-10 -4 -10 -3 0 -8 5 -11 10 -3 6 -1 10 4 10 6 0 11 -4 11 -10z m71 -30 c31
-25 19 -25 -28 0 -29 15 -33 20 -16 20 11 0 31 -9 44 -20z m-391 -129 c0 -5
-6 -14 -14 -20 -12 -10 -13 -8 -9 8 5 21 23 30 23 12z m-846 -45 c-8 -20 -34
-21 -34 -1 0 8 5 15 10 15 6 0 9 3 9 8 -3 20 3 25 11 10 6 -9 7 -23 4 -32z
m1260 -48 c2 -18 10 -197 16 -398 10 -328 43 -1292 70 -2050 5 -157 13 -409
16 -561 l7 -276 -32 -6 c-17 -4 -382 -7 -811 -7 -734 0 -780 1 -788 17 -5 10
-12 122 -16 248 -20 744 -28 1003 -36 1195 -4 118 -9 301 -9 405 -1 105 -6
291 -11 415 -19 465 -32 971 -26 978 4 3 98 10 209 15 111 4 441 19 732 31
292 13 562 24 602 25 l72 1 5 -32z m-2097 -2045 c-3 -10 -5 -4 -5 12 0 17 2
24 5 18 2 -7 2 -21 0 -30z m-52 -294 c10 -15 -1 -23 -20 -15 -9 3 -13 10 -10
16 8 13 22 13 30 -1z m252 -91 c-3 -7 -5 -2 -5 12 0 14 2 19 5 13 2 -7 2 -19
0 -25z m-6 -221 c-10 -9 -11 -8 -5 6 3 10 9 15 12 12 3 -3 0 -11 -7 -18z m-14
-152 c-4 -8 -12 -15 -19 -14 -10 0 -10 2 0 6 6 2 12 12 12 21 0 8 3 13 6 9 4
-3 4 -13 1 -22z m-127 -9 c0 -3 -4 -8 -10 -11 -5 -3 -10 -1 -10 4 0 6 5 11 10
11 6 0 10 -2 10 -4z m590 -676 c8 -5 11 -10 5 -10 -5 0 -17 5 -25 10 -8 5 -10
10 -5 10 6 0 17 -5 25 -10z m944 -17 c-5 -5 -160 -6 -344 -3 l-335 6 344 2
c190 1 341 -1 335 -5z m73 1 c-3 -3 -12 -4 -19 -1 -8 3 -5 6 6 6 11 1 17 -2
13 -5z"/>
<path d="M4670 4975 c0 -8 7 -15 15 -15 8 0 15 7 15 15 0 8 -7 15 -15 15 -8 0
-15 -7 -15 -15z"/>
<path d="M3946 4915 c8 -37 14 -45 14 -19 0 10 -5 26 -10 34 -8 11 -9 7 -4
-15z"/>
<path d="M4737 4933 c-4 -3 -7 -15 -7 -25 0 -13 -7 -18 -25 -18 -20 0 -25 -5
-25 -24 0 -27 16 -44 22 -24 3 7 24 18 49 24 37 10 39 12 15 13 -26 1 -28 3
-22 31 6 31 4 35 -7 23z"/>
<path d="M5052 4832 l3 -94 -57 -1 c-32 -1 -58 1 -58 6 0 4 -13 1 -30 -8 -43
-22 -121 -20 -154 6 -17 13 -26 16 -24 7 2 -9 -15 -14 -67 -18 -65 -5 -68 -6
-42 -17 32 -15 115 -17 135 -4 8 5 32 2 57 -8 37 -13 50 -14 87 -3 50 15 52
15 96 8 19 -2 45 0 59 5 24 9 25 11 21 99 -2 57 -8 94 -16 102 -12 11 -13 -2
-10 -80z"/>
<path d="M4080 4872 c0 -24 6 -45 16 -53 14 -11 15 -8 12 36 -6 60 -28 74 -28
17z"/>
<path d="M3720 4880 c-23 -23 -25 -39 -7 -65 13 -17 14 -16 20 12 4 21 15 34
37 43 23 9 28 15 18 21 -22 14 -47 10 -68 -11z"/>
<path d="M4870 4891 c0 -4 11 -6 25 -3 14 2 25 6 25 8 0 2 -11 4 -25 4 -14 0
-25 -4 -25 -9z"/>
<path d="M4528 4858 c-2 -19 -11 -24 -48 -28 -65 -7 -82 -20 -83 -66 l-2 -39
-99 -5 c-67 -3 -101 -9 -104 -17 -3 -10 23 -13 107 -13 97 0 111 2 120 18 6
10 8 27 6 38 -8 31 18 52 71 60 27 3 50 7 51 8 2 1 6 17 9 34 5 25 3 32 -9 32
-9 0 -17 -10 -19 -22z"/>
<path d="M3846 4861 c-32 -12 -3 -22 58 -20 70 3 76 24 9 26 -27 1 -57 -2 -67
-6z"/>
<path d="M4896 4821 c-33 -7 -48 -31 -19 -31 18 1 60 27 52 33 -2 2 -17 1 -33
-2z"/>
<path d="M3946 4777 c-10 -41 -53 -74 -112 -88 -49 -11 -137 -9 -179 5 -11 3
-2 -2 20 -13 55 -26 96 -31 168 -20 49 8 69 17 95 43 30 30 33 36 24 67 l-8
34 -8 -28z"/>
<path d="M4136 4718 c-11 -6 -43 -11 -72 -12 -58 0 -59 -7 -5 -25 37 -12 104
0 117 21 5 7 2 9 -9 5 -11 -4 -14 -2 -10 9 6 17 4 17 -21 2z"/>
<path d="M4107 4579 c-67 -35 -100 -117 -78 -190 9 -31 44 -72 147 -174 74
-74 142 -135 152 -135 23 0 278 256 292 293 14 40 13 103 -4 135 -49 95 -163
118 -254 52 l-40 -29 -19 21 c-43 49 -131 61 -196 27z m143 -46 c14 -9 29 -23
33 -30 4 -7 16 -17 27 -23 15 -8 27 -3 65 30 40 35 53 40 95 40 42 0 52 -4 78
-34 40 -45 48 -85 27 -127 -10 -18 -69 -84 -132 -147 l-114 -115 -126 125
c-117 117 -125 128 -130 170 -4 37 -1 52 18 78 13 18 33 36 44 40 34 14 89 11
115 -7z"/>
<path d="M4430 3826 c0 -16 6 -26 14 -26 9 0 12 7 9 20 -8 31 -23 34 -23 6z"/>
<path d="M3973 3780 c2 -23 -2 -25 -43 -29 l-45 -3 44 -14 c40 -12 46 -11 57
4 17 22 17 24 -1 48 -14 18 -15 18 -12 -6z"/>
<path d="M4745 3770 c-3 -5 -1 -10 4 -10 6 0 11 5 11 10 0 6 -2 10 -4 10 -3 0
-8 -4 -11 -10z"/>
<path d="M3760 3760 c0 -5 19 -10 43 -10 31 0 38 3 27 10 -20 13 -70 13 -70 0z"/>
<path d="M4583 3740 c6 -16 13 -28 15 -26 6 6 -10 56 -18 56 -5 0 -3 -13 3
-30z"/>
<path d="M4303 3700 c0 -36 2 -50 4 -32 2 17 2 47 0 65 -2 17 -4 3 -4 -33z"/>
<path d="M4432 3670 l3 -95 -48 -3 c-64 -4 -57 -25 11 -29 42 -3 53 -1 61 15
6 11 8 21 6 24 -3 2 -5 34 -6 70 -1 35 -8 76 -16 89 -12 22 -13 15 -11 -71z"/>
<path d="M5070 3750 c0 -8 4 -29 9 -47 7 -24 6 -31 -3 -27 -9 3 -11 -4 -8 -24
3 -25 -2 -33 -35 -53 -33 -21 -50 -24 -134 -24 -90 0 -94 -1 -65 -14 17 -7 63
-14 102 -14 57 0 80 5 114 24 43 23 44 25 47 80 2 36 -2 67 -12 85 -8 16 -15
22 -15 14z"/>
<path d="M4883 3743 c9 -2 25 -2 35 0 9 3 1 5 -18 5 -19 0 -27 -2 -17 -5z"/>
<path d="M4140 3730 l-25 -8 28 -1 c15 -1 27 4 27 9 0 6 -1 10 -2 9 -2 -1 -14
-5 -28 -9z"/>
<path d="M4700 3658 l-35 -83 -52 -3 c-73 -4 -67 -22 6 -22 54 0 62 3 79 28
30 43 44 87 40 127 -3 36 -4 35 -38 -47z"/>
<path d="M3665 3659 c4 -5 26 -9 51 -9 24 0 44 -4 44 -9 0 -14 35 -23 64 -15
40 10 22 22 -42 29 -31 3 -72 7 -90 10 -19 2 -30 0 -27 -6z"/>
<path d="M4870 3660 c0 -14 30 -20 55 -10 35 13 31 17 -15 17 -22 0 -40 -3
-40 -7z"/>
<path d="M4973 3663 c9 -2 23 -2 30 0 6 3 -1 5 -18 5 -16 0 -22 -2 -12 -5z"/>
<path d="M4128 3653 c-21 -5 -24 -19 -5 -26 19 -6 45 3 51 19 5 14 -10 17 -46
7z"/>
<path d="M4311 3589 c-1 -13 -14 -18 -58 -21 -32 -3 -59 -1 -61 3 -2 5 -17 2
-34 -7 -17 -9 -54 -16 -82 -16 l-51 0 40 -14 c31 -12 49 -12 85 -4 25 7 73 11
107 10 67 -1 78 6 64 42 -6 15 -10 17 -10 7z"/>
<path d="M3946 3561 c-37 -24 -47 -26 -152 -26 -94 0 -109 -2 -91 -12 27 -15
188 -17 238 -3 46 13 75 43 57 57 -9 8 -24 3 -52 -16z"/>
<path d="M4110 3155 c0 -230 3 -295 13 -295 6 0 40 25 75 55 35 30 78 66 97
81 l34 26 77 -64 c125 -103 134 -110 134 -101 0 4 2 140 3 301 l2 292 -217 0
-218 0 0 -295z m390 19 l0 -225 -86 71 -86 70 -61 -52 c-34 -28 -72 -61 -84
-72 l-23 -19 0 226 0 227 170 0 170 0 0 -226z"/>
<path d="M4725 2701 c3 -5 1 -12 -5 -16 -5 -3 -10 -11 -10 -16 0 -6 5 -7 12
-3 8 5 9 -5 5 -37 -5 -35 -4 -40 5 -24 6 11 13 39 16 62 3 35 1 43 -13 43 -9
0 -14 -4 -10 -9z"/>
<path d="M3970 2653 c0 -26 -4 -31 -31 -37 -17 -3 -60 -6 -95 -6 -38 0 -64 -4
-64 -10 0 -13 183 -6 188 7 2 4 11 16 20 26 14 16 14 19 -1 34 -16 16 -17 15
-17 -14z"/>
<path d="M4660 2676 c0 -9 30 -14 35 -6 4 6 -3 10 -14 10 -12 0 -21 -2 -21 -4z"/>
<path d="M4426 2610 c8 -31 24 -50 24 -29 0 8 -7 24 -16 35 -14 18 -15 18 -8
-6z"/>
<path d="M4578 2582 c-9 -20 -24 -57 -34 -82 -21 -54 -42 -81 -63 -79 -9 1
-32 1 -50 0 -42 -1 -30 -18 14 -21 75 -5 91 -1 105 28 28 59 49 125 43 135 -3
6 -2 7 4 4 6 -4 10 6 9 23 -1 39 -7 37 -28 -8z"/>
<path d="M4875 2600 c-16 -7 -11 -9 20 -9 29 -1 36 2 25 9 -17 11 -19 11 -45
0z"/>
<path d="M5067 2573 l6 -43 -54 -2 -54 -1 48 -6 c47 -6 52 -11 44 -42 -10 -38
-157 -71 -230 -51 -45 13 -47 8 -6 -14 24 -12 53 -15 119 -12 84 3 90 5 118
34 26 27 30 38 28 80 -1 27 -7 60 -14 74 -10 22 -11 20 -5 -17z"/>
<path d="M4293 2505 l2 -90 -42 -3 c-30 -2 -43 -8 -43 -18 0 -12 11 -14 53
-12 l52 3 3 85 c2 63 -2 91 -12 105 -14 18 -15 11 -13 -70z"/>
<path d="M3966 2545 c4 -25 -2 -29 -40 -25 -39 4 -146 -12 -146 -22 0 -6 37
-9 100 -6 l100 3 0 38 c0 20 -4 37 -9 37 -5 0 -8 -11 -5 -25z"/>
<path d="M4113 2528 c-4 -7 -8 -38 -8 -68 l0 -55 -120 -2 c-228 -4 -290 -9
-290 -24 0 -12 26 -13 150 -10 146 4 232 7 267 10 14 1 17 10 14 52 -3 50 7
72 36 81 17 6 0 28 -22 28 -10 0 -22 -6 -27 -12z"/>
<path d="M4865 2510 c8 -13 45 -13 65 0 11 7 3 10 -28 10 -26 0 -41 -4 -37
-10z"/>
<path d="M4735 2476 c7 -35 -6 -46 -57 -46 -27 0 -38 -4 -38 -15 0 -11 12 -15
48 -15 26 0 52 4 59 8 14 9 11 51 -6 78 -11 17 -12 16 -6 -10z"/>
<path d="M4490 2353 c-19 -9 -62 -26 -95 -38 -33 -12 -118 -44 -188 -70 -112
-42 -128 -51 -125 -69 2 -17 23 -28 106 -55 l103 -35 30 -97 c29 -95 51 -131
68 -113 17 18 181 450 181 477 0 21 -31 21 -80 0z m-115 -143 c-43 -43 -77
-70 -90 -69 -11 0 -42 9 -70 19 -40 15 -46 20 -30 25 11 4 70 26 130 50 61 23
114 43 120 44 5 0 -22 -30 -60 -69z m58 -103 c-25 -70 -49 -127 -53 -127 -8 0
-40 89 -40 112 0 11 131 151 136 145 2 -1 -18 -60 -43 -130z"/>
<path d="M180 5259 c0 -5 5 -7 10 -4 6 3 10 8 10 11 0 2 -4 4 -10 4 -5 0 -10
-5 -10 -11z"/>
<path d="M2217 5215 c-32 -29 -61 -46 -85 -50 -78 -13 -92 -17 -92 -26 0 -5 9
-9 20 -9 10 0 23 -7 28 -16 7 -12 14 -14 28 -6 10 5 44 20 74 32 110 44 177
51 164 15 -3 -8 -1 -15 6 -15 6 0 9 -4 6 -9 -4 -5 7 -15 24 -23 16 -7 30 -16
30 -20 0 -5 7 -8 16 -8 8 0 13 -4 9 -10 -3 -6 5 -6 22 0 15 4 40 11 56 14 37
9 34 20 -10 39 -21 9 -51 24 -68 34 -132 80 -172 103 -176 103 -2 -1 -26 -21
-52 -45z"/>
<path d="M1905 5155 c-16 -14 -34 -25 -38 -25 -5 0 -23 -6 -40 -14 -18 -8 -50
-21 -72 -29 -23 -8 -97 -42 -165 -75 -69 -33 -135 -63 -146 -66 -22 -7 -64
-46 -49 -46 5 0 17 8 28 18 19 16 20 16 14 -1 -7 -20 -1 -18 48 17 29 21 49
31 124 63 30 13 33 13 28 -1 -10 -25 8 -19 55 21 23 20 86 56 138 80 52 24
103 48 114 54 14 8 21 7 27 -2 11 -18 21 -6 13 15 -9 23 -44 19 -79 -9z"/>
<path d="M317 5154 c3 -7 9 -14 14 -14 14 0 10 17 -5 23 -10 4 -13 1 -9 -9z"/>
<path d="M2000 5149 c0 -5 5 -7 10 -4 6 3 10 8 10 11 0 2 -4 4 -10 4 -5 0 -10
-5 -10 -11z"/>
<path d="M135 5130 c-3 -5 -1 -10 4 -10 6 0 11 5 11 10 0 6 -2 10 -4 10 -3 0
-8 -4 -11 -10z"/>
<path d="M2058 5113 c7 -3 16 -2 19 1 4 3 -2 6 -13 5 -11 0 -14 -3 -6 -6z"/>
<path d="M120 5069 c0 -5 5 -7 10 -4 6 3 10 8 10 11 0 2 -4 4 -10 4 -5 0 -10
-5 -10 -11z"/>
<path d="M305 5020 c3 -5 8 -10 11 -10 2 0 4 5 4 10 0 6 -5 10 -11 10 -5 0 -7
-4 -4 -10z"/>
<path d="M270 4871 c0 -5 -3 -16 -6 -25 -3 -9 -2 -16 4 -16 13 0 23 38 11 46
-5 3 -9 1 -9 -5z"/>
<path d="M255 4790 c-3 -5 -1 -10 4 -10 6 0 11 5 11 10 0 6 -2 10 -4 10 -3 0
-8 -4 -11 -10z"/>
<path d="M154 4780 c22 -4 45 -16 53 -25 7 -10 15 -16 18 -14 3 3 -4 15 -15
27 -15 16 -32 22 -58 21 l-37 -1 39 -8z"/>
<path d="M301 4738 c0 -9 -7 -21 -15 -25 -13 -7 -12 -12 3 -32 22 -29 30 -13
20 39 -3 19 -7 27 -8 18z"/>
<path d="M235 4720 c3 -5 8 -10 11 -10 2 0 4 5 4 10 0 6 -5 10 -11 10 -5 0 -7
-4 -4 -10z"/>
<path d="M3142 4013 c-6 -16 -13 -44 -16 -63 -3 -19 -10 -55 -15 -80 -6 -25
-10 -62 -11 -83 0 -21 -6 -48 -14 -60 -21 -33 -29 -67 -16 -67 6 0 8 5 5 10
-3 6 -1 10 4 10 14 0 14 -6 0 -31 -5 -11 -15 -17 -21 -13 -6 4 -8 -1 -3 -15 4
-13 1 -28 -5 -36 -7 -8 -10 -30 -8 -49 2 -21 0 -34 -7 -33 -5 1 -10 -4 -9 -10
1 -7 2 -22 3 -32 1 -18 6 -17 78 14 89 39 99 54 77 122 -19 64 -29 225 -17
293 11 58 6 150 -7 150 -4 0 -12 -12 -18 -27z"/>
<path d="M5551 3838 c0 -13 4 -32 9 -43 7 -16 9 -13 9 17 1 20 -3 40 -9 43 -6
3 -10 -4 -9 -17z"/>
<path d="M312 3577 c-12 -13 -22 -28 -22 -34 0 -6 -7 -16 -15 -23 -9 -7 -13
-15 -10 -18 7 -7 75 69 75 85 0 18 -3 17 -28 -10z"/>
<path d="M315 3520 c3 -5 8 -10 11 -10 2 0 4 5 4 10 0 6 -5 10 -11 10 -5 0 -7
-4 -4 -10z"/>
<path d="M2958 3067 c-3 -19 -2 -25 4 -19 6 6 8 18 6 28 -3 14 -5 12 -10 -9z"/>
<path d="M2908 2879 c-17 -22 -14 -54 6 -44 6 3 18 8 28 11 9 3 18 14 21 25 3
10 1 17 -3 14 -5 -3 -11 -1 -15 5 -9 15 -18 12 -37 -11z"/>
<path d="M2885 2710 c-4 -6 -3 -16 3 -22 6 -6 12 -6 17 2 4 6 3 16 -3 22 -6 6
-12 6 -17 -2z"/>
<path d="M2857 2684 c-8 -8 1 -24 14 -24 5 0 9 7 9 15 0 15 -12 20 -23 9z"/>
<path d="M2877 2643 c-9 -17 -14 -39 -11 -47 4 -11 0 -16 -14 -16 -12 0 -24
-4 -27 -10 -4 -6 7 -10 24 -10 17 0 31 -5 31 -11 0 -6 -9 -8 -20 -4 -14 5 -20
2 -20 -9 0 -19 20 -21 44 -3 15 11 16 17 7 35 -6 11 -11 32 -11 45 0 21 4 24
23 20 13 -3 17 -1 11 4 -6 4 -13 15 -16 23 -3 11 -10 5 -21 -17z"/>
<path d="M5643 2613 c-7 -3 -13 -19 -13 -36 l1 -32 15 28 c17 31 16 46 -3 40z"/>
<path d="M5587 2503 c8 -52 13 -54 13 -5 0 23 -4 42 -9 42 -6 0 -7 -17 -4 -37z"/>
<path d="M2823 2483 c-30 -21 -29 -33 3 -33 19 0 25 4 20 15 -4 10 1 15 14 15
11 0 20 5 20 10 0 15 -32 11 -57 -7z"/>
<path d="M2840 2420 c0 -5 4 -10 9 -10 6 0 13 5 16 10 3 6 -1 10 -9 10 -9 0
-16 -4 -16 -10z"/>
<path d="M2795 2407 c-6 -7 -8 -25 -4 -42 5 -22 7 -24 8 -8 0 12 6 25 11 28
12 7 14 35 3 35 -5 -1 -13 -6 -18 -13z"/>
<path d="M2720 2344 c0 -8 5 -12 10 -9 6 3 10 10 10 16 0 5 -4 9 -10 9 -5 0
-10 -7 -10 -16z"/>
<path d="M1228 2323 c7 -3 16 -2 19 1 4 3 -2 6 -13 5 -11 0 -14 -3 -6 -6z"/>
<path d="M2790 2309 c0 -5 5 -7 10 -4 6 3 10 8 10 11 0 2 -4 4 -10 4 -5 0 -10
-5 -10 -11z"/>
<path d="M2752 2289 c2 -7 10 -15 17 -17 8 -3 12 1 9 9 -2 7 -10 15 -17 17 -8
3 -12 -1 -9 -9z"/>
<path d="M3000 2280 c0 -11 5 -20 10 -20 6 0 10 9 10 20 0 11 -4 20 -10 20 -5
0 -10 -9 -10 -20z"/>
<path d="M2791 2254 c0 -11 3 -14 6 -6 3 7 2 16 -1 19 -3 4 -6 -2 -5 -13z"/>
<path d="M2815 2250 c-3 -5 -1 -10 4 -10 6 0 11 5 11 10 0 6 -2 10 -4 10 -3 0
-8 -4 -11 -10z"/>
<path d="M2744 2239 c-8 -14 11 -33 25 -25 6 4 11 11 11 16 0 13 -29 20 -36 9z"/>
<path d="M2780 2145 c0 -8 5 -15 10 -15 6 0 10 7 10 15 0 8 -4 15 -10 15 -5 0
-10 -7 -10 -15z"/>
<path d="M3075 2150 c4 -6 11 -8 16 -5 14 9 11 15 -7 15 -8 0 -12 -5 -9 -10z"/>
<path d="M3120 1989 c0 -5 5 -7 10 -4 6 3 10 8 10 11 0 2 -4 4 -10 4 -5 0 -10
-5 -10 -11z"/>
<path d="M3165 1960 c3 -5 8 -10 11 -10 2 0 4 5 4 10 0 6 -5 10 -11 10 -5 0
-7 -4 -4 -10z"/>
<path d="M2957 1788 c-6 -23 16 -68 33 -68 20 0 23 50 5 70 -23 26 -31 25 -38
-2z"/>
<path d="M3030 1745 c-10 -12 -10 -19 -2 -27 9 -9 12 -9 12 1 0 8 8 20 18 27
15 12 15 13 1 14 -9 0 -22 -7 -29 -15z"/>
<path d="M2967 1684 c-11 -11 -8 -26 3 -19 6 3 24 -3 40 -15 17 -12 30 -17 30
-11 0 6 -4 11 -10 11 -5 0 -10 7 -10 15 0 8 -4 15 -9 15 -5 0 -16 2 -23 5 -8
3 -17 2 -21 -1z"/>
<path d="M2980 1610 c0 -5 5 -10 10 -10 6 0 10 5 10 10 0 6 -4 10 -10 10 -5 0
-10 -4 -10 -10z"/>
<path d="M2961 1584 c0 -11 3 -14 6 -6 3 7 2 16 -1 19 -3 4 -6 -2 -5 -13z"/>
<path d="M315 1340 c-3 -5 1 -10 9 -10 9 0 16 5 16 10 0 6 -4 10 -9 10 -6 0
-13 -4 -16 -10z"/>
<path d="M2578 1249 c2 -17 8 -27 13 -22 9 9 1 53 -10 53 -4 0 -6 -14 -3 -31z"/>
<path d="M8 1263 c7 -3 16 -2 19 1 4 3 -2 6 -13 5 -11 0 -14 -3 -6 -6z"/>
<path d="M2870 1230 c0 -5 7 -10 15 -10 8 0 15 5 15 10 0 6 -7 10 -15 10 -8 0
-15 -4 -15 -10z"/>
<path d="M2870 1179 c0 -11 4 -18 10 -14 5 3 7 12 3 20 -7 21 -13 19 -13 -6z"/>
<path d="M2910 1181 c0 -6 5 -13 10 -16 6 -3 10 1 10 9 0 9 -4 16 -10 16 -5 0
-10 -4 -10 -9z"/>
<path d="M225 1150 c3 -5 8 -10 11 -10 2 0 4 5 4 10 0 6 -5 10 -11 10 -5 0 -7
-4 -4 -10z"/>
<path d="M2540 1100 c6 -11 13 -20 15 -20 3 0 5 9 5 20 0 11 -7 20 -15 20 -13
0 -14 -4 -5 -20z"/>
<path d="M1198 1093 c-20 -5 -24 -23 -5 -23 6 0 21 7 31 15 20 15 11 18 -26 8z"/>
<path d="M2607 1059 c4 -13 8 -18 11 -10 2 7 -1 18 -6 23 -8 8 -9 4 -5 -13z"/>
<path d="M2830 920 c0 -5 5 -10 10 -10 6 0 10 5 10 10 0 6 -4 10 -10 10 -5 0
-10 -4 -10 -10z"/>
<path d="M2562 840 c0 -14 2 -19 5 -12 2 6 2 18 0 25 -3 6 -5 1 -5 -13z"/>
<path d="M2895 810 c-3 -5 1 -10 9 -10 9 0 16 5 16 10 0 6 -4 10 -9 10 -6 0
-13 -4 -16 -10z"/>
<path d="M2496 784 c-11 -7 -16 -17 -13 -21 4 -4 15 1 24 10 22 21 14 30 -11
11z"/>
<path d="M2488 723 c6 -2 18 -2 25 0 6 3 1 5 -13 5 -14 0 -19 -2 -12 -5z"/>
<path d="M2471 654 c0 -11 3 -14 6 -6 3 7 2 16 -1 19 -3 4 -6 -2 -5 -13z"/>
<path d="M2518 548 c9 -9 15 -9 24 0 9 9 7 12 -12 12 -19 0 -21 -3 -12 -12z"/>
<path d="M2880 549 c0 -5 5 -7 10 -4 6 3 10 8 10 11 0 2 -4 4 -10 4 -5 0 -10
-5 -10 -11z"/>
<path d="M2456 543 c-12 -12 -6 -33 9 -33 8 0 15 6 15 14 0 17 -14 28 -24 19z"/>
<path d="M2900 500 c0 -19 3 -21 12 -12 9 9 9 15 0 24 -9 9 -12 7 -12 -12z"/>
<path d="M2950 495 c0 -12 4 -13 18 -6 11 6 24 6 33 0 7 -5 9 -9 3 -9 -18 0
-13 -50 6 -60 28 -15 110 16 110 42 0 19 -5 20 -51 16 -28 -3 -45 -2 -39 2 22
14 0 30 -41 30 -28 0 -39 -4 -39 -15z"/>
<path d="M3200 490 c0 -5 7 -10 16 -10 8 0 12 5 9 10 -3 6 -10 10 -16 10 -5 0
-9 -4 -9 -10z"/>
<path d="M2357 393 c-13 -12 -7 -33 8 -33 8 0 15 -7 15 -16 0 -11 -6 -15 -20
-11 -24 6 -26 -6 -4 -24 13 -10 17 -10 26 2 7 11 11 11 15 2 6 -15 33 -18 33
-3 0 5 -7 13 -17 18 -10 6 -16 22 -16 41 0 22 -5 31 -17 31 -9 0 -20 -3 -23
-7z"/>
<path d="M2400 369 c0 -5 5 -7 10 -4 6 3 10 8 10 11 0 2 -4 4 -10 4 -5 0 -10
-5 -10 -11z"/>
<path d="M2446 365 c-11 -8 -17 -17 -14 -21 7 -6 48 17 48 28 0 12 -13 9 -34
-7z"/>
<path d="M2306 313 c4 -16 13 -35 20 -44 18 -20 18 -29 -1 -29 -15 0 -21 -25
-7 -34 19 -12 82 -18 82 -7 0 6 -17 11 -40 11 -42 0 -54 14 -20 23 11 3 20 10
20 16 0 6 -9 20 -20 31 -11 11 -20 29 -20 40 0 11 -5 20 -10 20 -6 0 -8 -11
-4 -27z"/>
<path d="M3352 318 c-12 -12 -17 -38 -6 -38 10 0 34 28 34 39 0 14 -13 14 -28
-1z"/>
<path d="M2450 310 c0 -5 7 -10 15 -10 8 0 15 5 15 10 0 6 -7 10 -15 10 -8 0
-15 -4 -15 -10z"/>
<path d="M2588 298 c-5 -14 -5 -34 -2 -42 3 -9 1 -16 -5 -16 -6 0 -11 11 -11
25 0 23 -4 25 -45 25 -25 0 -45 -4 -45 -10 0 -5 19 -10 41 -10 l42 0 -6 -42
c-4 -30 -3 -36 3 -22 11 28 35 37 50 18 17 -19 27 -18 33 6 6 25 -9 36 -28 20
-11 -9 -14 -4 -17 32 -3 38 -4 40 -10 16z"/>
<path d="M2615 301 c-3 -5 -1 -12 5 -16 5 -3 10 1 10 9 0 18 -6 21 -15 7z"/>
<path d="M2640 290 c0 -6 7 -10 15 -10 8 0 15 2 15 4 0 2 -7 6 -15 10 -8 3
-15 1 -15 -4z"/>
<path d="M2387 271 c-7 -29 16 -56 40 -46 14 5 15 8 4 14 -9 6 -10 11 -2 15 6
4 21 0 35 -9 23 -16 24 -15 19 5 -8 29 -38 43 -62 30 -14 -7 -21 -6 -23 2 -3
7 -7 2 -11 -11z"/>
<path d="M240 250 c0 -5 13 -14 30 -22 l30 -13 -33 -17 c-17 -9 -44 -17 -59
-18 -34 0 -45 -16 -15 -23 12 -2 31 -8 41 -12 14 -6 17 -5 12 3 -4 7 -1 12 8
12 8 0 16 -4 18 -8 2 -5 18 -12 36 -15 l32 -6 0 47 0 48 -50 16 c-27 9 -50 12
-50 8z"/>
<path d="M2721 214 c0 -11 3 -14 6 -6 3 7 2 16 -1 19 -3 4 -6 -2 -5 -13z"/>
<path d="M2500 206 c0 -9 5 -16 10 -16 6 0 10 4 10 9 0 6 -4 13 -10 16 -5 3
-10 -1 -10 -9z"/>
<path d="M2842 213 c-39 -5 -33 -23 9 -23 19 0 29 5 29 15 0 8 -1 14 -2 13 -2
0 -18 -3 -36 -5z"/>
<path d="M2904 206 c-8 -22 -2 -27 16 -16 12 7 12 12 3 21 -10 10 -14 9 -19
-5z"/>
<path d="M28 203 c7 -3 16 -2 19 1 4 3 -2 6 -13 5 -11 0 -14 -3 -6 -6z"/>
<path d="M2764 175 c3 -9 0 -15 -9 -15 -8 0 -15 -5 -15 -11 0 -6 -8 -8 -19 -4
-24 7 -39 -13 -16 -21 13 -5 15 -14 10 -40 -6 -37 -4 -39 26 -24 13 8 25 7 39
0 16 -9 20 -8 20 5 0 8 9 15 20 15 11 0 20 5 20 10 0 6 5 10 10 10 6 0 10 -13
10 -30 0 -16 5 -30 10 -30 6 0 10 -9 10 -20 0 -18 7 -20 59 -20 39 0 61 4 64
13 3 9 7 9 19 0 17 -15 155 -16 164 -2 3 5 20 15 38 23 43 18 54 54 20 66 -13
5 -24 14 -24 20 0 5 -5 10 -11 10 -6 0 -9 -11 -7 -24 4 -33 -30 -70 -49 -54
-11 9 -17 9 -24 -3 -7 -10 -8 -6 -3 14 9 41 -3 77 -26 77 -11 0 -20 -4 -20
-10 0 -5 9 -10 20 -10 30 0 24 -14 -12 -26 -54 -18 -63 -21 -55 -17 4 3 7 9 7
15 0 6 -11 3 -25 -6 -32 -21 -33 -21 -27 10 5 30 -28 67 -58 62 -18 -3 -18 -4
0 -42 16 -36 16 -42 3 -63 -17 -26 -33 -22 -33 8 0 11 7 19 16 19 11 0 14 5
10 16 -3 9 -6 17 -6 20 0 12 -30 -11 -31 -25 -1 -9 -5 3 -11 26 -7 35 -14 44
-36 49 -15 3 -37 10 -50 15 -31 12 -35 12 -28 -6z m76 -31 c0 -9 -5 -14 -12
-12 -18 6 -21 28 -4 28 9 0 16 -7 16 -16z m-40 -29 c0 -8 -4 -15 -10 -15 -5 0
-7 7 -4 15 4 8 8 15 10 15 2 0 4 -7 4 -15z m-32 -18 c2 -12 -3 -17 -17 -17
-23 0 -24 1 -15 25 8 19 28 15 32 -8z"/>
<path d="M115 170 c4 -6 11 -8 16 -5 14 9 11 15 -7 15 -8 0 -12 -5 -9 -10z"/>
<path d="M2877 173 c-2 -4 -1 -17 3 -28 7 -19 8 -19 15 -2 8 18 -9 46 -18 30z"/>
<path d="M2356 145 c-3 -8 -12 -15 -21 -15 -8 0 -15 -4 -15 -10 0 -5 18 -1 40
9 52 23 59 31 28 31 -14 0 -28 -7 -32 -15z"/>
<path d="M2580 145 c0 -8 9 -15 20 -15 11 0 20 7 20 15 0 8 -9 15 -20 15 -11
0 -20 -7 -20 -15z"/>
<path d="M2646 145 c4 -8 10 -15 15 -15 5 0 9 7 9 15 0 8 -7 15 -15 15 -9 0
-12 -6 -9 -15z"/>
<path d="M3140 150 c0 -5 5 -10 10 -10 6 0 10 5 10 10 0 6 -4 10 -10 10 -5 0
-10 -4 -10 -10z"/>
<path d="M170 119 c12 -22 41 -22 48 0 3 9 -2 11 -17 6 -12 -4 -21 -2 -21 4 0
6 -5 11 -10 11 -7 0 -7 -7 0 -21z"/>
<path d="M2385 90 c-3 -5 -1 -10 4 -10 6 0 11 5 11 10 0 6 -2 10 -4 10 -3 0
-8 -4 -11 -10z"/>
<path d="M2639 87 c-15 -11 -14 -14 7 -24 26 -12 37 -4 28 21 -7 19 -14 20
-35 3z"/>
<path d="M3160 90 c0 -5 5 -10 10 -10 6 0 10 5 10 10 0 6 -4 10 -10 10 -5 0
-10 -4 -10 -10z"/>
<path d="M2538 59 c-10 -10 -18 -22 -18 -25 0 -12 30 -34 47 -34 14 0 15 2 4
9 -8 5 -14 23 -14 40 0 17 -1 31 -1 30 -1 0 -9 -9 -18 -20z"/>
<path d="M2240 61 c0 -13 37 -24 50 -16 6 4 8 11 5 16 -8 12 -55 12 -55 0z"/>
<path d="M2812 58 c-17 -17 -15 -58 2 -58 15 0 26 21 26 51 0 22 -11 24 -28 7z"/>
<path d="M2350 50 c0 -5 8 -10 18 -10 10 0 23 -5 29 -11 13 -13 85 -8 90 6 2
6 -15 9 -42 7 -28 -3 -45 0 -45 7 0 6 -11 11 -25 11 -14 0 -25 -4 -25 -10z"/>
<path d="M1290 30 c6 -11 13 -20 15 -20 3 0 5 9 5 20 0 11 -7 20 -15 20 -13 0
-14 -4 -5 -20z"/>
<path d="M2706 21 c-4 -7 -5 -15 -2 -18 9 -9 19 4 14 18 -4 11 -6 11 -12 0z"/>
<path d="M2295 10 c-3 -5 1 -10 9 -10 9 0 16 5 16 10 0 6 -4 10 -9 10 -6 0
-13 -4 -16 -10z"/>
</g>
</svg>
