<?xml version="1.0" standalone="no"?>
<!DOCTYPE svg PUBLIC "-//W3C//DTD SVG 20010904//EN"
 "http://www.w3.org/TR/2001/REC-SVG-20010904/DTD/svg10.dtd">
<svg version="1.0" xmlns="http://www.w3.org/2000/svg"
 width="1024.000000pt" height="1280.000000pt" viewBox="0 0 1024.000000 1280.000000"
 preserveAspectRatio="xMidYMid meet">

<g transform="translate(0.000000,1280.000000) scale(0.100000,-0.100000)"
fill="#000000" stroke="none">
<path d="M3275 12343 c-161 -19 -354 -90 -431 -160 -56 -51 -134 -227 -134
-304 0 -49 39 -139 66 -151 13 -6 24 -14 24 -17 0 -4 -15 -36 -34 -71 -75
-141 -97 -292 -57 -397 22 -60 25 -63 80 -85 56 -23 58 -23 651 -26 541 -3
600 -1 653 14 35 10 70 29 85 45 l25 27 56 -24 c385 -171 970 -94 1157 151 20
27 49 90 84 183 7 17 16 32 21 32 5 0 9 -56 9 -125 0 -99 4 -135 19 -176 27
-71 45 -86 123 -110 60 -19 88 -21 256 -17 186 3 188 3 249 33 58 29 63 30
100 17 332 -120 736 -106 1011 33 86 44 131 87 175 166 40 72 82 207 91 289
18 167 -64 427 -162 511 -54 46 -149 91 -257 123 -127 36 -206 46 -396 46
-187 0 -310 -17 -430 -59 l-77 -27 -48 25 c-47 25 -58 26 -236 29 -186 3 -188
3 -249 -24 -46 -21 -65 -36 -79 -63 -31 -62 -46 -69 -145 -72 l-90 -4 -60 41
c-154 104 -345 154 -584 154 -215 0 -399 -41 -554 -122 -51 -28 -59 -29 -75
-16 -56 48 -203 100 -342 123 -87 14 -404 19 -495 8z m480 -164 c203 -27 306
-123 291 -273 -7 -72 -43 -137 -94 -171 -63 -42 -174 -73 -395 -110 -211 -36
-277 -52 -277 -67 0 -4 171 -8 380 -8 l380 0 0 -110 0 -110 -600 0 -600 0 0
48 c0 26 6 70 14 97 45 171 164 252 476 326 257 60 290 76 277 131 -8 32 -58
46 -146 41 -76 -4 -127 -26 -147 -64 l-15 -29 -214 0 c-117 0 -216 4 -219 9
-3 4 2 34 11 65 41 144 180 219 443 240 69 5 356 -4 435 -15z m1110 10 c212
-21 352 -90 423 -209 50 -84 68 -264 36 -369 -53 -179 -163 -261 -404 -302
-87 -15 -355 -11 -440 5 -261 52 -375 168 -388 393 -16 296 126 444 463 481
115 13 187 13 310 1z m2166 -19 c188 -40 273 -114 315 -275 18 -65 18 -226 0
-291 -28 -107 -97 -197 -176 -231 -14 -5 -42 -17 -62 -26 -123 -53 -465 -69
-650 -29 -125 26 -209 64 -254 115 -38 42 -64 93 -64 127 0 19 6 20 211 20
211 0 212 0 234 -24 29 -31 120 -50 198 -42 80 8 132 39 158 93 12 24 19 46
16 49 -2 3 -40 -5 -83 -17 -72 -20 -95 -21 -269 -16 -132 4 -208 10 -250 22
-153 43 -216 113 -218 240 -4 228 199 323 658 308 88 -3 186 -12 236 -23z
m-953 -422 l2 -418 -195 0 -195 0 0 215 0 215 -160 0 c-88 0 -160 3 -160 8 -1
4 -1 57 -2 117 l-1 110 99 6 c79 4 110 10 154 31 68 33 81 44 106 88 10 19 24
38 29 42 6 5 80 7 165 5 l155 -2 3 -417z"/>
<path d="M4640 11924 c-8 -3 -29 -12 -47 -20 -122 -55 -119 -262 5 -316 54
-24 172 -27 223 -5 96 40 134 159 82 260 -25 50 -82 78 -170 83 -43 2 -85 1
-93 -2z m125 -194 c4 -6 -8 -10 -29 -10 -20 0 -36 5 -36 10 0 6 13 10 29 10
17 0 33 -4 36 -10z"/>
<path d="M6646 11971 c-41 -9 -86 -49 -86 -77 0 -31 46 -62 103 -69 125 -16
244 5 270 46 16 26 -1 67 -34 85 -36 18 -192 28 -253 15z"/>
<path d="M8525 11936 c-65 -16 -104 -37 -144 -78 -53 -53 -64 -84 -63 -168 1
-41 -3 -104 -9 -140 -14 -87 2 -142 55 -184 l38 -31 296 -2 c371 -1 345 0 297
-22 -48 -22 -80 -64 -96 -124 -9 -37 -8 -61 5 -127 25 -123 54 -179 135 -260
85 -85 158 -122 271 -140 77 -12 80 -13 90 -46 17 -52 78 -100 136 -107 27 -4
66 -3 86 2 35 8 209 108 216 124 2 4 8 7 13 7 19 0 211 125 234 152 58 69 55
191 -6 254 -17 17 -104 76 -192 130 -89 53 -170 104 -179 112 -10 8 -39 20
-65 27 l-47 12 59 7 c33 4 82 2 116 -5 75 -15 238 -6 308 16 39 12 68 31 107
70 l54 54 0 163 c0 160 -1 165 -25 198 -67 91 -182 126 -369 116 -66 -4 -163
-7 -214 -6 -92 2 -192 -14 -192 -30 0 -17 -40 -21 -62 -6 -67 43 -270 59 -385
30 -57 -14 -69 -14 -139 0 -89 19 -257 20 -329 2z m274 -122 c50 -10 81 -46
81 -94 0 -69 -44 -95 -190 -117 -50 -7 -45 -8 65 -13 l120 -5 3 -42 3 -43
-227 0 -227 0 6 36 c13 78 49 106 178 139 102 26 122 38 91 54 -25 13 -79 4
-86 -15 -4 -10 -27 -14 -92 -14 l-86 0 7 27 c9 36 21 50 64 73 29 15 58 19
147 20 61 0 125 -3 143 -6z m481 -19 c102 -60 101 -228 -2 -281 -79 -41 -253
-37 -324 7 -40 24 -64 74 -64 132 0 57 11 86 43 117 42 40 83 50 202 47 90 -2
116 -6 145 -22z m756 1 c56 -34 80 -103 64 -186 -18 -97 -131 -143 -294 -121
-43 6 -87 16 -99 23 -31 16 -57 48 -57 70 0 16 9 18 73 19 71 1 72 1 23 10
-66 11 -96 40 -96 95 0 88 58 115 235 111 96 -2 126 -6 151 -21z m-398 -143
l3 -153 -81 0 -80 0 0 75 0 75 -55 0 -55 0 0 50 c0 50 0 50 33 50 36 0 88 24
100 46 6 11 24 14 70 12 l62 -3 3 -152z m-215 -295 c12 -6 45 -17 72 -24 35
-9 42 -13 23 -13 -36 -1 -103 -62 -118 -107 -13 -39 -13 -39 -70 -19 -41 14
-150 98 -150 114 0 5 33 14 73 21 39 6 86 18 102 25 39 17 42 17 68 3z m-302
-203 c78 -73 175 -105 319 -105 l80 0 0 70 c0 103 10 102 198 -12 84 -51 171
-105 195 -119 65 -39 63 -67 -10 -112 -205 -129 -338 -207 -355 -207 -24 0
-40 42 -36 99 l3 46 -116 6 c-101 5 -125 9 -175 34 -109 53 -180 150 -191 261
-10 98 14 109 88 39z"/>
<path d="M9083 11710 c-23 -9 -37 -45 -31 -76 5 -26 47 -46 87 -40 61 9 81 69
35 105 -28 22 -55 25 -91 11z"/>
<path d="M9824 11725 c-19 -15 -19 -15 0 -30 26 -20 90 -19 107 1 11 14 10 18
-6 30 -25 18 -76 18 -101 -1z"/>
<path d="M9855 11600 l-50 -6 30 -13 c34 -14 96 -5 103 17 4 13 -1 13 -83 2z"/>
<path d="M3 11635 c0 -38 2 -53 4 -32 2 20 2 52 0 70 -2 17 -4 1 -4 -38z"/>
<path d="M3 10920 c0 -25 2 -35 4 -22 2 12 2 32 0 45 -2 12 -4 2 -4 -23z"/>
<path d="M3350 9038 c0 -15 8 -18 43 -17 l42 2 -40 7 -40 7 45 3 c25 2 55 3
68 3 12 1 22 5 22 10 0 4 -31 7 -70 5 -59 -2 -70 -6 -70 -20z"/>
<path d="M3290 9040 c19 -13 30 -13 30 0 0 6 -10 10 -22 10 -19 0 -20 -2 -8
-10z"/>
<path d="M1330 7164 c-348 -33 -330 -30 -330 -63 0 -24 -5 -30 -31 -35 -17 -3
-53 -6 -80 -6 -38 0 -51 -4 -59 -20 -9 -16 -15 -18 -30 -10 -18 10 -20 7 -21
-27 -1 -21 0 -50 1 -66 2 -31 -3 -33 -82 -42 -63 -7 -72 -19 -38 -50 11 -10
20 -26 20 -36 0 -10 5 -21 11 -25 6 -3 19 -26 29 -50 22 -51 32 -57 24 -14 -4
19 -2 30 5 30 6 0 11 -7 11 -15 0 -8 13 -27 28 -43 30 -30 38 -60 62 -227 17
-121 41 -229 52 -242 6 -7 7 -13 3 -13 -4 0 -3 -6 3 -13 8 -10 5 -22 -11 -47
-55 -84 -57 -88 -42 -94 8 -3 28 0 45 6 36 12 48 5 30 -17 -7 -8 -8 -15 -2
-15 5 0 12 -13 14 -30 4 -27 1 -31 -31 -41 -43 -14 -62 -29 -43 -36 30 -11 7
-23 -47 -23 -43 0 -60 -4 -65 -15 -3 -8 -1 -15 4 -15 6 0 10 -6 10 -14 0 -9
-26 -23 -66 -36 -70 -23 -190 -112 -178 -132 10 -16 149 9 203 37 37 19 70 19
95 0 13 -10 16 -18 9 -27 -10 -13 -53 -129 -53 -143 0 -4 11 -5 25 -3 25 5 34
-5 15 -17 -5 -3 -7 -12 -3 -20 3 -8 0 -15 -7 -15 -6 0 -8 -5 -5 -10 16 -25
-31 -137 -73 -174 -36 -32 -42 -38 -42 -48 0 -6 11 -3 25 6 24 16 25 15 25 -3
0 -29 21 -38 36 -15 7 10 20 28 29 39 16 19 16 19 10 -10 l-6 -30 21 25 c11
14 22 33 26 43 3 9 9 17 13 17 11 0 29 -48 33 -85 2 -24 8 -31 30 -33 15 -2
34 -14 43 -29 13 -19 19 -22 25 -13 4 7 13 9 19 6 6 -4 8 -12 5 -18 -13 -20
-11 -78 2 -78 7 0 14 5 16 12 6 17 28 0 28 -22 0 -10 -4 -22 -10 -25 -15 -9
-12 -25 5 -25 29 0 15 -19 -40 -55 -83 -55 -68 -79 31 -50 31 9 59 14 62 11 6
-7 10 -5 -52 -35 -75 -38 -142 -138 -103 -155 7 -3 -6 -21 -35 -48 -27 -24
-48 -48 -48 -52 0 -4 16 -6 36 -4 31 2 37 0 40 -17 3 -18 -5 -23 -54 -34 -56
-13 -342 -25 -342 -14 0 3 10 14 22 24 l21 19 -24 1 -24 0 23 10 c23 9 26 36
3 31 -6 -1 -11 7 -11 19 0 11 4 18 9 15 5 -3 17 6 26 21 13 20 15 31 7 43 -8
14 -6 19 12 28 22 10 23 13 14 69 -13 88 -27 125 -46 121 -13 -2 -16 -14 -15
-53 0 -28 -1 -36 -3 -20 -9 63 -14 75 -34 75 -13 0 -22 -9 -26 -25 -12 -47 1
-501 14 -518 7 -8 14 -38 15 -66 1 -28 5 -51 8 -51 3 0 2 -21 -2 -47 -4 -27
-7 -61 -7 -78 1 -29 1 -29 8 5 l6 35 8 -30 c19 -81 28 -105 36 -105 6 0 10 -4
10 -10 0 -5 -7 -10 -15 -10 -11 0 -15 -11 -15 -40 0 -22 5 -40 10 -40 6 0 10
-15 10 -34 0 -19 5 -38 11 -42 7 -4 9 -21 5 -45 -5 -30 -3 -38 11 -41 13 -2
17 -16 20 -59 2 -32 -1 -68 -6 -80 -9 -22 -10 -20 -10 13 -1 21 -7 52 -15 70
-23 56 -42 141 -62 280 -4 26 -10 45 -15 42 -4 -2 -10 19 -12 48 -2 29 -5 -28
-6 -127 -5 -320 -8 -1980 -4 -1987 2 -5 4 -167 4 -362 0 -304 2 -354 15 -349
8 3 14 -1 14 -8 0 -11 2 -11 8 -1 7 9 15 10 35 3 34 -13 34 -34 1 -65 -16 -14
-24 -30 -21 -39 3 -9 -1 -21 -9 -27 -18 -16 -19 -51 0 -44 7 3 39 -2 70 -11
48 -14 56 -20 51 -36 -8 -23 23 -39 35 -18 7 11 10 10 15 -3 8 -20 -2 -41 -15
-33 -5 3 -11 1 -14 -4 -8 -12 4 -42 14 -36 4 3 11 -2 14 -10 4 -12 10 -13 24
-6 12 6 23 6 28 1 6 -6 34 -4 72 5 63 15 112 16 112 3 0 -7 -43 -17 -96 -22
-53 -5 -76 -17 -63 -32 13 -16 3 -22 -51 -26 -42 -4 -52 -30 -21 -57 21 -19
29 -37 11 -26 -5 3 -10 -4 -10 -15 0 -16 -5 -20 -15 -16 -9 3 -15 0 -15 -10 0
-10 6 -14 15 -10 11 4 15 -2 15 -20 0 -19 -7 -28 -30 -35 -17 -6 -30 -17 -30
-25 0 -8 -7 -14 -15 -14 -8 0 -15 -7 -15 -15 0 -9 6 -12 16 -8 21 8 15 -17 -7
-28 -39 -20 -67 -23 -61 -6 1 5 -5 7 -15 5 -10 -2 -19 -10 -19 -18 -3 -32 -6
-34 -15 -10 -6 18 -8 11 -4 -27 3 -43 1 -53 -12 -53 -13 0 -13 -3 -3 -15 10
-12 9 -20 -4 -40 -11 -17 -16 -47 -16 -96 0 -63 2 -70 17 -65 9 4 40 14 67 22
28 9 76 26 106 39 82 36 101 40 94 20 -7 -17 7 -16 81 5 39 12 175 24 175 17
0 -3 -11 -27 -25 -53 -14 -26 -25 -55 -25 -64 0 -12 -11 -20 -32 -24 -52 -10
-149 -109 -133 -136 3 -5 17 -10 31 -10 14 0 24 -6 24 -15 0 -8 13 -21 30 -30
25 -13 30 -22 30 -51 l0 -35 270 1 c149 1 270 5 270 10 0 4 21 17 48 28 84 36
226 66 150 32 -13 -6 -29 -25 -35 -41 -11 -29 -11 -29 24 -29 22 0 46 9 63 22
15 13 36 28 46 35 18 11 17 12 -5 12 -23 1 -23 2 -7 19 15 17 114 71 140 77
12 2 38 12 74 26 30 12 103 -22 139 -65 21 -25 24 -38 21 -77 l-5 -47 124 -1
c115 0 123 1 123 19 0 50 50 101 97 99 10 0 13 -3 5 -6 -21 -8 -13 -23 12 -23
14 0 37 -5 52 -10 15 -6 44 -13 63 -15 20 -2 46 -7 59 -11 17 -5 22 -2 22 10
0 48 -61 92 -112 82 -18 -3 -27 -2 -23 4 3 6 -3 10 -14 10 -34 0 -33 19 1 22
28 2 34 8 36 31 3 25 1 27 -36 27 -32 0 -41 -4 -45 -21 -7 -27 -27 -15 -27 17
0 19 5 24 25 24 18 0 25 5 25 20 0 11 -4 20 -10 20 -5 0 -10 7 -10 16 0 8 -12
28 -28 43 -15 16 -38 43 -51 61 l-24 33 21 18 c12 9 32 37 45 62 12 25 36 61
53 79 17 19 29 39 26 46 -2 7 2 11 9 10 7 -2 18 14 24 37 7 22 22 56 33 75 11
19 25 61 32 92 l11 58 58 0 c32 0 85 -3 117 -6 l59 -7 28 -57 c15 -32 27 -62
27 -67 0 -10 -76 -63 -90 -63 -4 0 -13 -6 -19 -14 -16 -20 3 -56 29 -56 31 0
153 -68 183 -103 52 -57 95 -163 112 -272 9 -55 23 -126 31 -158 8 -32 12 -62
9 -67 -3 -5 -1 -12 5 -15 6 -4 8 -15 5 -26 -6 -18 1 -19 215 -19 l221 0 -44
83 c-25 45 -48 93 -52 107 -9 30 -39 98 -110 245 -65 136 -84 199 -89 295 -3
67 25 307 39 330 3 4 9 37 14 71 9 68 2 97 -32 136 -16 17 -19 38 -20 110 0
48 -3 79 -5 68 -2 -11 -10 -27 -17 -35 -7 -8 -13 -35 -14 -60 -2 -71 -8 -103
-25 -135 -9 -16 -16 -36 -16 -42 0 -7 -5 -13 -10 -13 -6 0 -14 -8 -17 -17 -4
-10 -22 -37 -41 -59 -26 -32 -39 -40 -56 -36 -11 3 -17 1 -13 -3 4 -5 -9 -17
-29 -27 -33 -16 -39 -16 -54 -3 -16 15 -20 48 -7 61 15 16 5 23 -19 14 -38
-15 -74 -12 -74 5 0 8 -4 15 -10 15 -5 0 -10 15 -10 33 0 17 -5 51 -10 75 -8
34 -7 47 6 67 20 31 35 18 53 -48 8 -26 18 -50 23 -53 14 -9 121 36 152 64 43
41 68 102 60 151 -6 37 -5 41 15 41 22 0 28 14 11 25 -17 10 -11 25 10 25 15
0 20 7 20 26 0 14 -4 23 -8 20 -9 -5 -57 35 -63 53 -2 5 -25 11 -51 12 -76 4
-55 29 24 29 l41 0 -5 79 c-5 79 -4 80 21 86 46 12 920 15 1026 4 127 -13 267
-49 347 -91 89 -45 187 -147 215 -224 39 -104 48 -188 29 -279 -9 -44 -26 -99
-37 -122 -21 -44 -116 -138 -180 -178 -21 -14 -39 -32 -39 -39 0 -8 30 -31 68
-52 85 -47 149 -90 185 -122 l27 -26 0 -215 c-1 -119 -5 -236 -10 -261 -10
-56 -55 -97 -157 -147 -40 -19 -73 -37 -73 -39 0 -2 75 -4 166 -4 l166 0 -6
313 c-10 512 -12 1485 -3 1494 24 23 1146 9 1287 -16 206 -38 291 -69 373
-133 54 -43 116 -110 117 -125 0 -7 4 -13 9 -13 13 0 49 -89 67 -167 17 -71
14 -223 -4 -246 -5 -7 -15 -30 -22 -52 -45 -144 -181 -266 -397 -356 -133 -56
-134 -67 -10 -103 102 -31 162 -65 221 -125 35 -36 39 -44 30 -66 -5 -14 -34
-44 -65 -67 -32 -24 -119 -90 -195 -148 -76 -58 -150 -112 -164 -122 -14 -9
-38 -28 -55 -42 l-30 -25 533 -1 532 0 0 3595 c0 3539 0 3595 -19 3595 -23 0
-28 -21 -30 -125 -1 -47 5 -96 20 -147 18 -63 20 -82 11 -103 -19 -40 -31 -29
-38 35 -5 46 -13 68 -34 90 -15 16 -34 40 -43 54 -9 13 -26 27 -37 31 -27 8
-26 31 2 39 17 4 20 8 11 17 -8 8 -20 9 -43 1 -18 -7 -40 -8 -53 -3 -13 5 -41
11 -62 12 -36 4 -39 2 -40 -21 0 -21 -5 -26 -31 -28 -22 -2 -33 2 -38 13 -7
19 19 45 74 74 19 10 44 28 54 40 l19 21 -50 0 c-33 0 -55 -5 -63 -15 -7 -8
-19 -15 -26 -15 -8 0 -11 6 -8 15 5 13 -7 15 -75 15 -62 0 -83 -4 -87 -14 -3
-8 -18 -18 -32 -21 -15 -3 -49 -21 -77 -40 -53 -36 -65 -32 -45 15 16 38 7 60
-24 60 -18 0 -30 -9 -40 -29 -24 -45 -46 -113 -46 -142 0 -32 -16 -48 -41 -42
-17 5 -19 13 -16 79 2 41 0 74 -5 74 -12 0 -68 -92 -68 -113 0 -10 -19 -52
-41 -93 -37 -66 -41 -81 -37 -124 4 -42 2 -52 -19 -71 -12 -13 -23 -30 -23
-39 0 -10 -19 -30 -42 -46 -23 -16 -50 -37 -60 -46 -23 -23 -147 -24 -267 -3
-45 8 -87 13 -91 10 -4 -3 -13 2 -20 10 -15 18 -42 19 -58 3 -9 -9 -15 -9 -27
3 -14 14 -14 17 2 32 40 35 93 69 193 121 135 71 145 78 100 70 -19 -4 -66
-22 -104 -40 -38 -19 -75 -34 -84 -34 -8 0 -36 -16 -62 -35 -26 -19 -50 -35
-54 -35 -3 0 -6 33 -6 74 0 72 1 75 33 101 79 65 97 80 97 88 0 14 -23 7 -72
-23 -26 -16 -51 -30 -54 -30 -4 0 -5 40 -2 90 3 66 8 93 20 102 17 14 40 73
31 82 -3 3 -902 5 -1997 5 l-1991 -2 -245 -23z m5387 -31 c-15 -16 -17 -16
-17 -1 0 9 6 18 13 21 20 7 22 -2 4 -20z m4 -103 c5 0 9 -4 9 -10 0 -5 -13
-10 -28 -10 -15 0 -33 -5 -39 -11 -7 -7 -22 -13 -35 -14 -13 -2 -57 -8 -99
-15 -42 -7 -83 -10 -90 -8 -18 7 83 37 146 45 28 3 61 12 75 19 14 7 31 11 38
9 8 -3 18 -5 23 -5z m184 -70 c15 0 55 -63 55 -86 0 -8 7 -17 15 -20 8 -4 15
-14 15 -24 0 -23 -71 -40 -165 -40 -71 0 -84 14 -45 47 13 12 22 35 26 74 5
44 11 59 28 67 39 19 51 19 54 0 2 -10 9 -18 17 -18z m-255 -67 c0 -21 -38
-63 -57 -63 -8 0 -23 -5 -35 -11 -20 -11 -20 -11 3 -35 38 -40 -1 -40 -64 0
-31 20 -64 36 -75 36 -10 0 -27 6 -37 14 -18 13 -17 14 12 29 17 9 70 21 119
27 49 6 90 13 93 16 12 11 41 2 41 -13z m-258 -159 c42 -22 23 -37 -36 -29
-47 7 -62 17 -51 35 9 15 52 12 87 -6z m87 -23 c16 -10 6 -31 -15 -31 -8 0
-14 9 -14 20 0 22 7 25 29 11z m-131 -97 c12 -4 22 -11 22 -16 0 -5 -8 -7 -17
-4 -10 3 -42 2 -71 -3 -54 -8 -76 0 -45 18 20 12 76 14 111 5z m-823 -14 c3
-5 1 -10 -4 -10 -6 0 -11 5 -11 10 0 6 2 10 4 10 3 0 8 -4 11 -10z m95 -19 c0
-16 -24 -29 -67 -36 -29 -4 -43 -3 -43 4 0 6 1 11 3 11 1 0 20 7 42 15 47 17
65 18 65 6z m-3900 -186 c23 -13 23 -14 5 -15 -12 0 -25 4 -30 9 -6 5 -19 11
-30 14 -16 4 -15 5 5 5 14 1 36 -5 50 -13z m1610 11 c0 -3 -4 -8 -10 -11 -5
-3 -10 -1 -10 4 0 6 5 11 10 11 6 0 10 -2 10 -4z m1240 -192 c0 -14 -4 -23 -9
-20 -5 4 -12 0 -14 -6 -4 -8 -6 -7 -6 4 -1 23 9 48 20 48 5 0 9 -12 9 -26z
m-209 -53 c74 -48 127 -96 117 -106 -3 -3 -25 13 -50 35 -52 45 -56 47 -74 23
-12 -16 -13 -14 -8 14 5 28 3 33 -24 47 -17 9 -38 16 -47 16 -8 0 -15 5 -15
10 0 20 29 9 101 -39z m-2161 32 c0 -5 -5 -15 -10 -23 -8 -12 -10 -11 -10 8 0
12 5 22 10 22 6 0 10 -3 10 -7z m1972 -18 c-2 -14 -6 -25 -8 -25 -2 0 -4 11
-4 25 0 14 4 25 9 25 4 0 6 -11 3 -25z m171 -105 c-3 -11 -9 -22 -13 -25 -12
-7 -7 29 5 37 14 10 14 10 8 -12z m-1971 -45 c2 -16 9 -35 17 -41 11 -9 10
-12 -7 -16 -15 -4 -23 0 -27 13 -4 10 -12 16 -21 12 -9 -3 -14 1 -14 12 0 9 5
13 10 10 13 -8 13 5 0 25 -7 11 -5 17 8 21 22 9 30 0 34 -36z m2148 -105 c0
-5 -2 -10 -4 -10 -3 0 -8 5 -11 10 -3 6 -1 10 4 10 6 0 11 -4 11 -10z m280
-25 c0 -8 -4 -15 -10 -15 -5 0 -10 7 -10 15 0 8 5 15 10 15 6 0 10 -7 10 -15z
m20 -62 c0 -20 -24 -11 -28 10 -2 12 1 15 12 11 9 -3 16 -13 16 -21z m-3886
-322 c3 -5 -1 -14 -9 -21 -13 -10 -15 -9 -15 9 0 21 14 28 24 12z m2721 -611
c3 -5 2 -10 -4 -10 -5 0 -13 5 -16 10 -3 6 -2 10 4 10 5 0 13 -4 16 -10z
m-2552 -249 c36 -14 26 -31 -19 -31 -20 0 -44 -5 -54 -10 -25 -13 -32 1 -17
34 13 29 29 30 90 7z m2209 -26 c38 -14 78 -25 89 -25 11 0 18 -4 14 -10 -4
-6 -16 -5 -33 1 -15 6 -46 11 -69 11 -24 0 -43 4 -43 9 0 14 -63 10 -86 -5
-18 -13 -22 -13 -37 4 -18 22 -51 16 -43 -7 5 -11 1 -13 -17 -7 -30 9 -32 11
-18 28 9 10 37 16 84 19 40 1 76 4 81 5 5 1 40 -9 78 -23z m-2532 -109 c0 -15
-51 -31 -89 -27 -22 2 -23 1 -6 -15 17 -17 16 -19 -11 -42 -16 -13 -39 -35
-51 -50 l-22 -26 6 24 c6 23 5 24 -11 11 -13 -11 -20 -11 -28 -3 -9 9 -8 12 5
12 10 0 20 14 27 38 9 33 8 39 -10 51 -11 7 -20 18 -20 24 0 7 4 7 12 -1 16
-16 106 -14 143 3 39 18 55 18 55 1z m84 -77 c-27 -27 -56 -51 -65 -54 -9 -3
-21 -24 -28 -46 -7 -22 -19 -43 -27 -46 -14 -5 -20 -33 -6 -33 4 0 18 9 32 20
14 11 34 20 45 20 11 0 65 23 120 50 55 27 103 50 108 50 18 0 4 -19 -23 -30
-33 -14 -130 -107 -130 -125 0 -7 -13 -29 -30 -50 -16 -21 -30 -42 -30 -46 0
-11 33 -12 46 -1 16 15 84 54 84 49 0 -3 -15 -15 -34 -26 -38 -24 -106 -84
-106 -94 0 -4 9 -7 21 -7 11 0 17 -5 14 -10 -7 -11 -183 -5 -194 6 -3 2 -4 25
-2 49 1 27 -2 45 -8 45 -6 0 -11 8 -11 19 0 10 -7 24 -16 32 -9 8 -13 21 -10
35 4 13 1 26 -4 29 -15 10 24 60 68 86 20 13 43 29 51 37 7 7 34 24 60 37 25
13 62 37 81 53 56 48 51 9 -6 -49z m296 32 c0 -12 -20 -25 -27 -18 -7 7 6 27
18 27 5 0 9 -4 9 -9z m3469 -97 c2 -2 -7 -4 -20 -4 -14 0 -19 -3 -12 -8 8 -5
3 -11 -13 -19 -19 -9 -24 -8 -24 3 0 8 4 14 10 14 5 0 7 7 3 16 -4 12 0 14 23
8 16 -4 31 -8 33 -10z m-4047 -106 c-7 -7 -12 -8 -12 -2 0 14 12 26 19 19 2
-3 -1 -11 -7 -17z m2723 -33 c14 -14 25 -32 25 -40 0 -8 5 -15 11 -15 7 0 9 9
5 24 -5 22 -2 25 34 31 101 17 307 -44 392 -117 15 -13 46 -36 68 -52 41 -31
47 -40 30 -51 -18 -11 -11 -25 17 -36 19 -7 28 -6 34 2 4 7 21 14 38 15 27 3
31 1 37 -30 5 -30 10 -34 32 -33 24 2 27 -2 30 -35 2 -25 10 -41 23 -48 22
-12 27 -52 5 -44 -8 3 -19 -3 -25 -14 -16 -31 -43 -113 -38 -118 8 -9 65 71
69 96 3 17 6 20 10 10 18 -51 28 -89 28 -107 0 -19 -41 -116 -106 -250 -14
-28 -38 -84 -53 -125 -24 -66 -29 -73 -56 -76 -17 -2 -35 -10 -42 -19 -14 -19
-113 -32 -113 -15 0 6 5 14 10 17 6 3 10 12 10 20 0 10 -10 8 -41 -7 -101 -49
-254 -46 -357 6 -50 25 -152 119 -152 139 0 7 -10 23 -21 37 l-21 25 6 -32 c4
-26 2 -33 -11 -33 -25 0 -83 49 -83 70 0 12 -13 26 -31 36 -35 18 -35 6 -8
219 6 44 14 134 18 200 7 102 26 220 47 288 3 9 12 17 19 17 8 0 19 9 25 20 8
14 21 20 46 20 22 0 37 6 40 15 8 21 19 19 49 -10z m1245 -124 c0 -6 -4 -13
-10 -16 -5 -3 -10 1 -10 9 0 9 5 16 10 16 6 0 10 -4 10 -9z m-3436 -131 c-20
-99 -24 -110 -34 -110 -13 0 -13 37 0 45 6 4 10 26 9 51 -2 30 3 49 16 64 10
11 19 19 21 18 1 -2 -4 -32 -12 -68z m-397 38 c-3 -8 -6 -5 -6 6 -1 11 2 17 5
13 3 -3 4 -12 1 -19z m99 -3 c-22 -17 -46 -20 -46 -6 0 11 18 19 45 20 20 0
20 0 1 -14z m-116 -25 c0 -5 -2 -10 -4 -10 -3 0 -8 5 -11 10 -3 6 -1 10 4 10
6 0 11 -4 11 -10z m150 -18 c0 -10 -44 -32 -63 -32 -7 0 2 9 18 19 34 22 45
25 45 13z m-86 -38 c4 -10 1 -14 -6 -12 -15 5 -23 28 -10 28 5 0 13 -7 16 -16z
m211 -16 c-4 -13 -9 -41 -12 -63 -2 -22 -11 -55 -19 -72 -18 -39 -16 -113 3
-113 7 0 22 18 33 41 14 27 26 39 36 35 8 -3 14 -2 14 3 0 5 8 11 18 13 17 5
19 -1 18 -53 -1 -78 13 -90 46 -39 15 22 29 47 32 57 3 10 15 24 26 31 19 12
20 10 14 -51 -3 -34 -7 -70 -9 -79 -6 -31 12 -29 39 4 46 60 55 68 71 62 17
-7 22 -99 5 -109 -17 -10 -11 -37 9 -42 14 -3 21 -17 26 -50 3 -25 4 -47 1
-50 -3 -3 -1 -13 4 -23 14 -25 -1 -33 -17 -10 -17 25 -36 26 -29 3 2 -10 7
-27 10 -39 5 -16 -4 -32 -34 -65 -23 -24 -40 -38 -38 -30 2 11 -7 14 -37 12
-80 -4 -102 -3 -187 4 -52 5 -88 13 -89 19 -12 129 -14 148 -21 166 -3 8 -11
40 -17 70 -32 162 -44 217 -52 231 -10 20 4 34 75 70 39 20 52 33 58 57 5 18
13 32 19 32 7 0 9 -8 4 -22z m-239 -34 c-4 -9 -9 -15 -11 -12 -3 3 -3 13 1 22
4 9 9 15 11 12 3 -3 3 -13 -1 -22z m-2 -65 c-6 -11 -24 -2 -24 11 0 5 7 7 15
4 8 -4 12 -10 9 -15z m344 -4 c-6 -14 -15 -25 -19 -25 -4 0 -14 -3 -23 -6 -13
-5 -13 -1 -3 25 8 22 18 31 34 31 20 0 22 -2 11 -25z m-298 -50 c-7 -8 -17
-12 -22 -9 -5 3 -1 12 9 19 22 17 30 11 13 -10z m3941 -38 c-10 -9 -11 -8 -5
6 3 10 9 15 12 12 3 -3 0 -11 -7 -18z m-3371 -492 c-13 -14 -26 -23 -28 -20
-7 6 29 44 42 44 5 1 -1 -10 -14 -24z m1419 -101 c5 -5 -18 -254 -25 -265 -3
-5 -29 -9 -59 -9 -53 0 -54 0 -57 -31 -5 -47 -28 -57 -72 -30 -25 16 -36 30
-36 47 0 22 -4 24 -45 24 -53 0 -51 -8 -34 151 5 57 15 110 22 118 10 11 38
12 157 7 79 -4 147 -9 149 -12z m-1669 -804 c8 13 10 13 10 -2 0 -9 -5 -20
-10 -23 -8 -5 -7 -11 1 -21 9 -11 8 -14 -5 -14 -9 0 -16 5 -16 10 0 6 -9 10
-20 10 -11 0 -20 5 -20 10 0 6 7 10 15 10 8 0 14 3 14 8 -3 19 2 25 11 12 9
-13 11 -13 20 0z m60 0 c0 -5 -6 -10 -14 -10 -8 0 -18 5 -21 10 -3 6 3 10 14
10 12 0 21 -4 21 -10z m-516 -15 c-22 -17 -34 -19 -34 -6 0 5 8 12 18 14 32 9
36 7 16 -8z m5399 -60 c235 -35 354 -113 479 -311 20 -33 73 -112 116 -176 44
-65 78 -118 75 -118 -3 0 -27 16 -54 34 -93 68 -201 109 -369 142 -72 14 -181
17 -732 21 l-648 4 0 -157 c0 -87 -3 -155 -6 -152 -3 3 -12 54 -19 113 -8 59
-17 110 -21 114 -6 6 2 -145 12 -221 6 -49 -5 -48 -38 5 -43 66 -100 122 -166
165 -72 47 -218 96 -325 111 -86 12 -933 15 -1085 5 l-91 -7 6 -48 c7 -59 -2
-61 -48 -14 -53 54 -137 87 -226 88 l-75 1 6 31 c2 16 10 95 17 175 6 80 13
147 16 150 8 9 168 -52 223 -85 30 -19 74 -52 98 -75 24 -23 46 -39 50 -35 4
3 30 59 57 123 l51 117 489 3 c522 2 587 -2 706 -47 98 -37 191 -109 242 -186
22 -34 53 -127 70 -215 3 -14 5 83 4 215 l-2 240 215 6 c328 9 864 0 973 -16z
m-4605 -60 c-2 -25 1 -45 5 -45 5 0 5 -4 2 -10 -3 -5 1 -10 9 -10 9 0 16 5 16
12 0 9 3 9 12 0 18 -18 1 -27 -55 -28 -78 -1 -145 -14 -151 -30 -9 -22 38 -47
74 -39 19 4 30 3 30 -4 0 -6 -4 -11 -10 -11 -5 0 -10 -5 -10 -11 0 -8 4 -8 15
1 20 16 33 5 28 -24 -4 -17 1 -27 16 -36 23 -12 18 -35 -6 -26 -8 3 -21 -1
-29 -9 -13 -13 -12 -14 16 -11 25 3 28 1 19 -10 -6 -8 -15 -12 -19 -9 -5 3
-16 -9 -24 -26 -19 -39 -20 -50 -4 -47 8 2 12 -9 12 -32 -1 -31 -4 -35 -25
-32 -23 3 -23 2 -6 -15 15 -15 19 -16 26 -4 5 7 15 11 22 9 38 -13 -62 -37
-153 -38 -36 0 -48 -4 -48 -15 0 -8 5 -15 10 -15 7 0 7 -7 -1 -21 -6 -12 -9
-36 -7 -54 l4 -33 -81 -8 c-99 -9 -97 -9 -115 -17 -8 -4 -58 -13 -110 -20 -90
-12 -97 -12 -115 6 -19 17 -19 19 -3 31 9 7 36 19 60 26 24 8 49 21 56 30 11
13 13 13 26 -3 12 -15 14 -16 20 -2 3 9 18 15 35 15 43 0 61 -10 61 -32 0 -11
5 -18 13 -15 6 2 11 10 9 16 -1 6 3 11 9 11 6 0 9 7 5 15 -3 10 3 17 19 21 14
3 25 12 25 20 0 9 12 14 38 14 29 1 33 3 20 11 -16 9 -96 29 -130 32 -9 1 -14
5 -12 9 8 12 59 9 72 -4 9 -9 12 -7 12 10 0 12 6 22 14 22 20 0 26 24 16 60
-8 28 -6 32 16 40 31 12 34 12 34 1 0 -5 -6 -11 -12 -14 -7 -2 -2 -2 12 0 14
3 32 11 41 19 8 8 21 14 27 14 7 0 12 5 12 10 0 6 -6 10 -14 10 -8 0 -23 11
-34 24 l-19 24 -69 -15 c-38 -9 -80 -17 -94 -18 -14 -1 -26 -9 -28 -18 -4 -18
-14 -22 -25 -10 -8 7 -48 15 -89 17 -20 1 -28 6 -28 19 0 11 -8 17 -22 18
l-23 2 23 4 c15 3 22 11 22 28 0 16 7 25 20 27 12 2 21 8 21 13 -1 6 12 13 27
17 21 6 30 3 43 -13 14 -19 17 -19 45 -6 16 8 49 21 74 29 57 19 57 32 2 36
-44 3 -50 22 -7 22 13 0 27 5 30 11 4 6 14 8 22 5 9 -4 22 -1 31 6 8 7 33 21
56 30 22 9 33 17 24 17 -10 1 -18 6 -18 11 0 6 25 10 55 10 52 0 55 1 55 25 0
23 4 25 41 25 l41 0 -4 -45z m927 26 c3 -5 1 -12 -4 -15 -5 -4 -12 -32 -16
-64 -10 -86 -5 -84 -97 -52 -45 16 -84 32 -85 37 -2 5 16 27 39 50 37 36 50
42 93 46 28 2 53 4 57 5 4 1 9 -2 13 -7z m-1195 -20 c0 -14 -23 -29 -50 -34
-14 -2 -19 -2 -12 0 22 8 13 20 -12 16 -13 -3 -27 1 -31 8 -6 9 2 11 33 6 23
-3 45 -1 48 4 7 12 24 12 24 0z m330 0 c0 -12 -20 -25 -27 -18 -7 7 6 27 18
27 5 0 9 -4 9 -9z m-585 -24 c10 -8 15 -19 12 -24 -9 -14 -56 -23 -63 -12 -3
5 5 10 18 10 19 1 18 3 -7 9 -16 4 -22 8 -12 9 9 0 17 6 17 11 0 14 13 13 35
-3z m285 -3 c0 -8 -5 -12 -10 -9 -6 4 -8 11 -5 16 9 14 15 11 15 -7z m-423
-10 c-3 -3 -12 -4 -19 -1 -8 3 -5 6 6 6 11 1 17 -2 13 -5z m53 -14 c0 -5 -7
-10 -15 -10 -8 0 -15 5 -15 10 0 6 7 10 15 10 8 0 15 -4 15 -10z m-30 -31 c0
-5 -15 -9 -32 -9 l-33 1 25 13 c25 14 40 13 40 -5z m-80 -9 c0 -5 -4 -10 -10
-10 -5 0 -10 5 -10 10 0 6 5 10 10 10 6 0 10 -4 10 -10z m280 0 c0 -5 -4 -10
-9 -10 -6 0 -13 5 -16 10 -3 6 1 10 9 10 9 0 16 -4 16 -10z m-450 -120 c0 -5
-2 -10 -4 -10 -3 0 -8 5 -11 10 -3 6 -1 10 4 10 6 0 11 -4 11 -10z m919 -39
c-13 -4 -15 -2 -24 29 l-8 25 21 -25 c11 -14 16 -27 11 -29z m-358 -110 c-9
-6 -10 -11 -2 -15 23 -15 11 -36 -20 -36 -24 0 -30 3 -25 16 3 9 6 19 6 24 0
5 8 11 18 13 29 8 38 7 23 -2z m-347 -219 c2 -4 -4 -8 -14 -8 -10 0 -16 4 -14
8 3 4 9 8 14 8 5 0 11 -4 14 -8z m550 -38 c4 -16 12 -37 17 -46 12 -24 11 -28
-5 -22 -8 3 -16 22 -18 42 -2 30 -7 38 -26 40 -13 2 -29 -2 -37 -8 -8 -6 -19
-8 -26 -4 -8 4 1 11 22 19 48 16 63 12 73 -21z m36 -3 c0 -6 -4 -13 -10 -16
-5 -3 -10 1 -10 9 0 9 5 16 10 16 6 0 10 -4 10 -9z m-610 -51 c0 -5 -4 -10
-10 -10 -5 0 -10 5 -10 10 0 6 5 10 10 10 6 0 10 -4 10 -10z m535 -21 c11 -17
-1 -21 -15 -4 -8 9 -8 15 -2 15 6 0 14 -5 17 -11z m1615 -31 c0 -12 3 -18 6
-15 9 9 39 -32 47 -62 8 -33 -9 -51 -47 -50 -17 0 -25 3 -18 6 13 5 18 45 5
41 -12 -4 -15 5 -8 25 10 24 24 21 35 -5 l9 -23 0 23 c1 17 -6 24 -29 29 -16
3 -30 12 -30 19 0 8 -7 14 -15 14 -8 0 -15 5 -15 10 0 6 14 10 30 10 24 0 30
-4 30 -22z m-1930 -68 c0 -5 -18 -10 -40 -10 -22 0 -40 5 -40 10 0 6 18 10 40
10 22 0 40 -4 40 -10z m126 -23 c8 3 14 0 14 -6 0 -13 -46 -15 -54 -2 -8 12 6
23 17 12 5 -5 16 -7 23 -4z m-366 -107 c0 -11 -6 -20 -13 -20 -21 0 -27 11
-14 26 17 19 27 17 27 -6z m1932 -185 c-2 -14 -8 -23 -12 -20 -10 6 -1 45 10
45 4 0 5 -11 2 -25z m-1647 -54 c3 -5 1 -12 -5 -16 -5 -3 -10 1 -10 9 0 18 6
21 15 7z m-75 -96 c0 -13 -21 -35 -33 -35 -5 0 -7 10 -4 23 6 21 5 21 -8 3 -7
-10 -18 -15 -24 -11 -16 10 -13 23 7 27 30 7 62 3 62 -7z m-82 -97 c-6 -17
-78 -23 -78 -7 0 6 8 9 19 6 10 -2 25 -1 32 4 20 12 31 11 27 -3z m3898 -2
c22 -7 63 -17 91 -21 74 -10 85 -21 81 -79 l-3 -48 -47 38 c-26 21 -73 53
-105 70 -31 18 -59 37 -61 43 -5 14 -2 14 44 -3z m-3966 -65 c-10 -21 -30 -37
-30 -26 0 14 21 45 31 45 6 0 6 -7 -1 -19z m-79 -104 c-8 -8 -11 -7 -11 4 0
20 13 34 18 19 3 -7 -1 -17 -7 -23z m2255 13 c104 -18 104 -18 124 -63 25 -55
11 -68 -32 -32 -37 32 -124 75 -150 75 -10 0 -18 7 -18 15 0 18 0 18 76 5z
m3610 -83 c30 -20 85 -97 69 -97 -4 0 -21 12 -39 26 -29 26 -125 74 -173 89
-47 13 -21 21 43 13 38 -5 80 -18 100 -31z m-5138 8 c2 -2 -1 -11 -6 -22 -5
-10 -17 -35 -25 -55 -30 -69 -97 -89 -97 -29 0 16 -5 33 -11 37 -7 4 4 21 30
45 35 33 45 38 73 32 18 -3 34 -7 36 -8z m-828 -33 c0 -5 -9 -17 -21 -28 -15
-13 -20 -14 -17 -4 6 28 38 54 38 32z m1250 -36 c41 -13 84 -26 95 -29 11 -3
-10 -5 -48 -6 -37 0 -77 4 -90 11 -12 6 -28 14 -36 18 -20 9 -26 30 -9 30 7 0
47 -11 88 -24z m-598 -37 c-3 -21 -12 -33 -30 -40 -13 -5 -27 -8 -29 -5 -4 3
55 76 61 76 2 0 1 -14 -2 -31z m36 -102 c3 -25 22 -39 22 -17 0 6 9 10 19 10
13 0 21 -9 26 -30 5 -23 16 -34 42 -45 20 -9 38 -13 41 -10 3 3 16 -2 29 -11
13 -8 38 -14 55 -12 l30 3 -41 51 c-35 44 -50 74 -38 74 2 0 39 -9 83 -20 64
-16 85 -27 109 -54 17 -18 40 -39 53 -45 31 -16 23 -36 -14 -35 -16 1 -37 2
-46 3 -10 1 -18 8 -18 16 0 9 -9 15 -21 15 -17 0 -19 -3 -10 -14 13 -15 1 -29
-37 -41 -12 -3 -30 -18 -39 -31 -12 -19 -22 -24 -40 -19 -16 4 -23 1 -23 -10
0 -8 -4 -15 -10 -15 -5 0 -10 9 -10 20 0 11 -7 20 -15 20 -8 0 -15 7 -15 15 0
8 -5 15 -11 15 -7 0 -9 11 -5 30 5 27 3 30 -19 30 -22 0 -25 -4 -25 -39 0 -37
-1 -39 -32 -36 -29 2 -34 8 -50 51 -19 55 -22 167 -4 161 6 -2 12 -16 14 -30z
m112 13 c11 -6 17 -16 14 -24 -3 -7 2 -20 10 -29 23 -22 20 -30 -6 -16 -38 19
-67 50 -61 65 6 17 18 18 43 4z m501 -40 c4 0 9 -10 12 -21 5 -18 10 -20 34
-14 42 12 76 11 80 -2 3 -7 -33 -23 -91 -42 -101 -33 -176 -41 -176 -18 0 7
-13 26 -30 42 -16 16 -30 32 -30 37 0 13 39 9 63 -6 15 -10 32 -12 57 -7 l35
8 -44 7 c-41 8 -42 9 -20 20 16 8 38 9 64 4 22 -4 43 -7 46 -8z m324 -30 c10
-11 27 -20 38 -20 11 0 36 -5 54 -12 28 -10 38 -9 63 6 36 21 62 11 33 -13
-116 -94 -135 -105 -154 -93 -11 7 -43 17 -71 22 -84 16 -128 30 -128 41 0 5
7 23 15 39 24 47 118 66 150 30z m185 -148 c0 -34 -30 -63 -63 -61 -18 1 -40
-2 -51 -6 -25 -11 -17 15 10 29 10 6 34 23 52 39 34 28 52 28 52 -1z m-1057
-1 c11 -2 8 -23 -8 -54 -12 -24 -12 -28 0 -32 8 -3 22 -7 30 -10 12 -4 13 -9
6 -23 -7 -14 -26 -21 -68 -25 -31 -3 -59 -4 -61 -2 -2 2 -1 35 3 74 8 80 15
85 98 72z"/>
<path d="M638 4473 c7 -3 16 -2 19 1 4 3 -2 6 -13 5 -11 0 -14 -3 -6 -6z"/>
<path d="M716 4313 c-6 -14 -5 -15 5 -6 7 7 10 15 7 18 -3 3 -9 -2 -12 -12z"/>
<path d="M626 4285 c-7 -20 6 -26 21 -10 10 10 9 14 -2 18 -7 3 -16 -1 -19 -8z"/>
<path d="M3145 4148 c-11 -31 -25 -111 -21 -116 6 -6 22 32 31 71 8 40 22 25
35 -40 12 -56 13 -57 29 -36 9 11 24 35 33 52 21 37 35 40 44 6 8 -32 23 -24
17 9 -7 36 -29 52 -48 36 -13 -10 -15 -9 -15 8 0 15 -5 20 -15 16 -8 -4 -15
-14 -15 -23 0 -31 -13 -32 -31 -1 -20 32 -37 38 -44 18z"/>
<path d="M3490 4120 c0 -30 13 -40 25 -20 8 13 -4 50 -16 50 -5 0 -9 -13 -9
-30z"/>
<path d="M3380 4121 c0 -26 17 -36 36 -21 12 11 12 14 -3 26 -25 19 -33 17
-33 -5z"/>
<path d="M3594 4106 c-9 -24 12 -44 28 -28 10 10 8 16 -5 29 -15 15 -17 15
-23 -1z"/>
<path d="M3384 4031 c-3 -20 -12 -58 -19 -86 -29 -109 -65 -307 -65 -359 0
-75 6 -86 46 -86 41 0 101 -23 130 -51 16 -15 43 -22 100 -28 44 -4 95 -16
114 -26 34 -18 34 -17 57 9 17 20 21 34 16 59 -7 39 -30 67 -49 60 -27 -10
-14 6 17 21 21 10 36 13 43 7 7 -6 18 -6 26 -1 17 11 20 9 -95 44 -143 43
-134 35 -120 102 6 32 16 59 22 61 11 4 23 -28 23 -63 0 -24 59 -84 84 -84 25
0 56 18 98 59 41 40 58 97 58 198 0 34 4 52 10 48 6 -3 10 -15 10 -26 0 -11 7
-22 15 -25 8 -4 15 -11 15 -16 0 -20 43 -69 55 -64 14 5 25 -14 25 -45 0 -10
4 -19 9 -19 14 0 22 60 11 80 -7 13 -7 21 1 26 6 3 9 17 6 30 -2 14 0 27 4 30
12 7 11 24 -1 24 -5 0 -10 -6 -10 -14 0 -24 -29 -26 -45 -3 -8 12 -15 27 -15
34 0 6 -5 15 -11 19 -12 7 -9 -54 5 -91 6 -16 4 -15 -12 5 -11 13 -19 27 -16
31 7 11 -37 60 -48 53 -6 -4 -14 0 -19 7 -7 11 -11 10 -23 -6 -14 -19 -15 -19
-68 17 -29 20 -84 46 -123 58 -38 12 -90 27 -115 35 -25 7 -66 13 -92 13 -47
-1 -48 -2 -54 -37z m164 -73 c8 24 46 11 81 -26 23 -25 55 -45 91 -57 63 -22
80 -38 80 -77 0 -16 -5 -28 -12 -28 -7 0 -65 18 -128 39 -63 21 -135 45 -160
52 -63 18 -69 24 -63 67 8 48 18 54 67 34 29 -11 41 -13 44 -4z m-67 -184 c17
-8 29 -17 27 -19 -7 -7 -78 18 -78 27 0 12 18 10 51 -8z m183 -15 c-3 -5 -10
-7 -15 -3 -5 3 -7 10 -3 15 3 5 10 7 15 3 5 -3 7 -10 3 -15z m80 -52 c-19 -11
-18 -57 1 -57 8 0 15 -4 15 -10 0 -5 -9 -10 -20 -10 -24 0 -42 31 -30 51 5 7
7 22 4 31 -9 29 6 42 26 21 14 -15 15 -19 4 -26z m66 8 c0 -8 -4 -15 -10 -15
-5 0 -10 7 -10 15 0 8 5 15 10 15 6 0 10 -7 10 -15z m-443 -72 c-15 -15 -17
-15 -23 1 -8 21 16 40 30 26 7 -7 4 -16 -7 -27z m93 -19 c0 -9 -7 -14 -17 -12
-25 5 -28 28 -4 28 12 0 21 -6 21 -16z m102 -59 c0 -5 -5 -11 -11 -13 -6 -2
-11 4 -11 13 0 9 5 15 11 13 6 -2 11 -8 11 -13z m128 -15 c0 -10 -6 -17 -15
-16 -23 3 -29 14 -15 31 15 18 30 11 30 -15z m28 5 c-3 -3 -9 2 -12 12 -6 14
-5 15 5 6 7 -7 10 -15 7 -18z m-9 -51 c7 5 8 1 4 -10 -5 -13 -3 -16 10 -11 11
4 17 1 17 -8 0 -8 -6 -15 -12 -15 -22 1 -48 26 -48 46 0 15 2 16 9 5 5 -7 14
-11 20 -7z"/>
<path d="M3702 4038 c2 -12 10 -23 18 -23 22 0 19 39 -3 43 -15 3 -18 -1 -15
-20z"/>
<path d="M3215 3980 c-32 -32 -37 -42 -27 -52 11 -11 18 -7 42 22 30 37 42 35
48 -8 6 -44 12 -38 12 11 0 26 1 50 3 55 1 4 -7 8 -18 9 -12 2 -36 -13 -60
-37z"/>
<path d="M3778 4003 c7 -3 16 -2 19 1 4 3 -2 6 -13 5 -11 0 -14 -3 -6 -6z"/>
<path d="M3801 3976 c-8 -10 -9 -16 -1 -21 13 -8 30 3 30 21 0 18 -14 18 -29
0z"/>
<path d="M3107 3973 c-12 -11 -8 -133 4 -133 8 0 10 16 5 50 -4 32 -3 50 4 50
9 0 40 -59 55 -104 4 -15 8 -17 17 -8 9 9 6 24 -12 62 -24 52 -62 95 -73 83z"/>
<path d="M3198 3793 c-27 -31 -41 -64 -30 -75 6 -6 17 4 31 27 25 43 41 38 42
-13 0 -33 1 -35 11 -15 15 32 2 93 -21 93 -10 0 -25 -8 -33 -17z"/>
<path d="M3924 3768 c8 -44 50 -143 65 -153 16 -9 13 27 -4 49 -8 10 -22 42
-31 70 -21 65 -39 85 -30 34z"/>
<path d="M3087 3733 c-14 -13 -7 -43 8 -37 10 4 21 -8 37 -40 12 -25 26 -46
30 -46 15 0 8 30 -19 80 -27 47 -41 58 -56 43z"/>
<path d="M3920 3540 c1 -14 7 -38 15 -55 l15 -30 -6 45 c-7 50 -24 79 -24 40z"/>
<path d="M3125 3510 c25 -11 44 -15 49 -10 14 13 7 17 -44 24 l-45 6 40 -20z"/>
<path d="M3775 3499 c-10 -30 -2 -32 12 -3 6 13 7 24 3 24 -5 0 -12 -9 -15
-21z"/>
<path d="M3840 3489 c0 -3 9 -23 21 -45 18 -36 19 -36 14 -9 -5 25 -35 71 -35
54z"/>
<path d="M3350 3442 c0 -13 52 -58 94 -82 54 -30 140 -43 188 -28 21 6 38 14
38 18 0 12 -84 30 -134 30 -33 0 -52 6 -74 25 -43 36 -112 59 -112 37z"/>
<path d="M3302 3378 c-20 -20 -14 -31 39 -71 41 -32 52 -37 64 -27 20 16 0 44
-27 37 -15 -4 -17 -1 -12 20 6 23 5 24 -14 14 -27 -14 -39 -14 -25 0 11 11 7
39 -6 39 -4 0 -12 -5 -19 -12z m98 -78 c0 -5 -5 -10 -11 -10 -5 0 -7 5 -4 10
3 6 8 10 11 10 2 0 4 -4 4 -10z"/>
<path d="M3872 3365 c-7 -15 -8 -26 -2 -30 8 -5 30 33 30 51 0 14 -18 0 -28
-21z"/>
<path d="M3426 3274 c-9 -23 0 -30 19 -14 8 7 16 10 16 6 1 -3 2 -12 3 -18 1
-7 7 -12 14 -10 7 1 12 -3 12 -9 0 -7 10 -9 25 -7 14 3 28 1 31 -3 10 -17 24
-9 25 14 l0 22 15 -21 c16 -24 54 -22 54 2 0 8 5 14 10 14 6 0 10 -4 10 -10 0
-5 7 -10 15 -10 18 0 18 5 5 30 -12 23 -50 15 -50 -11 0 -11 -7 -19 -15 -19
-8 0 -15 6 -15 14 0 15 -34 31 -48 22 -7 -4 -45 3 -98 19 -15 5 -23 1 -28 -11z"/>
<path d="M3840 3280 c19 -13 30 -13 30 0 0 6 -10 10 -22 10 -19 0 -20 -2 -8
-10z"/>
<path d="M3890 3275 c7 -9 15 -13 17 -11 7 7 -7 26 -19 26 -6 0 -6 -6 2 -15z"/>
<path d="M1357 2142 c4 -10 9 -10 22 0 9 7 17 13 19 14 2 1 -8 1 -21 0 -15 0
-23 -6 -20 -14z"/>
<path d="M1310 2140 c0 -5 5 -10 11 -10 5 0 7 5 4 10 -3 6 -8 10 -11 10 -2 0
-4 -4 -4 -10z"/>
<path d="M1288 2003 c7 -3 16 -2 19 1 4 3 -2 6 -13 5 -11 0 -14 -3 -6 -6z"/>
<path d="M1370 1973 c0 -13 5 -23 10 -23 13 0 13 11 0 30 -8 12 -10 11 -10 -7z"/>
<path d="M1240 1960 c0 -5 5 -10 10 -10 6 0 10 5 10 10 0 6 -4 10 -10 10 -5 0
-10 -4 -10 -10z"/>
<path d="M1270 1920 c8 -5 22 -9 30 -9 10 0 8 3 -5 9 -27 12 -43 12 -25 0z"/>
<path d="M1100 1615 c0 -8 0 -18 -1 -22 0 -4 4 -9 10 -11 6 -2 11 8 11 22 0
14 -4 26 -10 26 -5 0 -10 -7 -10 -15z"/>
<path d="M968 1613 c7 -3 16 -2 19 1 4 3 -2 6 -13 5 -11 0 -14 -3 -6 -6z"/>
<path d="M1498 213 c7 -3 16 -2 19 1 4 3 -2 6 -13 5 -11 0 -14 -3 -6 -6z"/>
<path d="M0 6111 c0 -10 50 -21 89 -20 24 0 24 1 -9 14 -41 16 -80 19 -80 6z"/>
<path d="M175 5863 c-24 -6 -44 -23 -27 -23 6 0 9 -7 6 -15 -4 -8 -2 -15 2
-16 5 0 17 -2 27 -4 13 -3 17 4 17 31 0 19 -1 33 -2 33 -2 -1 -12 -3 -23 -6z"/>
<path d="M0 5809 c0 -5 5 -7 10 -4 5 3 10 8 10 11 0 2 -4 4 -10 4 -5 0 -10 -5
-10 -11z"/>
<path d="M68 5813 c7 -3 16 -2 19 1 4 3 -2 6 -13 5 -11 0 -14 -3 -6 -6z"/>
<path d="M40 5723 c0 -25 6 -46 16 -54 15 -12 16 -9 9 31 -10 61 -25 75 -25
23z"/>
<path d="M9537 5554 c-3 -3 -3 -12 0 -20 3 -9 -2 -14 -15 -14 -11 0 -22 7 -26
15 -7 19 -54 20 -75 1 -21 -18 -91 -31 -91 -16 0 5 -12 10 -27 10 -26 0 -26
-1 -7 -15 18 -14 17 -14 -13 -16 -42 -2 -44 -2 -71 -17 -12 -7 -60 -20 -105
-28 -45 -7 -111 -21 -147 -29 -53 -12 -83 -12 -163 -3 -53 6 -99 9 -102 6 -7
-7 -9 -2017 -2 -2025 4 -3 266 -10 583 -14 348 -5 581 -12 587 -18 16 -16 -1
-29 -46 -36 -23 -4 -48 -12 -54 -17 -7 -6 -20 -8 -28 -4 -9 3 -14 2 -11 -3 3
-5 -1 -15 -10 -22 -13 -10 -17 -10 -24 1 -7 12 -21 11 -87 -3 -43 -10 -115
-30 -161 -44 -80 -25 -83 -27 -78 -52 3 -14 3 -20 0 -13 -3 6 -10 10 -15 6 -5
-3 -16 2 -24 10 -14 13 -21 13 -63 -6 -26 -11 -58 -22 -72 -24 -57 -7 -130
-27 -130 -35 0 -5 -11 -9 -25 -9 -13 0 -29 -8 -34 -17 -10 -17 -12 -17 -26 1
-8 11 -15 14 -15 8 0 -7 -7 -12 -15 -12 -11 0 -15 -8 -13 -27 2 -16 7 -31 12
-34 5 -4 5 -12 1 -19 -6 -10 -11 -8 -22 6 -13 17 -15 17 -26 3 -7 -9 -26 -23
-44 -32 -17 -9 -35 -26 -38 -38 -5 -14 -10 -18 -14 -10 -4 6 -23 10 -42 9 -32
-3 -34 -1 -32 27 2 27 1 28 -5 6 -4 -14 -4 -54 0 -90 4 -36 5 -74 2 -83 -3
-10 -1 -18 5 -18 6 0 11 -18 11 -40 0 -22 -4 -40 -10 -40 -12 0 -12 -123 0
-165 4 -16 11 -47 15 -67 6 -36 4 -38 -20 -38 -16 0 -25 -6 -25 -16 0 -11 5
-14 18 -9 9 4 31 13 47 19 40 15 47 27 29 48 -19 20 -11 38 17 38 24 0 74 51
59 60 -5 3 -2 12 9 22 14 11 22 13 30 5 7 -7 12 -6 17 6 9 24 24 21 25 -5 1
-20 2 -20 6 -4 4 15 7 16 14 5 7 -11 9 -11 9 4 0 9 4 17 9 17 4 0 8 -18 8 -39
0 -39 -17 -59 -39 -45 -5 3 -12 -3 -15 -15 -3 -11 -18 -26 -34 -33 -20 -9 -29
-20 -29 -37 0 -24 0 -24 -21 -5 -17 16 -22 16 -29 4 -6 -8 -10 -20 -10 -26 0
-9 -96 -40 -112 -36 -15 4 -8 -16 8 -22 11 -4 13 -12 8 -28 -6 -20 -5 -21 8
-10 13 10 17 10 22 -4 4 -10 -3 -23 -16 -35 -22 -18 -22 -20 -5 -33 15 -12 15
-15 2 -26 -20 -17 -19 -37 3 -49 15 -9 15 -12 2 -21 -8 -5 -19 -11 -24 -13 -5
-2 -3 -14 4 -27 11 -20 10 -25 -6 -37 -15 -11 -16 -15 -5 -22 10 -6 10 -10 1
-16 -6 -4 -9 -13 -6 -20 2 -7 2 -16 -2 -19 -10 -11 -8 -106 3 -110 6 -3 4 -5
-2 -5 -7 -1 -13 -6 -13 -12 0 -6 7 -9 15 -5 19 7 19 -5 1 -49 -13 -31 -16 -67
-14 -225 0 -19 -3 -165 -6 -325 -4 -159 -4 -302 0 -317 5 -24 11 -28 39 -28
19 0 45 -4 59 -10 16 -6 27 -6 31 1 5 8 89 8 168 0 5 -1 6 -5 3 -9 -3 -5 31
-7 74 -5 48 3 80 1 80 -5 0 -5 20 -13 45 -16 25 -4 45 -11 45 -17 0 -5 9 -9
21 -9 11 0 17 5 14 10 -3 6 2 10 11 10 10 0 25 7 35 16 12 10 25 14 36 9 24
-10 86 -13 98 -4 16 10 155 20 155 10 0 -4 21 -4 46 2 37 9 47 8 55 -4 8 -12
10 -12 20 1 8 12 12 12 16 2 4 -10 8 -10 18 -2 10 8 19 8 35 0 14 -7 26 -8 33
-2 13 10 46 10 63 0 5 -4 16 -3 24 3 22 13 37 11 55 -8 13 -13 18 -14 25 -3 6
9 10 7 15 -9 5 -17 12 -20 28 -15 29 9 50 31 37 39 -5 3 -10 1 -10 -4 0 -13
-20 -14 -39 -2 -12 8 -12 13 3 35 18 29 42 36 32 10 -5 -14 -4 -15 8 -5 16 14
66 22 79 14 5 -3 0 -14 -9 -24 -17 -19 -17 -20 2 -12 10 4 34 17 53 30 19 13
38 23 42 23 5 0 9 195 8 433 0 405 -1 430 -16 400 -21 -42 -33 -42 -31 1 1 24
7 37 22 45 16 7 17 10 5 10 -12 1 -18 12 -21 41 -3 36 -1 40 19 40 l23 0 0
395 -1 395 -25 0 c-14 0 -22 4 -19 10 3 5 15 10 26 10 15 0 19 7 19 36 l0 37
-76 -6 c-101 -8 -123 -27 -30 -27 50 0 67 -3 63 -12 -2 -9 -27 -13 -73 -13
-57 0 -69 -3 -72 -17 -4 -19 -27 -24 -36 -9 -10 15 -45 0 -66 -27 -18 -22 -20
-22 -21 -6 0 11 -3 14 -5 7 -7 -17 -44 22 -47 50 -2 21 2 22 86 25 86 3 89 4
105 32 9 17 21 30 25 30 5 0 22 9 37 20 21 15 34 18 52 11 23 -9 23 -9 -7 -17
l-30 -8 25 -7 c14 -4 35 -7 48 -8 l22 -1 0 513 c0 386 -3 516 -12 525 -9 9 -9
12 0 12 9 0 12 29 11 110 l-2 110 -34 0 c-20 0 -32 4 -28 10 3 6 19 10 36 10
l29 0 0 608 c-1 637 -1 642 -44 642 -9 0 -25 5 -36 10 -11 6 -29 15 -40 20
-11 6 -28 10 -39 10 -10 0 -44 12 -75 26 -31 14 -77 27 -103 30 -27 2 -75 7
-108 10 -102 10 -129 11 -163 3 -27 -6 -38 -3 -59 17 -29 27 -28 26 -36 18z
m650 -1230 c-3 -3 -12 -4 -19 -1 -8 3 -5 6 6 6 11 1 17 -2 13 -5z m-502 -14
c26 -7 22 -8 -22 -9 -30 0 -53 3 -53 9 0 11 31 11 75 0z m70 -14 c8 -7 12 -16
9 -19 -10 -9 -44 5 -44 19 0 18 18 18 35 0z m82 8 c-3 -3 -12 -4 -19 -1 -8 3
-5 6 6 6 11 1 17 -2 13 -5z m248 -4 c-3 -5 -16 -10 -28 -9 -21 0 -21 1 -2 9
28 12 37 12 30 0z m-556 -6 c17 -4 31 -11 31 -16 0 -5 -9 -7 -19 -3 -11 3 -22
1 -26 -5 -11 -18 -35 -12 -29 8 5 16 5 16 -9 0 -16 -20 -33 -23 -42 -8 -17 27
25 37 94 24z m592 -27 c-13 -13 -26 -3 -16 12 3 6 11 8 17 5 6 -4 6 -10 -1
-17z m-435 -24 c-3 -3 -13 -2 -23 2 -17 8 -17 8 0 12 9 3 18 10 18 16 1 7 3 4
6 -6 3 -10 2 -21 -1 -24z m352 10 c-10 -2 -26 -2 -35 0 -10 3 -2 5 17 5 19 0
27 -2 18 -5z m-653 -13 c3 -5 -3 -10 -15 -10 -12 0 -18 5 -15 10 3 6 10 10 15
10 5 0 12 -4 15 -10z m62 4 c-3 -3 -12 -4 -19 -1 -8 3 -5 6 6 6 11 1 17 -2 13
-5z m447 -37 c28 -15 27 -15 -31 -19 -73 -5 -111 6 -93 27 15 18 82 13 124 -8z
m-629 -7 c3 -5 -1 -10 -10 -10 -9 0 -13 5 -10 10 3 6 8 10 10 10 2 0 7 -4 10
-10z m965 6 c0 -3 -4 -8 -10 -11 -5 -3 -10 -1 -10 4 0 6 5 11 10 11 6 0 10 -2
10 -4z m-117 -13 c-7 -2 -19 -2 -25 0 -7 3 -2 5 12 5 14 0 19 -2 13 -5z m-543
-33 c-36 -11 -50 -11 -50 0 0 6 17 10 38 9 33 -1 34 -2 12 -9z m532 -38 c-13
-2 -31 0 -40 3 -14 6 -13 8 6 16 15 6 21 13 16 21 -4 7 4 2 17 -12 l24 -25
-23 -3z m-289 1 c-7 -2 -21 -2 -30 0 -10 3 -4 5 12 5 17 0 24 -2 18 -5z m-26
-49 c-3 -3 -12 -4 -19 -1 -8 3 -5 6 6 6 11 1 17 -2 13 -5z m443 -43 c0 -6 -4
-13 -10 -16 -5 -3 -10 1 -10 9 0 9 5 16 10 16 6 0 10 -4 10 -9z m-297 -18 c-7
-2 -21 -2 -30 0 -10 3 -4 5 12 5 17 0 24 -2 18 -5z m-150 -10 c-7 -2 -19 -2
-25 0 -7 3 -2 5 12 5 14 0 19 -2 13 -5z m-323 -24 c0 -15 -4 -19 -16 -15 -9 3
-20 6 -25 6 -5 0 -9 7 -9 15 0 9 9 15 25 15 19 0 25 -5 25 -21z m-70 -9 c0 -6
-27 -10 -62 -9 -45 0 -57 3 -43 9 28 12 105 12 105 0z m-322 -17 c-10 -2 -26
-2 -35 0 -10 3 -2 5 17 5 19 0 27 -2 18 -5z m872 -3 c0 -5 -9 -10 -21 -10 -11
0 -17 5 -14 10 3 6 13 10 21 10 8 0 14 -4 14 -10z m-1110 -40 c0 -5 -11 -10
-24 -10 -14 0 -28 5 -31 10 -4 6 7 10 24 10 17 0 31 -4 31 -10z m833 -17 c-7
-2 -19 -2 -25 0 -7 3 -2 5 12 5 14 0 19 -2 13 -5z m-728 -13 c-3 -5 -10 -10
-16 -10 -5 0 -9 5 -9 10 0 6 7 10 16 10 8 0 12 -4 9 -10z m913 -397 c-10 -2
-28 -2 -40 0 -13 2 -5 4 17 4 22 1 32 -1 23 -4z m82 -33 c-36 -11 -50 -11 -50
0 0 6 17 10 38 9 33 -1 34 -2 12 -9z m-780 -25 c0 -17 -2 -18 -25 -9 -13 5
-14 8 -3 15 19 13 28 11 28 -6z m210 -9 c0 -2 -7 -6 -15 -10 -8 -3 -15 -1 -15
4 0 6 7 10 15 10 8 0 15 -2 15 -4z m500 -96 c0 -5 -5 -10 -11 -10 -5 0 -7 5
-4 10 3 6 8 10 11 10 2 0 4 -4 4 -10z m-183 -36 c-3 -3 -12 -4 -19 -1 -8 3 -5
6 6 6 11 1 17 -2 13 -5z m-37 -19 c0 -16 -12 -18 -49 -8 -23 6 -23 7 -5 14 31
12 54 10 54 -6z m229 -229 c-8 -8 -13 -8 -16 2 -3 6 -20 12 -39 12 -24 0 -34
5 -34 15 0 8 -4 15 -10 15 -5 0 -10 -10 -10 -22 0 -12 -3 -19 -6 -15 -16 16 7
53 41 66 30 11 37 10 51 -4 9 -9 13 -19 10 -23 -4 -3 -11 0 -16 7 -9 15 -40 8
-40 -9 0 -7 8 -9 20 -5 12 4 20 2 20 -5 0 -6 4 -9 9 -5 5 3 12 -3 14 -12 3
-10 5 11 5 47 0 95 5 107 9 21 3 -48 0 -78 -8 -85z m-122 62 c-3 -8 -6 -5 -6
6 -1 11 2 17 5 13 3 -3 4 -12 1 -19z m-751 -54 c8 3 11 0 7 -9 -3 -8 -9 -13
-13 -10 -5 3 -12 0 -16 -7 -10 -16 -25 27 -17 49 6 14 8 14 16 -6 6 -12 16
-20 23 -17z m691 9 c2 -6 -10 -10 -29 -8 -17 1 -34 7 -36 14 -2 7 8 10 29 7
18 -2 35 -8 36 -13z m43 -3 c0 -5 -5 -10 -11 -10 -5 0 -7 5 -4 10 3 6 8 10 11
10 2 0 4 -4 4 -10z m-57 -92 c6 -4 8 -10 4 -15 -14 -13 -27 20 -25 62 l1 40 4
-40 c3 -22 10 -43 16 -47z m127 78 c0 -11 -19 -15 -25 -6 -3 5 1 10 9 10 9 0
16 -2 16 -4z m43 -9 c3 -8 1 -20 -4 -28 -9 -15 -9 -15 -13 19 -3 24 9 30 17 9z
m292 -16 c3 -5 1 -12 -5 -16 -5 -3 -10 1 -10 9 0 18 6 21 15 7z m-1035 -60 c0
-5 -5 -11 -12 -13 -13 -5 -4 -38 11 -38 5 0 11 6 13 13 2 11 8 11 28 0 l25
-13 -29 0 c-22 0 -27 -4 -22 -16 4 -9 1 -23 -5 -31 -9 -10 -9 -17 -1 -25 19
-19 14 -28 -13 -28 -22 0 -25 -4 -25 -39 0 -33 4 -40 23 -43 18 -2 23 -11 27
-44 6 -39 5 -40 -20 -37 -23 4 -24 3 -7 -10 21 -17 22 -37 2 -37 -15 0 -20 17
-16 55 2 24 -18 75 -30 75 -5 0 -9 17 -9 38 l-1 37 -18 -34 -18 -34 -7 36 c-5
24 -12 37 -23 37 -13 0 -15 -8 -10 -40 3 -22 1 -40 -3 -40 -5 0 -11 -13 -15
-30 -8 -34 -6 -34 -39 -19 -14 7 -27 21 -29 33 -2 12 -7 2 -11 -26 -11 -64
-26 -61 -26 6 0 54 -17 85 -40 71 -5 -3 -10 1 -10 10 0 9 -7 29 -15 45 -16 32
-4 50 20 30 8 -6 26 -10 42 -7 l28 4 -32 8 c-32 7 -45 24 -20 26 10 0 10 2 0
6 -21 8 -15 19 10 18 13 0 31 -8 41 -17 11 -11 33 -18 57 -18 39 0 54 15 22
23 -10 2 -1 2 20 0 30 -4 41 0 56 18 l18 23 7 -22 c4 -12 15 -22 24 -22 12 0
13 3 4 12 -15 15 -15 35 1 53 14 16 27 19 27 6z m640 -1 c0 -5 -9 -10 -20 -10
-11 0 -20 5 -20 10 0 6 9 10 20 10 11 0 20 -4 20 -10z m435 0 c7 -12 -19 -12
-55 0 -22 7 -21 8 12 9 20 1 40 -3 43 -9z m-488 -42 c-3 -8 -6 -5 -6 6 -1 11
2 17 5 13 3 -3 4 -12 1 -19z m93 1 c0 -5 -7 -9 -15 -9 -8 0 -15 7 -15 15 0 9
6 12 15 9 8 -4 15 -10 15 -15z m-95 -26 c18 -14 18 -15 2 -9 -10 3 -23 6 -28
6 -5 0 -9 5 -9 10 0 14 12 12 35 -7z m-497 -86 c17 2 22 -3 22 -22 0 -18 5
-25 19 -25 14 0 19 -6 18 -20 -2 -32 -49 -23 -57 10 -5 21 -11 25 -39 22 -30
-3 -33 -1 -26 15 5 10 11 38 13 63 l5 45 12 -45 c10 -37 15 -45 33 -43z m119
21 c-3 -8 -6 -5 -6 6 -1 11 2 17 5 13 3 -3 4 -12 1 -19z m554 8 c-10 -11 -10
-20 -1 -36 13 -25 4 -42 -10 -20 -8 12 -10 11 -10 -6 0 -13 -8 -24 -20 -27
-11 -3 -20 -13 -20 -22 0 -12 6 -16 20 -12 13 3 20 0 20 -9 0 -23 -57 -18 -63
6 -3 11 0 20 5 20 6 0 4 8 -6 18 -15 18 -15 20 8 45 14 15 31 27 39 27 8 0 20
7 27 15 7 8 15 15 17 15 3 0 0 -6 -6 -14z m-1091 -40 c0 -8 -4 -18 -10 -21 -5
-3 -10 3 -10 14 0 12 5 21 10 21 6 0 10 -6 10 -14z m910 -46 c0 -5 -8 -10 -17
-10 -15 0 -16 2 -3 10 19 12 20 12 20 0z m375 1 c3 -6 18 -6 35 -1 32 9 100 2
100 -10 0 -4 -20 -11 -45 -15 -47 -6 -115 9 -115 26 0 12 17 12 25 0z m-1065
-41 c-6 -11 -15 -20 -20 -20 -14 0 -12 27 3 33 23 10 28 7 17 -13z m1060 5 c0
-18 42 -20 120 -5 29 6 55 8 57 6 2 -1 -1 -14 -6 -27 -5 -13 -10 -18 -10 -11
-1 17 -16 15 -35 -4 -15 -14 -16 -14 -16 0 0 22 -7 20 -50 -14 -60 -47 -75
-40 -79 38 -1 17 3 32 9 32 5 0 10 -7 10 -15z m-1023 -41 c-3 -3 -12 -4 -19
-1 -8 3 -5 6 6 6 11 1 17 -2 13 -5z m1177 -30 c7 -17 0 -34 -14 -34 -11 0 -21
30 -14 41 8 14 21 11 28 -7z m-922 -9 c0 -5 -5 -11 -11 -13 -6 -2 -11 4 -11
13 0 9 5 15 11 13 6 -2 11 -8 11 -13z m-72 -10 c-7 -8 -17 -12 -22 -9 -6 4 -5
10 3 15 22 14 33 10 19 -6z m-184 -32 c-11 -11 -19 6 -11 24 8 17 8 17 12 0 3
-10 2 -21 -1 -24z m144 5 c0 -5 -4 -8 -10 -8 -5 0 -10 10 -10 23 0 18 2 19 10
7 5 -8 10 -18 10 -22z m855 -4 c-5 -51 -15 -55 -15 -6 0 23 4 42 9 42 5 0 8
-16 6 -36z m-35 -65 c-8 -3 -34 -9 -57 -13 -35 -5 -43 -3 -43 10 0 11 -6 14
-22 8 -13 -3 -24 -11 -26 -15 -7 -19 -20 -8 -18 16 0 16 7 25 18 25 9 0 20 5
24 11 3 6 17 8 30 5 15 -4 26 -1 32 9 4 9 21 19 38 24 28 7 29 6 34 -33 4 -31
1 -43 -10 -47z m97 69 c-3 -8 -6 -5 -6 6 -1 11 2 17 5 13 3 -3 4 -12 1 -19z
m-1246 -21 c-8 -8 -11 -7 -11 4 0 20 13 34 18 19 3 -7 -1 -17 -7 -23z m286 11
c-3 -8 -6 -5 -6 6 -1 11 2 17 5 13 3 -3 4 -12 1 -19z m918 -43 c0 -30 -4 -45
-13 -45 -12 0 -11 15 5 73 7 26 8 21 8 -28z m-945 25 c12 -8 9 -10 -12 -10
-16 0 -28 5 -28 10 0 13 20 13 40 0z m-60 -22 c0 -6 -6 -8 -14 -5 -8 3 -17 0
-19 -7 -6 -15 -57 -28 -57 -14 0 5 14 14 30 19 17 6 30 15 30 20 0 4 7 6 15 3
8 -4 15 -11 15 -16z m770 -43 c13 -16 8 -18 -27 -9 -13 4 -23 10 -23 15 0 15
37 10 50 -6z m-663 -1 c-3 -3 -12 -4 -19 -1 -8 3 -5 6 6 6 11 1 17 -2 13 -5z
m-350 -20 c-3 -3 -12 -4 -19 -1 -8 3 -5 6 6 6 11 1 17 -2 13 -5z m1047 -27 c6
-26 6 -27 -13 -10 -15 13 -18 20 -9 30 13 16 13 16 22 -20z m38 21 c-9 -9 -15
-9 -24 0 -9 9 -7 12 12 12 19 0 21 -3 12 -12z m175 -65 c2 -31 0 -53 -4 -49
-4 4 -8 32 -10 63 -2 72 10 60 14 -14z m91 50 c-16 -2 -40 -2 -55 0 -16 2 -3
4 27 4 30 0 43 -2 28 -4z m-1288 -27 c0 -2 -7 -6 -15 -10 -8 -3 -15 -1 -15 4
0 6 7 10 15 10 8 0 15 -2 15 -4z m1170 -82 c0 -14 -6 -24 -14 -24 -8 0 -13 -8
-12 -17 1 -13 -10 -21 -41 -27 -27 -6 -43 -16 -44 -25 -1 -9 -4 -5 -8 9 -4 14
-4 30 1 37 6 7 7 16 4 22 -3 5 7 12 23 16 16 3 37 14 47 24 24 23 44 16 44
-15z m-1243 -16 c-3 -8 -6 -5 -6 6 -1 11 2 17 5 13 3 -3 4 -12 1 -19z m93 -19
c0 -5 -18 -9 -40 -9 -37 0 -55 13 -28 22 18 6 68 -3 68 -13z m1267 -35 l29 -6
-3 -121 c-4 -138 -19 -208 -43 -204 -9 1 -15 -6 -15 -18 0 -11 -7 -20 -15 -20
-11 0 -14 9 -12 34 2 28 0 32 -12 22 -17 -14 -29 0 -20 23 4 10 1 16 -9 16 -8
0 -18 -6 -20 -12 -3 -7 -4 1 -2 17 2 26 7 30 34 33 19 2 31 9 31 18 0 8 4 14
8 14 16 0 11 40 -6 41 -11 0 -12 3 -4 6 6 2 12 15 12 27 0 12 6 28 13 35 10
11 8 11 -11 1 -13 -6 -31 -9 -39 -6 -13 5 -15 0 -10 -35 3 -23 11 -46 19 -50
8 -6 -1 -7 -22 -3 -23 4 -30 2 -22 -3 9 -7 3 -10 -20 -10 -30 0 -30 1 -10 10
15 7 21 16 17 28 -4 10 -1 27 5 38 9 17 8 20 -6 14 -14 -5 -15 -3 -4 16 7 13
17 20 26 17 17 -7 18 6 2 22 -9 9 -9 12 0 12 7 0 12 9 12 19 0 18 12 24 56 30
6 0 25 -2 41 -5z m-217 -167 c0 -18 -4 -38 -8 -45 -5 -7 -8 8 -8 37 1 27 4 47
9 44 4 -2 7 -19 7 -36z m2 -159 c-9 -9 -12 -7 -12 12 0 19 3 21 12 12 9 -9 9
-15 0 -24z m108 -44 c0 -8 -4 -12 -10 -9 -5 3 -10 10 -10 16 0 5 5 9 10 9 6 0
10 -7 10 -16z m155 -506 c11 -187 11 -206 -3 -220 -10 -10 -17 -10 -32 0 -11
7 -50 17 -87 23 -38 6 -90 15 -118 19 -27 5 -59 9 -70 10 -16 1 -14 4 10 15
29 14 29 15 8 21 -13 3 -23 10 -23 15 0 5 -7 9 -16 9 -8 0 -12 -5 -9 -10 4 -7
-2 -9 -19 -4 -28 7 -34 -4 -14 -24 7 -7 8 -12 2 -12 -5 0 -14 8 -21 18 -8 13
-20 18 -40 15 -30 -5 -83 11 -83 24 1 8 23 19 150 76 30 13 75 28 100 32 27 5
63 22 95 46 29 22 56 39 61 39 5 1 27 9 49 20 22 11 43 19 46 20 3 0 10 -60
14 -132z m-880 -358 c3 -11 11 -20 16 -20 13 0 11 18 -3 23 -7 3 2 6 20 6 17
1 32 -3 32 -8 0 -6 12 -6 30 1 20 7 35 7 43 0 6 -5 21 -12 32 -15 12 -3 7 -5
-15 -6 -71 -2 -108 -6 -114 -12 -3 -3 -34 -4 -68 -3 -35 2 -67 3 -72 4 -10 0
33 35 54 43 28 10 39 7 45 -13z m239 -25 c-5 -12 -10 -13 -20 -4 -19 15 -18
19 6 19 13 0 18 -5 14 -15z m44 -13 c2 -7 -5 -12 -17 -12 -14 0 -19 5 -14 15
6 17 25 15 31 -3z m82 9 c0 -9 -33 -21 -57 -21 -7 0 -13 7 -13 15 0 10 11 15
35 15 19 0 35 -4 35 -9z"/>
<path d="M9040 2840 c0 -19 3 -21 12 -12 9 9 9 15 0 24 -9 9 -12 7 -12 -12z"/>
<path d="M9208 2723 c7 -3 16 -2 19 1 4 3 -2 6 -13 5 -11 0 -14 -3 -6 -6z"/>
<path d="M10060 2659 c-24 -18 -24 -19 -4 -19 23 0 50 25 37 33 -5 3 -20 -3
-33 -14z"/>
<path d="M10109 2055 c-1 -3 -2 -15 -2 -27 -1 -13 -7 -25 -14 -28 -9 -4 -7 -9
7 -18 19 -11 20 -10 20 33 0 25 -2 45 -5 45 -3 0 -5 -2 -6 -5z"/>
<path d="M10138 2003 c7 -3 16 -2 19 1 4 3 -2 6 -13 5 -11 0 -14 -3 -6 -6z"/>
<path d="M10035 1439 c7 -11 65 -12 65 -1 0 4 -16 8 -35 9 -20 1 -33 -3 -30
-8z"/>
<path d="M10140 1420 c0 -5 5 -10 10 -10 6 0 10 5 10 10 0 6 -4 10 -10 10 -5
0 -10 -4 -10 -10z"/>
<path d="M9915 1340 c3 -5 10 -10 16 -10 5 0 9 5 9 10 0 6 -7 10 -16 10 -8 0
-12 -4 -9 -10z"/>
<path d="M9987 1296 c-4 -10 -1 -13 9 -9 7 3 14 9 14 14 0 14 -17 10 -23 -5z"/>
<path d="M10017 1289 c-7 -25 13 -49 40 -49 18 0 16 17 -2 24 -9 3 -19 15 -24
28 l-8 22 -6 -25z"/>
<path d="M660 5229 c0 -5 5 -7 10 -4 6 3 10 8 10 11 0 2 -4 4 -10 4 -5 0 -10
-5 -10 -11z"/>
<path d="M1 4804 l0 -219 19 55 c14 38 19 78 18 131 -2 65 1 81 25 121 28 49
55 62 105 52 25 -5 31 -2 37 16 4 12 5 23 3 26 -3 2 -36 8 -74 13 -38 5 -84
13 -101 16 l-33 8 1 -219z"/>
<path d="M131 3331 c-17 -16 -31 -38 -31 -50 0 -31 -29 -26 -67 11 l-33 32 0
-230 0 -229 128 -63 c102 -50 136 -62 175 -62 43 0 49 3 67 33 11 17 20 45 20
61 0 33 -41 199 -52 206 -3 3 -23 59 -42 125 -48 160 -52 168 -83 183 -38 17
-47 16 -82 -17z"/>
<path d="M8884 3079 c-10 -17 13 -36 27 -22 12 12 4 33 -11 33 -5 0 -12 -5
-16 -11z"/>
<path d="M8800 3000 c0 -5 5 -10 11 -10 5 0 7 5 4 10 -3 6 -8 10 -11 10 -2 0
-4 -4 -4 -10z"/>
<path d="M8900 2570 c-22 -7 -21 -8 13 -9 23 -1 36 3 32 9 -7 11 -10 11 -45 0z"/>
<path d="M8960 2570 c0 -5 5 -10 11 -10 5 0 7 5 4 10 -3 6 -8 10 -11 10 -2 0
-4 -4 -4 -10z"/>
<path d="M3848 1433 c-15 -2 -30 -12 -33 -22 -3 -9 -1 -109 5 -221 6 -146 13
-206 22 -212 22 -13 239 -9 297 6 61 17 123 56 156 101 30 38 41 116 25 174
-17 63 -91 135 -161 156 -53 15 -257 28 -311 18z m432 -295 c-12 -40 -44 -74
-93 -100 -50 -25 -186 -43 -259 -34 -58 7 -58 8 -58 41 0 26 3 33 15 29 8 -4
15 -1 15 6 0 29 33 42 128 51 138 13 185 20 200 31 6 6 12 7 12 4 0 -4 8 -3
17 3 26 14 33 5 23 -31z"/>
<path d="M5592 1387 c-12 -14 -20 -492 -8 -504 4 -5 92 -8 194 -8 182 0 188 1
245 27 69 32 140 102 157 153 18 55 8 154 -21 202 -65 108 -168 143 -425 143
-94 0 -135 -4 -142 -13z m548 -284 c0 -53 -27 -102 -78 -140 -77 -59 -171 -73
-365 -57 -72 7 -77 8 -77 30 0 41 30 102 53 108 12 3 53 6 90 6 77 0 202 16
232 30 11 5 39 14 62 20 24 6 49 17 55 25 21 23 28 17 28 -22z"/>
<path d="M3033 1141 c0 -11 5 -18 9 -15 4 3 5 11 1 19 -7 21 -12 19 -10 -4z"/>
<path d="M3065 1149 c-4 -6 -5 -13 -2 -16 7 -7 27 6 27 18 0 12 -17 12 -25 -2z"/>
<path d="M10030 939 c0 -5 5 -7 10 -4 6 3 10 8 10 11 0 2 -4 4 -10 4 -5 0 -10
-5 -10 -11z"/>
<path d="M8844 922 c4 -7 20 -12 36 -12 22 0 28 -5 27 -18 -1 -16 -5 -17 -33
-7 -17 6 -38 16 -46 22 -16 14 -138 16 -138 3 0 -12 29 -27 60 -31 15 -3 24 1
23 7 -3 18 35 24 48 8 9 -11 7 -14 -10 -14 -11 0 -21 -4 -21 -10 0 -14 -74
-12 -88 2 -9 9 -12 8 -12 -4 0 -26 12 -29 140 -32 95 -2 120 0 120 10 0 8 9
19 20 26 24 16 26 28 3 28 -9 0 -14 -3 -10 -6 6 -7 -16 -34 -28 -34 -4 0 -4
14 0 30 6 28 5 30 -22 30 -15 0 -39 3 -52 7 -17 4 -22 3 -17 -5z"/>
<path d="M9098 913 c7 -3 16 -2 19 1 4 3 -2 6 -13 5 -11 0 -14 -3 -6 -6z"/>
<path d="M586 886 c-74 -28 -86 -44 -60 -79 25 -35 60 -34 135 1 64 29 73 48
39 82 -25 25 -40 25 -114 -4z"/>
<path d="M9730 893 c0 -10 -4 -14 -8 -8 -11 16 -102 16 -102 0 0 -20 -32 -28
-42 -10 -5 8 -14 15 -21 15 -7 0 -6 -4 3 -10 18 -11 18 -11 -87 -14 -82 -3
-129 -20 -101 -37 14 -9 2 -15 -42 -22 -21 -3 -22 -5 -7 -11 9 -5 25 -5 35 -1
9 4 37 9 62 11 25 2 58 8 73 14 15 5 26 6 23 2 -3 -6 155 -7 174 -1 3 1 10 0
15 -1 6 -1 26 -4 45 -7 19 -2 42 -7 50 -10 8 -3 23 -5 33 -4 10 1 24 -2 30 -7
7 -5 23 -8 37 -7 14 2 39 4 56 4 23 1 33 7 37 22 4 14 10 18 18 13 10 -6 10
-9 1 -12 -23 -7 -12 -21 23 -28 36 -6 58 -24 31 -24 -9 0 -16 -4 -16 -10 0 -5
15 -10 34 -10 41 0 156 50 156 68 0 7 -4 11 -9 7 -5 -3 -12 -1 -16 5 -4 6 -10
8 -15 5 -11 -7 -81 65 -74 76 3 5 -5 9 -18 9 -23 0 -66 -24 -79 -43 -8 -12
-31 1 -24 13 9 15 -12 20 -24 6 -9 -11 -6 -17 19 -27 16 -8 30 -17 30 -21 0
-8 -42 2 -58 15 -9 7 -16 7 -24 -1 -7 -7 -25 -12 -40 -12 -15 0 -28 -4 -28
-10 0 -5 -7 -7 -15 -4 -8 4 -15 12 -15 20 0 8 6 11 15 8 8 -4 15 -1 15 5 0 6
-7 11 -15 11 -9 0 -15 9 -15 21 0 18 -3 17 -26 -11 -24 -28 -28 -30 -44 -15
-9 8 -20 12 -24 8 -4 -5 -6 1 -4 11 1 10 -3 21 -9 23 -8 3 -13 -3 -13 -14z
m245 -63 c3 -6 -1 -13 -10 -16 -19 -8 -30 0 -20 15 8 14 22 14 30 1z m75 -30
c0 -5 -4 -10 -10 -10 -5 0 -10 5 -10 10 0 6 5 10 10 10 6 0 10 -4 10 -10z"/>
<path d="M9772 888 c7 -19 38 -22 38 -4 0 10 -9 16 -21 16 -12 0 -19 -5 -17
-12z"/>
<path d="M9046 878 c5 -7 2 -9 -9 -5 -11 4 -14 2 -10 -9 4 -10 -3 -14 -23 -15
-16 -1 -32 -1 -36 0 -5 0 -8 -4 -8 -10 0 -6 10 -10 23 -9 12 1 24 1 27 0 3 -1
28 -3 55 -5 28 -2 87 -5 132 -9 68 -4 82 -3 87 10 9 24 8 26 -11 16 -21 -11
-46 -4 -37 10 8 13 -26 38 -51 37 -16 -1 -14 -3 8 -12 15 -6 27 -14 27 -18 0
-11 -94 -2 -98 10 -2 7 -14 8 -29 5 -18 -5 -24 -3 -19 5 5 7 -1 11 -14 11 -14
0 -19 -4 -14 -12z"/>
<path d="M9935 870 c4 -6 11 -8 16 -5 14 9 11 15 -7 15 -8 0 -12 -5 -9 -10z"/>
<path d="M9900 859 c0 -5 5 -7 10 -4 6 3 10 8 10 11 0 2 -4 4 -10 4 -5 0 -10
-5 -10 -11z"/>
<path d="M9480 780 c0 -13 11 -13 30 0 12 8 11 10 -7 10 -13 0 -23 -4 -23 -10z"/>
<path d="M9540 780 c20 -13 33 -13 25 0 -3 6 -14 10 -23 10 -15 0 -15 -2 -2
-10z"/>
<path d="M580 757 l-25 -10 24 -5 c13 -2 28 1 33 6 15 15 -4 21 -32 9z"/>
<path d="M8697 753 c-4 -3 -7 -11 -7 -17 0 -6 5 -5 12 2 6 6 9 14 7 17 -3 3
-9 2 -12 -2z"/>
<path d="M9238 753 c7 -3 16 -2 19 1 4 3 -2 6 -13 5 -11 0 -14 -3 -6 -6z"/>
<path d="M10010 740 c0 -5 5 -10 10 -10 6 0 10 5 10 10 0 6 -4 10 -10 10 -5 0
-10 -4 -10 -10z"/>
<path d="M3854 719 c-14 -18 6 -403 22 -419 6 -6 74 -11 165 -13 172 -2 222 9
289 66 72 62 86 126 46 212 -26 57 -66 94 -139 132 -46 23 -65 26 -211 30
-131 5 -163 3 -172 -8z m504 -250 c4 -24 -40 -81 -88 -114 -44 -30 -47 -30
-196 -33 -167 -4 -177 -1 -163 54 5 17 20 43 33 57 23 25 28 26 148 27 125 0
160 3 213 19 37 11 49 9 53 -10z"/>
<path d="M9188 723 c7 -3 16 -2 19 1 4 3 -2 6 -13 5 -11 0 -14 -3 -6 -6z"/>
<path d="M9965 700 c-3 -5 3 -10 14 -10 12 0 21 5 21 10 0 6 -6 10 -14 10 -8
0 -18 -4 -21 -10z"/>
<path d="M10180 703 c-74 -5 -111 -13 -105 -23 9 -15 165 5 165 20 0 6 -3 9
-7 8 -5 -1 -28 -3 -53 -5z"/>
<path d="M9910 669 c0 -5 5 -7 10 -4 6 3 10 8 10 11 0 2 -4 4 -10 4 -5 0 -10
-5 -10 -11z"/>
<path d="M540 650 c0 -5 5 -10 11 -10 5 0 7 5 4 10 -3 6 -8 10 -11 10 -2 0 -4
-4 -4 -10z"/>
<path d="M9337 633 c-13 -12 -7 -25 8 -19 8 3 15 1 15 -4 0 -6 5 -10 10 -10 6
0 5 8 -2 20 -14 21 -21 24 -31 13z"/>
<path d="M9528 623 c7 -3 16 -2 19 1 4 3 -2 6 -13 5 -11 0 -14 -3 -6 -6z"/>
<path d="M9612 618 c-7 -7 -12 -16 -12 -20 0 -15 27 -8 45 12 18 19 17 20 -1
20 -11 0 -25 -5 -32 -12z"/>
<path d="M9030 600 c-12 -8 -11 -10 7 -10 12 0 25 5 28 10 8 13 -15 13 -35 0z"/>
<path d="M9970 590 c0 -5 7 -10 15 -10 8 0 15 5 15 10 0 6 -7 10 -15 10 -8 0
-15 -4 -15 -10z"/>
<path d="M520 565 c0 -8 4 -15 10 -15 5 0 7 7 4 15 -4 8 -8 15 -10 15 -2 0 -4
-7 -4 -15z"/>
<path d="M8728 503 c-21 -9 -38 -20 -38 -24 0 -5 2 -9 5 -9 10 0 85 40 85 45
0 7 -11 5 -52 -12z"/>
<path d="M5567 425 c-4 -9 -7 -109 -7 -221 l0 -204 245 0 c135 0 245 2 245 5
0 4 -7 19 -15 34 -8 16 -24 64 -35 107 -28 103 -61 162 -117 209 -60 51 -131
76 -229 82 -70 5 -82 3 -87 -12z"/>
<path d="M993 403 c-7 -2 -13 -11 -13 -19 0 -12 4 -12 20 -2 31 20 26 35 -7
21z"/>
<path d="M8698 403 c7 -3 16 -2 19 1 4 3 -2 6 -13 5 -11 0 -14 -3 -6 -6z"/>
<path d="M9503 358 c8 -23 -2 -29 -25 -17 -29 16 -68 21 -68 10 0 -6 -6 -8
-14 -5 -19 7 -56 -13 -56 -30 0 -38 85 -75 131 -57 13 5 18 10 12 10 -18 1
-16 21 2 21 8 0 15 -4 15 -10 0 -5 10 -8 23 -6 12 3 25 5 30 5 15 2 6 20 -13
26 -11 3 -20 14 -20 23 0 9 -5 24 -11 32 -9 13 -10 13 -6 -2z m-58 -68 c3 -5
-1 -10 -9 -10 -9 0 -16 5 -16 10 0 6 4 10 9 10 6 0 13 -4 16 -10z"/>
<path d="M732 311 c-61 -27 -136 -63 -166 -81 l-54 -33 -1 -98 -1 -99 34 0
c20 0 40 8 51 20 l18 20 14 -20 c9 -13 25 -20 46 -20 24 0 28 3 17 10 -8 5
-10 10 -5 11 6 1 -3 4 -20 8 -22 4 -31 13 -33 30 -3 19 -6 21 -13 10 -8 -12
-12 -11 -24 5 -32 42 -10 74 80 119 l50 25 -35 6 c-19 3 -46 7 -60 9 -23 3
-22 4 15 21 22 10 72 29 110 43 68 25 104 47 94 57 -3 3 -55 -16 -117 -43z"/>
<path d="M8690 310 c0 -12 8 -12 35 0 18 8 17 9 -7 9 -16 1 -28 -3 -28 -9z"/>
<path d="M8761 239 c-13 -10 -34 -19 -47 -19 -12 0 -25 -4 -29 -9 -19 -32 71
-16 92 16 20 31 14 36 -16 12z"/>
<path d="M9498 243 c-28 -7 -21 -18 12 -19 17 -1 29 3 27 9 -4 13 -16 16 -39
10z"/>
<path d="M10020 240 c-8 -5 -26 -6 -39 -3 -18 4 -22 3 -16 -7 6 -10 2 -11 -17
-7 -18 5 -33 1 -50 -13 -14 -11 -28 -17 -30 -14 -3 2 -11 -3 -18 -11 -12 -14
-10 -15 16 -8 16 4 65 8 109 7 44 0 67 2 50 5 -27 6 -26 7 23 19 29 8 52 18
52 24 0 6 -10 8 -22 5 -12 -4 -27 -2 -33 3 -6 5 -17 5 -25 0z"/>
<path d="M10150 239 c0 -5 5 -7 10 -4 6 3 10 8 10 11 0 2 -4 4 -10 4 -5 0 -10
-5 -10 -11z"/>
<path d="M10228 228 c-3 -7 -24 -11 -56 -10 -29 0 -52 -4 -52 -9 0 -6 4 -8 9
-5 5 4 21 2 35 -4 30 -11 76 5 76 27 0 16 -7 17 -12 1z"/>
<path d="M739 191 c-16 -16 -29 -35 -29 -43 1 -9 4 -9 13 3 7 8 24 24 40 33
15 10 27 22 27 27 0 17 -22 9 -51 -20z"/>
<path d="M9736 211 c-4 -7 -5 -15 -2 -18 9 -9 19 4 14 18 -4 11 -6 11 -12 0z"/>
<path d="M9766 201 c-4 -5 3 -7 14 -4 23 6 26 13 6 13 -8 0 -17 -4 -20 -9z"/>
<path d="M2726 181 c5 -5 29 -11 54 -14 45 -6 45 -6 15 8 -33 16 -85 20 -69 6z"/>
<path d="M2020 153 c0 -5 14 -19 30 -31 17 -13 30 -18 30 -13 0 5 -13 19 -30
31 -16 12 -30 17 -30 13z"/>
<path d="M2850 145 c7 -9 28 -15 49 -14 l36 1 -30 13 c-16 8 -38 14 -49 15
-15 0 -16 -3 -6 -15z"/>
<path d="M1948 133 c6 -2 18 -2 25 0 6 3 1 5 -13 5 -14 0 -19 -2 -12 -5z"/>
<path d="M1885 120 c-13 -6 -15 -9 -5 -9 8 0 22 4 30 9 18 12 2 12 -25 0z"/>
<path d="M2955 110 c5 -16 -2 -19 -52 -24 -96 -10 -117 -11 -150 -2 -32 7 -33
7 -33 -23 0 -37 -9 -38 -95 -15 -151 40 -177 46 -183 40 -9 -10 19 -26 46 -26
13 0 22 -6 22 -15 0 -19 0 -19 -39 1 -39 20 -61 12 -61 -21 0 -25 1 -25 78
-24 56 0 71 3 55 9 -13 5 -23 14 -23 20 0 13 17 13 25 0 3 -5 12 -7 19 -4 8 3
17 1 20 -5 4 -6 13 -8 21 -4 8 3 15 0 15 -6 0 -8 80 -11 287 -9 253 3 288 5
291 19 3 15 -28 29 -103 44 -16 4 -39 15 -50 25 -11 10 -37 23 -58 28 -35 10
-37 9 -32 -8z"/>
<path d="M1850 64 c-50 -36 -62 -51 -20 -26 20 11 49 28 65 36 23 12 25 16 10
15 -11 0 -36 -12 -55 -25z"/>
<path d="M1955 83 c26 -7 36 -23 29 -46 -6 -18 -5 -18 20 -2 28 18 37 51 11
42 -8 -4 -17 -2 -20 3 -4 6 -18 9 -33 9 -21 -1 -23 -2 -7 -6z"/>
<path d="M2065 40 c-4 -12 -5 -24 -2 -27 3 -2 8 5 12 17 4 12 5 24 2 27 -3 2
-8 -5 -12 -17z"/>
<path d="M2111 14 c0 -11 3 -14 6 -6 3 7 2 16 -1 19 -3 4 -6 -2 -5 -13z"/>
<path d="M9968 13 c6 -2 18 -2 25 0 6 3 1 5 -13 5 -14 0 -19 -2 -12 -5z"/>
</g>
</svg>
