<?xml version="1.0" standalone="no"?>
<!DOCTYPE svg PUBLIC "-//W3C//DTD SVG 20010904//EN"
 "http://www.w3.org/TR/2001/REC-SVG-20010904/DTD/svg10.dtd">
<svg version="1.0" xmlns="http://www.w3.org/2000/svg"
 width="1024.000000pt" height="1280.000000pt" viewBox="0 0 1024.000000 1280.000000"
 preserveAspectRatio="xMidYMid meet">

<g transform="translate(0.000000,1280.000000) scale(0.100000,-0.100000)"
fill="#000000" stroke="none">
<path d="M3325 12319 c-232 -25 -364 -84 -457 -201 -77 -97 -107 -244 -67
-330 6 -13 26 -34 44 -48 32 -23 46 -50 26 -50 -21 0 -70 -101 -91 -185 -17
-67 -21 -109 -18 -170 4 -86 16 -111 67 -151 25 -18 50 -19 641 -22 338 -2
635 0 659 3 33 5 54 16 80 42 l34 34 66 -30 c36 -16 109 -40 161 -53 84 -20
122 -22 315 -23 199 0 229 2 315 24 239 60 368 173 433 381 12 40 17 45 43 45
l29 0 5 -160 c3 -92 10 -169 17 -180 15 -27 59 -64 89 -75 14 -6 126 -10 248
-10 214 0 225 1 267 23 l44 24 53 -19 c29 -10 108 -28 175 -39 108 -19 150
-21 362 -16 215 4 250 8 336 30 53 14 112 32 130 40 56 25 146 103 175 152 75
129 68 383 -13 477 -12 14 -13 25 -3 71 8 33 11 100 8 174 -3 104 -7 123 -27
151 -50 71 3 67 -887 67 l-800 0 -40 -26 c-21 -14 -48 -44 -59 -65 -28 -52
-61 -66 -169 -71 l-91 -5 -60 47 c-138 108 -303 150 -590 150 -153 0 -196 -4
-285 -24 -124 -28 -188 -52 -253 -98 -26 -18 -52 -33 -57 -33 -6 0 -23 11 -38
25 -64 61 -200 104 -387 125 -103 11 -327 11 -430 -1z m512 -148 c176 -37 244
-97 251 -223 6 -91 -15 -145 -75 -198 -61 -53 -151 -81 -418 -126 -201 -34
-265 -50 -265 -66 0 -5 169 -8 375 -8 l375 0 0 -110 0 -110 -595 0 -595 0 0
48 c0 63 24 153 54 200 32 51 102 106 178 142 60 28 239 79 399 115 95 21 139
46 139 80 0 42 -41 60 -135 60 -92 -1 -137 -19 -163 -66 l-17 -29 -219 0 -218
0 7 37 c9 49 47 122 81 156 50 51 154 90 294 111 14 2 122 4 240 5 176 1 232
-3 307 -18z m1231 -10 c102 -30 159 -61 214 -118 56 -57 82 -113 99 -207 28
-163 -18 -321 -120 -407 -117 -101 -356 -151 -613 -128 -205 18 -322 61 -408
151 -75 78 -95 142 -95 298 1 106 4 134 23 181 44 111 143 191 282 228 110 29
117 29 340 26 176 -2 215 -5 278 -24z m1072 -416 l0 -415 -195 2 -195 3 -3
210 -2 210 -163 3 -163 2 3 118 3 117 100 6 c55 3 114 11 131 16 55 19 103 57
126 101 l23 42 167 0 168 0 0 -415z m1190 315 l0 -100 -367 -2 -368 -3 -3 -52
-3 -51 63 20 c46 15 100 22 205 26 235 8 380 -24 460 -101 52 -50 73 -108 73
-202 0 -121 -62 -206 -180 -247 -201 -70 -611 -73 -828 -6 -103 31 -180 117
-185 206 l-2 37 208 3 209 2 27 -29 c34 -36 75 -45 187 -39 101 5 134 27 134
88 0 50 -22 67 -106 81 -57 10 -84 10 -140 -1 -41 -8 -156 -15 -283 -17 l-214
-4 6 83 c3 46 11 156 18 246 l12 162 539 0 538 0 0 -100z"/>
<path d="M4666 11916 c-22 -8 -56 -31 -75 -51 -35 -34 -36 -37 -36 -113 0 -70
3 -82 27 -114 40 -52 85 -70 178 -69 89 1 132 15 172 57 31 33 51 107 42 156
-9 48 -50 104 -92 124 -50 23 -166 29 -216 10z m169 -186 c0 -24 -3 -25 -55
-25 -46 0 -55 3 -58 19 -5 26 16 37 68 34 41 -3 45 -5 45 -28z"/>
<path d="M8389 11940 c-66 -11 -114 -36 -161 -84 -54 -55 -60 -73 -66 -201
-11 -234 -9 -247 62 -299 26 -20 42 -21 324 -23 163 -2 344 -6 402 -9 l105 -6
-42 -43 c-53 -55 -63 -114 -39 -229 43 -208 191 -350 404 -387 68 -11 74 -15
86 -44 32 -75 86 -109 176 -109 67 0 76 4 176 67 28 18 106 65 173 106 149 90
188 127 197 188 9 64 -2 131 -30 167 -13 18 -50 48 -82 67 -33 20 -108 66
-169 104 -60 37 -122 75 -137 84 -16 9 -28 19 -28 22 0 3 35 9 78 12 116 9
173 30 230 85 38 37 52 59 61 97 16 68 8 253 -13 293 -21 41 -83 101 -122 117
-61 25 -168 38 -270 31 -54 -4 -163 -8 -241 -9 -131 -2 -144 -4 -173 -26 l-32
-23 -42 20 c-89 44 -250 55 -376 26 -62 -14 -75 -14 -144 0 -78 17 -228 19
-307 6z m282 -136 c64 -26 79 -92 32 -144 -22 -24 -43 -34 -98 -45 -38 -8 -83
-16 -100 -17 -16 -1 26 -5 95 -8 l125 -5 0 -40 0 -40 -224 -3 -224 -2 6 37
c13 76 56 109 195 144 49 13 82 26 82 34 0 27 -86 26 -97 -1 -4 -10 -27 -14
-89 -14 -77 0 -84 2 -84 19 0 28 42 73 81 87 53 19 250 17 300 -2z m453 -8
c42 -21 76 -67 76 -103 0 -13 3 -23 8 -23 4 0 7 17 7 37 0 37 0 38 49 45 32 4
58 16 76 33 24 23 34 26 86 23 l59 -3 0 -152 0 -153 -77 0 -78 0 0 75 0 75
-55 0 c-30 0 -58 0 -62 0 -4 0 -9 -12 -11 -27 -5 -43 -34 -84 -72 -106 -50
-28 -148 -39 -228 -27 -116 19 -162 64 -162 159 0 61 10 88 45 124 39 38 75
46 195 44 80 -2 114 -7 144 -21z m738 12 c45 -13 88 -52 88 -79 0 -17 -8 -19
-74 -19 -51 0 -83 5 -103 16 -35 21 -93 13 -110 -14 -10 -18 -7 -18 67 -14
162 9 220 -18 220 -102 0 -39 -4 -48 -33 -70 -64 -49 -253 -58 -342 -15 -55
25 -75 63 -75 139 0 128 55 169 229 170 51 0 111 -5 133 -12z m-582 -455 c21
-15 48 -18 173 -18 81 0 147 -3 147 -7 0 -5 -11 -8 -24 -8 -29 0 -93 -61 -113
-108 -11 -27 -18 -32 -36 -26 -52 15 -95 41 -144 85 -54 48 -113 68 -166 55
-20 -5 -20 -5 -2 3 34 14 109 39 125 40 9 0 27 -7 40 -16z m-91 -199 c98 -80
168 -104 311 -104 l80 0 0 56 c0 94 24 114 90 72 55 -35 198 -122 277 -170 66
-39 73 -46 73 -74 0 -26 -6 -35 -32 -48 -18 -9 -104 -62 -192 -116 -87 -55
-166 -100 -176 -100 -28 0 -39 21 -42 85 l-3 60 -115 6 c-97 5 -124 10 -172
33 -93 44 -166 140 -189 246 -13 59 -5 100 18 100 9 0 41 -21 72 -46z"/>
<path d="M8930 11708 c-36 -19 -41 -80 -8 -102 51 -36 118 -8 118 48 0 19 -6
39 -13 45 -23 18 -70 22 -97 9z"/>
<path d="M9673 11613 c-18 -7 -16 -30 3 -37 9 -3 28 -6 44 -6 41 0 60 10 60
31 0 16 -7 19 -47 18 -27 0 -54 -3 -60 -6z"/>
<path d="M8852 9215 c-91 -26 -132 -59 -139 -115 -10 -75 70 -115 150 -73 63
32 208 13 321 -44 70 -36 201 -122 269 -177 32 -26 119 -109 195 -185 141
-142 224 -216 302 -268 25 -17 61 -45 80 -61 33 -29 154 -103 193 -118 15 -6
17 3 17 95 0 100 0 101 -27 115 -16 8 -41 26 -58 41 -16 15 -54 42 -83 61 -67
44 -169 133 -247 214 -122 126 -189 192 -234 228 -25 20 -51 42 -58 47 -37 32
-168 118 -228 150 -158 84 -342 121 -453 90z"/>
<path d="M2745 5650 c-71 -3 -121 -8 -110 -11 17 -6 15 -7 -7 -8 -20 -1 -28
-6 -28 -18 0 -15 2 -16 10 -3 9 13 11 13 20 0 6 -10 10 -11 10 -2 0 7 15 12
40 12 33 0 40 -3 40 -20 0 -11 5 -20 11 -20 5 0 7 5 4 10 -4 6 8 10 30 10 20
0 34 -4 30 -9 -3 -5 -1 -12 5 -16 6 -3 13 0 16 9 10 26 31 27 26 1 -5 -30 34
-56 41 -27 4 16 5 16 6 0 1 -17 11 -22 38 -19 6 1 14 -3 18 -9 3 -5 19 -10 36
-10 16 0 29 -4 29 -10 0 -17 61 -42 86 -36 20 5 24 3 24 -15 0 -18 2 -19 15
-9 16 13 30 7 30 -13 0 -7 20 -13 49 -14 57 -2 116 -27 116 -48 0 -18 30 -20
30 -2 0 6 5 4 11 -5 6 -11 22 -18 39 -18 20 0 30 -5 30 -15 0 -8 6 -15 13 -15
8 0 22 -9 31 -19 10 -10 36 -22 59 -25 23 -3 53 -7 67 -9 14 -2 33 -5 44 -5
12 -1 16 -7 12 -18 -4 -11 -1 -14 12 -10 10 3 34 -3 55 -14 20 -11 52 -20 71
-20 18 0 39 -7 46 -15 7 -8 21 -15 31 -15 10 0 20 -4 24 -9 3 -6 26 -13 50
-17 25 -3 45 -10 45 -15 0 -5 15 -9 34 -9 19 0 37 -4 40 -9 3 -4 47 -23 98
-40 51 -18 101 -37 110 -42 10 -5 26 -9 36 -9 9 0 26 -6 37 -14 11 -7 47 -21
80 -31 33 -10 82 -29 109 -42 28 -13 53 -23 57 -23 4 0 -18 57 -49 127 -56
126 -57 127 -60 85 -3 -39 -5 -42 -32 -42 l-29 0 -3 98 c-2 61 1 104 8 117 10
17 8 25 -10 48 -12 15 -25 27 -30 27 -4 0 -14 7 -23 16 -14 14 -14 17 -1 31
14 13 13 22 -9 81 -14 37 -33 88 -42 114 l-16 48 -715 -2 c-393 -1 -773 -5
-845 -8z m48 -17 c-13 -2 -35 -2 -50 0 -16 2 -5 4 22 4 28 0 40 -2 28 -4z"/>
<path d="M4551 5648 c1 -26 36 -113 45 -113 5 -1 18 -6 29 -11 11 -6 35 -14
53 -17 18 -4 56 -18 86 -32 29 -14 60 -25 68 -25 9 0 18 -7 22 -15 3 -10 19
-15 43 -15 21 0 45 -5 53 -10 11 -7 4 -10 -25 -10 -46 1 -148 33 -153 49 -6
18 -23 12 -20 -6 6 -33 -31 -26 -45 8 -10 26 -21 34 -60 44 -26 6 -49 10 -51
8 -2 -3 5 -31 16 -64 16 -48 26 -62 51 -73 42 -19 274 -94 577 -187 144 -44
251 -78 275 -88 21 -9 95 -31 270 -81 61 -17 130 -38 155 -47 25 -8 95 -28
155 -44 61 -17 135 -37 165 -46 30 -8 87 -23 125 -33 159 -41 313 -82 367 -97
50 -14 55 -18 40 -29 -15 -11 -15 -13 10 -23 29 -11 46 -47 29 -64 -7 -7 -27
-4 -68 11 -33 12 -59 17 -61 12 -2 -6 -11 -10 -20 -10 -14 0 -14 2 -3 9 9 6 2
8 -20 6 -19 -2 -36 -4 -39 -5 -3 -1 -27 -1 -55 -1 -37 1 -46 -1 -35 -8 8 -6
11 -11 6 -11 -6 0 0 -9 12 -20 12 -11 33 -20 48 -20 22 0 25 -2 14 -15 -10
-13 -9 -15 11 -17 13 0 4 -4 -21 -7 -25 -4 108 -9 295 -13 267 -5 351 -4 390
6 42 11 51 11 58 0 4 -8 14 -14 22 -14 7 0 15 -6 18 -12 3 -8 7 -6 12 7 11 27
49 60 88 75 75 29 107 44 107 51 0 3 20 12 45 19 25 7 45 17 45 21 0 5 7 9 15
9 8 0 15 4 15 9 0 5 15 14 33 21 17 7 46 25 62 40 29 26 70 46 110 53 38 7 96
38 90 47 -3 6 3 10 13 10 11 0 22 6 25 13 3 8 34 20 69 27 34 7 70 19 79 26 8
8 23 14 32 14 9 0 17 3 17 8 0 4 18 16 40 26 25 12 39 25 36 32 -3 8 0 16 6
20 7 4 8 3 4 -4 -10 -17 -1 -15 44 8 45 23 55 45 14 29 -15 -5 -29 -7 -31 -5
-8 8 8 27 17 21 5 -3 14 4 20 15 12 23 68 28 89 8 10 -11 11 -10 6 3 -3 9 -18
22 -33 30 l-27 13 33 4 c31 3 32 5 26 38 -4 22 -2 34 5 34 6 0 11 -7 11 -15 0
-21 56 -20 64 1 4 9 4 19 1 22 -3 3 -5 0 -5 -6 0 -7 -9 -12 -20 -12 -18 0 -19
3 -9 21 9 17 8 23 -2 30 -10 6 -11 11 -3 19 8 8 16 4 27 -14 16 -23 25 -25 77
-17 3 1 -1 5 -7 9 -8 5 1 8 22 8 19 0 41 6 47 13 11 11 7 13 -19 8 -30 -6 -32
-5 -21 13 7 10 23 20 37 22 19 2 25 10 28 32 2 16 -1 32 -8 36 -8 6 -8 9 0 14
6 4 11 2 11 -3 0 -8 6 -8 18 -2 29 16 56 24 73 22 9 -1 19 5 22 14 4 8 16 15
27 15 12 0 18 5 15 10 -8 12 -75 13 -75 1 0 -5 -10 -11 -22 -14 -22 -6 -22 -5
2 14 19 17 24 30 24 62 l-2 41 13 -30 c7 -16 10 -32 8 -36 -2 -5 8 -8 22 -8
15 0 34 -4 44 -9 13 -7 22 -5 34 10 9 10 12 19 7 19 -18 0 -10 22 10 27 25 7
26 31 3 49 -17 13 -17 13 2 15 17 1 16 2 -5 9 -24 8 -24 8 -2 9 12 1 22 4 22
9 0 10 -461 13 -496 2 l-29 -8 28 -1 c15 -1 39 -8 53 -17 19 -13 22 -19 13
-31 -14 -16 -64 -11 -184 19 -44 12 -88 20 -97 20 -10 0 -18 2 -18 6 0 4 -20
7 -45 8 -34 1 -52 -5 -76 -26 l-32 -26 73 -25 c62 -21 77 -31 93 -60 11 -18
23 -35 28 -37 5 -2 9 -10 9 -18 0 -11 -5 -12 -16 -6 -19 10 -76 3 -68 -9 7
-11 -102 8 -152 28 -8 3 -14 1 -14 -5 0 -5 17 -15 38 -21 l37 -11 -35 6 c-19
4 -63 8 -97 9 -35 2 -67 6 -73 10 -5 3 -14 3 -20 0 -5 -3 -10 -1 -10 4 0 6 -4
11 -10 11 -5 0 -10 -11 -10 -25 0 -14 5 -25 10 -25 6 0 10 -7 10 -15 0 -10 10
-15 29 -15 17 0 33 -5 36 -11 5 -7 -21 -9 -83 -7 -63 2 -93 -1 -101 -10 -9 -9
-9 -13 1 -16 49 -16 133 -36 191 -48 38 -7 69 -17 69 -23 1 -5 -22 -23 -50
-38 -47 -26 -54 -27 -84 -14 -21 8 -49 10 -78 6 -52 -7 -99 -4 -161 12 -44 11
-47 11 -102 -26 -31 -21 -54 -42 -51 -47 8 -13 53 -29 92 -33 34 -4 85 -13
115 -22 15 -4 16 -7 6 -19 -21 -25 -81 -46 -109 -38 -14 5 -52 8 -85 9 -33 1
-71 5 -84 9 -17 6 -22 5 -19 -4 2 -7 19 -14 38 -16 52 -5 120 -25 120 -35 0
-11 -23 -11 -80 1 -25 6 -71 15 -102 21 -46 9 -57 15 -60 32 -2 15 -15 24 -48
34 -25 7 -109 31 -188 54 -79 22 -154 39 -167 37 -14 -3 -26 0 -29 8 -3 7 -31
18 -63 24 -32 7 -67 17 -77 22 -11 6 -51 18 -90 28 -39 10 -111 31 -161 47
-49 17 -107 31 -127 31 -20 1 -77 13 -125 27 -48 13 -110 29 -136 34 -44 8
-49 7 -63 -14 -10 -15 -21 -21 -34 -18 -24 6 -24 6 -4 45 13 25 14 32 2 39
-24 16 -82 29 -128 29 -35 0 -42 3 -30 11 11 8 7 9 -18 5 -37 -6 -107 17 -135
46 -11 12 -31 18 -55 17 -20 -1 -29 -3 -19 -6 23 -6 22 -23 -3 -23 -13 0 -20
-7 -20 -20 0 -22 -7 -25 -29 -11 -9 6 -11 20 -6 49 6 38 5 42 -17 46 -13 3
-45 10 -73 16 -103 23 -153 29 -275 28 l-125 0 55 -15 c30 -8 71 -21 90 -28
219 -81 325 -114 380 -117 8 0 21 -5 28 -11 32 -26 393 -130 417 -121 7 3 19
-1 26 -8 25 -24 102 -49 110 -36 5 8 15 8 38 -2 17 -7 28 -16 25 -21 -3 -5 3
-9 13 -9 10 0 46 -10 78 -21 33 -12 80 -23 104 -24 28 -2 47 -9 53 -19 5 -9
17 -16 26 -16 9 -1 35 -8 57 -16 75 -27 266 -75 276 -68 6 3 18 -1 27 -9 9 -8
32 -18 50 -22 17 -3 32 -12 32 -18 0 -7 10 -17 23 -22 30 -14 23 -30 -13 -30
-43 0 -37 -13 13 -25 23 -6 60 -17 82 -25 23 -8 47 -15 54 -15 8 0 32 -9 55
-20 23 -10 60 -24 84 -30 26 -7 42 -16 39 -23 -2 -7 -12 -11 -22 -9 -144 27
-180 30 -195 16 -8 -8 -10 -14 -4 -14 21 0 179 -21 182 -25 2 -2 -6 -13 -19
-26 -22 -22 -99 -44 -99 -28 0 13 -28 11 -36 -3 -4 -6 -3 -8 3 -5 9 6 23 -12
23 -29 0 -8 -46 -4 -120 12 -41 8 -85 13 -98 11 -26 -5 -41 10 -18 19 26 10
19 20 -21 32 -37 10 -144 33 -173 37 -8 1 -26 6 -40 12 -27 11 -65 11 -76 0
-4 -4 -14 -7 -22 -7 -12 0 -12 3 -2 15 7 9 11 17 8 20 -5 5 -261 76 -300 82
-20 4 -30 0 -34 -11 -3 -9 -12 -16 -20 -16 -17 0 -18 12 -3 27 15 15 13 15
-146 63 -161 48 -201 54 -197 28 2 -13 -4 -18 -19 -18 -21 0 -22 1 -4 20 10
11 16 22 13 25 -3 3 -45 18 -94 34 -49 16 -113 38 -142 49 -30 12 -68 22 -85
24 -26 2 -32 -1 -32 -17 0 -11 -7 -20 -15 -20 -10 0 -15 10 -15 30 0 27 -5 30
-55 46 -33 10 -57 13 -61 7 -10 -16 -119 15 -119 34 0 6 8 7 18 3 9 -4 26 -9
37 -12 20 -4 20 -4 1 11 -11 9 -25 16 -31 16 -6 0 -11 8 -11 18 -1 9 -4 25 -9
35 -6 15 -1 17 37 17 24 0 52 -6 63 -14 27 -18 147 -48 157 -38 16 16 21 72 7
76 -13 4 -118 36 -168 51 -16 5 -21 4 -17 -4 9 -14 -9 -14 -54 -1 -79 24 -121
28 -127 14 -3 -8 -13 -14 -23 -14 -15 0 -20 9 -22 42 l-3 42 -60 13 c-33 8
-85 18 -115 22 -30 5 -73 13 -95 19 -22 5 -52 13 -67 16 -14 3 -29 14 -31 24
-3 9 -5 -4 -6 -30 -1 -38 3 -48 19 -53 11 -3 20 -11 20 -16 0 -6 -8 -6 -20 1
-22 12 -27 1 -7 -19 10 -10 7 -12 -13 -9 -27 3 -40 42 -21 61 15 15 14 27 -3
27 -8 0 -17 14 -21 30 -6 29 -8 30 -66 30 -41 0 -59 -4 -58 -12z m4127 -15
c-10 -2 -26 -2 -35 0 -10 3 -2 5 17 5 19 0 27 -2 18 -5z m95 0 c-7 -2 -19 -2
-25 0 -7 3 -2 5 12 5 14 0 19 -2 13 -5z m-3397 -44 c38 -11 74 -26 79 -31 12
-13 -35 -3 -80 16 -16 7 -41 18 -55 24 -40 17 -17 14 56 -9z m3461 -1 c-3 -8
-6 -5 -6 6 -1 11 2 17 5 13 3 -3 4 -12 1 -19z m-494 -60 c31 -7 56 -17 54 -23
-2 -5 -22 -20 -44 -33 l-40 -22 -37 44 c-42 52 -44 60 -13 53 12 -3 48 -11 80
-19z m-2553 -66 c36 -11 56 -21 45 -21 -11 0 -51 11 -90 24 -82 29 -50 26 45
-3z m2610 8 c0 -5 -5 -10 -11 -10 -5 0 -7 5 -4 10 3 6 8 10 11 10 2 0 4 -4 4
-10z m280 6 c0 -3 -4 -8 -10 -11 -5 -3 -10 -1 -10 4 0 6 5 11 10 11 6 0 10 -2
10 -4z m67 -32 c-3 -3 -12 -4 -19 -1 -8 3 -5 6 6 6 11 1 17 -2 13 -5z m-132
-44 c3 -5 1 -10 -4 -10 -6 0 -11 5 -11 10 0 6 2 10 4 10 3 0 8 -4 11 -10z
m-3510 -31 c40 -24 47 -64 10 -64 -15 0 -21 8 -23 33 -2 19 -9 32 -17 32 -8 0
-17 5 -20 10 -10 16 11 11 50 -11z m3475 -15 c0 -8 5 -14 10 -14 15 0 12 -29
-4 -46 -8 -8 -16 -14 -18 -14 -2 0 -3 22 -4 50 -1 27 3 47 8 44 4 -3 8 -12 8
-20z m-3806 1 c-4 -8 -10 -12 -15 -9 -11 6 -2 24 11 24 5 0 7 -7 4 -15z m3913
-1 c-3 -3 -12 -4 -19 -1 -8 3 -5 6 6 6 11 1 17 -2 13 -5z m-647 -14 c0 -5 -2
-10 -4 -10 -3 0 -8 5 -11 10 -3 6 -1 10 4 10 6 0 11 -4 11 -10z m-1580 -45
c-8 -10 -9 -15 -2 -15 6 0 15 8 21 17 7 14 13 15 33 6 l23 -12 -26 0 c-15 -1
-32 -8 -39 -16 -14 -17 -35 -21 -25 -5 3 6 1 10 -4 10 -6 0 -11 -5 -11 -12 0
-6 -3 -8 -7 -5 -3 4 2 16 13 26 22 23 42 28 24 6z m2030 -15 c8 -5 11 -10 5
-10 -5 0 -17 5 -25 10 -8 5 -10 10 -5 10 6 0 17 -5 25 -10z m-3375 -18 c-3 -3
-11 0 -18 7 -9 10 -8 11 6 5 10 -3 15 -9 12 -12z m3278 -59 c-7 -2 -19 -2 -25
0 -7 3 -2 5 12 5 14 0 19 -2 13 -5z m-3013 -23 c0 -4 -6 -10 -14 -13 -10 -4
-12 0 -9 14 5 18 23 18 23 -1z m2967 14 c-3 -3 -12 -4 -19 -1 -8 3 -5 6 6 6
11 1 17 -2 13 -5z m133 -4 c0 -13 -20 -13 -40 0 -12 8 -9 10 13 10 15 0 27 -4
27 -10z m-1582 -15 c-2 -2 -7 -4 -11 -4 -4 0 -15 -7 -23 -16 -26 -25 -39 -17
-15 9 13 14 30 22 37 19 8 -3 14 -7 12 -8z m42 5 c0 -5 -7 -10 -15 -10 -8 0
-15 5 -15 10 0 6 7 10 15 10 8 0 15 -4 15 -10z m740 -10 c3 -3 14 -10 25 -15
37 -15 -11 -18 -60 -4 -38 11 -41 14 -27 26 16 12 51 8 62 -7z m647 -56 c-3
-3 -12 -4 -19 -1 -8 3 -5 6 6 6 11 1 17 -2 13 -5z m-67 -20 c0 -3 -6 -12 -14
-19 -17 -18 -29 -8 -13 11 12 14 27 18 27 8z m-5 -84 c3 -5 1 -10 -4 -10 -6 0
-11 5 -11 10 0 6 2 10 4 10 3 0 8 -4 11 -10z m-940 -10 c3 -6 -1 -7 -9 -4 -18
7 -21 14 -7 14 6 0 13 -4 16 -10z m144 -21 c11 -6 -2 -8 -42 -5 -32 2 -64 9
-70 16 -10 10 -1 11 42 6 30 -4 62 -12 70 -17z m-1283 -56 c-7 -7 -26 7 -26
19 0 6 6 6 15 -2 9 -7 13 -15 11 -17z m888 -169 c23 -9 20 -23 -9 -36 -21 -9
-28 -8 -45 7 -11 10 -20 22 -20 27 0 9 51 11 74 2z m-211 -41 c-7 -2 -19 -2
-25 0 -7 3 -2 5 12 5 14 0 19 -2 13 -5z m71 -50 c18 -5 18 -7 -5 -24 -13 -10
-29 -19 -35 -19 -11 0 -44 42 -44 55 0 6 42 0 84 -12z m-324 -38 l25 -14 -32
-1 c-23 0 -33 5 -33 15 0 18 8 18 40 0z m490 -78 c19 -3 16 -5 -12 -6 -20 0
-39 3 -42 8 -8 13 6 22 18 12 6 -5 22 -11 36 -14z m-103 7 c-3 -3 -12 -4 -19
-1 -8 3 -5 6 6 6 11 1 17 -2 13 -5z"/>
<path d="M5855 5639 c22 -10 47 -18 56 -18 8 -1 49 -12 89 -26 81 -28 94 -30
85 -15 -3 5 1 20 9 32 32 46 26 48 -131 46 l-148 -1 40 -18z"/>
<path d="M6160 5634 c-6 -14 -15 -34 -20 -44 -9 -16 -6 -22 18 -34 31 -16 299
-102 462 -147 58 -17 152 -45 210 -63 163 -52 152 -51 200 -6 23 22 47 40 52
40 5 0 8 5 6 12 -5 13 -15 17 -178 59 -63 16 -140 38 -171 49 -30 11 -62 20
-70 20 -8 -1 -26 -19 -41 -40 -21 -30 -35 -40 -54 -40 l-26 0 18 28 c10 15 24
33 31 40 7 7 13 18 13 23 0 11 2 10 -85 34 -33 10 -117 35 -186 56 -151 46
-166 48 -179 13z"/>
<path d="M6760 5647 c0 -7 30 -21 68 -31 37 -11 132 -39 212 -63 79 -24 150
-43 158 -43 16 0 162 137 154 145 -3 3 -137 5 -299 5 -222 -1 -293 -4 -293
-13z"/>
<path d="M7898 5644 c58 -25 122 -39 130 -28 4 6 18 18 32 27 24 16 21 17 -85
16 -104 -1 -108 -1 -77 -15z"/>
<path d="M2578 5643 c6 -2 18 -2 25 0 6 3 1 5 -13 5 -14 0 -19 -2 -12 -5z"/>
<path d="M9014 5641 c4 -5 0 -12 -6 -14 -7 -3 5 -5 27 -5 22 0 31 3 20 6 l-20
5 20 8 c16 6 14 8 -13 8 -18 1 -31 -3 -28 -8z"/>
<path d="M9168 5643 c7 -3 16 -2 19 1 4 3 -2 6 -13 5 -11 0 -14 -3 -6 -6z"/>
<path d="M10014 5625 c11 -8 25 -15 30 -15 6 -1 21 -9 34 -20 34 -28 26 -60
-18 -75 l-34 -11 64 -17 c56 -14 67 -14 81 -1 8 7 25 14 36 14 12 0 23 7 27
15 3 8 0 14 -7 12 -7 -1 -11 7 -9 18 2 16 -5 12 -33 -18 -28 -30 -40 -36 -60
-31 -23 6 -21 8 32 44 30 21 62 36 69 33 8 -3 14 -1 14 4 0 12 -52 28 -155 48
-96 18 -95 18 -71 0z"/>
<path d="M7389 5619 c0 -13 -82 -87 -119 -109 -30 -18 -22 -21 285 -111 55
-16 107 -29 116 -29 8 0 55 28 103 61 65 45 90 58 96 49 5 -8 15 -10 26 -5 18
8 18 8 -1 13 -11 2 -25 8 -32 14 -6 5 -72 25 -147 44 -74 19 -157 43 -184 53
-69 27 -142 37 -143 20z"/>
<path d="M9520 5578 c-26 -29 -25 -41 3 -32 12 4 37 10 55 15 19 4 37 10 40
14 4 4 -5 4 -19 0 -19 -5 -28 -2 -32 9 -9 22 -22 20 -47 -6z"/>
<path d="M5228 5493 c7 -3 16 -2 19 1 4 3 -2 6 -13 5 -11 0 -14 -3 -6 -6z"/>
<path d="M6108 5433 c7 -3 16 -2 19 1 4 3 -2 6 -13 5 -11 0 -14 -3 -6 -6z"/>
<path d="M5620 5369 c0 -5 7 -9 15 -9 17 0 97 -31 93 -36 -2 -1 -41 6 -88 16
-71 16 -87 17 -103 5 -19 -13 -18 -14 3 -25 12 -6 63 -22 114 -35 51 -14 122
-36 159 -50 37 -14 71 -25 75 -25 4 0 17 16 29 34 25 39 19 50 -32 59 -16 3
-52 12 -80 21 -124 38 -185 53 -185 45z"/>
<path d="M7119 5373 c-2 -4 -23 -25 -47 -46 -26 -23 -38 -39 -30 -42 32 -10
208 -64 258 -78 114 -32 116 -32 180 10 33 21 59 41 60 45 0 7 -12 11 -140 47
-41 12 -88 26 -105 32 -72 26 -171 44 -176 32z"/>
<path d="M4647 5323 c3 -10 9 -22 12 -28 6 -11 8 -18 10 -41 1 -14 4 -14 16
-4 13 11 18 10 30 -6 11 -14 14 -15 9 -3 -7 21 41 23 72 3 11 -8 31 -14 45
-13 33 1 131 -36 121 -46 -4 -4 8 -5 26 -2 24 5 34 3 39 -9 3 -8 12 -13 19
-10 7 3 16 1 19 -4 4 -6 17 -7 29 -4 15 3 29 -1 40 -11 9 -9 16 -12 16 -6 0 6
5 11 10 11 6 0 10 -6 10 -13 0 -7 14 -14 31 -15 17 -1 39 -7 49 -12 10 -6 28
-10 39 -10 12 0 21 -6 21 -12 0 -10 2 -10 8 0 7 9 14 8 32 -8 13 -11 37 -20
56 -20 18 0 35 -4 38 -9 4 -5 17 -8 31 -7 13 2 23 0 20 -4 -2 -4 25 -13 60
-20 36 -8 65 -17 65 -21 0 -4 10 -5 23 -3 13 3 16 1 7 -3 -19 -8 72 -36 114
-34 16 0 42 -9 58 -21 22 -15 32 -18 37 -9 4 6 15 9 24 5 9 -3 14 -10 11 -15
-3 -5 3 -9 13 -9 11 0 24 -5 31 -12 6 -6 15 -8 19 -4 4 4 1 11 -7 16 -23 15
-6 12 24 -3 14 -8 23 -17 20 -20 -3 -3 4 -3 16 0 12 3 25 1 29 -5 4 -6 28 -13
55 -15 26 -3 53 -10 59 -16 6 -6 26 -11 44 -11 18 0 33 -3 33 -7 0 -5 19 -9
41 -10 23 0 44 -5 48 -10 3 -4 22 -9 41 -11 21 -1 40 -10 49 -22 7 -11 19 -20
26 -20 13 0 13 36 -1 49 -5 4 -70 23 -144 41 -74 17 -191 49 -260 70 -160 50
-211 63 -218 56 -3 -3 -12 0 -21 8 -9 7 -25 16 -36 19 -11 3 -74 21 -140 41
-66 20 -130 36 -142 36 -12 0 -25 4 -28 10 -3 5 -38 19 -78 31 -40 12 -109 34
-154 50 -46 16 -83 24 -83 19 0 -15 -22 -12 -34 5 -14 20 -303 107 -327 100
-11 -4 -19 -2 -19 5 0 13 -60 40 -89 40 -15 0 -19 -5 -14 -17z"/>
<path d="M8808 5303 c7 -3 16 -2 19 1 4 3 -2 6 -13 5 -11 0 -14 -3 -6 -6z"/>
<path d="M10028 5295 c17 -8 32 -18 32 -24 0 -5 14 -12 30 -16 37 -8 39 -29 5
-51 -21 -13 -41 -16 -100 -11 -80 6 -81 5 -74 -50 0 -5 24 -13 52 -20 47 -11
58 -10 112 12 33 13 81 29 107 35 l46 12 0 44 c0 24 -3 44 -6 44 -4 0 -51 9
-105 20 -115 23 -145 25 -99 5z m139 -111 c-3 -3 -12 -4 -19 -1 -8 3 -5 6 6 6
11 1 17 -2 13 -5z m-47 -13 c0 -5 -12 -11 -27 -13 -16 -3 -36 -9 -47 -13 -14
-6 -18 -5 -14 6 4 12 18 17 81 28 4 0 7 -3 7 -8z"/>
<path d="M8730 5280 c-8 -5 -12 -11 -9 -14 2 -3 11 -1 19 4 8 5 12 11 9 14 -2
3 -11 1 -19 -4z"/>
<path d="M5956 5261 c-4 -6 0 -12 8 -12 9 -1 19 -2 24 -3 4 -2 30 -6 57 -11
28 -4 58 -12 68 -17 10 -5 17 -5 17 0 0 20 -164 60 -174 43z"/>
<path d="M8590 5248 c1 -16 24 -48 36 -48 4 0 3 5 -4 12 -7 7 -12 20 -12 30 0
10 -4 18 -10 18 -5 0 -10 -6 -10 -12z"/>
<path d="M5940 5216 c0 -9 21 -21 53 -30 28 -9 76 -24 105 -33 28 -9 55 -14
58 -10 3 3 20 -2 37 -12 63 -35 87 -35 118 -1 l29 31 -34 14 c-19 8 -47 12
-63 9 -15 -3 -77 6 -136 20 -124 30 -167 33 -167 12z"/>
<path d="M8570 5200 c0 -5 -8 -7 -17 -4 -15 5 -16 4 -3 -5 21 -15 40 -13 40 4
0 8 -4 15 -10 15 -5 0 -10 -4 -10 -10z"/>
<path d="M8975 5170 c-3 -5 3 -10 15 -10 12 0 19 -4 15 -10 -3 -5 7 -16 22
-24 44 -23 8 -29 -88 -14 -58 9 -93 11 -111 4 -31 -11 -37 -26 -11 -26 9 0 65
-12 125 -26 l108 -27 73 27 c39 15 87 33 106 40 l33 13 -26 7 c-15 4 -31 4
-36 1 -4 -3 -10 -1 -12 4 -3 11 -150 51 -184 51 -13 0 -26 -4 -29 -10z"/>
<path d="M8530 5150 c0 -5 7 -10 15 -10 8 0 15 5 15 10 0 6 -7 10 -15 10 -8 0
-15 -4 -15 -10z"/>
<path d="M6360 5141 c0 -6 10 -11 23 -11 28 0 131 -30 125 -36 -3 -2 -34 3
-71 12 -37 10 -77 14 -93 10 -27 -7 -27 -8 -8 -25 10 -9 71 -30 134 -45 63
-16 120 -32 125 -36 29 -22 61 -18 93 9 17 16 32 31 32 34 0 12 -84 28 -115
23 -18 -4 -43 -2 -56 4 -21 9 -19 9 11 4 65 -11 17 16 -66 37 -114 30 -134 33
-134 20z"/>
<path d="M10155 5110 c-23 -11 -32 -19 -20 -18 11 1 33 -4 48 -10 45 -19 57
-15 57 18 0 25 -4 30 -22 30 -13 0 -41 -9 -63 -20z"/>
<path d="M7343 5073 c9 -2 23 -2 30 0 6 3 -1 5 -18 5 -16 0 -22 -2 -12 -5z"/>
<path d="M6760 5031 c8 -5 50 -16 93 -25 98 -22 102 -38 5 -19 -125 23 -155
26 -162 14 -9 -14 13 -22 139 -54 55 -14 118 -31 140 -38 37 -11 44 -10 78 12
20 13 37 27 37 30 0 3 -30 11 -66 18 -36 6 -73 16 -82 21 -26 15 -152 50 -176
50 -16 -1 -18 -2 -6 -9z"/>
<path d="M9151 5031 c-10 -7 0 -11 35 -16 27 -3 60 -8 74 -11 24 -5 25 -5 4
10 -26 18 -94 29 -113 17z"/>
<path d="M8550 4990 c-33 -18 -34 -19 -10 -20 14 0 36 -7 50 -15 l25 -14 -30
0 c-16 0 -50 4 -75 9 -25 5 -49 5 -53 1 -7 -7 173 -51 210 -51 18 0 134 40
146 50 6 5 -80 28 -208 55 -11 3 -36 -4 -55 -15z"/>
<path d="M9926 4944 c-4 -12 -14 -15 -34 -10 -15 3 -21 3 -14 0 6 -3 12 -9 12
-14 0 -13 -33 -17 -87 -10 -42 5 -50 4 -48 -9 1 -10 27 -22 76 -34 l74 -19
115 27 c63 15 118 31 123 34 7 7 -164 51 -196 51 -8 0 -18 -7 -21 -16z"/>
<path d="M8860 4931 c-8 -5 -24 -13 -35 -17 l-20 -7 20 -4 c11 -2 27 -7 35
-10 20 -8 19 -8 70 -17 25 -5 52 -13 60 -18 10 -6 6 -7 -15 -3 -55 12 -200 35
-220 35 -36 -1 5 -17 85 -33 41 -9 108 -23 149 -32 72 -16 76 -15 148 7 40 12
73 25 73 28 0 5 -242 65 -305 75 -16 2 -37 1 -45 -4z"/>
<path d="M10170 4885 c-33 -13 -34 -14 -8 -14 15 -1 30 -5 33 -11 3 -5 15 -10
26 -10 15 0 20 6 17 22 -4 28 -22 31 -68 13z"/>
<path d="M8193 4843 c-26 -10 -12 -21 35 -27 38 -5 52 -12 62 -31 17 -32 41
-31 114 4 61 30 62 36 7 40 -19 1 -64 6 -100 11 -72 10 -99 11 -118 3z"/>
<path d="M9990 4840 c-12 -8 -10 -10 11 -10 14 0 59 -8 100 -19 132 -34 141
-34 137 -9 -2 18 -12 24 -43 29 -87 15 -190 19 -205 9z"/>
<path d="M9262 4832 c-8 -6 -2 -9 17 -9 17 0 28 4 25 9 -7 10 -25 10 -42 0z"/>
<path d="M9208 4813 c6 -2 18 -2 25 0 6 3 1 5 -13 5 -14 0 -19 -2 -12 -5z"/>
<path d="M9440 4799 c0 -28 -49 -36 -139 -21 -112 17 -125 10 -20 -12 46 -9
104 -21 129 -26 36 -8 57 -6 108 10 35 11 74 21 85 21 27 2 -64 19 -113 22
-19 1 -38 7 -42 12 -5 6 -8 3 -8 -6z m50 -33 c0 -2 -7 -6 -15 -10 -8 -3 -15
-1 -15 4 0 6 7 10 15 10 8 0 15 -2 15 -4z"/>
<path d="M6455 4790 c-3 -6 0 -12 7 -14 96 -26 290 -67 295 -62 11 11 -2 16
-138 51 -148 38 -155 39 -164 25z"/>
<path d="M9158 4793 c6 -2 18 -2 25 0 6 3 1 5 -13 5 -14 0 -19 -2 -12 -5z"/>
<path d="M5100 4780 c0 -5 7 -10 16 -10 8 0 12 5 9 10 -3 6 -10 10 -16 10 -5
0 -9 -4 -9 -10z"/>
<path d="M8460 4778 c-23 -11 -22 -12 25 -18 95 -14 165 -32 160 -41 -4 -5
-14 -9 -23 -9 -14 0 -15 -2 -2 -9 8 -6 18 -7 23 -4 4 3 21 -1 38 -7 19 -8 33
-9 42 -3 6 6 37 19 67 29 l55 18 -55 8 c-30 5 -110 17 -176 28 -67 11 -124 20
-125 19 -2 0 -15 -5 -29 -11z m307 -54 c-3 -3 -12 -4 -19 -1 -8 3 -5 6 6 6 11
1 17 -2 13 -5z"/>
<path d="M9645 4745 c-21 -9 -24 -14 -12 -14 10 -1 16 -5 12 -10 -3 -6 -29 -8
-58 -6 -39 4 -27 -1 53 -20 208 -51 211 -51 340 -12 l45 13 -73 14 c-64 12
-75 12 -84 -1 -8 -11 -9 -11 -5 3 6 18 1 20 -113 38 -78 12 -68 12 -105 -5z
m120 -35 c4 -6 -7 -10 -27 -9 -27 0 -30 2 -13 9 27 12 33 12 40 0z"/>
<path d="M7911 4721 c-10 -7 -1 -11 33 -16 27 -4 50 -14 53 -22 3 -8 12 -12
20 -9 7 3 22 0 32 -6 15 -9 26 -8 50 4 l31 15 -37 11 c-33 10 -146 32 -162 32
-3 0 -12 -4 -20 -9z"/>
<path d="M8834 4691 c3 -4 33 -11 67 -15 33 -4 73 -12 87 -18 25 -10 26 -11 7
-18 -19 -8 -19 -9 2 -9 12 -1 25 -5 28 -11 8 -12 62 -13 69 -1 3 4 26 14 51
21 68 19 63 21 -130 45 -129 16 -188 18 -181 6z"/>
<path d="M10075 4658 c16 -6 36 -17 43 -25 11 -11 4 -13 -45 -14 l-58 -1 85
-19 c47 -10 97 -18 112 -19 25 0 27 3 26 40 0 38 -2 40 -33 40 -18 0 -61 2
-96 5 -56 5 -60 4 -34 -7z"/>
<path d="M8280 4639 c19 -6 43 -18 52 -26 9 -8 21 -12 27 -9 6 4 19 1 30 -6
15 -9 25 -9 43 -1 13 6 30 14 38 17 8 4 0 4 -18 1 -18 -2 -31 -1 -27 4 5 8
-24 14 -140 26 l-40 4 35 -10z"/>
<path d="M2630 4617 c10 -10 42 -18 93 -23 67 -6 77 -5 77 10 0 13 -12 16 -67
16 -38 0 -79 3 -93 6 -23 6 -24 5 -10 -9z"/>
<path d="M9192 4621 c-8 -5 9 -10 48 -14 76 -8 110 -17 110 -27 0 -5 -17 -11
-37 -13 -35 -3 -34 -4 10 -5 26 -1 56 -7 66 -14 15 -9 32 -7 85 10 37 12 74
23 84 23 28 2 -65 19 -188 34 -136 17 -161 17 -178 6z m235 -37 c-3 -3 -12 -4
-19 -1 -8 3 -5 6 6 6 11 1 17 -2 13 -5z m54 -3 c-8 -5 -20 -7 -28 -4 -21 8
-15 13 15 13 20 0 23 -3 13 -9z"/>
<path d="M3102 4608 c2 -5 8 -9 13 -9 5 0 11 4 13 9 1 5 -4 9 -13 9 -9 0 -14
-4 -13 -9z"/>
<path d="M3150 4616 c0 -10 28 -13 41 -5 10 6 7 9 -13 9 -16 0 -28 -2 -28 -4z"/>
<path d="M7741 4616 c3 -4 30 -13 60 -20 38 -11 57 -11 64 -4 7 8 5 9 -7 5 -9
-3 -18 -2 -20 2 -2 5 -25 12 -53 16 -27 4 -47 4 -44 1z"/>
<path d="M3270 4600 c-24 -8 -23 -8 8 -9 17 -1 32 4 32 9 0 11 -5 11 -40 0z"/>
<path d="M8614 4569 c22 -5 44 -13 50 -18 19 -15 90 -22 116 -12 l25 10 -27 0
c-14 1 -28 5 -30 10 -1 4 -41 11 -88 14 -66 5 -76 4 -46 -4z"/>
<path d="M9580 4553 c0 -6 25 -15 55 -22 30 -7 55 -16 55 -20 0 -12 48 -31 78
-31 40 1 163 38 132 40 -14 1 -32 2 -42 1 -9 -1 -19 3 -23 9 -8 13 -45 13 -45
0 0 -5 7 -10 15 -10 18 0 20 -17 3 -23 -18 -6 -48 11 -48 27 0 14 -23 20 -122
32 -35 4 -58 2 -58 -3z"/>
<path d="M8065 4541 c11 -5 43 -11 70 -15 46 -7 49 -6 30 8 -12 9 -40 15 -70
15 -35 0 -44 -3 -30 -8z"/>
<path d="M7470 4510 c0 -5 5 -10 10 -10 6 0 10 5 10 10 0 6 -4 10 -10 10 -5 0
-10 -4 -10 -10z"/>
<path d="M8990 4496 c0 -13 88 -38 95 -27 9 15 -12 28 -52 34 -31 3 -43 1 -43
-7z"/>
<path d="M8380 4481 c8 -5 38 -11 65 -14 l50 -6 -40 14 c-46 15 -100 20 -75 6z"/>
<path d="M10060 4455 c-24 -14 -24 -14 -3 -15 12 0 25 5 28 11 11 17 2 18 -25
4z"/>
<path d="M9670 4446 c0 -8 -6 -17 -12 -19 -7 -3 -3 -6 10 -6 22 -1 31 22 12
34 -5 3 -10 0 -10 -9z"/>
<path d="M9596 4438 c3 -4 14 -8 25 -8 11 0 18 4 14 9 -3 6 -14 9 -25 8 -10
-1 -16 -5 -14 -9z"/>
<path d="M9304 4425 c25 -19 32 -19 40 0 4 11 -2 15 -27 15 -30 -1 -31 -1 -13
-15z"/>
<path d="M9400 4410 c-23 -7 -23 -8 -3 -9 12 -1 25 4 28 9 3 6 5 10 3 9 -2 -1
-14 -5 -28 -9z"/>
<path d="M10080 4411 c0 -5 -30 -14 -67 -21 -82 -15 -113 -29 -66 -30 36 0 58
-26 42 -51 -5 -7 -9 -22 -9 -33 0 -14 3 -16 13 -8 6 6 39 15 72 20 56 9 58 10
18 11 -31 1 -43 5 -43 16 0 8 5 15 11 15 5 0 8 4 4 9 -3 5 3 12 12 15 10 3 4
4 -13 3 -17 -2 -36 2 -42 9 -8 9 -2 13 26 16 20 3 39 1 40 -4 2 -4 8 -6 13 -2
12 7 12 44 -1 44 -5 0 -10 -4 -10 -9z"/>
<path d="M4260 4380 c-45 -11 -90 -63 -90 -106 0 -17 -7 -48 -16 -69 -15 -37
-16 -37 -57 -31 -23 4 -112 9 -197 12 -152 5 -155 5 -183 32 -26 24 -35 27
-99 26 -61 -2 -73 -5 -98 -29 -26 -25 -35 -27 -104 -27 l-76 0 5 -176 c3 -115
2 -170 -4 -157 -9 18 -10 17 -10 -7 -1 -16 -5 -28 -11 -28 -5 0 -11 12 -11 28
-1 15 -3 20 -6 11 -2 -9 -16 -15 -38 -16 -32 -1 -36 2 -47 38 -12 40 -33 67
-45 55 -4 -3 2 -13 13 -21 19 -15 19 -15 -1 -30 -11 -9 -20 -24 -21 -33 -1 -9
-2 -28 -3 -42 l-1 -25 -19 24 c-12 16 -21 20 -25 12 -4 -6 -5 -15 -2 -20 3 -4
-3 -16 -13 -25 -14 -13 -28 -16 -54 -11 -31 6 -36 12 -45 48 -12 48 -26 170
-43 372 -6 77 -13 142 -15 144 -2 2 -9 -1 -16 -7 -8 -6 -74 -10 -168 -10 -85
-1 -163 -1 -173 -1 -16 -1 -17 -83 -17 -1651 1 -907 4 -1650 8 -1650 12 0 29
15 35 30 4 12 6 11 6 -3 1 -10 -10 -29 -24 -43 -22 -22 -34 -54 -20 -54 14 0
85 52 99 72 14 20 18 21 27 8 8 -11 9 -5 4 22 -5 31 -2 37 15 43 30 10 41 -2
30 -31 -13 -32 -13 -44 0 -44 6 0 10 7 10 16 0 10 6 14 15 10 8 -3 15 -1 15 4
0 6 19 -9 43 -32 24 -24 87 -86 141 -137 96 -94 97 -95 76 -111 -35 -27 -127
-43 -305 -55 -55 -3 -117 -8 -137 -11 l-38 -6 0 -344 0 -344 1355 0 1355 0 1
198 c0 190 7 257 22 219 3 -9 17 -17 30 -17 25 0 41 -22 52 -73 6 -28 23 -49
76 -92 28 -23 108 -64 126 -65 7 0 70 -16 140 -36 70 -20 139 -38 153 -41 14
-2 34 -8 45 -13 22 -10 106 -30 145 -35 14 -1 50 -6 80 -9 30 -4 71 -9 90 -11
19 -3 67 -7 105 -10 39 -3 78 -8 87 -11 9 -3 26 4 37 15 21 21 21 21 2 40 -20
20 -37 78 -26 89 4 4 33 12 65 18 l59 10 16 -33 c22 -46 46 -115 41 -120 -2
-2 -15 1 -30 6 -28 11 -35 1 -12 -18 14 -12 44 -10 121 5 17 4 35 9 40 13 6 4
26 8 45 9 19 2 98 11 175 22 77 10 165 22 195 26 70 8 86 17 105 57 8 18 29
48 45 66 33 36 37 43 16 35 -9 -3 -27 12 -48 39 -18 25 -40 47 -49 50 -23 6
-52 68 -39 81 5 5 10 20 10 33 0 13 7 26 15 29 8 4 15 12 15 19 0 6 14 26 30
43 35 37 37 42 10 35 -11 -3 -20 0 -20 6 0 6 11 12 25 13 14 0 30 1 37 2 7 1
22 -14 35 -33 18 -27 22 -42 17 -73 -8 -46 8 -102 47 -170 l28 -46 -37 14
c-20 8 -47 20 -59 26 -27 13 -36 8 -27 -16 4 -10 35 -25 79 -38 55 -16 76 -27
84 -44 9 -20 8 -22 -7 -18 -14 5 -13 3 2 -10 11 -9 23 -16 27 -16 4 0 17 -15
28 -33 11 -18 30 -44 42 -57 11 -14 27 -37 35 -53 l15 -27 953 0 c524 0 956 3
960 7 11 11 46 10 46 -1 0 -12 20 14 20 27 0 4 -7 7 -16 7 -10 0 -14 6 -10 15
3 9 0 15 -9 15 -22 0 -18 21 4 27 12 3 21 15 23 32 3 26 4 26 90 29 l87 3 5
-43 c3 -24 7 -59 8 -78 l3 -35 68 -2 c61 -1 68 0 62 15 -23 59 -31 209 -19
354 l7 75 49 2 c29 1 56 -3 65 -11 12 -10 17 -9 28 5 7 9 25 17 42 17 66 0
154 13 150 23 -2 6 -33 9 -75 8 -52 -2 -76 2 -86 12 -11 11 -12 17 -3 27 10
10 4 11 -28 6 -22 -3 -46 -6 -54 -6 -11 0 -11 -3 3 -13 32 -23 10 -47 -45 -47
-46 0 -49 2 -49 25 0 16 -6 25 -16 25 -9 0 -12 -5 -8 -11 4 -7 2 -9 -7 -5 -8
3 -22 9 -31 12 -10 4 -18 10 -18 15 0 5 -11 9 -25 9 -14 0 -25 5 -25 10 0 6 9
10 20 10 47 0 10 33 -142 128 -271 169 -315 203 -155 119 45 -23 109 -53 142
-66 33 -12 87 -35 120 -50 33 -15 98 -42 145 -60 47 -19 105 -42 130 -51 25
-10 76 -26 113 -36 37 -9 70 -21 73 -26 19 -31 24 18 23 257 0 223 -2 267 -15
280 -14 13 -14 15 1 15 14 0 15 14 13 107 l-3 106 -63 15 c-47 12 -62 19 -60
31 4 23 86 28 94 7 3 -9 12 -16 20 -16 12 0 14 37 14 208 l0 207 -67 3 c-62 2
-68 1 -97 -27 -50 -49 -149 -131 -156 -131 -4 0 -11 -30 -14 -67 -14 -146 -13
-143 -57 -143 -23 0 -38 4 -34 10 3 5 -4 19 -15 30 -23 23 -19 40 11 40 15 0
19 -7 19 -35 0 -34 16 -48 25 -22 5 13 45 342 45 370 0 9 -4 17 -9 17 -15 0
-41 -112 -45 -195 -2 -44 -5 -82 -5 -85 -1 -4 -17 -4 -36 -2 -35 4 -46 17 -22
25 9 3 9 14 -1 52 -12 46 -12 50 8 65 32 24 60 72 60 103 0 24 -4 27 -34 27
-45 0 -58 20 -14 21 l33 2 -30 4 c-27 4 -315 185 -315 198 0 7 256 -4 279 -11
11 -4 12 -7 3 -16 -19 -19 -14 -35 13 -42 14 -4 25 -11 25 -16 0 -6 5 -10 10
-10 6 0 34 -16 63 -35 28 -19 58 -35 65 -35 7 0 23 -5 34 -11 15 -8 17 -13 8
-19 -24 -15 98 -33 139 -21 109 31 111 32 111 77 0 38 -3 43 -31 53 -18 6 -45
11 -61 11 -21 0 -31 6 -38 25 -9 22 -20 30 -42 26 -5 0 -8 3 -8 7 0 5 24 7 54
4 45 -4 60 0 86 18 24 17 29 25 18 31 -10 7 -9 9 5 9 21 0 23 16 2 24 -8 3
-15 14 -15 24 0 10 -5 23 -10 28 -15 15 -1 44 21 44 12 0 19 7 19 19 0 20 -34
33 -75 28 -12 -1 -19 3 -18 11 2 7 -8 12 -25 13 -15 0 -37 2 -49 5 -12 2 -25
-1 -28 -6 -3 -5 -12 -7 -20 -3 -11 3 -13 1 -9 -10 3 -10 -4 -18 -23 -25 l-28
-10 32 -1 c17 -1 33 5 36 12 4 10 7 10 18 0 7 -7 24 -13 37 -13 l25 0 -27 -21
c-15 -12 -25 -26 -23 -33 3 -6 -8 -12 -25 -13 -55 -4 -76 -41 -38 -65 18 -11
18 -14 3 -30 -9 -10 -13 -18 -9 -18 4 0 2 -9 -4 -19 -8 -16 -6 -21 10 -26 21
-7 28 -25 10 -25 -6 0 -27 7 -47 15 -19 8 -48 15 -64 15 -19 0 -29 5 -29 15 0
8 4 15 9 15 9 0 17 43 23 121 3 33 1 36 -23 35 -14 -1 -37 -9 -52 -19 -17 -11
-46 -17 -80 -17 -30 0 -101 -3 -159 -6 -102 -7 -106 -8 -122 -35 -17 -29 -76
-55 -101 -45 -11 4 -13 16 -9 50 8 54 -3 107 -17 85 -5 -7 -9 -31 -9 -51 0
-40 -8 -68 -20 -68 -4 0 -6 30 -3 68 5 64 4 66 -12 44 -20 -27 -47 -28 -304
-7 -214 18 -270 29 -266 54 1 10 10 15 24 13 11 -2 21 2 21 7 0 6 -7 11 -15
11 -18 0 -18 7 -1 88 16 72 5 89 -21 35 l-18 -38 -3 42 c-2 27 13 104 43 214
25 94 44 179 42 188 -3 9 -5 4 -6 -11 0 -16 -5 -28 -11 -28 -5 0 -10 -11 -10
-24 0 -14 -4 -28 -10 -31 -5 -3 -10 -14 -10 -23 0 -9 -9 -39 -20 -67 -18 -43
-20 -45 -15 -15 22 132 39 350 25 330 -5 -8 -10 -28 -11 -45 0 -26 -2 -27 -9
-10 -5 11 -12 43 -15 70 -4 28 -7 52 -8 55 -1 3 -9 12 -19 20 -10 8 -24 42
-32 75 -8 33 -15 53 -16 45 -1 -8 -4 -32 -6 -54 -1 -21 -5 -40 -8 -43 -7 -8
-120 -32 -148 -33 -22 0 -28 5 -28 22 0 13 -4 18 -9 12 -5 -5 -6 -27 -1 -49 4
-22 9 -35 10 -30 6 31 40 -152 40 -216 0 -41 7 -120 15 -175 19 -126 12 -211
-18 -240 -21 -21 -26 -21 -97 -10 l-75 12 -6 64 c-3 36 -4 97 -1 137 5 73 2
84 -44 188 -48 109 -78 183 -101 253 -21 64 -22 74 -9 88 8 8 13 22 10 32 -5
14 -4 14 4 3 6 -8 8 -20 5 -28 -3 -7 -1 -13 5 -13 6 0 10 21 9 46 0 48 -16 65
-41 45 -17 -14 -19 -11 -40 59 -15 55 -53 110 -75 110 -6 0 -11 4 -11 9 0 13
-75 41 -109 41 -53 0 -99 -28 -142 -86 -74 -101 -84 -138 -63 -240 5 -27 3
-32 -16 -37 -22 -6 -23 -5 -16 65 3 39 9 82 12 95 l6 24 -38 -18 c-22 -10 -40
-21 -42 -25 -7 -15 -19 -8 -31 19 -22 47 -58 164 -76 244 -16 72 -16 79 0 110
16 31 16 33 -1 46 -14 10 -19 10 -26 0 -14 -21 -28 12 -17 40 13 34 11 43 -7
36 -8 -3 -13 -12 -9 -21 4 -12 3 -13 -10 -2 -14 11 -12 15 13 30 33 20 56 85
46 126 -5 20 -2 31 10 40 14 10 15 16 6 33 -9 17 -8 21 6 21 15 0 14 2 -3 18
-17 14 -18 19 -7 30 18 17 23 15 34 -10 8 -21 9 -20 9 10 2 87 -70 144 -152
121 -61 -17 -94 -52 -108 -117 -7 -31 -19 -63 -26 -70 -23 -23 -13 -82 13 -82
9 0 14 -12 14 -34 0 -32 -2 -34 -42 -40 -89 -14 -140 -74 -168 -196 -7 -30
-17 -64 -23 -75 -6 -11 -10 -27 -9 -35 1 -10 -1 -11 -4 -2 -11 23 -24 12 -19
-15 l5 -28 -14 30 c-20 40 -20 74 1 97 13 15 14 18 2 13 -8 -3 -27 -24 -42
-47 -34 -53 -37 -129 -7 -188 18 -34 50 -184 50 -231 0 -10 -11 -26 -25 -35
-31 -20 -134 -46 -156 -38 -20 6 -31 52 -18 77 7 12 6 17 -3 15 -8 -2 -14 10
-16 31 -2 20 -7 30 -11 23 -8 -13 11 -162 29 -227 7 -22 11 -49 11 -59 0 -11
5 -29 12 -40 7 -12 15 -87 19 -171 9 -172 12 -205 22 -260 l7 -41 -78 -24
c-132 -40 -365 -40 -370 1 -8 63 -16 91 -22 81 -5 -9 -12 -8 -27 4 -18 15 -18
15 4 9 14 -4 22 -2 22 6 0 9 4 8 15 -1 12 -10 18 -10 29 -1 8 7 17 8 20 3 5
-8 66 -15 66 -8 0 2 -28 21 -63 44 -69 44 -104 78 -93 89 4 4 10 2 14 -4 4 -6
20 -15 35 -18 23 -6 27 -4 27 14 0 12 -4 21 -8 21 -18 0 -45 197 -38 282 15
203 19 428 7 428 -7 0 -11 -25 -11 -72 0 -88 -14 -145 -38 -151 -16 -4 -16 -5
1 -6 19 -1 22 -31 7 -66 -7 -16 -9 -14 -10 15 l-1 35 -18 -22 -18 -22 -7 46
c-3 25 -6 64 -7 87 -1 40 -1 40 -12 14 -15 -38 -29 -36 -16 2 6 17 15 30 20
30 5 0 9 8 9 18 0 33 34 112 51 117 12 4 16 12 12 22 -4 11 -3 14 6 9 24 -15
109 -7 150 13 86 45 155 127 130 157 -6 8 -17 14 -24 14 -7 0 -25 14 -39 31
-31 36 -37 112 -10 127 17 10 23 90 7 101 -6 3 -14 36 -17 73 -7 63 -10 70
-47 102 -73 62 -165 58 -237 -10 l-44 -43 7 -110 c8 -118 0 -138 -29 -77 -18
39 -21 98 -6 126 12 23 -2 96 -30 155 -57 117 -257 109 -290 -11 -15 -51 -1
-122 31 -162 10 -14 19 -31 19 -38 0 -7 10 -22 22 -34 l22 -20 -32 0 c-21 0
-32 5 -32 15 0 23 -22 65 -31 59 -5 -2 -6 -19 -2 -37 6 -35 2 -33 -41 26 -15
20 -34 37 -43 37 -10 0 -13 6 -9 16 4 11 1 14 -12 12 -9 -1 -43 12 -74 30 -60
33 -78 39 -78 23 0 -6 -12 -6 -31 1 -27 9 -32 8 -46 -11 -8 -12 -26 -27 -40
-32 -14 -5 -27 -18 -30 -29 -3 -11 -12 -20 -20 -20 -11 0 -14 -7 -10 -21 3
-12 -2 -28 -11 -39 -31 -34 -42 -49 -42 -57 0 -4 -23 -29 -52 -55 l-51 -46
-19 23 c-10 13 -18 27 -18 33 0 14 -35 42 -52 42 -9 0 -19 -6 -21 -12 -4 -10
-6 -10 -6 0 -1 6 -5 12 -9 12 -5 0 -7 -13 -4 -30 3 -18 0 -30 -7 -30 -6 0 -11
14 -11 30 0 17 -4 30 -8 30 -5 0 -19 10 -31 22 -19 17 -27 19 -42 10 -12 -8
-19 -8 -21 -1 -2 6 -19 12 -38 13 -47 5 -70 15 -70 32 0 8 -6 11 -16 7 -14 -5
-15 -3 -5 15 13 25 15 72 2 72 -5 0 -11 23 -13 50 -10 106 -125 164 -215 109
-45 -28 -63 -65 -57 -117 3 -26 -1 -52 -10 -69 -14 -25 -15 -26 -16 -6 0 12
-5 23 -11 25 -6 2 -11 23 -11 47 1 34 -2 42 -16 39 -9 -2 -21 -13 -27 -25 -7
-18 -15 -21 -40 -16 -16 3 -35 12 -41 19 -6 8 -16 14 -22 14 -14 0 -32 -33
-32 -59 0 -15 -6 -21 -23 -21 -26 0 -67 -33 -67 -54 0 -8 -7 -17 -16 -20 -23
-9 -27 -8 -21 8 8 20 -17 50 -35 43 -8 -3 -18 -18 -21 -34 -5 -27 -8 -28 -51
-25 -31 3 -46 0 -46 -8 0 -7 -8 -9 -19 -5 -12 4 -23 0 -28 -9 -7 -14 -11 -13
-33 2 -14 9 -26 24 -28 32 -6 31 -25 70 -34 70 -5 0 -7 3 -5 8 2 4 1 30 -3 57
l-7 50 -14 -32 c-17 -42 -29 -42 -29 -2 0 24 -4 30 -15 25 -12 -4 -15 4 -15
44 0 27 -5 52 -11 56 -6 3 -8 15 -6 26 4 15 2 18 -11 14 -10 -4 -7 2 7 15 22
18 36 20 117 18 92 -3 92 -3 98 -31 8 -42 52 -106 85 -123 45 -23 92 -19 123
10 26 24 55 91 44 102 -7 8 20 59 46 85 18 18 20 32 19 115 -1 112 -15 144
-76 173 -45 22 -44 22 -95 10z m-83 -287 c-3 -10 -5 -4 -5 12 0 17 2 24 5 18
2 -7 2 -21 0 -30z m153 -13 c0 -5 -7 -10 -15 -10 -8 0 -15 5 -15 10 0 6 7 10
15 10 8 0 15 -4 15 -10z m-488 -179 c-9 -52 1 -78 19 -50 8 13 13 6 10 -13 -1
-9 44 -33 79 -42 42 -11 107 -116 71 -116 -5 0 -37 16 -71 35 -45 26 -76 36
-109 37 -78 1 -83 4 -65 39 8 16 16 43 17 58 1 22 5 27 14 19 14 -12 18 -5 28
56 3 21 9 36 11 33 3 -3 1 -28 -4 -56z m25 -13 c-3 -8 -6 -5 -6 6 -1 11 2 17
5 13 3 -3 4 -12 1 -19z m-364 -73 c20 -48 64 -91 103 -101 26 -7 27 -8 18 -42
-4 -14 -12 -21 -20 -18 -9 3 -14 -2 -14 -14 0 -10 -4 -22 -10 -25 -5 -3 -10 1
-10 9 0 19 -40 21 -59 4 -11 -11 -12 -6 -7 25 4 21 10 45 12 52 3 7 -4 19 -16
25 -20 10 -21 10 -16 -8 8 -23 -2 -72 -14 -72 -4 0 -11 11 -14 25 -4 14 -11
23 -16 20 -6 -4 -8 -11 -5 -16 3 -5 -1 -6 -9 -3 -8 3 -17 12 -20 21 -5 12 -9
13 -21 3 -13 -10 -19 -10 -33 3 -9 8 -29 19 -44 22 -53 13 -22 69 37 69 21 0
33 2 27 4 -20 6 -13 17 13 18 13 1 36 11 51 23 38 30 47 27 67 -24z m-240 10
c-3 -9 -8 -14 -10 -11 -3 3 -2 9 2 15 9 16 15 13 8 -4z m1287 -51 c0 -8 4 -12
10 -9 5 3 7 0 4 -8 -3 -9 -13 -13 -25 -10 -11 3 -17 8 -15 11 3 3 -2 11 -12
18 -15 12 -14 13 11 14 18 0 27 -5 27 -16z m2897 0 c-3 -3 -12 -4 -19 -1 -8 3
-5 6 6 6 11 1 17 -2 13 -5z m-4407 -24 c0 -5 -2 -10 -4 -10 -3 0 -8 5 -11 10
-3 6 -1 10 4 10 6 0 11 -4 11 -10z m3500 -30 c0 -5 -5 -10 -11 -10 -5 0 -7 5
-4 10 3 6 8 10 11 10 2 0 4 -4 4 -10z m-1867 -40 c16 -17 22 -30 14 -30 -7 0
-21 14 -30 30 -10 17 -16 30 -14 30 2 0 16 -13 30 -30z m2744 24 c-3 -3 -12
-4 -19 -1 -8 3 -5 6 6 6 11 1 17 -2 13 -5z m-877 -45 c0 -6 -4 -7 -10 -4 -5 3
-10 11 -10 16 0 6 5 7 10 4 6 -3 10 -11 10 -16z m900 -14 c0 -9 -6 -12 -16 -8
-13 5 -13 7 -2 14 17 11 18 11 18 -6z m-2723 -37 c-3 -8 -6 -5 -6 6 -1 11 2
17 5 13 3 -3 4 -12 1 -19z m-557 -10 c0 4 16 6 35 4 39 -5 47 -26 18 -48 -25
-19 -33 -17 -33 7 0 13 -5 19 -12 17 -7 -3 -22 4 -33 15 -20 20 -20 20 3 8 12
-6 22 -8 22 -3z m2362 -20 c-9 -9 -15 -9 -24 0 -10 10 -10 15 2 22 20 12 38
-6 22 -22z m-87 2 c-3 -5 -10 -10 -16 -10 -5 0 -9 5 -9 10 0 6 7 10 16 10 8 0
12 -4 9 -10z m-1035 -35 c-7 -8 -17 -15 -22 -15 -6 0 -5 7 2 15 7 8 17 15 22
15 6 0 5 -7 -2 -15z m1060 -25 c0 -5 -3 -10 -7 -10 -5 0 -18 -3 -30 -6 -13 -4
-23 -2 -23 4 0 9 9 13 53 21 4 0 7 -3 7 -9z m-2247 -7 c-7 -2 -19 -2 -25 0 -7
3 -2 5 12 5 14 0 19 -2 13 -5z m2103 -46 c8 -4 26 -33 40 -65 l26 -56 -42 -38
c-46 -42 -71 -49 -63 -18 4 14 0 20 -10 20 -12 0 -18 15 -23 60 -4 33 -11 63
-16 66 -5 3 8 21 29 39 31 27 39 30 42 17 2 -10 9 -21 17 -25z m-1236 23 c8
-5 11 -10 5 -10 -5 0 -17 5 -25 10 -8 5 -10 10 -5 10 6 0 17 -5 25 -10z m2190
0 c0 -5 -12 -10 -27 -10 -22 0 -25 2 -13 10 20 13 40 13 40 0z m-3065 -10 c3
-5 1 -10 -4 -10 -6 0 -11 5 -11 10 0 6 2 10 4 10 3 0 8 -4 11 -10z m1225 -11
c0 -5 -4 -9 -10 -9 -5 0 -10 7 -10 16 0 8 5 12 10 9 6 -3 10 -10 10 -16z
m-297 -3 c24 -18 21 -26 -8 -26 -18 0 -25 5 -25 20 0 23 8 25 33 6z m-508 -33
c0 -6 3 -14 6 -18 4 -3 5 -15 2 -26 -6 -20 -17 -22 -74 -13 -30 5 -36 10 -32
25 3 10 9 19 14 19 5 0 6 -8 3 -17 -5 -16 -4 -17 8 -2 7 9 23 19 36 23 12 4
19 12 16 18 -4 6 -1 9 7 6 8 -3 14 -10 14 -15z m105 -8 c0 -25 -18 -25 -22 -1
-4 17 -1 23 9 19 7 -3 13 -11 13 -18z m2500 -28 c13 -14 -1 -47 -21 -47 -22 0
-23 10 -7 65 11 35 12 37 16 15 2 -14 7 -29 12 -33z m-1890 40 c0 -2 -10 -12
-22 -23 l-23 -19 19 23 c18 21 26 27 26 19z m459 -95 c-1 -15 -2 -15 -6 1 -2
9 -9 14 -15 11 -7 -4 -8 -2 -4 5 10 15 26 4 25 -17z m1501 -3 c0 -11 -4 -17
-10 -14 -5 3 -10 13 -10 21 0 8 5 14 10 14 6 0 10 -9 10 -21z m-1740 -34 c18
-34 22 -47 13 -56 -9 -9 -16 -8 -28 5 -19 18 -42 20 -80 6 -18 -7 -25 -15 -21
-25 3 -8 2 -15 -3 -15 -17 0 -20 43 -5 58 9 8 13 24 11 34 -6 21 20 36 63 37
20 1 31 -9 50 -44z m1685 25 c3 -5 -1 -10 -9 -10 -8 0 -18 5 -21 10 -3 6 1 10
9 10 8 0 18 -4 21 -10z m-2995 -9 c6 0 10 -9 10 -20 0 -20 -23 -45 -33 -34 -4
3 -14 0 -23 -8 -16 -13 -17 -12 -12 9 4 12 2 22 -3 22 -5 0 -9 8 -9 18 0 16
19 20 70 13z m1500 5 c0 -3 -4 -8 -10 -11 -5 -3 -10 -1 -10 4 0 6 5 11 10 11
6 0 10 -2 10 -4z m-1890 -16 c0 -5 -4 -10 -10 -10 -5 0 -10 5 -10 10 0 6 5 10
10 10 6 0 10 -4 10 -10z m3355 -10 c-3 -5 -11 -10 -16 -10 -6 0 -7 5 -4 10 3
6 11 10 16 10 6 0 7 -4 4 -10z m39 -25 c-7 -18 17 -20 35 -2 10 10 11 9 6 -3
-6 -18 -51 -40 -78 -40 -16 0 -17 3 -7 15 6 8 9 18 6 24 -3 5 0 12 6 14 25 10
37 7 32 -8z m-1567 -17 c-3 -8 -6 -5 -6 6 -1 11 2 17 5 13 3 -3 4 -12 1 -19z
m75 0 c-6 -6 -15 -8 -19 -4 -4 4 -1 11 7 16 8 5 17 7 19 4 3 -2 -1 -10 -7 -16z
m241 -22 c10 -8 14 -17 9 -20 -5 -3 -17 3 -27 14 -21 23 -9 26 18 6z m-470 -3
c-7 -2 -21 -2 -30 0 -10 3 -4 5 12 5 17 0 24 -2 18 -5z m83 -68 c-7 -20 -19
-41 -26 -45 -12 -7 -16 -23 -19 -67 -1 -7 -6 -13 -11 -13 -6 0 -10 16 -8 35 1
25 -4 39 -17 49 -16 12 -17 17 -8 27 9 9 10 16 2 26 -9 10 -6 13 13 13 13 0
29 5 35 11 8 8 13 7 18 -2 5 -8 4 -10 -3 -5 -7 4 -12 1 -12 -8 0 -9 4 -16 9
-16 12 0 23 29 15 41 -3 5 -2 14 2 21 15 24 22 -30 10 -67z m112 -16 c19 -41
22 -60 17 -102 -4 -29 -9 -54 -11 -56 -2 -2 -21 3 -41 12 -21 9 -47 17 -57 19
-32 5 -41 31 -26 77 7 23 16 41 20 41 4 0 10 13 13 29 6 28 28 42 52 34 6 -2
20 -26 33 -54z m2206 16 c23 -35 21 -38 -23 -30 -23 4 -48 2 -60 -4 -16 -9
-19 -9 -15 2 3 8 16 19 30 25 13 7 24 16 24 22 0 19 28 10 44 -15z m-2484 -6
c0 -6 -4 -7 -10 -4 -5 3 -10 11 -10 16 0 6 5 7 10 4 6 -3 10 -11 10 -16z
m-782 -14 c-3 -14 -1 -28 3 -31 16 -10 9 -19 -21 -31 -16 -6 -30 -18 -30 -27
0 -9 -5 -16 -11 -16 -6 0 -9 6 -6 13 2 6 -12 19 -31 28 -33 16 -34 17 -13 24
14 4 20 12 17 21 -6 16 38 43 73 44 20 0 23 -4 19 -25z m1568 -21 c1 -27 7
-50 15 -56 12 -8 12 -9 -1 -5 -20 5 -34 48 -26 81 3 14 7 26 9 26 1 0 2 -21 3
-46z m67 11 c-3 -9 -8 -14 -10 -11 -3 3 -2 9 2 15 9 16 15 13 8 -4z m1144 0
c0 -8 -4 -12 -9 -9 -5 3 -6 10 -3 15 9 13 12 11 12 -6z m-1957 -9 c10 -13 7
-15 -16 -13 -15 1 -29 8 -32 15 -5 17 33 15 48 -2z m2056 -58 c13 -21 24 -42
24 -48 0 -6 6 -8 13 -4 10 6 10 4 0 -7 -7 -7 -13 -22 -13 -33 1 -19 1 -19 11
-3 12 20 29 23 29 5 0 -7 7 -26 15 -42 13 -24 13 -35 3 -65 -6 -20 -13 -54
-14 -76 -1 -22 -3 -42 -5 -45 -1 -3 -3 -11 -3 -19 -1 -7 -23 -21 -50 -32 -67
-25 -86 -14 -86 51 0 43 -13 71 -26 58 -11 -12 19 -115 39 -138 43 -46 68
-102 88 -194 11 -50 26 -120 35 -156 35 -154 46 -222 35 -233 -17 -17 -333
-39 -449 -32 l-104 7 5 32 c3 17 1 76 -4 131 -5 55 -10 130 -12 168 -4 71 -17
92 -29 42 -3 -16 -6 45 -5 138 0 126 4 170 14 178 10 9 13 8 13 -5 0 -12 9
-16 35 -16 26 0 35 -4 36 -17 1 -10 3 -38 4 -62 4 -48 28 -76 33 -39 2 12 -1
24 -7 26 -14 5 -14 49 0 57 6 4 8 13 5 21 -3 8 0 14 7 15 7 0 20 2 29 4 19 3
40 -33 52 -88 4 -16 12 -27 19 -24 7 2 10 11 7 18 -17 51 9 267 36 293 10 10
11 22 4 47 -6 19 -10 45 -10 60 0 29 54 96 65 80 3 -6 15 -11 26 -11 11 0 22
-7 25 -15 10 -26 24 -17 24 16 l0 30 31 -18 c17 -10 42 -35 55 -55z m-4241 52
c-3 -5 -18 -10 -33 -9 -24 0 -25 1 -7 9 28 12 47 12 40 0z m2822 -17 c45 -42
103 -165 103 -222 0 -33 -27 -146 -41 -173 -15 -29 -55 -22 -80 13 -22 31 -22
50 -4 139 3 14 -5 4 -17 -22 -25 -56 -44 -65 -22 -12 9 22 13 47 9 63 -7 25
-7 25 -30 -19 -29 -55 -32 -32 -5 29 26 56 25 77 -1 29 -11 -21 -22 -38 -25
-38 -2 0 0 8 5 19 6 10 15 36 20 57 28 113 44 164 50 164 4 0 21 -12 38 -27z
m-3089 -2 c20 -10 52 -39 69 -64 34 -47 73 -71 136 -82 21 -4 44 -16 50 -26 7
-11 17 -19 24 -19 6 0 15 -9 18 -20 3 -11 11 -20 16 -20 21 0 6 -22 -43 -60
-29 -23 -66 -51 -81 -63 -18 -14 -33 -41 -43 -74 -9 -29 -20 -53 -25 -53 -18
0 -73 32 -91 54 -10 12 -17 38 -18 62 0 41 -16 101 -31 118 -4 5 -3 -9 2 -30
4 -22 8 -48 8 -59 l-1 -20 -5 20 c-3 11 -10 27 -17 36 -9 13 -11 -2 -12 -65
-2 -135 -11 -150 -83 -140 -73 10 -115 27 -128 54 -18 34 -9 221 12 263 8 16
15 42 15 57 0 32 65 97 118 119 17 7 32 17 32 22 0 15 39 10 78 -10z m632 4
c0 -8 -4 -15 -9 -15 -13 0 -22 16 -14 24 11 11 23 6 23 -9z m3385 -15 c-4 -12
-9 -19 -12 -17 -3 3 -2 15 2 27 4 12 9 19 12 17 3 -3 2 -15 -2 -27z m1100 -7
c-20 -14 -35 -17 -35 -7 0 12 35 32 44 27 5 -4 1 -12 -9 -20z m-4192 -25 c15
-21 27 -42 27 -48 0 -5 5 -10 10 -10 13 0 13 6 -5 40 -26 50 5 36 48 -21 42
-56 46 -73 17 -64 -11 4 -20 2 -20 -4 0 -18 -13 -13 -45 17 -37 35 -78 88 -87
114 -13 33 24 17 55 -24z m104 12 c28 -33 45 -39 37 -12 -3 10 7 3 25 -16 17
-18 31 -42 31 -53 0 -18 -3 -17 -26 11 -25 29 -49 36 -27 8 14 -18 23 -58 12
-58 -23 0 -59 56 -79 123 -11 35 -5 34 27 -3z m1441 23 c-28 -7 -22 -31 6 -26
18 4 25 0 29 -18 5 -18 0 -29 -21 -46 -42 -35 -56 -30 -49 18 4 31 2 39 -8 35
-21 -8 -26 6 -8 26 9 10 28 17 42 17 17 -1 20 -3 9 -6z m2072 -19 c0 -20 -7
-17 -20 6 -9 16 -8 18 5 14 8 -4 15 -12 15 -20z m273 -22 c-8 -2 -11 -11 -8
-22 5 -15 2 -17 -15 -13 -13 4 -20 14 -20 30 0 19 4 24 16 19 11 -4 15 -2 11
8 -9 24 6 27 18 3 8 -17 8 -23 -2 -25z m-4048 28 c3 -5 1 -10 -4 -10 -6 0 -11
5 -11 10 0 6 2 10 4 10 3 0 8 -4 11 -10z m4165 -51 c0 -79 -20 -114 -75 -132
-35 -12 -52 -14 -67 -6 -19 10 -19 12 -3 30 10 10 26 21 36 24 10 4 16 12 13
20 -3 8 -11 12 -17 9 -15 -5 -44 13 -35 22 4 3 21 2 37 -4 28 -10 31 -9 31 9
0 11 11 24 25 31 14 6 25 19 25 28 0 9 3 20 6 23 15 14 24 -7 24 -54z m-2150
-7 c0 -5 -7 -12 -15 -16 -9 -3 -12 -12 -8 -22 4 -11 2 -15 -7 -12 -7 2 -15 14
-16 26 -2 12 -5 25 -6 29 -1 4 2 18 6 31 l8 23 19 -25 c10 -13 19 -29 19 -34z
m-1908 6 c36 -41 48 -68 29 -68 -12 0 -81 82 -81 98 0 21 12 14 52 -30z m3350
-36 c-5 -1 -7 -14 -4 -28 2 -14 -3 -43 -13 -65 -17 -37 -17 -40 -1 -58 20 -22
17 -58 -5 -52 -8 2 -20 4 -26 4 -9 0 -13 18 -13 54 0 39 -4 53 -14 53 -10 0
-14 -10 -13 -32 2 -26 -2 -34 -18 -36 -27 -6 -33 -18 -29 -61 3 -35 3 -35 -9
-10 -6 14 -18 24 -24 22 -8 -3 -13 4 -13 16 0 11 -4 23 -10 26 -5 3 -10 14
-10 25 0 25 58 164 70 168 5 2 10 10 10 18 0 11 8 13 34 9 22 -5 44 -1 62 8
l29 15 3 -36 c2 -20 -1 -38 -6 -40z m-3356 -39 c-2 -2 -12 0 -23 6 -10 5 -35
18 -55 27 -21 9 -38 20 -38 25 0 5 13 3 30 -6 41 -21 45 -19 26 13 -11 17 -2
11 24 -17 22 -24 38 -46 36 -48z m811 -24 c-4 -3 -7 -10 -5 -16 4 -14 -69 -93
-87 -93 -20 0 -45 28 -39 45 3 7 13 16 22 20 15 5 13 8 -7 20 l-24 13 22 7
c18 5 21 12 17 31 -7 27 -3 29 25 14 21 -12 26 -30 7 -30 -7 0 -14 -11 -14
-25 -2 -23 -1 -23 20 -9 13 8 26 11 29 8 15 -15 17 27 3 48 -15 21 -15 24 6
40 23 17 23 17 28 -25 3 -23 1 -45 -3 -48z m875 51 c6 0 8 -11 6 -24 -4 -17
-1 -23 9 -19 17 7 17 -7 -2 -34 -12 -17 -67 -53 -82 -53 -9 0 -1 20 14 35 9 9
12 20 7 23 -15 11 -16 35 -2 43 11 7 11 9 0 9 -9 0 -6 11 10 33 22 30 23 31
26 10 2 -13 8 -23 14 -23z m-1052 -10 c-6 -11 -13 -20 -16 -20 -3 0 -2 5 1 10
3 6 1 10 -4 10 -6 0 -11 5 -11 10 0 6 9 10 20 10 18 0 19 -3 10 -20z m-837
-41 c-7 -7 -19 -8 -30 -4 -16 7 -15 9 7 15 30 8 38 4 23 -11z m1272 -6 c10
-16 31 -40 48 -55 26 -23 29 -29 17 -43 -23 -27 -31 -183 -16 -299 8 -62 7
-70 -9 -83 -25 -17 -35 -17 -35 3 0 10 -5 14 -15 10 -16 -6 -150 38 -172 56
-18 15 -16 -2 4 -43 26 -52 29 -132 6 -171 -10 -18 -34 -73 -53 -123 -18 -49
-42 -99 -52 -111 -10 -11 -18 -28 -18 -36 0 -9 -15 -27 -32 -39 -18 -13 -34
-27 -36 -31 -2 -4 -31 -8 -65 -8 -69 0 -121 20 -202 75 -27 19 -84 44 -125 55
-41 12 -83 24 -92 27 -23 7 -23 -11 -1 -106 13 -55 24 -80 46 -100 53 -47 77
-76 77 -88 0 -17 -10 -16 -32 3 -15 14 -18 15 -23 2 -3 -8 -1 -27 5 -42 12
-33 13 -46 1 -46 -8 0 -41 81 -43 108 -1 6 -5 12 -9 12 -5 0 -18 19 -30 43
-12 23 -26 45 -32 48 -5 4 -7 19 -3 33 3 14 3 26 -2 26 -12 0 -35 162 -34 235
0 33 -4 77 -10 97 -9 32 -8 41 5 56 10 10 17 23 17 29 0 24 26 32 63 21 32
-10 35 -13 25 -32 -6 -12 -23 -33 -39 -48 -32 -30 -36 -46 -14 -55 20 -7 54
23 72 65 7 17 19 32 27 32 17 0 26 23 25 63 -1 28 -2 29 -7 9 -9 -30 -12 -29
-139 24 -45 19 -86 34 -92 34 -18 0 -23 21 -9 33 8 7 20 30 27 52 14 41 78
147 93 153 4 2 8 10 8 17 0 7 14 18 30 24 17 5 45 20 61 32 23 16 52 23 115
28 l84 7 72 -69 c100 -95 158 -117 213 -81 24 16 24 15 35 -28 12 -48 44 -97
56 -85 5 4 0 23 -10 41 -17 32 -17 35 4 96 28 84 57 140 73 140 6 0 32 14 57
30 55 37 63 37 85 3z m715 17 c0 -21 -71 -87 -110 -103 -29 -11 -40 -12 -37
-4 2 7 15 14 30 17 28 5 61 33 90 74 19 28 27 32 27 16z m-1160 -26 c0 -8 -4
-14 -10 -14 -5 0 -10 9 -10 21 0 11 5 17 10 14 6 -3 10 -13 10 -21z m-665 -11
c41 4 53 3 48 -6 -4 -7 0 -6 10 2 32 26 20 -23 -13 -52 -16 -15 -30 -32 -30
-38 0 -5 -19 -40 -43 -77 -24 -37 -46 -75 -50 -84 -3 -10 -11 -18 -16 -18 -5
0 -12 -18 -16 -40 -4 -26 -12 -40 -22 -40 -11 0 -13 -7 -8 -28 5 -25 0 -33
-50 -73 -55 -43 -71 -79 -37 -79 16 -1 16 -1 0 -11 -10 -5 -18 -17 -18 -26 0
-9 -3 -13 -7 -10 -3 4 -16 -9 -27 -30 -12 -20 -25 -38 -31 -40 -11 -3 -49 106
-52 147 -2 40 -21 104 -37 125 -14 18 -15 18 -16 3 0 -12 -5 -15 -16 -11 -14
5 -15 -1 -9 -53 6 -55 5 -61 -19 -83 -21 -19 -31 -22 -63 -17 -111 20 -135 65
-111 214 9 53 20 111 25 129 11 41 70 84 151 108 34 10 62 22 62 27 0 21 17 4
29 -29 18 -49 85 -119 126 -133 43 -14 106 1 139 35 39 38 44 86 20 181 -7 26
-6 28 10 15 12 -10 32 -12 71 -8z m2194 -52 c-6 -18 -13 -30 -15 -28 -2 2 1
18 7 36 6 18 13 30 15 28 2 -2 -1 -18 -7 -36z m1691 -107 c0 -26 61 -54 119
-54 50 0 53 -1 48 -22 -26 -102 -48 -200 -53 -235 -5 -30 -10 -40 -20 -36 -9
3 -14 -2 -14 -17 0 -13 4 -19 12 -14 7 5 8 3 2 -7 -5 -8 -7 -22 -6 -31 3 -18
-15 -26 -65 -30 -26 -2 -32 -7 -37 -30 -3 -15 -3 -40 -1 -55 3 -16 7 -64 10
-108 2 -44 6 -89 9 -100 2 -11 5 -26 5 -33 1 -7 6 -10 11 -7 6 3 10 -1 10 -9
0 -8 10 -18 22 -22 21 -6 118 -102 118 -116 0 -12 -25 -9 -39 5 -10 10 -11 9
-6 -5 8 -21 -8 -24 -23 -5 -14 17 1 42 19 32 11 -6 12 -5 2 6 -10 9 -16 10
-24 2 -9 -9 -18 -9 -38 0 -55 24 -105 93 -115 163 -8 49 -10 76 -21 208 -3 38
-8 72 -10 76 -2 4 -7 45 -11 91 -3 46 -8 87 -10 91 -3 4 -2 19 2 33 8 31 34
33 34 3 0 -13 7 -43 14 -68 l15 -45 0 40 c1 46 18 37 31 -17 7 -30 8 -31 9 -6
1 14 -8 48 -20 75 -18 41 -20 60 -15 128 4 44 9 98 13 119 4 28 3 37 -5 32
-13 -8 -15 4 -6 29 6 14 10 10 20 -15 8 -18 14 -39 14 -46z m-3112 37 c13 -38
-4 -55 -45 -45 -27 7 -72 42 -73 56 0 5 18 7 40 6 22 -1 43 2 47 5 12 13 21 7
31 -22z m2399 -18 c-3 -10 -5 -4 -5 12 0 17 2 24 5 18 2 -7 2 -21 0 -30z m619
-18 c-4 -14 -11 -25 -16 -25 -13 0 -13 16 1 42 14 26 23 16 15 -17z m-19 -112
c-3 -10 -5 -4 -5 12 0 17 2 24 5 18 2 -7 2 -21 0 -30z m-2019 -1 c17 -12 4
-42 -18 -42 -10 0 -20 7 -24 15 -3 8 -10 15 -16 15 -15 0 -12 -26 5 -43 15
-16 8 -24 -54 -57 -24 -12 -24 -12 -18 25 11 67 80 115 125 87z m2307 -82
c-18 -75 -30 -93 -20 -32 10 63 28 127 33 114 2 -7 -4 -44 -13 -82z m-2275 36
c0 -8 -12 -28 -26 -45 -14 -17 -27 -42 -28 -56 -1 -19 -10 -28 -43 -40 -45
-17 -76 -45 -52 -45 8 -1 -3 -10 -23 -21 -41 -21 -50 -34 -18 -26 11 3 23 1
26 -4 3 -5 -8 -9 -25 -9 -21 0 -37 -9 -56 -32 -25 -31 -26 -31 -20 -8 4 14 18
34 31 46 21 17 23 24 15 46 -9 25 -5 30 80 93 50 37 98 78 107 91 19 27 32 31
32 10z m533 -28 c-3 -24 -7 -44 -8 -46 -4 -5 -65 33 -65 40 0 6 61 43 77 48 0
0 -1 -19 -4 -42z m32 -18 c3 -5 1 -10 -4 -10 -6 0 -11 5 -11 10 0 6 2 10 4 10
3 0 8 -4 11 -10z m-3200 -30 c10 -11 15 -23 12 -26 -4 -4 -9 1 -13 10 -3 9
-12 16 -20 16 -8 0 -14 5 -14 10 0 16 15 12 35 -10z m3254 -116 c-10 -50 -13
-55 -20 -34 -5 19 -8 13 -9 -27 -4 -77 -4 -77 -22 -81 -14 -3 -16 4 -12 40 10
90 15 108 29 108 17 0 19 18 5 54 -6 17 -6 26 0 26 6 0 8 12 4 28 -4 21 -1 18
16 -14 21 -38 21 -45 9 -100z m-609 76 c0 -5 -6 -10 -14 -10 -8 0 -18 5 -21
10 -3 6 3 10 14 10 12 0 21 -4 21 -10z m56 -15 c-3 -8 3 -19 12 -25 14 -9 13
-10 -8 -8 -30 4 -43 48 -15 48 11 0 15 -5 11 -15z m-2663 -13 c-14 -2 -20 -8
-16 -18 4 -11 -4 -14 -31 -14 -30 0 -36 3 -34 18 3 18 59 33 88 22 11 -3 9 -6
-7 -8z m404 -14 c-3 -8 -6 -5 -6 6 -1 11 2 17 5 13 3 -3 4 -12 1 -19z m2197
-62 c-14 -75 -8 -118 20 -141 33 -27 21 -49 -24 -43 -21 3 -34 0 -37 -9 -9
-24 -23 -14 -23 18 0 38 -24 35 -28 -4 -3 -27 -32 -39 -32 -14 0 8 -10 13 -22
13 -14 -1 -24 5 -24 14 -1 8 -2 21 -3 28 -1 8 -10 12 -23 10 -18 -2 -24 3 -26
20 -4 23 -2 23 55 18 42 -5 52 -4 36 4 -35 14 -27 23 13 16 33 -7 35 -5 34 16
-5 56 1 89 20 108 19 19 21 19 46 3 24 -15 25 -20 18 -57z m-2561 47 c-7 -2
-19 -2 -25 0 -7 3 -2 5 12 5 14 0 19 -2 13 -5z m2293 -50 c-6 -14 -8 -14 -20
3 -15 20 -11 39 5 29 5 -4 10 0 10 7 1 7 3 5 6 -5 3 -10 2 -25 -1 -34z m151
-29 c-3 -3 -12 -4 -19 -1 -8 3 -5 6 6 6 11 1 17 -2 13 -5z m-67 -24 c12 -8 11
-10 -7 -10 -13 0 -23 5 -23 10 0 13 11 13 30 0z m-2032 -32 c7 10 12 8 24 -10
27 -41 55 -68 69 -68 9 0 10 -3 2 -11 -29 -29 -133 46 -133 96 0 18 1 18 15
-1 11 -15 16 -16 23 -6z m2781 -70 c-5 -18 -9 -34 -9 -36 0 -2 -5 0 -12 4 -8
5 -9 2 -5 -9 3 -9 -12 -67 -34 -129 -28 -81 -48 -121 -69 -141 l-30 -27 -35
32 c-31 30 -33 34 -18 46 9 6 29 12 44 12 47 0 77 34 84 95 4 30 12 55 17 55
6 0 7 -7 4 -16 -3 -8 -2 -12 3 -9 6 3 7 20 5 38 -4 19 1 44 10 62 9 17 16 36
16 43 0 6 9 12 19 12 17 0 19 -4 10 -32z m2244 2 c-7 -25 -17 -32 -37 -24 -23
9 -20 27 3 19 12 -3 21 0 25 10 8 22 15 18 9 -5z m-549 -6 c11 -30 6 -52 -14
-57 -13 -3 -20 0 -20 10 0 8 -4 11 -10 8 -5 -3 -10 3 -10 14 0 11 8 25 18 30
24 14 29 13 36 -5z m643 -36 c-3 -8 -6 -5 -6 6 -1 11 2 17 5 13 3 -3 4 -12 1
-19z m-2647 2 c0 -5 -4 -10 -10 -10 -5 0 -10 5 -10 10 0 6 5 10 10 10 6 0 10
-4 10 -10z m2210 -12 c0 -5 -9 -26 -20 -48 -16 -32 -19 -50 -13 -99 6 -58 5
-61 -16 -61 -12 0 -36 -7 -52 -16 -43 -22 -86 -11 -94 25 -8 39 9 77 55 121
22 21 40 43 40 49 0 17 59 49 81 44 10 -3 19 -9 19 -15z m532 -103 c1 -42 6
-79 10 -81 18 -11 7 -24 -12 -14 -12 6 -19 20 -18 38 0 15 -2 57 -5 94 -5 60
-4 66 9 53 10 -9 15 -39 16 -90z m-3107 75 c-3 -5 -11 -10 -16 -10 -6 0 -7 5
-4 10 3 6 11 10 16 10 6 0 7 -4 4 -10z m4319 -42 c8 -31 8 -78 -1 -78 -18 0
-93 53 -93 65 0 8 15 19 33 24 48 14 54 13 61 -11z m-2864 2 c0 -5 -4 -10 -10
-10 -5 0 -10 5 -10 10 0 6 5 10 10 10 6 0 10 -4 10 -10z m1595 -37 c-13 -70
-78 -129 -101 -92 -5 8 -9 8 -14 -1 -11 -18 -57 -4 -62 18 -4 15 0 19 23 20
16 0 31 -4 35 -9 4 -6 10 -7 17 0 7 5 23 11 37 14 17 3 12 5 -15 5 -62 1 -92
8 -120 30 -21 17 -22 21 -9 26 9 4 22 2 29 -4 9 -8 15 -8 20 0 5 8 15 6 32 -6
25 -16 26 -15 19 1 -5 14 -2 17 19 13 14 -3 28 -1 31 3 10 17 20 9 22 -18 1
-15 7 -32 13 -38 9 -7 10 0 6 27 -5 36 -2 48 16 48 5 0 6 -16 2 -37z m667 10
c4 -2 5 -17 1 -33 -3 -19 -1 -30 6 -30 14 0 15 -67 0 -75 -6 -4 -8 -14 -5 -22
3 -8 0 -24 -6 -36 -7 -12 -11 -25 -10 -29 1 -5 -26 -8 -61 -8 l-62 0 -1 42
c-1 23 -7 44 -13 46 -19 6 -12 58 11 78 21 19 21 19 14 -1 -6 -16 -5 -17 5 -8
7 7 13 23 15 35 1 13 3 27 3 31 2 21 72 28 103 10z m816 -7 c-27 -20 -22 -26
12 -16 17 5 28 5 25 0 -8 -12 -62 -23 -76 -14 -12 7 26 44 46 43 6 0 2 -6 -7
-13z m-4125 -10 c19 -14 23 -36 7 -36 -5 0 -10 7 -10 16 0 11 -6 15 -19 11
-14 -3 -18 -1 -14 9 6 17 13 17 36 0z m-93 -21 c-7 -9 -15 -13 -18 -10 -3 2 1
11 8 20 7 9 15 13 18 10 3 -2 -1 -11 -8 -20z m423 -27 c7 0 19 -1 27 -2 8 -1
14 -6 12 -11 -8 -24 -63 7 -61 34 1 13 2 13 6 -1 2 -10 10 -19 16 -20z m3882
12 c-11 -5 -27 -9 -35 -9 -9 0 -8 4 5 9 11 5 27 9 35 9 9 0 8 -4 -5 -9z
m-2705 -31 c0 -5 -4 -9 -10 -9 -5 0 -10 7 -10 16 0 8 5 12 10 9 6 -3 10 -10
10 -16z m940 11 c0 -5 -2 -10 -4 -10 -3 0 -8 5 -11 10 -3 6 -1 10 4 10 6 0 11
-4 11 -10z m-900 -10 c0 -5 -4 -10 -10 -10 -5 0 -10 5 -10 10 0 6 5 10 10 10
6 0 10 -4 10 -10z m1103 -5 c4 -8 2 -17 -3 -20 -6 -4 -10 3 -10 14 0 25 6 27
13 6z m1437 5 c0 -5 -4 -10 -10 -10 -5 0 -10 5 -10 10 0 6 5 10 10 10 6 0 10
-4 10 -10z m-4947 -20 c-3 -12 -8 -19 -11 -16 -5 6 5 36 12 36 2 0 2 -9 -1
-20z m1127 -5 c7 -8 9 -15 6 -15 -4 0 -14 7 -22 15 -9 8 -11 15 -6 15 5 0 15
-7 22 -15z m3845 -5 c3 -5 -3 -10 -15 -10 -12 0 -18 5 -15 10 3 6 10 10 15 10
5 0 12 -4 15 -10z m-2605 -22 c0 -16 -3 -19 -11 -11 -6 6 -8 16 -5 22 11 17
16 13 16 -11z m1325 -38 c139 -47 161 -58 146 -73 -5 -5 -27 -1 -56 12 -35 15
-70 21 -132 22 -74 1 -86 4 -90 19 -3 11 -11 16 -19 13 -15 -6 -17 8 -8 45 4
15 10 19 18 14 6 -5 70 -28 141 -52z m-375 40 c0 -5 -2 -10 -4 -10 -3 0 -8 5
-11 10 -3 6 -1 10 4 10 6 0 11 -4 11 -10z m-2007 -15 c-3 -17 -32 -17 -55 0
-23 16 -22 16 17 13 22 -2 39 -7 38 -13z m2197 -10 c-7 -8 -9 -15 -4 -15 4 0
2 -6 -4 -12 -10 -10 -15 -10 -23 2 -8 11 -12 12 -16 3 -7 -18 -33 -16 -33 2 0
8 3 14 8 13 4 0 23 6 42 15 39 17 49 15 30 -8z m-124 4 c3 -6 0 -15 -7 -20
-21 -13 -26 -11 -32 11 -4 15 0 20 13 20 11 0 22 -5 26 -11z m-59 -21 c-3 -8
-6 -5 -6 6 -1 11 2 17 5 13 3 -3 4 -12 1 -19z m-698 -28 c23 -45 26 -54 12
-45 -11 6 -41 63 -41 77 0 16 8 7 29 -32z m-313 -5 c-3 -8 0 -15 7 -16 7 0 2
-5 -10 -11 -13 -6 -23 -15 -23 -20 0 -4 -4 -8 -10 -8 -15 0 -12 16 5 34 8 8
15 19 15 25 0 6 5 11 11 11 6 0 9 -7 5 -15z m-4789 -11 c-3 -3 -12 -4 -19 -1
-8 3 -5 6 6 6 11 1 17 -2 13 -5z m53 -8 c0 -2 -7 -6 -15 -10 -8 -3 -15 -1 -15
4 0 6 7 10 15 10 8 0 15 -2 15 -4z m57 -2 c-3 -3 -12 -4 -19 -1 -8 3 -5 6 6 6
11 1 17 -2 13 -5z m33 -22 c-8 -3 -18 -10 -22 -16 -5 -7 -8 -5 -8 6 0 18 19
29 35 20 5 -3 2 -8 -5 -10z m4222 -292 l-9 -145 -2 106 c0 58 2 155 7 215 6
101 7 104 10 39 1 -38 -2 -135 -6 -215z m998 265 c77 -11 90 -15 90 -30 0 -8
6 -13 13 -11 32 11 317 16 317 6 0 -5 -24 -10 -54 -10 -30 0 -57 -4 -61 -9 -7
-12 22 -41 40 -41 7 0 15 -4 17 -8 4 -11 143 -85 232 -123 81 -35 210 -69 259
-69 44 0 67 -8 67 -25 0 -12 -43 -17 -317 -31 -122 -7 -123 -7 -123 15 0 16
-14 28 -54 49 -30 15 -115 60 -188 101 -73 41 -161 89 -195 108 -35 19 -63 41
-63 49 0 8 -13 17 -30 21 -17 3 -33 10 -37 16 -4 6 3 8 18 4 13 -3 44 -9 69
-12z m1625 -102 c-4 -28 -16 -55 -31 -70 -13 -13 -24 -26 -24 -28 0 -2 13 -6
29 -10 16 -3 35 -13 42 -22 11 -13 10 -17 -5 -28 -17 -13 -182 -32 -192 -22
-3 2 20 29 52 58 38 37 68 77 93 128 38 78 49 76 36 -6z m-5495 37 c0 -5 -4
-10 -10 -10 -5 0 -10 5 -10 10 0 6 5 10 10 10 6 0 10 -4 10 -10z m5086 -21 c9
-15 -23 -10 -35 5 -10 12 -8 13 9 9 11 -3 23 -9 26 -14z m-341 -19 c3 -6 -1
-7 -9 -4 -18 7 -21 14 -7 14 6 0 13 -4 16 -10z m394 -22 c16 -16 18 -25 10
-35 -14 -17 -32 -17 -26 0 2 6 0 22 -4 35 -11 28 -5 28 20 0z m-181 -51 c22
-14 3 -27 -23 -15 -13 6 -22 14 -20 19 6 9 25 7 43 -4z m165 -4 c15 -9 6 -23
-16 -23 -13 0 -32 10 -43 21 l-19 21 35 -7 c19 -4 38 -9 43 -12z m43 -81 c-3
-3 -17 0 -31 6 l-25 11 25 25 c14 14 26 33 27 43 1 10 3 -4 5 -31 2 -26 2 -51
-1 -54z m-148 70 c2 -7 -1 -12 -8 -12 -6 0 -9 4 -6 9 4 5 1 12 -4 14 -6 3 -5
4 2 3 6 -1 14 -8 16 -14z m-2522 -114 c27 -40 79 -115 116 -167 39 -53 68
-104 68 -117 0 -22 -4 -24 -48 -24 -27 0 -104 -3 -171 -7 l-123 -6 6 54 c6 49
4 58 -27 108 -34 52 -34 54 -16 72 23 23 24 53 5 107 -8 22 -12 43 -9 46 4 3
39 6 78 6 l71 0 50 -72z m2460 16 c8 3 14 1 14 -5 0 -5 -6 -12 -14 -15 -17 -6
-56 12 -56 27 0 6 8 6 21 -1 11 -7 27 -9 35 -6z m244 -94 c0 -5 -7 -10 -16
-10 -8 0 -12 5 -9 10 3 6 10 10 16 10 5 0 9 -4 9 -10z m490 -11 c0 -4 -7 -6
-15 -3 -8 4 -15 10 -15 15 0 4 7 6 15 3 8 -4 15 -10 15 -15z m-680 -9 c0 -5
-5 -10 -11 -10 -5 0 -7 5 -4 10 3 6 8 10 11 10 2 0 4 -4 4 -10z m-3839 -60 c5
0 9 -7 9 -15 0 -8 5 -15 10 -15 6 0 10 -17 10 -37 0 -35 -1 -36 -15 -17 -11
15 -15 16 -15 4 -3 -37 -19 29 -18 75 0 28 3 40 5 28 2 -13 9 -23 14 -23z
m3232 13 c-7 -2 -21 -2 -30 0 -10 3 -4 5 12 5 17 0 24 -2 18 -5z m694 -50 c-4
-17 -4 -17 -12 0 -4 9 -4 25 0 35 8 16 8 16 12 0 3 -10 3 -26 0 -35z m829 37
c43 -17 22 -21 -27 -6 -27 9 -36 14 -22 15 12 1 34 -4 49 -9z m-1509 -37 c36
-15 42 -29 16 -37 -70 -21 -186 -36 -262 -35 -98 2 -117 19 -21 19 32 0 62 5
65 10 10 17 -5 50 -23 50 -9 0 -24 5 -32 10 -23 15 219 -1 257 -17z m60 12 c9
-26 -4 -28 -28 -6 l-23 21 22 0 c13 0 25 -7 29 -15z m1525 -26 c7 -12 27 -27
43 -35 24 -11 26 -13 9 -14 -11 0 -38 16 -60 35 -28 25 -34 34 -22 35 10 0 23
-10 30 -21z m79 11 c6 0 7 -4 4 -10 -8 -13 -52 -13 -59 -1 -7 11 14 21 32 15
8 -2 18 -4 23 -4z m-3204 -32 c-3 -7 -5 -2 -5 12 0 14 2 19 5 13 2 -7 2 -19 0
-25z m2973 -14 c0 -2 -7 -4 -15 -4 -8 0 -15 4 -15 10 0 5 7 7 15 4 8 -4 15 -8
15 -10z m95 -14 c3 -5 -1 -10 -9 -10 -8 0 -18 5 -21 10 -3 6 1 10 9 10 8 0 18
-4 21 -10z m-180 -30 c3 -5 1 -10 -4 -10 -6 0 -11 5 -11 10 0 6 2 10 4 10 3 0
8 -4 11 -10z m-4590 -69 c2 -11 0 -21 -6 -21 -5 0 -9 12 -9 27 0 30 9 27 15
-6z m3333 1 c2 -15 -2 -22 -12 -22 -11 0 -16 9 -16 26 0 31 23 28 28 -4z
m-5913 8 c3 -5 -1 -10 -9 -10 -9 0 -16 5 -16 10 0 6 4 10 9 10 6 0 13 -4 16
-10z m-37 -15 c3 -3 -4 -4 -16 -2 -12 2 -24 6 -28 10 -4 3 4 4 16 2 12 -2 25
-7 28 -10z m6471 -49 c1 -22 5 -44 8 -49 10 -16 -39 3 -105 42 l-64 36 34 6
c18 3 54 6 79 6 l45 -1 3 -40z m-846 27 c-7 -2 -21 -2 -30 0 -10 3 -4 5 12 5
17 0 24 -2 18 -5z m-348 -33 c12 -19 -9 -39 -52 -49 -25 -7 -48 -9 -51 -6 -9
9 20 25 45 25 12 0 25 5 29 11 5 8 -1 10 -20 7 -29 -6 -35 6 -10 20 18 10 51
5 59 -8z m898 -20 c8 0 8 -3 0 -11 -9 -9 -16 -7 -30 7 -17 17 -17 18 0 11 10
-4 24 -7 30 -7z m-1836 -37 c-3 -10 -5 -4 -5 12 0 17 2 24 5 18 2 -7 2 -21 0
-30z m-303 8 c3 -5 21 -18 40 -29 32 -19 33 -19 29 -1 -7 26 20 34 60 18 36
-15 117 -70 117 -79 0 -4 24 -24 53 -45 28 -21 77 -67 107 -101 30 -35 64 -66
74 -70 10 -3 34 -22 53 -40 28 -29 32 -37 23 -54 -6 -11 -15 -20 -20 -20 -15
0 -12 30 3 31 6 0 0 6 -15 13 -30 13 -71 46 -84 68 -13 21 -96 64 -138 72 -44
8 -49 30 -6 28 3 0 19 -2 37 -5 l32 -5 -32 33 c-25 27 -34 31 -40 19 -12 -21
-45 -17 -58 8 -9 18 -8 24 5 34 16 11 16 13 0 22 -18 10 -54 5 -54 -8 0 -5 5
-10 12 -12 7 -3 6 -7 -5 -11 -11 -4 -17 -1 -17 8 0 8 -7 15 -15 15 -21 0 -19
-14 6 -36 12 -10 64 -83 115 -161 52 -79 97 -143 102 -143 4 0 9 -11 10 -25 1
-14 -2 -25 -6 -25 -18 0 -53 33 -68 65 -9 19 -20 35 -25 35 -4 0 -17 21 -29
46 -11 26 -28 53 -38 61 -9 8 -11 12 -4 8 6 -3 12 -1 12 4 0 6 -6 11 -14 11
-7 0 -30 28 -50 63 -32 54 -99 137 -112 137 -10 0 -2 -12 30 -47 19 -21 49
-67 67 -103 18 -36 41 -76 51 -89 19 -25 23 -41 10 -41 -5 0 -19 22 -32 49
-12 27 -33 54 -46 60 -13 6 -24 15 -24 21 0 18 -4 25 -34 58 -16 17 -34 32
-40 31 -30 -4 -38 2 -33 22 4 14 -4 35 -23 61 -17 22 -27 44 -24 49 7 12 31
12 38 0z m1087 -41 c-28 -31 -46 -40 -81 -45 -33 -5 -41 -4 -30 4 8 6 22 11
32 11 9 0 35 16 58 35 56 47 66 44 21 -5z m-1831 -29 c0 -6 -4 -13 -10 -16 -5
-3 -10 1 -10 9 0 9 5 16 10 16 6 0 10 -4 10 -9z m2972 -84 l27 -32 -37 -12
-37 -11 63 -1 c42 -1 62 -5 62 -13 0 -7 14 -31 30 -52 31 -41 34 -61 24 -140
l-7 -46 -46 0 c-52 0 -58 3 -186 108 -49 41 -127 104 -173 140 l-82 67 30 8
c16 4 30 11 30 16 0 5 62 6 138 4 l137 -5 27 -31z m74 28 c-3 -9 -6 -25 -6
-36 0 -29 -28 -23 -45 11 -8 16 -15 31 -15 32 0 2 16 5 36 6 30 2 35 0 30 -13z
m64 0 c15 -18 7 -29 -27 -40 -18 -5 -23 -2 -23 12 0 19 18 43 31 43 4 0 12 -7
19 -15z m-2620 -15 c0 -12 28 -40 56 -56 10 -6 19 -18 19 -26 0 -20 24 -48 48
-57 16 -6 17 -9 4 -19 -11 -10 -28 3 -91 68 -43 44 -75 84 -71 90 8 13 35 13
35 0z m1887 -56 c-3 -3 -12 -4 -19 -1 -8 3 -5 6 6 6 11 1 17 -2 13 -5z m737
-12 c2 -4 1 -23 -3 -42 l-7 -35 -18 33 c-9 18 -14 37 -11 42 7 12 32 13 39 2z
m182 -29 c43 -27 54 -46 35 -57 -11 -7 -67 38 -82 65 -13 26 -4 24 47 -8z
m-1556 -23 c0 -10 -9 -24 -20 -30 -17 -9 -20 -8 -20 10 0 12 5 18 10 15 6 -3
13 1 16 9 8 22 14 20 14 -4z m-1794 1 c-8 -12 -46 -21 -46 -11 0 9 18 18 38
19 7 1 11 -3 8 -8z m3363 -57 c1 -17 -21 -34 -45 -34 -30 0 -34 8 -27 58 l6
42 33 -28 c18 -15 33 -32 33 -38z m-3422 16 c8 -12 9 -21 3 -25 -6 -3 -10 1
-10 10 0 14 -6 13 -40 -6 -41 -24 -48 -33 -29 -45 7 -4 9 -22 5 -48 -5 -31 -2
-48 14 -71 11 -16 20 -44 20 -62 0 -17 5 -35 10 -38 12 -8 13 -25 2 -25 -5 0
-15 19 -22 43 -7 23 -22 56 -32 73 -22 38 -42 135 -29 143 5 3 11 17 12 31 3
16 13 27 29 31 42 12 55 10 67 -11z m153 -9 c0 -16 -12 -57 -26 -90 -24 -54
-30 -61 -70 -75 l-44 -15 0 25 c0 14 16 41 37 65 30 33 34 42 22 50 -8 5 -20
9 -27 9 -9 0 -11 7 -6 23 9 30 22 37 72 37 40 0 42 -1 42 -29z m55 19 c8 -13
-5 -13 -25 0 -13 8 -13 10 2 10 9 0 20 -4 23 -10z m2631 -11 c19 -22 19 -22
-3 -10 -13 6 -23 16 -23 21 0 15 5 12 26 -11z m702 -27 c2 -7 -6 -12 -17 -12
-21 0 -27 11 -14 24 9 9 26 2 31 -12z m-2725 -7 c20 -8 40 -21 44 -28 4 -7 27
-27 51 -46 23 -18 40 -36 37 -41 -2 -4 8 -10 23 -13 41 -8 69 -37 77 -77 4
-23 3 -30 -3 -22 -7 11 -10 11 -15 -2 -4 -9 -13 -16 -22 -16 -9 0 -29 -7 -44
-15 -26 -13 -29 -13 -39 8 -6 12 -18 47 -27 77 -13 42 -31 69 -76 115 -76 78
-77 90 -6 60z m-842 -25 c5 0 9 -5 9 -11 0 -5 -4 -8 -9 -5 -5 4 -12 0 -14 -6
-4 -10 -8 -9 -16 2 -15 22 -13 33 5 26 9 -3 20 -6 25 -6z m593 -14 c13 5 13 2
3 -19 -6 -14 -12 -25 -12 -24 0 1 -11 15 -25 31 -23 27 -24 28 -3 17 12 -6 28
-8 37 -5z m-892 -16 c-12 -10 -21 -24 -20 -31 2 -7 -8 -13 -22 -14 -14 -1 -41
-2 -60 -3 -27 -2 -32 -5 -20 -12 11 -7 3 -10 -30 -9 -25 1 -56 -2 -69 -6 -23
-8 -24 -7 -18 30 3 20 8 39 10 42 3 2 45 5 95 6 50 2 94 6 98 10 4 4 19 7 33
7 l26 -1 -23 -19z m1128 -50 c0 -5 -5 -10 -11 -10 -5 0 -7 5 -4 10 3 6 8 10
11 10 2 0 4 -4 4 -10z m2985 -47 c93 -58 134 -96 53 -50 -194 110 -189 107
-164 107 10 0 60 -26 111 -57z m-100 10 c33 -20 71 -45 85 -56 l25 -19 -57 6
c-81 10 -248 72 -248 93 0 3 18 3 40 0 22 -3 43 -1 46 4 11 18 50 8 109 -28z
m-2985 -4 c8 -17 13 -37 13 -44 0 -7 6 -11 14 -8 7 3 13 16 13 30 0 36 17 19
24 -25 7 -43 -5 -104 -20 -109 -6 -2 -16 14 -22 35 -7 22 -27 59 -46 83 -26
32 -32 47 -24 56 17 21 35 15 48 -18z m2791 -3 c91 -62 208 -96 332 -96 73 0
77 -1 77 -22 0 -13 3 -53 6 -89 l7 -66 -49 -11 c-51 -11 -176 -22 -278 -24
-60 -1 -80 11 -71 43 3 9 -4 26 -15 39 -14 16 -17 27 -10 35 12 15 -7 25 -45
25 -13 0 -27 5 -31 11 -7 12 -55 3 -65 -13 -13 -21 4 118 17 144 27 53 70 61
125 24z m-3351 -16 c0 -5 -4 -10 -10 -10 -5 0 -10 5 -10 10 0 6 5 10 10 10 6
0 10 -4 10 -10z m2935 -18 c3 -7 0 -10 -5 -7 -6 3 -15 -6 -20 -21 -10 -24 -12
-25 -28 -11 -9 8 -26 17 -37 19 -17 4 -16 6 8 12 15 5 27 12 27 16 0 13 49 6
55 -8z m-2864 -2 c10 -6 19 -20 19 -30 0 -11 5 -20 10 -20 6 0 10 -5 10 -11 0
-6 -12 -9 -27 -7 -22 2 -27 8 -25 24 3 25 -22 51 -33 34 -4 -6 -1 -19 6 -28
12 -16 12 -16 -5 0 -36 32 -1 62 45 38z m3795 -15 c18 -14 17 -14 -13 -15 -31
0 -49 11 -36 24 10 10 28 7 49 -9z m-4559 -17 c-3 -8 -6 -5 -6 6 -1 11 2 17 5
13 3 -3 4 -12 1 -19z m694 -12 c8 -19 12 -42 8 -52 -6 -17 -8 -16 -14 8 -4 14
-15 34 -26 44 -24 21 -24 34 -1 34 9 -1 24 -15 33 -34z m3799 20 c0 -3 -4 -8
-10 -11 -5 -3 -10 -1 -10 4 0 6 5 11 10 11 6 0 10 -2 10 -4z m-3062 -49 c3
-12 -1 -15 -14 -10 -12 4 -15 3 -10 -5 5 -8 0 -12 -13 -12 -24 0 -25 3 -8 30
14 24 40 22 45 -3z m3145 -59 c-4 -46 -7 -136 -6 -200 0 -65 -2 -118 -6 -118
-4 0 -15 73 -24 163 -10 89 -20 179 -22 200 -5 37 -5 37 31 37 l35 0 -8 -82z
m-73 51 c0 -6 -4 -7 -10 -4 -5 3 -10 11 -10 16 0 6 5 7 10 4 6 -3 10 -11 10
-16z m-790 -6 c0 -10 3 -29 6 -43 5 -17 3 -22 -4 -15 -15 15 -26 75 -13 75 6
0 11 -8 11 -17z m-3095 -3 c-3 -5 -1 -10 6 -10 10 0 10 -3 1 -12 -9 -9 -15 -9
-24 0 -7 7 -8 12 -2 12 5 0 2 5 -6 10 -12 8 -10 10 8 10 13 0 20 -4 17 -10z
m168 -15 c49 -21 57 -29 66 -62 6 -21 11 -43 11 -49 0 -7 9 -14 20 -17 11 -3
20 -10 20 -16 0 -9 -5 -9 -20 -1 -13 7 -20 7 -20 1 0 -6 -9 -15 -20 -21 -16
-9 -20 -8 -20 5 0 8 7 15 15 15 34 0 12 20 -22 21 -57 1 -87 13 -91 33 -2 10
0 16 6 12 5 -3 12 1 16 9 3 9 0 15 -9 15 -8 0 -15 7 -15 16 0 9 -5 12 -12 8
-8 -5 -9 -2 -5 10 4 10 7 24 7 32 0 19 9 18 73 -11z m218 -15 c11 -20 41 -58
69 -84 27 -26 50 -56 50 -65 0 -9 5 -22 11 -28 8 -8 5 -17 -10 -32 -32 -32
-49 -26 -61 20 -6 22 -14 47 -17 55 -4 10 0 12 11 8 9 -3 16 -11 16 -16 0 -6
11 -21 25 -34 14 -13 25 -19 25 -14 0 5 -4 12 -10 15 -5 3 -10 15 -10 26 0 27
-32 56 -79 70 -29 9 -41 18 -41 31 0 10 -4 18 -10 18 -5 0 -10 7 -10 15 0 8
-6 15 -14 15 -20 0 -31 21 -16 30 26 16 53 5 71 -30z m650 13 c8 -22 7 -30 -5
-39 -9 -6 -16 -16 -16 -23 0 -19 -44 -31 -53 -15 -4 8 -17 14 -27 14 -31 0
-24 35 10 60 17 12 30 18 30 14 0 -5 5 -3 12 4 20 20 38 14 49 -15z m-396 -3
c-3 -5 -11 -10 -16 -10 -6 0 -7 5 -4 10 3 6 11 10 16 10 6 0 7 -4 4 -10z m85
-6 c0 -3 -9 -17 -19 -30 -16 -20 -20 -21 -25 -8 -6 17 12 43 32 44 6 0 12 -3
12 -6z m540 -5 c0 -7 8 -18 17 -25 10 -7 15 -15 11 -19 -7 -8 -48 30 -48 45 0
6 5 10 10 10 6 0 10 -5 10 -11z m-600 -19 c0 -5 -4 -10 -10 -10 -5 0 -10 5
-10 10 0 6 5 10 10 10 6 0 10 -4 10 -10z m420 1 c0 -5 -7 -11 -15 -15 -9 -3
-15 0 -15 9 0 8 7 15 15 15 8 0 15 -4 15 -9z m97 -24 c-8 -21 -67 -40 -67 -23
0 20 27 39 45 32 8 -3 15 0 15 6 0 6 3 9 6 5 4 -3 4 -13 1 -20z m2183 4 c19
-5 21 -8 9 -13 -8 -3 -26 0 -40 8 -25 14 -11 17 31 5z m-2779 -42 c-9 -22 -10
-22 -10 -3 -1 11 2 24 6 27 12 12 14 0 4 -24z m178 -6 c23 -16 23 -17 5 -24
-21 -7 -44 6 -44 27 0 18 10 18 39 -3z m134 -10 c-17 -13 -16 -14 5 -8 12 4
31 3 43 0 19 -6 19 -8 4 -25 -22 -24 -10 -104 14 -95 73 30 95 30 75 -2 -23
-37 -144 -77 -144 -48 0 9 6 12 15 9 21 -9 20 -3 -24 84 -39 77 -41 94 -11
104 28 9 42 -3 23 -19z m190 3 c-21 -27 -34 -25 -26 4 3 11 14 20 25 20 18 0
18 -1 1 -24z m-323 -45 c0 -12 -48 -23 -63 -14 -8 5 -1 10 18 14 44 10 45 10
45 0z m75 -82 c26 -55 34 -84 27 -91 -7 -7 -12 -3 -17 13 -4 13 -21 51 -36 83
-31 63 -34 76 -21 76 5 0 26 -36 47 -81z m2605 71 c0 -5 -2 -10 -4 -10 -3 0
-8 5 -11 10 -3 6 -1 10 4 10 6 0 11 -4 11 -10z m-3256 -16 c12 -31 7 -56 -11
-52 -23 4 -32 68 -10 68 8 0 18 -7 21 -16z m93 -6 c-3 -8 -6 -5 -6 6 -1 11 2
17 5 13 3 -3 4 -12 1 -19z m-40 -25 c-3 -10 -5 -4 -5 12 0 17 2 24 5 18 2 -7
2 -21 0 -30z m1468 -7 c24 -23 55 -68 55 -79 0 -4 -15 9 -32 30 -18 21 -43 46
-55 56 -27 22 -32 46 -5 26 9 -7 26 -22 37 -33z m-962 28 c9 -3 12 -14 9 -30
-5 -28 -4 -27 -37 -12 -28 13 -30 19 -13 36 13 13 20 14 41 6z m-664 -40 c14
-12 -19 -1 -35 12 -18 14 -18 14 6 3 14 -6 27 -13 29 -15z m3318 10 c-3 -3
-12 -4 -19 -1 -8 3 -5 6 6 6 11 1 17 -2 13 -5z m-109 -11 c-10 -2 -26 -2 -35
0 -10 3 -2 5 17 5 19 0 27 -2 18 -5z m-2488 -13 c0 -5 -4 -10 -10 -10 -5 0
-10 5 -10 10 0 6 5 10 10 10 6 0 10 -4 10 -10z m2794 1 c7 -11 -34 -22 -48
-14 -5 4 -1 10 10 14 26 10 32 10 38 0z m46 -1 c0 -5 -4 -10 -10 -10 -5 0 -10
5 -10 10 0 6 5 10 10 10 6 0 10 -4 10 -10z m-2920 -30 c0 -5 -2 -10 -4 -10 -3
0 -8 5 -11 10 -3 6 -1 10 4 10 6 0 11 -4 11 -10z m2895 -1 c-16 -5 -33 -5 -38
0 -4 4 9 8 30 8 38 1 38 1 8 -8z m-3299 -25 c47 -7 50 -10 35 -28 -9 -10 -19
-12 -34 -7 -12 5 -28 6 -35 4 -7 -3 -19 -2 -28 1 -12 4 -13 10 -4 26 6 11 15
18 19 15 5 -2 26 -7 47 -11z m461 -36 c-3 -8 -6 -5 -6 6 -1 11 2 17 5 13 3 -3
4 -12 1 -19z"/>
<path d="M5580 3146 c0 -9 5 -16 10 -16 6 0 10 4 10 9 0 6 -4 13 -10 16 -5 3
-10 -1 -10 -9z"/>
<path d="M7475 2905 c-4 -31 -5 -58 -2 -61 2 -3 8 20 12 51 3 31 4 59 2 62 -3
2 -9 -21 -12 -52z"/>
<path d="M7350 2935 c0 -5 5 -17 10 -25 5 -8 10 -10 10 -5 0 6 -5 17 -10 25
-5 8 -10 11 -10 5z"/>
<path d="M7590 2880 c0 -5 5 -10 10 -10 6 0 10 5 10 10 0 6 -4 10 -10 10 -5 0
-10 -4 -10 -10z"/>
<path d="M7498 2764 c-5 -4 -8 -19 -8 -33 0 -18 3 -22 11 -14 6 6 9 21 7 33
-1 12 -6 18 -10 14z"/>
<path d="M7071 2524 c0 -11 3 -14 6 -6 3 7 2 16 -1 19 -3 4 -6 -2 -5 -13z"/>
<path d="M7165 2349 c-8 -44 -4 -85 10 -81 12 2 14 55 4 92 -6 23 -7 23 -14
-11z"/>
<path d="M7170 2213 c0 -16 -3 -45 -6 -65 -5 -29 -3 -38 7 -38 10 0 14 17 14
65 0 36 -3 65 -7 65 -5 0 -8 -12 -8 -27z"/>
<path d="M2841 2766 c-1 -20 40 -109 46 -102 3 2 -3 19 -13 38 -9 18 -20 44
-25 58 -5 19 -8 20 -8 6z"/>
<path d="M7161 2974 c0 -11 3 -14 6 -6 3 7 2 16 -1 19 -3 4 -6 -2 -5 -13z"/>
<path d="M7152 2920 c0 -19 2 -27 5 -17 2 9 2 25 0 35 -3 9 -5 1 -5 -18z"/>
<path d="M7145 2871 c-3 -5 -1 -12 5 -16 5 -3 10 1 10 9 0 18 -6 21 -15 7z"/>
<path d="M7095 2810 c3 -5 8 -10 11 -10 2 0 4 5 4 10 0 6 -5 10 -11 10 -5 0
-7 -4 -4 -10z"/>
<path d="M4670 2550 c0 -5 5 -10 10 -10 6 0 10 5 10 10 0 6 -4 10 -10 10 -5 0
-10 -4 -10 -10z"/>
<path d="M4687 2515 c-18 -18 -12 -45 10 -45 13 0 13 3 3 15 -7 9 -9 19 -5 23
4 4 9 3 12 -3 7 -20 22 -39 26 -35 2 3 -4 18 -13 33 -16 26 -19 27 -33 12z"/>
<path d="M4110 2195 c0 -8 7 -15 16 -15 14 0 14 3 4 15 -7 8 -14 15 -16 15 -2
0 -4 -7 -4 -15z"/>
<path d="M3355 2603 c4 -10 10 -28 12 -40 3 -12 12 -28 21 -35 13 -11 14 -10
7 12 -10 34 -34 80 -41 80 -4 0 -3 -8 1 -17z"/>
<path d="M3271 2565 c0 -27 3 -56 8 -63 5 -8 6 8 4 40 -6 73 -11 83 -12 23z"/>
<path d="M3470 2560 c0 -11 4 -20 9 -20 5 0 7 9 4 20 -3 11 -7 20 -9 20 -2 0
-4 -9 -4 -20z"/>
<path d="M3285 2460 c8 -26 34 -70 41 -70 5 0 -35 82 -43 90 -3 3 -2 -6 2 -20z"/>
<path d="M7768 2650 c2 -22 6 -40 8 -40 2 0 4 18 4 40 0 22 -3 40 -8 40 -4 0
-6 -18 -4 -40z"/>
<path d="M7782 2575 c0 -16 2 -22 5 -12 2 9 2 23 0 30 -3 6 -5 -1 -5 -18z"/>
<path d="M7794 2503 c-3 -10 -10 -27 -14 -38 -16 -38 -18 -74 -4 -68 8 3 16
-5 20 -21 3 -14 11 -26 16 -26 6 0 7 7 4 16 -4 10 1 25 9 34 20 22 28 90 13
107 -15 18 -38 16 -44 -4z m36 -13 c0 -5 -4 -10 -10 -10 -5 0 -10 5 -10 10 0
6 5 10 10 10 6 0 10 -4 10 -10z m-10 -75 c0 -8 -4 -15 -10 -15 -5 0 -7 7 -4
15 4 8 8 15 10 15 2 0 4 -7 4 -15z"/>
<path d="M7711 2384 c0 -11 3 -14 6 -6 3 7 2 16 -1 19 -3 4 -6 -2 -5 -13z"/>
<path d="M5450 2390 c-8 -5 -10 -10 -5 -10 6 0 17 5 25 10 8 5 11 10 5 10 -5
0 -17 -5 -25 -10z"/>
<path d="M5605 2390 c4 -6 11 -8 16 -5 14 9 11 15 -7 15 -8 0 -12 -5 -9 -10z"/>
<path d="M7960 2004 c-7 -19 -9 -38 -6 -41 10 -10 43 40 38 59 -7 28 -19 21
-32 -18z"/>
<path d="M9811 2064 c0 -11 3 -14 6 -6 3 7 2 16 -1 19 -3 4 -6 -2 -5 -13z"/>
<path d="M9567 1643 c-4 -3 -7 -11 -7 -17 0 -6 5 -5 12 2 6 6 9 14 7 17 -3 3
-9 2 -12 -2z"/>
<path d="M5388 600 c-2 -6 -13 -12 -26 -13 -12 0 -22 -5 -22 -10 0 -5 7 -6 16
-3 9 3 32 7 52 7 20 1 29 3 19 6 -9 2 -15 9 -12 14 4 5 0 9 -9 9 -8 0 -16 -5
-18 -10z"/>
<path d="M5465 600 c3 -5 8 -10 11 -10 2 0 4 5 4 10 0 6 -5 10 -11 10 -5 0 -7
-4 -4 -10z"/>
<path d="M5305 570 c-3 -5 -1 -10 4 -10 6 0 11 5 11 10 0 6 -2 10 -4 10 -3 0
-8 -4 -11 -10z"/>
<path d="M9283 493 c-7 -2 -13 -12 -12 -21 0 -9 3 -12 5 -6 3 6 15 10 27 9 12
-1 14 0 4 2 -9 2 -15 9 -12 14 7 10 6 10 -12 2z"/>
<path d="M9340 370 c0 -5 5 -10 10 -10 6 0 10 5 10 10 0 6 -4 10 -10 10 -5 0
-10 -4 -10 -10z"/>
<path d="M9468 243 c7 -3 16 -2 19 1 4 3 -2 6 -13 5 -11 0 -14 -3 -6 -6z"/>
<path d="M6085 170 c3 -5 8 -10 11 -10 2 0 4 5 4 10 0 6 -5 10 -11 10 -5 0 -7
-4 -4 -10z"/>
<path d="M6635 170 c3 -5 8 -10 11 -10 2 0 4 5 4 10 0 6 -5 10 -11 10 -5 0 -7
-4 -4 -10z"/>
<path d="M9860 4369 c0 -5 9 -9 20 -9 11 0 20 2 20 4 0 2 -9 6 -20 9 -11 3
-20 1 -20 -4z"/>
<path d="M8135 3842 c-23 -11 -53 -33 -68 -51 -29 -35 -51 -100 -41 -125 4
-10 0 -18 -10 -22 -20 -8 -23 -94 -3 -94 17 0 34 -66 29 -116 -3 -31 -10 -45
-28 -55 -13 -7 -24 -16 -24 -21 0 -5 5 -6 10 -3 6 3 10 -3 10 -13 0 -11 16
-34 35 -51 29 -25 45 -31 81 -31 24 0 59 6 77 14 58 25 112 102 79 113 -7 3
-17 -8 -23 -26 -11 -32 -34 -45 -25 -13 9 30 25 106 26 120 0 9 -9 7 -29 -7
-16 -12 -36 -21 -44 -21 -23 0 -30 17 -11 28 21 11 10 32 -17 32 -23 0 -25 18
-3 27 10 4 22 -1 29 -10 12 -17 51 -23 58 -9 2 4 -2 18 -8 30 -8 15 -14 19
-17 11 -3 -8 -11 -10 -24 -5 -12 6 -15 10 -6 13 6 3 12 14 12 26 0 18 7 22 32
24 41 3 53 16 34 36 -22 21 -20 27 7 27 18 0 19 2 7 10 -20 13 -83 13 -97 -1
-7 -7 -12 -6 -16 5 -4 10 -1 16 8 16 7 0 17 5 21 11 4 8 -1 9 -16 4 l-22 -7
21 21 c22 22 61 29 61 11 0 -5 4 -10 9 -10 13 0 67 -52 73 -70 3 -8 9 6 13 32
18 117 -93 200 -200 150z m50 -242 c3 -5 -1 -10 -10 -10 -9 0 -13 5 -10 10 3
6 8 10 10 10 2 0 7 -4 10 -10z m35 -280 c0 -5 -5 -10 -11 -10 -5 0 -7 5 -4 10
3 6 8 10 11 10 2 0 4 -4 4 -10z"/>
<path d="M8829 3817 c-51 -46 -61 -70 -62 -156 -1 -51 -6 -79 -15 -86 -17 -14
-1 -59 28 -77 11 -7 20 -17 20 -21 0 -5 11 -22 25 -39 20 -23 25 -41 25 -81 0
-44 -5 -56 -32 -86 -18 -18 -28 -31 -22 -28 7 4 14 0 17 -8 10 -24 104 -47
147 -35 82 22 215 160 155 160 -8 0 -15 -8 -15 -17 0 -26 -85 -101 -127 -112
-57 -16 -77 -14 -68 7 4 9 9 46 11 80 3 57 2 65 -16 69 -21 5 -22 9 -22 43 0
41 3 46 30 57 l27 11 -34 1 c-25 1 -32 5 -28 16 4 8 2 17 -4 21 -6 3 -7 24 -3
49 5 39 4 44 -18 51 -12 4 -29 7 -35 6 -7 -2 -13 2 -13 8 0 5 3 10 8 10 4 0 7
16 7 35 0 38 -8 45 -24 18 -6 -10 -10 -13 -10 -8 0 34 62 64 141 68 32 1 44 6
41 15 -3 6 0 12 6 12 17 0 13 37 -5 44 -9 3 -34 6 -57 6 -33 -1 -50 -8 -78
-33z"/>
<path d="M7517 3735 c-14 -28 -14 -35 -3 -35 8 0 19 14 25 31 13 38 13 39 3
39 -5 0 -16 -16 -25 -35z"/>
<path d="M4075 3670 c3 -5 8 -10 11 -10 2 0 4 5 4 10 0 6 -5 10 -11 10 -5 0
-7 -4 -4 -10z"/>
<path d="M9778 3660 c-72 -22 -118 -82 -118 -155 0 -22 -6 -38 -15 -41 -19 -8
-19 -54 0 -80 21 -28 18 -68 -7 -91 -30 -27 -82 -53 -107 -53 -11 0 -22 -4
-25 -9 -9 -14 100 -125 114 -116 9 6 0 19 -29 46 -47 44 -57 76 -17 58 13 -6
29 -22 35 -35 13 -29 41 -31 64 -6 13 14 14 21 5 30 -9 9 -7 12 10 12 12 0 22
-6 22 -14 0 -14 21 -26 46 -26 9 0 14 12 14 36 0 19 7 42 15 50 17 17 21 39 5
29 -5 -3 -10 -1 -10 4 0 6 7 11 15 11 31 0 14 19 -22 26 -45 8 -81 30 -61 36
11 4 11 8 -1 21 -12 15 -11 17 9 17 15 0 25 -9 33 -30 14 -37 42 -42 33 -6 -3
14 -2 36 3 49 13 34 3 64 -23 71 -13 3 -23 12 -23 20 0 8 6 12 15 8 12 -4 14
1 10 22 l-6 28 104 -4 c57 -1 104 1 104 5 0 23 -37 57 -80 76 -52 22 -69 24
-112 11z"/>
<path d="M8924 3646 c-7 -19 3 -36 22 -36 18 0 18 17 -1 36 -13 14 -16 14 -21
0z"/>
<path d="M8316 3564 c-4 -9 -4 -19 -1 -22 2 -3 7 3 11 12 4 9 4 19 1 22 -2 3
-7 -3 -11 -12z"/>
<path d="M9837 3473 c-8 -13 12 -53 25 -53 7 0 21 14 30 30 l17 30 -34 0 c-19
0 -36 -3 -38 -7z"/>
<path d="M9442 3222 c-10 -7 -10 -15 -2 -38 6 -16 20 -70 30 -121 27 -131 22
-142 -84 -179 l-84 -28 4 -150 c3 -83 10 -178 16 -211 11 -56 12 -58 20 -30
11 38 17 255 7 255 -12 0 -17 74 -5 82 8 5 7 8 -1 8 -32 0 -7 29 48 55 66 32
79 28 79 -26 0 -34 18 -51 42 -38 15 8 18 6 18 -11 0 -37 25 -16 28 23 3 33 6
36 31 33 15 -2 36 3 46 10 11 8 15 14 11 14 -5 0 -4 6 1 13 15 18 24 77 13 77
-6 0 -10 -5 -10 -12 0 -8 -3 -9 -10 -2 -14 14 7 64 27 64 7 0 13 4 13 9 0 17
-43 7 -48 -11 -5 -20 -42 -25 -42 -6 0 9 -3 9 -12 0 -21 -21 -25 -14 -33 46
-17 143 -53 205 -103 174z m208 -302 c0 -5 -7 -10 -15 -10 -8 0 -15 5 -15 10
0 6 7 10 15 10 8 0 15 -4 15 -10z m-27 -47 c-7 -2 -19 -2 -25 0 -7 3 -2 5 12
5 14 0 19 -2 13 -5z m-73 -22 c0 -12 -20 -25 -27 -18 -7 7 6 27 18 27 5 0 9
-4 9 -9z"/>
<path d="M7680 3210 c0 -5 -15 -26 -32 -46 -28 -31 -29 -35 -10 -25 13 7 26
19 29 27 5 13 7 13 15 2 6 -9 7 -5 3 11 -5 16 -4 21 4 17 7 -5 9 -1 5 8 -7 18
-14 21 -14 6z"/>
<path d="M6371 3128 c1 -66 2 -69 10 -33 11 56 11 105 -1 105 -6 0 -10 -30 -9
-72z"/>
<path d="M6753 3155 c0 -27 2 -38 4 -22 2 15 2 37 0 50 -2 12 -4 0 -4 -28z"/>
<path d="M9840 3178 c0 -10 -14 -34 -32 -53 -30 -35 -34 -36 -82 -33 -28 3
-60 8 -71 13 -19 7 -19 7 -4 -9 27 -29 91 -32 136 -6 47 26 76 69 63 90 -8 13
-10 12 -10 -2z"/>
<path d="M6470 3080 c-4 -104 -4 -104 -13 -117 -5 -7 -4 -13 0 -13 5 0 17 -24
28 -52 25 -71 92 -209 111 -228 8 -8 1 15 -16 53 -40 89 -60 148 -70 211 -10
64 -2 79 19 35 10 -19 23 -33 31 -32 9 2 21 -11 29 -28 22 -51 21 -28 -3 46
-19 58 -24 65 -29 45 -10 -37 -19 -17 -19 39 1 50 0 51 -28 51 -25 0 -29 4
-33 33 -2 17 -5 -2 -7 -43z m50 -14 c0 -11 -19 -15 -25 -6 -3 5 1 10 9 10 9 0
16 -2 16 -4z"/>
<path d="M6371 3034 c0 -11 3 -14 6 -6 3 7 2 16 -1 19 -3 4 -6 -2 -5 -13z"/>
<path d="M8953 3035 c-3 -9 -3 -18 0 -21 3 -3 -1 -17 -8 -31 -15 -28 -9 -56 9
-50 6 2 11 16 11 30 -1 15 3 27 7 27 4 0 8 -9 8 -19 0 -11 5 -23 11 -26 7 -5
8 8 3 41 -3 27 -8 52 -11 57 -7 12 -23 8 -30 -8z m27 -15 c0 -5 -4 -10 -10
-10 -5 0 -10 5 -10 10 0 6 5 10 10 10 6 0 10 -4 10 -10z"/>
<path d="M8810 2910 c1 -15 19 -32 29 -26 18 12 12 32 -9 32 -11 0 -20 -3 -20
-6z"/>
<path d="M8925 2910 c3 -5 8 -10 11 -10 2 0 4 5 4 10 0 6 -5 10 -11 10 -5 0
-7 -4 -4 -10z"/>
<path d="M9708 2852 c-39 -8 -35 -118 4 -124 14 -2 26 -15 34 -38 11 -30 13
-32 13 -10 0 14 3 37 6 51 9 37 -33 126 -57 121z"/>
<path d="M9899 2706 c16 -19 90 -31 103 -18 12 12 -3 17 -76 27 -33 5 -37 3
-27 -9z"/>
<path d="M10059 2406 c-2 -2 -49 -6 -104 -8 -55 -3 -99 -9 -97 -14 3 -11 0
-11 138 -13 l116 -1 -6 -37 c-4 -21 -9 -46 -12 -55 -4 -14 1 -18 19 -18 23 0
25 5 32 57 l7 58 20 -25 c10 -14 30 -38 44 -54 l24 -28 0 41 c0 23 -4 41 -10
41 -5 0 -10 7 -10 15 0 8 5 15 10 15 6 0 10 7 10 15 0 12 -16 15 -88 15 -49 0
-91 -2 -93 -4z"/>
<path d="M10176 2298 c8 -28 12 -33 20 -25 9 8 -6 47 -17 47 -6 0 -7 -10 -3
-22z"/>
<path d="M8760 2264 c0 -8 5 -12 10 -9 6 4 8 11 5 16 -9 14 -15 11 -15 -7z"/>
<path d="M9950 2000 c-9 -6 -10 -10 -3 -10 6 0 15 5 18 10 8 12 4 12 -15 0z"/>
<path d="M9848 1793 c6 -2 18 -2 25 0 6 3 1 5 -13 5 -14 0 -19 -2 -12 -5z"/>
<path d="M10210 1790 c0 -5 4 -10 9 -10 6 0 13 5 16 10 3 6 -1 10 -9 10 -9 0
-16 -4 -16 -10z"/>
<path d="M10163 1763 c15 -2 39 -2 55 0 15 2 2 4 -28 4 -30 0 -43 -2 -27 -4z"/>
<path d="M9945 1726 c-7 -6 -17 -33 -21 -61 l-6 -50 33 31 c19 17 50 45 69 62
l35 32 -48 -2 c-26 -1 -54 -6 -62 -12z"/>
<path d="M2776 983 c-3 -10 -9 -24 -12 -32 -4 -8 -2 -12 6 -9 8 2 15 16 17 31
4 31 -2 36 -11 10z"/>
<path d="M2800 985 c0 -8 7 -15 15 -15 8 0 15 4 15 9 0 5 -7 11 -15 15 -9 3
-15 0 -15 -9z"/>
<path d="M2710 976 c0 -22 -40 -66 -61 -66 -14 0 -19 -7 -19 -25 0 -14 -13
-39 -30 -57 -37 -38 -40 -61 -3 -24 14 15 43 34 62 43 41 19 53 32 46 51 -2 6
2 12 10 12 17 0 28 33 20 60 -7 23 -25 27 -25 6z"/>
<path d="M2880 931 c0 -6 4 -13 10 -16 6 -3 7 1 4 9 -7 18 -14 21 -14 7z"/>
<path d="M7306 559 c3 -6 -2 -20 -12 -32 -40 -47 -55 -87 -31 -87 7 0 29 -9
50 -20 29 -16 37 -17 37 -6 0 8 -6 17 -12 20 -10 5 -10 7 0 12 25 12 5 107
-26 119 -7 3 -10 0 -6 -6z m-6 -64 c0 -8 -4 -15 -10 -15 -5 0 -10 7 -10 15 0
8 5 15 10 15 6 0 10 -7 10 -15z"/>
<path d="M9660 110 c-13 -8 -12 -10 3 -10 9 0 17 5 17 10 0 12 -1 12 -20 0z"/>
<path d="M6535 40 c3 -5 11 -10 16 -10 6 0 7 5 4 10 -3 6 -11 10 -16 10 -6 0
-7 -4 -4 -10z"/>
</g>
</svg>
