<?xml version="1.0" standalone="no"?>
<!DOCTYPE svg PUBLIC "-//W3C//DTD SVG 20010904//EN"
 "http://www.w3.org/TR/2001/REC-SVG-20010904/DTD/svg10.dtd">
<svg version="1.0" xmlns="http://www.w3.org/2000/svg"
 width="1024.000000pt" height="1280.000000pt" viewBox="0 0 1024.000000 1280.000000"
 preserveAspectRatio="xMidYMid meet">

<g transform="translate(0.000000,1280.000000) scale(0.100000,-0.100000)"
fill="#000000" stroke="none">
<path d="M3067 12280 c-101 -16 -230 -50 -285 -75 -69 -32 -164 -127 -195
-196 -14 -30 -30 -85 -37 -124 -16 -92 -2 -136 57 -181 l42 -32 -31 -39 c-75
-93 -117 -285 -89 -406 11 -45 58 -92 103 -101 54 -11 1240 -7 1280 4 20 6 50
26 66 44 l30 34 32 -20 c47 -28 123 -54 220 -75 134 -28 450 -25 590 5 232 51
390 183 440 366 16 56 19 61 47 64 l31 3 4 -153 c3 -85 10 -167 17 -185 7 -17
29 -44 49 -60 l37 -28 199 -3 c258 -5 298 0 344 42 l36 33 23 -28 c14 -16 41
-33 61 -39 45 -12 562 -13 615 -1 53 13 92 61 106 131 20 98 49 142 196 294
88 91 113 120 152 176 56 82 65 115 71 258 6 160 -7 207 -66 244 l-37 23 -815
0 c-797 0 -816 0 -848 -20 -18 -11 -47 -41 -63 -68 -35 -58 -57 -67 -174 -74
-78 -4 -93 -3 -110 13 -99 92 -210 138 -421 175 -114 19 -383 6 -514 -24 -125
-30 -169 -48 -233 -93 -26 -19 -50 -34 -53 -34 -4 0 -26 16 -50 35 -102 84
-253 117 -554 121 -118 1 -241 -1 -273 -6z m531 -144 c157 -34 231 -89 251
-188 13 -60 1 -146 -24 -184 -61 -94 -145 -124 -535 -189 -98 -17 -166 -33
-185 -45 -30 -20 -28 -20 358 -20 l388 0 -3 -107 -3 -108 -597 -3 -598 -2 0
49 c0 61 31 164 65 213 14 21 50 56 80 78 82 60 173 93 417 150 150 35 192 51
208 79 27 51 -40 87 -149 79 -82 -6 -119 -23 -146 -65 l-20 -32 -217 -1 -217
0 6 33 c30 163 155 250 398 277 121 13 436 5 523 -14z m1182 0 c206 -46 314
-136 355 -296 23 -88 16 -232 -14 -312 -31 -79 -103 -156 -184 -196 -114 -55
-187 -67 -412 -67 -228 0 -281 9 -400 64 -152 71 -225 193 -225 376 0 260 144
403 445 444 94 13 355 5 435 -13z m1118 -428 l2 -418 -195 0 -195 0 0 215 0
215 -160 0 -160 0 0 120 0 120 65 0 c144 0 244 41 291 121 l29 49 160 -3 160
-2 3 -417z m1212 330 c0 -155 -13 -180 -198 -374 -153 -160 -189 -217 -216
-346 l-6 -28 -261 0 -261 0 7 43 c10 63 66 174 121 241 59 72 181 171 286 234
42 26 77 50 78 54 0 4 -161 9 -357 10 l-358 3 -3 113 c-2 63 -1 120 2 128 5
12 94 14 586 14 l580 0 0 -92z m-880 -347 c0 -5 -4 -11 -8 -13 -16 -6 -105
-133 -128 -183 l-24 -50 0 121 c0 66 3 124 7 127 10 11 153 8 153 -2z"/>
<path d="M4405 11866 c-65 -33 -90 -77 -90 -160 0 -119 69 -176 212 -176 140
0 205 55 207 174 1 75 -20 122 -72 155 -30 20 -53 26 -122 29 -76 3 -91 1
-135 -22z m195 -161 c27 -33 -47 -61 -104 -39 -19 7 -21 40 -3 47 28 12 95 6
107 -8z"/>
<path d="M8350 11933 c-66 -18 -125 -59 -162 -115 -29 -42 -31 -53 -33 -173
-1 -38 -5 -92 -9 -120 -10 -68 8 -119 57 -159 l39 -31 296 -3 c164 -1 345 -5
403 -8 l106 -6 -43 -43 c-36 -37 -43 -51 -49 -98 -9 -72 16 -192 55 -266 74
-136 200 -225 358 -251 67 -11 73 -14 86 -43 32 -76 87 -111 175 -111 73 -1
65 -5 286 134 66 41 133 82 149 90 48 25 105 89 112 127 9 46 -3 142 -21 169
-8 12 -31 34 -52 49 -62 42 -193 125 -199 125 -3 0 -29 15 -57 34 -29 18 -67
42 -84 52 -18 10 -33 22 -33 26 0 4 28 8 63 8 130 0 237 43 286 115 29 43 43
125 31 181 -6 25 -7 55 -4 69 9 37 -13 123 -43 161 -61 81 -165 109 -371 101
-70 -4 -184 -7 -254 -9 -115 -3 -129 -5 -159 -27 -30 -22 -33 -23 -58 -8 -76
45 -270 60 -387 31 -61 -16 -71 -16 -140 0 -93 20 -268 20 -344 -1z m317 -133
c48 -21 61 -52 47 -108 -12 -45 -53 -67 -159 -84 l-80 -13 120 -5 120 -5 3
-42 3 -43 -225 0 -226 0 0 28 c0 37 33 88 72 112 18 10 67 27 110 36 73 16
110 36 94 51 -13 13 -79 5 -88 -11 -7 -13 -27 -16 -93 -16 -77 0 -85 2 -85 19
0 29 47 80 83 90 18 5 84 10 147 10 93 0 123 -3 157 -19z m453 -5 c31 -19 54
-51 77 -110 6 -15 8 -10 11 23 3 39 5 42 32 42 38 0 74 14 97 38 13 14 35 21
76 24 31 1 57 1 57 -2 1 -3 2 -74 3 -158 l2 -152 -77 0 -78 0 0 74 0 74 -60 4
c-58 3 -61 2 -66 -22 -11 -58 -39 -95 -88 -119 -43 -21 -63 -25 -147 -24 -163
0 -229 48 -229 166 0 64 10 91 49 125 39 34 76 41 196 39 90 -2 116 -6 145
-22z m752 15 c63 -18 90 -88 50 -128 -18 -18 -18 -19 5 -40 25 -22 31 -69 13
-101 -33 -63 -343 -80 -419 -23 -36 27 -42 103 -10 125 l22 16 -22 27 c-34 44
-16 94 44 120 37 16 263 19 317 4z m-602 -457 c20 -15 49 -18 155 -20 170 -2
177 -3 138 -14 -41 -12 -103 -75 -110 -111 -5 -24 -9 -27 -32 -22 -53 13 -87
32 -146 82 -48 41 -69 52 -109 58 l-49 6 49 18 c65 23 75 23 104 3z m-85 -203
c83 -70 145 -92 278 -98 l107 -4 1 33 c1 86 12 119 36 119 17 0 183 -97 336
-196 56 -37 67 -49 67 -72 0 -23 -8 -33 -42 -52 -24 -13 -54 -31 -68 -41 -80
-55 -276 -169 -290 -169 -29 0 -40 23 -40 86 l0 62 -117 4 c-106 3 -124 7
-176 33 -96 48 -165 138 -188 245 -13 61 -6 100 19 100 10 0 45 -23 77 -50z"/>
<path d="M8930 11713 c-43 -15 -54 -82 -18 -107 51 -36 118 -8 118 49 0 50
-47 77 -100 58z"/>
<path d="M9673 11729 c-20 -20 4 -39 49 -39 26 0 41 5 45 15 8 21 1 26 -44 32
-23 3 -43 0 -50 -8z"/>
<path d="M9677 11610 c-27 -17 -10 -30 38 -30 39 0 65 13 52 26 -11 11 -73 14
-90 4z"/>
<path d="M53 8008 c-53 -25 -53 -111 0 -152 26 -21 29 -27 18 -40 -8 -9 -26
-16 -42 -16 l-29 0 0 -89 c0 -82 2 -89 21 -94 l21 -6 -21 -34 c-26 -43 -27
-67 -1 -100 30 -38 79 -44 137 -17 27 13 95 40 153 60 235 84 286 115 297 181
9 60 -25 86 -271 209 -120 61 -228 110 -240 109 -12 0 -31 -5 -43 -11z"/>
<path d="M10215 7844 c-11 -9 -51 -32 -90 -51 -69 -34 -72 -34 -163 -29 -91 6
-93 6 -117 -20 -33 -36 -34 -92 -2 -121 67 -61 230 -58 356 6 l41 21 0 105 c0
58 -1 105 -2 105 -2 0 -12 -8 -23 -16z"/>
<path d="M8613 5593 c-19 -4 -23 -11 -23 -45 0 -32 3 -39 16 -34 9 3 27 6 40
6 20 0 24 5 24 28 0 26 -16 54 -29 51 -4 -1 -16 -4 -28 -6z"/>
<path d="M8596 5428 c-3 -13 -7 -32 -8 -43 -3 -18 -12 -20 -111 -23 l-107 -3
0 -39 c0 -22 3 -40 8 -41 65 -10 83 -4 61 18 -6 6 -10 16 -7 23 2 7 17 -1 38
-19 23 -20 44 -30 59 -29 20 3 26 -3 33 -28 6 -23 16 -34 34 -38 31 -8 74 16
81 45 5 18 19 23 54 20 8 -1 32 10 53 24 20 14 41 25 46 25 17 0 11 -17 -12
-34 l-23 -17 25 5 c14 3 35 6 48 6 19 0 22 5 22 40 l0 39 -107 3 -108 3 -3 43
c-3 41 -4 42 -37 42 -28 0 -36 -4 -39 -22z m19 -208 c-5 -8 -11 -8 -17 -2 -6
6 -7 16 -3 22 5 8 11 8 17 2 6 -6 7 -16 3 -22z"/>
<path d="M5882 5107 c13 -11 15 -16 6 -25 -9 -9 20 -12 123 -13 73 0 154 -1
179 -2 34 -2 44 1 42 12 -3 12 0 12 12 2 10 -8 16 -9 21 -1 3 5 14 10 23 10
15 -1 15 -2 -2 -15 -19 -14 -19 -15 6 -15 15 0 29 6 31 13 4 9 8 8 17 -3 9
-11 13 -12 17 -2 6 14 30 16 35 2 2 -5 114 -10 278 -11 333 -1 305 -3 307 20
1 17 -7 20 -80 25 -45 3 -296 8 -557 11 -396 4 -472 3 -458 -8z m108 -17 c0
-5 -12 -10 -27 -9 -25 0 -26 1 -8 9 27 12 35 12 35 0z m165 0 c3 -5 -3 -10
-14 -10 -12 0 -21 5 -21 10 0 6 6 10 14 10 8 0 18 -4 21 -10z m-108 -6 c-3 -3
-12 -4 -19 -1 -8 3 -5 6 6 6 11 1 17 -2 13 -5z m403 -4 c0 -5 -9 -10 -20 -10
-11 0 -20 5 -20 10 0 6 9 10 20 10 11 0 20 -4 20 -10z m300 -6 c0 -2 -66 -3
-147 -2 l-148 2 135 6 c126 5 160 3 160 -6z m113 -1 c-13 -2 -35 -2 -50 0 -16
2 -5 4 22 4 28 0 40 -2 28 -4z"/>
<path d="M8592 5100 c0 -14 2 -19 5 -12 2 6 2 18 0 25 -3 6 -5 1 -5 -13z"/>
<path d="M9684 5066 c-2 -23 -1 -23 140 -29 77 -4 203 -7 279 -7 l137 0 0 30
0 30 -277 0 -278 0 -1 -24z m283 -12 c-3 -3 -12 -4 -19 -1 -8 3 -5 6 6 6 11 1
17 -2 13 -5z"/>
<path d="M6123 5003 c37 -2 96 -2 130 0 34 2 4 3 -68 3 -71 0 -99 -1 -62 -3z"/>
<path d="M6348 5003 c6 -2 18 -2 25 0 6 3 1 5 -13 5 -14 0 -19 -2 -12 -5z"/>
<path d="M6778 4993 c7 -3 16 -2 19 1 4 3 -2 6 -13 5 -11 0 -14 -3 -6 -6z"/>
<path d="M6863 4993 c9 -2 23 -2 30 0 6 3 -1 5 -18 5 -16 0 -22 -2 -12 -5z"/>
<path d="M6923 4993 c9 -2 23 -2 30 0 6 3 -1 5 -18 5 -16 0 -22 -2 -12 -5z"/>
<path d="M7008 4993 c6 -2 18 -2 25 0 6 3 1 5 -13 5 -14 0 -19 -2 -12 -5z"/>
<path d="M7128 4993 c6 -2 18 -2 25 0 6 3 1 5 -13 5 -14 0 -19 -2 -12 -5z"/>
<path d="M9813 4983 c9 -2 23 -2 30 0 6 3 -1 5 -18 5 -16 0 -22 -2 -12 -5z"/>
<path d="M10060 4979 c37 -11 188 -11 171 0 -8 5 -55 9 -105 9 -57 -1 -82 -4
-66 -9z"/>
<path d="M8590 4802 l0 -153 41 3 41 3 3 113 c1 61 -1 112 -5 112 -9 0 -30
-71 -30 -104 0 -15 -6 -26 -14 -26 -10 0 -16 21 -21 75 -3 41 -4 79 0 85 3 5
1 18 -4 27 -7 13 -10 -26 -11 -135z"/>
<path d="M8660 4919 c0 -11 5 -17 10 -14 6 3 10 13 10 21 0 8 -4 14 -10 14 -5
0 -10 -9 -10 -21z"/>
<path d="M8631 4904 c0 -11 3 -14 6 -6 3 7 2 16 -1 19 -3 4 -6 -2 -5 -13z"/>
<path d="M7682 4593 c-19 -9 -41 -27 -49 -40 -16 -25 -37 -113 -28 -121 10
-11 19 10 21 48 3 57 17 70 76 70 78 0 136 -37 129 -82 0 -4 4 -31 10 -59 14
-63 29 -48 29 29 0 78 -38 148 -87 161 -50 14 -62 14 -101 -6z"/>
<path d="M8597 4604 c-12 -12 -8 -59 6 -78 8 -11 23 -17 38 -14 21 3 24 9 27
46 3 36 0 42 -17 42 -10 0 -26 2 -33 5 -8 3 -17 2 -21 -1z"/>
<path d="M9273 4480 c-17 -10 -37 -28 -42 -39 -12 -22 -15 -63 -3 -45 4 6 22
19 41 29 29 15 40 15 80 4 25 -6 50 -16 56 -20 28 -26 48 9 22 41 -40 51 -100
63 -154 30z"/>
<path d="M8735 4450 c-52 -21 -89 -97 -74 -150 9 -31 10 -27 13 28 1 23 7 47
14 54 6 6 47 13 91 16 75 4 80 3 92 -19 7 -13 14 -40 15 -59 1 -19 0 -29 -3
-22 -8 20 -55 14 -80 -10 -16 -15 -26 -19 -31 -12 -9 15 -49 27 -63 19 -6 -5
-4 -11 6 -19 14 -10 11 -12 -19 -8 -27 3 -36 1 -36 -11 0 -25 49 -36 97 -22
25 8 45 9 51 3 5 -5 20 -5 36 2 15 5 31 8 36 5 15 -10 31 24 26 57 -17 110
-16 108 -56 133 -40 25 -79 30 -115 15z"/>
<path d="M7768 4429 c-23 -13 -23 -21 2 -37 17 -11 23 -10 36 3 31 30 0 57
-38 34z"/>
<path d="M7670 4415 c0 -8 9 -15 20 -15 11 0 20 7 20 15 0 8 -9 15 -20 15 -11
0 -20 -7 -20 -15z"/>
<path d="M3410 4382 c-19 -10 -43 -31 -54 -45 -17 -24 -18 -33 -9 -84 7 -38 7
-63 1 -73 -7 -11 -4 -29 11 -61 12 -24 22 -61 24 -82 l2 -38 -89 -29 c-49 -16
-95 -35 -103 -42 -10 -11 -13 -101 -13 -461 -1 -246 1 -451 4 -456 3 -4 18 -6
33 -4 44 7 62 -21 65 -97 3 -61 2 -65 -24 -78 -31 -15 -34 -23 -16 -51 9 -15
8 -24 -6 -45 -20 -31 -14 -46 14 -39 12 3 21 0 23 -8 2 -8 9 -29 15 -46 10
-31 1 -55 -13 -33 -3 5 -13 10 -21 10 -11 0 -13 -6 -9 -20 4 -11 2 -20 -4 -20
-6 0 -11 5 -11 10 0 6 -6 10 -14 10 -11 0 -14 10 -11 40 3 30 0 40 -11 40 -12
0 -14 -81 -15 -557 0 -307 -1 -654 -2 -771 l-2 -213 885 2 c1023 1 1244 3
1230 7 -6 2 -10 8 -10 13 0 14 38 11 42 -3 6 -17 227 -24 291 -10 29 6 49 6
55 0 6 -6 38 -11 73 -12 59 -2 66 0 91 27 l27 29 7 -26 c5 -23 11 -26 53 -27
25 0 1000 0 2166 1 1166 1 2128 1 2138 1 16 0 17 46 17 821 l0 820 -62 -4
c-48 -4 -70 -1 -91 12 -24 15 -25 18 -11 24 9 4 50 4 91 0 l73 -7 0 257 c0
249 -1 256 -20 256 -11 0 -20 4 -20 9 0 5 8 7 18 4 16 -4 18 4 20 61 2 53 0
66 -12 66 -17 0 -39 34 -29 44 11 11 23 6 23 -9 0 -8 5 -15 10 -15 6 0 10 34
10 83 l0 84 -40 41 c-21 23 -46 42 -55 42 -17 0 -19 13 -6 39 5 9 12 37 16 62
23 165 19 201 -27 229 -55 33 -102 35 -162 6 -63 -31 -90 -73 -75 -114 6 -17
6 -29 0 -35 -15 -15 -45 59 -42 102 1 18 -3 39 -8 45 -7 8 -7 24 -1 47 6 18
10 63 10 99 -1 63 -2 66 -38 93 -33 26 -43 28 -91 24 -65 -7 -86 -25 -101 -87
-7 -27 -18 -54 -26 -61 -17 -14 -18 -41 -3 -56 8 -8 6 -11 -7 -10 -13 2 -21
-10 -30 -42 -13 -41 -12 -45 13 -77 18 -25 29 -31 38 -24 16 14 27 0 13 -17
-8 -10 -8 -20 2 -41 7 -15 17 -37 23 -49 11 -25 30 -32 21 -8 -4 8 -1 15 6 15
7 0 10 8 7 18 -2 9 -6 23 -8 31 -3 9 8 14 34 17 43 5 47 -9 22 -70 -12 -27
-23 -38 -45 -43 -35 -7 -38 -27 -15 -93 8 -23 15 -46 15 -49 0 -4 -40 -20 -89
-36 l-89 -30 -10 -65 c-23 -142 -24 -158 -6 -186 15 -22 16 -29 4 -47 -8 -12
-17 -45 -21 -73 -4 -28 -15 -64 -24 -78 -24 -37 -84 -66 -142 -69 -48 -2 -48
-2 -45 28 2 16 8 35 14 42 7 9 7 22 0 42 -6 16 -8 46 -5 68 6 44 -20 83 -56
83 -24 0 -24 0 -11 35 7 18 15 25 25 21 8 -3 15 -1 15 4 0 6 -17 10 -37 11
-28 0 -33 2 -19 8 18 7 18 8 2 14 -24 9 -13 23 24 30 33 7 41 27 11 27 -11 0
-23 9 -26 20 -6 20 -6 20 -121 20 -10 0 -5 -225 5 -254 6 -15 11 -39 11 -53
l0 -26 -230 5 c-155 3 -234 9 -243 17 -8 6 -21 9 -29 6 -22 -9 -30 34 -19 87
20 91 28 154 24 191 -5 35 -7 37 -42 36 -20 -1 -28 -3 -19 -6 14 -4 17 -13 13
-51 -3 -26 -12 -52 -20 -58 -14 -10 -14 -12 0 -18 15 -5 21 -37 9 -49 -13 -13
-11 -79 3 -93 8 -8 10 -14 4 -14 -6 0 -11 -7 -11 -15 0 -10 -10 -15 -29 -15
-25 0 -30 5 -37 38 -4 20 -7 46 -6 56 1 11 -2 22 -8 26 -14 9 -15 167 0 184 6
8 21 17 33 20 12 2 -4 3 -37 2 l-59 -3 7 103 c8 123 26 189 66 239 32 40 28
65 -10 65 -37 0 -41 66 -5 104 23 25 24 32 21 122 -5 108 -13 124 -81 155 -68
31 -103 25 -163 -29 l-53 -47 7 -63 c4 -35 13 -70 21 -77 7 -7 13 -21 13 -31
0 -22 14 -9 15 14 2 47 19 123 29 131 8 7 21 5 40 -4 16 -9 47 -14 70 -13 38
3 41 1 41 -22 0 -17 -7 -26 -25 -30 -38 -9 -36 -35 5 -58 22 -14 35 -29 35
-42 0 -20 -4 -21 -46 -15 -33 4 -44 3 -39 -5 4 -7 16 -10 26 -7 10 3 21 1 24
-3 9 -14 -16 -23 -58 -22 -22 1 -37 -1 -33 -5 9 -10 36 -15 72 -13 26 0 31 -3
30 -22 -1 -20 -7 -23 -44 -26 -24 -2 -50 2 -58 9 -30 24 -14 -19 19 -52 l32
-32 -35 6 c-19 4 -42 15 -50 25 -11 12 -31 17 -75 18 -33 0 -62 -2 -65 -6 -3
-3 -21 -13 -40 -22 -33 -16 -35 -16 -42 3 -4 10 -5 25 -3 32 7 18 -7 35 -37
42 -24 6 -26 4 -21 -15 4 -13 -1 -26 -13 -36 -18 -15 -18 -15 2 -11 17 4 21
-1 21 -27 0 -34 -13 -48 -39 -40 -11 3 -19 -2 -23 -16 -9 -29 2 -38 19 -14 8
10 18 16 22 11 4 -4 2 -13 -4 -19 -7 -7 -12 -20 -12 -30 0 -10 -4 -18 -9 -18
-5 0 -11 -23 -15 -50 -4 -29 -11 -48 -16 -45 -6 4 -10 -1 -10 -9 0 -24 16 -19
39 10 24 30 26 27 9 -11 -6 -14 -19 -25 -30 -25 -11 0 -18 -7 -18 -19 0 -17
-4 -18 -30 -11 -32 9 -98 7 -164 -5 -36 -7 -38 -6 -31 14 7 23 -4 28 -23 9
-12 -12 -13 -11 -16 24 -1 7 12 12 29 12 43 1 46 19 5 32 -26 9 -36 19 -41 40
-9 45 -56 131 -81 148 -21 15 -23 15 -29 -1 -5 -16 -7 -15 -20 5 -19 30 -27
28 -21 -4 3 -19 1 -25 -7 -20 -14 9 -15 -26 0 -41 6 -6 9 -21 7 -33 -2 -18
-11 -23 -40 -26 -21 -2 -38 1 -38 5 0 5 -14 14 -31 21 -27 11 -30 17 -25 42
10 52 -28 22 -53 -42 -8 -19 -19 -41 -25 -48 -13 -17 -15 -51 -4 -58 4 -3 8
-15 8 -27 0 -30 35 -120 49 -125 7 -2 11 10 11 32 0 20 -4 36 -8 36 -4 0 -14
15 -20 34 -10 27 -10 45 -1 80 6 25 12 46 13 46 0 -1 24 -8 51 -18 38 -13 49
-22 47 -35 -2 -9 -10 -17 -18 -17 -20 0 -17 -20 4 -20 15 -1 15 -2 1 -13 -27
-21 -30 -45 -7 -53 16 -5 18 -8 7 -15 -8 -5 -24 -9 -36 -9 -13 0 -23 -4 -23
-8 0 -13 72 -83 79 -76 3 3 -1 10 -9 15 -11 8 -8 8 10 3 14 -3 28 -12 32 -18
27 -41 27 -41 47 -29 15 10 21 10 25 0 3 -9 9 -7 18 5 16 19 60 14 81 -11 18
-20 40 -169 32 -213 -3 -18 -2 -54 3 -80 7 -35 6 -48 -3 -52 -9 -3 -11 2 -7
16 3 14 1 19 -6 14 -8 -5 -12 0 -12 13 0 11 -9 35 -20 53 -11 18 -20 41 -20
50 0 20 -22 36 -28 20 -2 -7 -10 -12 -18 -12 -8 0 -14 -10 -15 -22 0 -18 -2
-20 -7 -6 -4 9 -19 26 -34 38 l-28 21 0 -65 c0 -61 -11 -89 -25 -66 -10 16
-153 9 -159 -7 -3 -6 8 -23 24 -37 17 -14 30 -29 30 -33 0 -5 25 -33 55 -63
30 -30 55 -51 55 -47 0 4 -8 15 -17 25 -39 40 -83 96 -83 106 0 5 15 -4 33
-20 69 -65 93 -86 110 -95 33 -18 18 10 -28 52 -25 23 -44 44 -41 46 6 6 49
-20 59 -35 5 -7 17 -10 28 -7 13 4 19 2 19 -9 0 -9 7 -16 15 -16 21 0 70 -80
55 -90 -7 -4 -115 -8 -241 -9 l-229 -1 0 31 c0 18 -5 49 -12 70 l-11 39 -51
-6 c-72 -9 -81 -24 -11 -17 43 5 56 3 51 -5 -4 -7 -17 -12 -29 -12 -12 0 -29
-5 -37 -10 -11 -7 -3 -10 30 -10 57 -1 35 -16 -42 -29 l-53 -9 70 -1 70 -2
-35 -15 c-52 -23 -127 -27 -326 -19 -146 7 -172 10 -144 18 48 14 48 14 11 46
-27 23 -33 34 -29 55 3 15 0 31 -9 38 -11 9 -12 13 -1 20 8 6 3 7 -16 3 l-28
-6 5 108 c7 132 8 137 36 167 17 18 20 29 14 43 -6 11 -6 83 0 185 12 190 6
228 -44 277 -16 17 -48 36 -71 43 -36 11 -44 10 -85 -12 -47 -25 -87 -75 -121
-152 -11 -27 -25 -48 -31 -48 -9 0 -29 39 -79 152 -34 75 -67 89 -169 74 -51
-8 -52 -7 -69 26 -10 18 -19 38 -20 44 -5 27 -38 63 -71 79 -45 21 -139 17
-178 -9 -15 -10 -36 -38 -47 -63 l-20 -46 -29 33 c-16 18 -29 39 -29 47 0 20
-49 94 -84 126 -52 46 -90 58 -147 46 -42 -9 -55 -18 -80 -52 -16 -22 -32 -52
-35 -66 -3 -14 -13 -42 -22 -61 -9 -19 -17 -48 -18 -65 -3 -56 -50 -255 -63
-268 -10 -9 -15 -8 -25 7 -6 11 -26 36 -44 57 -33 37 -60 49 -175 79 -26 7
-50 17 -53 21 -3 5 -14 9 -25 9 -23 0 -23 0 -4 70 18 66 18 70 5 70 -5 0 -10
-6 -10 -14 0 -31 -53 -25 -85 10 -21 23 -42 23 -54 -2 -14 -31 -34 -31 -55 1
-26 39 -20 53 25 60 48 8 51 37 4 45 -23 4 -30 10 -30 29 0 20 8 26 45 37 84
25 125 11 128 -43 1 -20 -4 -23 -33 -23 -35 0 -53 -14 -34 -25 6 -4 28 -7 50
-7 21 1 39 -3 39 -9 0 -5 5 -9 10 -9 15 0 12 96 -4 135 -19 44 -65 72 -132 81
-82 10 -117 -6 -138 -65 -14 -40 -15 -57 -7 -88 6 -21 11 -49 11 -63 0 -14 13
-52 30 -85 37 -75 38 -102 4 -117 -34 -16 -44 0 -44 73 0 132 -82 239 -182
239 -74 0 -134 -77 -176 -228 -12 -41 -33 -89 -47 -108 -25 -33 -134 -104
-160 -104 -7 0 -23 20 -35 44 -22 46 -32 53 -165 126 -33 18 -64 35 -68 37 -4
3 1 19 13 37 20 33 28 82 12 72 -5 -3 -23 8 -40 23 -37 35 -99 50 -108 26 -8
-20 -34 -19 -50 3 -25 33 -17 48 29 51 23 1 46 6 51 11 15 15 -2 40 -34 52
-27 9 -31 15 -28 42 3 27 7 31 38 34 49 5 140 -17 147 -35 4 -11 8 -11 13 -3
12 20 0 46 -39 84 -36 35 -43 38 -112 42 -61 5 -80 2 -109 -14z m6384 -103 c5
-4 -9 -6 -30 -5 -52 5 -51 5 -34 16 15 10 48 4 64 -11z m4 -45 c25 -17 30 -39
6 -30 -20 8 -54 -11 -54 -30 0 -8 12 -20 26 -26 21 -10 27 -9 35 3 7 11 9 9 9
-8 0 -12 -3 -28 -6 -37 -8 -20 -54 -21 -54 -2 0 9 -7 12 -19 9 -10 -3 -22 0
-25 5 -4 6 -21 8 -40 5 -26 -4 -35 -1 -40 13 -9 24 9 33 54 27 31 -4 37 -2 37
13 0 26 -16 44 -38 44 -21 0 -26 16 -6 23 27 11 94 6 115 -9z m-4451 -50 c12
-3 31 -22 43 -41 23 -40 25 -53 7 -53 -7 0 -22 -7 -33 -15 -18 -14 -17 -15 16
-12 l35 2 3 -58 c3 -51 0 -60 -23 -81 -32 -30 -63 -24 -77 15 -9 27 -38 41
-38 19 0 -7 -6 -7 -19 0 -26 13 -37 50 -20 61 11 7 10 9 -3 9 -10 0 -18 5 -18
11 0 7 13 10 33 7 28 -3 33 0 35 19 1 18 -5 23 -33 29 -37 7 -43 21 -24 55 17
32 66 46 116 33z m-1036 -85 c21 -15 29 -29 29 -51 0 -24 -3 -29 -16 -24 -9 4
-22 1 -30 -4 -10 -9 -10 -15 4 -31 9 -10 24 -19 34 -19 13 0 18 -8 18 -25 0
-20 -5 -25 -25 -25 -14 0 -25 5 -25 11 0 17 -69 41 -100 34 -22 -5 -28 -2 -32
13 -8 31 7 49 26 33 17 -14 66 -7 66 8 0 5 -12 19 -27 30 -24 20 -25 24 -13
46 17 31 51 33 91 4z m5379 -29 c0 -5 -4 -10 -10 -10 -5 0 -10 5 -10 10 0 6 5
10 10 10 6 0 10 -4 10 -10z m70 -21 c0 -17 -31 -16 -40 1 -15 27 -13 29 15 17
14 -7 25 -15 25 -18z m-6152 8 c14 -17 -1 -40 -23 -35 -26 4 -31 48 -6 48 10
0 23 -6 29 -13z m2241 -26 c27 -34 29 -40 16 -51 -21 -17 -19 -40 4 -40 10 0
24 -6 30 -14 10 -12 8 -18 -12 -31 -14 -9 -29 -14 -33 -13 -21 7 -17 -18 4
-27 15 -6 21 -16 18 -27 -8 -31 20 -19 45 19 13 21 32 39 42 41 58 11 137 -79
137 -157 0 -23 -1 -41 -2 -41 -2 0 -21 6 -43 14 -34 12 -42 12 -62 -1 -13 -9
-26 -13 -30 -10 -3 3 -12 -1 -21 -9 -12 -13 -16 -13 -23 -2 -15 24 -10 48 10
48 24 0 33 13 25 33 -7 20 -43 28 -67 15 -28 -14 -96 9 -109 38 -6 12 -16 20
-24 17 -7 -2 -19 -1 -25 3 -9 5 -7 10 7 15 15 6 15 8 3 8 -21 1 -36 40 -43
109 -5 47 -2 57 19 78 17 17 35 24 64 24 34 0 44 -5 70 -39z m-369 8 c0 -24
-23 -21 -28 4 -2 10 3 17 12 17 10 0 16 -9 16 -21z m-1933 -5 c-3 -3 -12 -4
-19 -1 -8 3 -5 6 6 6 11 1 17 -2 13 -5z m1093 -39 c0 -8 -2 -15 -4 -15 -2 0
-6 7 -10 15 -3 8 -1 15 4 15 6 0 10 -7 10 -15z m5459 1 c14 -16 4 -46 -14 -46
-8 0 -20 -6 -27 -13 -9 -10 -27 -12 -58 -8 -38 5 -44 10 -42 26 7 38 32 55 82
55 28 0 52 -6 59 -14z m-5424 -42 c0 -13 -8 -20 -25 -22 -24 -2 -24 -2 -6 12
10 8 15 20 11 27 -5 7 -3 10 6 7 8 -3 14 -13 14 -24z m-1045 -34 c0 -5 -2 -10
-4 -10 -3 0 -8 5 -11 10 -3 6 -1 10 4 10 6 0 11 -4 11 -10z m655 -10 c-4 -12
0 -19 11 -22 17 -3 17 -4 0 -20 -30 -30 -64 -33 -91 -8 -12 12 -25 32 -27 44
-4 20 -1 22 54 23 54 2 58 0 53 -17z m5805 10 c0 -5 -4 -10 -10 -10 -5 0 -10
5 -10 10 0 6 5 10 10 10 6 0 10 -4 10 -10z m-430 -21 c0 -6 -4 -7 -10 -4 -5 3
-10 11 -10 16 0 6 5 7 10 4 6 -3 10 -11 10 -16z m-4377 -19 c61 -27 105 -95
62 -95 -24 -1 -45 -13 -45 -26 0 -14 58 -11 64 4 3 8 9 6 20 -7 24 -29 20 -56
-7 -56 -12 0 -28 -9 -35 -20 -11 -18 -10 -20 8 -20 27 0 25 -23 -3 -56 l-24
-27 -46 23 c-53 27 -60 40 -19 40 19 0 35 10 55 35 15 19 22 33 15 31 -7 -3
-26 -7 -41 -10 -15 -4 -25 -11 -22 -16 10 -17 -59 1 -79 20 -23 22 -12 44 19
36 13 -3 36 -1 51 4 24 10 26 12 12 26 -11 12 -21 13 -42 4 -38 -14 -49 -4
-41 38 6 30 39 92 49 92 2 0 24 -9 49 -20z m146 -52 c1 -39 -12 -35 -33 9 -17
36 -17 38 1 50 16 12 19 11 25 -9 3 -13 6 -35 7 -50z m4623 46 c-5 -26 -9 -29
-26 -15 -8 7 -20 10 -25 7 -5 -4 -12 -2 -16 4 -4 6 5 10 19 10 14 0 26 5 26
11 0 6 6 9 13 6 6 -2 10 -13 9 -23z m52 4 c-3 -4 2 -8 10 -8 18 0 19 -2 10
-24 -8 -20 -39 -5 -47 23 -3 14 0 19 13 18 10 -1 16 -5 14 -9z m-5364 -18 c8
-14 7 -25 -2 -40 -14 -23 -30 -30 -76 -36 -46 -6 -61 6 -25 21 16 7 40 26 54
43 29 37 35 38 49 12z m1800 -50 c6 -44 0 -59 -27 -62 -39 -4 -45 -45 -9 -54
27 -6 35 -28 15 -40 -6 -3 -16 -1 -22 5 -13 13 -44 15 -51 2 -3 -4 0 -22 7
-40 10 -27 9 -33 -3 -41 -25 -17 -73 1 -109 39 -32 34 -33 38 -27 91 10 79 55
147 104 155 21 4 44 8 52 9 18 3 68 -42 70 -64z m1474 23 c-6 -25 -24 -56 -24
-41 0 10 22 68 26 68 2 0 1 -12 -2 -27z m1996 11 c0 -2 -10 -8 -21 -15 -17 -9
-23 -8 -30 2 -10 17 7 28 32 22 10 -3 19 -7 19 -9z m-1849 -21 c-8 -15 -10
-15 -11 -2 0 17 10 32 18 25 2 -3 -1 -13 -7 -23z m1904 -17 c17 -12 16 -14
-17 -18 -33 -3 -35 -2 -27 14 12 22 19 22 44 4z m-6641 -33 c3 -4 28 -6 55 -4
43 2 51 -1 70 -26 l21 -28 -6 28 c-5 20 -2 27 9 27 9 0 19 -5 22 -10 4 -6 13
-7 23 -1 19 9 56 -1 67 -19 5 -8 11 -6 19 6 10 13 17 14 33 6 21 -11 55 -71
47 -83 -2 -4 -21 -3 -41 3 -21 5 -55 9 -75 8 -20 0 -39 4 -43 10 -4 7 -11 7
-18 2 -9 -7 -216 4 -224 11 0 1 -4 19 -8 40 -7 35 -6 37 17 37 14 0 28 -3 32
-7z m4552 -60 c-11 -11 -17 4 -9 23 7 18 8 18 11 1 2 -10 1 -21 -2 -24z m294
16 c0 -6 -9 -24 -21 -40 l-20 -29 25 -10 c38 -14 32 -23 -11 -16 -35 6 -37 5
-19 -9 11 -8 29 -15 40 -16 12 0 16 -3 9 -5 -6 -3 -28 -1 -47 4 -45 13 -57 1
-14 -14 l33 -12 -43 -1 c-30 -1 -41 2 -36 10 5 8 -1 10 -18 6 -21 -6 -16 2 27
46 29 28 58 62 64 75 12 23 31 30 31 11z m-2240 -46 c0 -12 8 -14 38 -10 20 3
31 3 25 0 -7 -2 -13 -12 -13 -21 0 -24 -30 -52 -57 -52 -27 0 -29 8 -5 26 16
12 16 13 -4 14 -30 0 -34 8 -17 41 15 30 33 31 33 2z m1439 18 c11 -7 10 -13
-9 -32 -22 -24 -22 -24 -11 -1 8 14 8 22 1 22 -5 0 -10 5 -10 10 0 12 10 13
29 1z m-3544 -11 c3 -5 1 -10 -4 -10 -6 0 -11 5 -11 10 0 6 2 10 4 10 3 0 8
-4 11 -10z m1833 1 c9 -5 34 -16 56 -25 47 -20 106 -64 106 -79 0 -6 12 -23
26 -38 14 -15 23 -32 20 -37 -3 -6 -27 -20 -52 -33 -39 -18 -57 -21 -119 -16
-40 3 -81 10 -91 16 -11 6 -31 15 -47 21 -15 5 -32 22 -39 37 -10 25 -12 26
-15 8 -2 -11 -8 -29 -12 -40 -5 -11 -14 -90 -21 -175 -6 -85 -15 -174 -19
-198 -8 -39 -7 -42 10 -37 14 5 19 1 19 -14 0 -12 -6 -21 -12 -21 -7 0 -26 -7
-42 -15 -41 -22 -56 -4 -23 28 17 18 21 29 14 36 -8 8 -7 11 4 11 11 0 15 17
16 70 1 40 -2 70 -7 70 -6 0 -10 -8 -10 -17 0 -10 -5 -25 -11 -33 -15 -21 -5
35 30 178 28 109 32 135 27 158 -4 14 -11 22 -16 19 -6 -3 -10 3 -10 14 0 11
-4 23 -10 26 -13 8 -13 52 1 61 6 3 16 1 22 -5 6 -6 18 -11 26 -11 8 0 29 -17
47 -37 l33 -37 20 25 c11 13 20 35 21 48 0 13 8 30 18 37 21 16 18 16 40 5z
m4378 -36 c4 -18 -1 -32 -23 -55 -29 -31 -29 -31 -51 -12 -28 24 -28 28 2 36
14 3 26 16 30 31 8 32 34 32 42 0z m-6611 -1 c39 -3 84 -5 102 -4 20 0 40 -7
53 -20 15 -15 20 -17 20 -5 0 28 48 18 65 -15 26 -50 21 -63 -22 -55 -21 3
-54 6 -73 6 -19 0 -42 2 -50 5 -8 3 -55 6 -105 6 -116 0 -122 2 -129 44 -9 45
-1 56 37 49 18 -3 64 -8 102 -11z m439 -31 c-4 -16 -13 -35 -20 -43 -12 -12
-14 -12 -15 5 -1 11 -1 23 0 28 0 4 -3 7 -9 7 -17 0 -11 18 8 23 38 10 43 8
36 -20z m644 -20 c2 -26 8 -51 14 -54 18 -11 101 0 118 16 9 8 20 12 23 8 4
-3 7 -2 7 4 0 6 -13 16 -30 23 -35 15 -42 50 -9 50 11 0 30 -5 42 -12 l22 -12
-25 -6 c-21 -6 -15 -8 29 -16 41 -7 59 -16 74 -36 20 -26 20 -28 3 -47 -18
-20 -66 -24 -66 -5 0 7 -16 14 -35 16 -34 4 -48 -6 -22 -15 6 -2 9 -7 6 -11
-3 -3 -19 0 -35 8 -15 9 -31 11 -34 7 -5 -9 -33 -14 -60 -12 -13 1 -13 2 0 12
12 8 11 9 -5 7 -11 -2 -25 3 -32 12 -11 13 -12 12 -13 -7 0 -22 -11 -24 -62
-7 -12 4 -24 1 -30 -7 -6 -10 -8 -7 -6 11 2 14 10 25 18 25 26 1 43 16 31 28
-6 6 -11 14 -11 18 0 9 61 49 75 49 6 0 11 -21 13 -47z m2908 -40 c-4 -13 -12
-23 -19 -20 -20 6 -20 37 0 59 16 18 18 18 21 3 2 -9 1 -28 -2 -42z m2042 33
c-7 -7 -19 -11 -25 -9 -18 7 -5 23 18 23 16 0 18 -2 7 -14z m-6278 -17 c13 -7
13 -8 -1 -9 -9 0 -22 -7 -29 -15 -19 -23 -27 -18 -27 15 0 26 3 29 21 24 12
-4 28 -10 36 -15z m3060 11 c0 -6 11 -21 25 -34 24 -22 24 -23 5 -39 -16 -13
-20 -14 -20 -3 0 8 -7 16 -15 20 -17 6 -21 66 -5 66 6 0 10 -5 10 -10z m1280
5 c0 -3 -12 -17 -26 -30 -25 -23 -25 -24 -9 -49 16 -24 16 -26 1 -26 -9 0 -16
6 -16 14 0 8 -2 21 -5 28 -6 15 30 68 46 68 5 0 9 -2 9 -5z m366 -12 c29 -19
17 -33 -28 -33 -29 0 -33 6 -22 34 8 20 18 20 50 -1z m-2896 -13 c25 -25 25
-35 2 -52 -25 -18 -53 -83 -45 -104 4 -12 3 -15 -5 -10 -7 4 -12 4 -12 -1 0
-4 -9 -19 -20 -33 -11 -14 -28 -35 -37 -48 -11 -14 -34 -25 -57 -29 l-39 -6 8
29 c4 16 7 36 7 44 -1 27 29 94 61 139 70 96 98 110 137 71z m-1740 -25 c0 -8
-4 -15 -10 -15 -5 0 -10 7 -10 15 0 8 5 15 10 15 6 0 10 -7 10 -15z m726 -10
c0 -14 -5 -25 -9 -25 -5 0 -5 -9 -2 -20 5 -17 2 -20 -20 -20 -25 0 -26 2 -20
33 4 17 12 38 17 45 17 21 36 14 34 -13z m1407 -3 c20 -18 22 -50 3 -74 -17
-23 -26 -23 -26 0 0 10 -4 22 -9 28 -8 8 -15 46 -12 67 1 9 18 1 44 -21z
m2776 12 c10 -9 -45 -3 -59 6 -11 7 -5 8 20 4 19 -4 37 -8 39 -10z m-4244 -4
c3 -5 1 -10 -5 -10 -7 0 -10 -7 -6 -15 8 -23 -4 -45 -25 -45 -19 0 -20 15 -3
68 4 14 30 16 39 2z m145 5 c0 -14 -31 -65 -40 -65 -5 0 -9 16 -8 35 1 30 5
35 25 35 12 0 23 -2 23 -5z m2138 -32 c28 -56 23 -84 -19 -99 -31 -11 -32 -13
-9 -13 17 -1 40 13 68 39 30 29 42 36 42 24 0 -21 46 -65 63 -59 17 7 37 -28
43 -78 8 -65 -2 -72 -98 -71 -85 1 -147 21 -177 58 -18 22 -25 20 -59 -14 -36
-35 -50 -38 -60 -9 -8 20 -8 20 -19 -3 -25 -53 -32 -79 -27 -92 3 -8 -2 -41
-11 -74 -10 -35 -16 -83 -13 -117 l3 -57 -44 5 c-53 6 -64 20 -56 72 3 22 10
108 14 190 7 133 10 156 33 201 34 66 41 70 134 95 43 12 93 25 109 29 54 14
64 11 83 -27z m-2875 15 c4 -10 8 -10 14 -2 6 10 63 12 83 4 3 -1 33 -1 68 -1
57 1 63 -1 57 -18 -3 -12 0 -21 10 -25 10 -4 15 1 15 14 0 10 5 22 10 25 17
10 50 -5 50 -24 0 -9 5 -22 10 -27 12 -12 2 -47 -11 -38 -5 2 -59 7 -121 9
-62 2 -136 6 -164 10 l-52 7 0 39 c-1 26 4 39 13 39 7 0 16 -6 18 -12z m4297
-55 c0 -23 -19 -23 -39 -1 -22 23 -25 31 -15 41 9 8 53 -25 54 -40z m-3088 15
c48 -1 55 -4 50 -20 -2 -11 1 -18 9 -18 9 -1 8 -4 -4 -11 -9 -6 -15 -14 -12
-20 4 -5 -1 -9 -9 -9 -9 0 -16 12 -18 33 -2 27 -8 33 -30 35 -27 3 -40 -12
-17 -20 8 -3 8 -10 -2 -26 -10 -16 -24 -22 -47 -22 -23 0 -32 4 -29 13 2 6 0
20 -4 29 -11 22 16 51 41 43 10 -3 42 -6 72 -7z m189 -20 c17 -10 23 -10 26 0
3 6 12 12 21 12 12 0 11 -4 -6 -23 -12 -13 -20 -26 -16 -29 3 -3 1 -9 -5 -13
-6 -3 -11 0 -11 8 0 20 -37 50 -53 44 -10 -4 -13 -15 -10 -34 4 -19 2 -25 -5
-18 -5 6 -12 19 -14 30 -2 10 -14 22 -28 26 -18 5 -11 7 28 8 29 1 62 -5 73
-11z m4817 6 c26 -7 30 -26 5 -22 -13 2 -17 -3 -15 -17 5 -26 -13 -8 -23 23
-7 23 -3 25 33 16z m516 -15 c14 -11 26 -15 26 -9 0 15 18 3 31 -22 9 -17 8
-19 -8 -14 -14 5 -18 0 -20 -24 -1 -17 3 -31 10 -31 7 -1 -13 -5 -43 -9 -75
-11 -150 -2 -143 16 3 8 0 21 -7 29 -25 30 9 68 70 78 49 8 58 7 84 -14z
m-6266 -18 c-9 -15 -15 -17 -25 -9 -20 16 -15 28 12 28 22 0 24 -2 13 -19z
m4206 -138 c5 -51 3 -63 -9 -63 -19 0 -25 12 -40 77 -13 57 -8 101 17 131 14
16 18 -4 32 -145z m1058 135 c-6 -6 -8 -18 -5 -27 4 -14 3 -14 -6 1 -13 19 -4
51 11 42 6 -4 6 -10 0 -16z m368 12 c0 -5 -2 -10 -4 -10 -3 0 -8 5 -11 10 -3
6 -1 10 4 10 6 0 11 -4 11 -10z m41 -13 c-10 -9 -11 -8 -5 6 3 10 9 15 12 12
3 -3 0 -11 -7 -18z m-5475 -3 c-4 -9 -1 -23 5 -30 9 -11 8 -14 -5 -14 -20 0
-21 -16 -1 -24 26 -9 16 -27 -12 -24 -26 3 -28 7 -31 56 -3 50 -2 52 24 52 20
0 25 -4 20 -16z m5874 7 c0 -10 -30 -24 -37 -17 -3 3 -2 9 2 15 8 13 35 15 35
2z m-4680 -31 c28 -30 50 -39 50 -20 0 6 6 10 14 10 9 0 17 -16 21 -42 3 -24
10 -52 15 -63 21 -49 30 -119 24 -186 l-7 -71 -97 4 c-53 3 -101 8 -108 12
-12 7 -9 85 7 151 6 22 6 44 2 48 -5 5 -4 25 1 45 10 35 14 67 17 120 1 31 27
28 61 -8z m-1849 0 c5 0 9 -4 9 -9 0 -12 -38 -2 -47 12 -4 7 0 8 11 4 10 -4
22 -7 27 -7z m579 1 c0 -12 -20 -25 -27 -18 -7 7 6 27 18 27 5 0 9 -4 9 -9z
m5511 -18 c-12 -20 -14 -14 -5 12 4 9 9 14 11 11 3 -2 0 -13 -6 -23z m-5989 0
c17 -15 19 -15 32 2 15 21 38 12 29 -13 -4 -12 -1 -11 11 4 14 20 24 21 111
20 81 -2 98 -5 117 -23 36 -33 62 -33 66 0 l3 28 19 -24 c10 -13 22 -36 26
-52 l7 -28 -42 7 c-37 6 -41 4 -41 -14 0 -11 5 -20 11 -20 5 0 7 -5 3 -11 -4
-8 -9 -8 -17 0 -7 7 -15 7 -24 -1 -11 -9 -22 -3 -53 27 -36 35 -42 37 -84 33
-34 -4 -49 -1 -58 10 -7 8 -12 18 -10 21 2 3 -2 7 -9 10 -7 2 -9 -1 -4 -9 4
-7 2 -16 -6 -20 -16 -10 -118 40 -119 58 0 17 10 15 32 -5z m1114 -19 c-6 -17
4 -16 47 1 14 6 17 2 17 -19 0 -19 5 -26 20 -26 11 0 20 -4 20 -10 0 -22 -40
-9 -46 15 -6 25 -24 35 -24 14 0 -7 -10 -9 -25 -5 -14 4 -25 2 -25 -3 0 -6 18
-15 40 -21 22 -6 40 -15 40 -19 0 -5 11 -8 25 -7 14 0 25 5 25 10 0 5 6 3 14
-3 10 -9 16 -8 26 4 11 13 10 19 -5 35 -18 19 -17 20 8 20 14 0 27 5 29 12 2
6 10 9 17 7 11 -4 10 -9 -3 -22 -10 -10 -15 -25 -12 -35 7 -22 -33 -47 -71
-44 -19 1 -24 -2 -19 -13 3 -8 1 -15 -4 -15 -6 0 -10 7 -10 15 0 8 -4 15 -10
15 -5 0 -7 -7 -4 -15 7 -17 -11 -21 -21 -5 -4 6 -15 8 -26 5 -13 -5 -17 -2
-14 7 7 17 -30 52 -44 43 -17 -10 -13 -25 6 -18 11 4 14 3 9 -5 -11 -18 -30
-14 -44 8 -10 17 -10 20 3 20 9 0 19 8 22 17 6 15 34 50 42 52 2 1 0 -6 -3
-15z m4901 -6 c-3 -8 -6 -5 -6 6 -1 11 2 17 5 13 3 -3 4 -12 1 -19z m179 -36
c-12 -11 -18 7 -10 30 l8 23 4 -23 c2 -13 1 -26 -2 -30z m-5131 17 c5 -5 -4
-9 -23 -9 -30 0 -32 -2 -22 -21 19 -34 5 -32 -25 3 -25 30 -26 33 -9 39 21 8
64 1 79 -12z m169 6 c-6 -16 -24 -21 -24 -7 0 11 11 22 21 22 5 0 6 -7 3 -15z
m5343 -46 c6 -6 31 -10 56 -8 42 4 44 3 45 -24 1 -24 -2 -27 -21 -21 -38 13
-121 12 -147 -2 -22 -10 -29 -10 -49 6 l-24 18 22 12 c13 6 33 9 46 6 15 -4
29 -1 37 9 16 17 21 18 35 4z m-5227 -28 c0 -4 12 -6 28 -3 24 4 25 3 11 -9
-22 -18 -37 -129 -17 -129 7 0 26 -29 42 -63 16 -34 35 -69 43 -79 18 -20 3
-31 -31 -22 -15 3 -29 17 -35 35 -6 16 -17 29 -27 29 -10 0 -14 5 -10 16 3 8
2 13 -3 10 -12 -8 -34 21 -26 34 4 6 -1 20 -10 30 -17 19 -17 68 1 115 5 13 2
15 -21 9 -21 -5 -26 -4 -20 5 13 22 75 40 75 22z m-639 -33 c10 -18 8 -24 -7
-35 -17 -12 -20 -11 -28 6 -10 22 -2 51 13 51 6 0 16 -10 22 -22z m389 2 c0
-5 -4 -10 -9 -10 -6 0 -13 5 -16 10 -3 6 1 10 9 10 9 0 16 -4 16 -10z m44 -8
c2 -4 -4 -8 -15 -8 -10 0 -19 4 -19 8 0 4 6 8 14 8 8 0 17 -4 20 -8z m106 -2
c0 -5 -4 -10 -10 -10 -5 0 -10 5 -10 10 0 6 5 10 10 10 6 0 10 -4 10 -10z
m5190 0 c0 -5 -2 -10 -4 -10 -3 0 -8 5 -11 10 -3 6 -1 10 4 10 6 0 11 -4 11
-10z m-4820 -22 c0 -7 -5 -20 -10 -28 -9 -13 -11 -13 -20 0 -16 24 -12 40 10
40 11 0 20 -6 20 -12z m4967 -14 c-3 -3 -12 -4 -19 -1 -8 3 -5 6 6 6 11 1 17
-2 13 -5z m-2222 -29 c0 -18 -7 -20 -55 -20 -50 0 -55 2 -58 23 -3 22 -1 23
55 20 50 -3 58 -6 58 -23z m977 -28 c4 -20 4 -61 0 -90 l-7 -52 -53 -3 c-38
-2 -54 1 -58 11 -3 9 -24 15 -61 16 -32 1 -59 4 -62 6 -6 6 -1 137 6 148 2 4
55 6 116 5 l111 -3 8 -38z m232 23 c6 -6 12 -30 13 -53 1 -23 4 -51 6 -62 3
-11 7 -27 9 -35 2 -13 -15 -15 -112 -15 l-115 0 -3 40 c-4 67 -3 126 4 137 9
14 183 3 198 -12z m404 0 c10 -17 10 -20 -3 -20 -8 0 -19 9 -25 20 -8 15 -8
20 2 20 7 0 19 -9 26 -20z m-952 -7 c0 -10 6 -18 14 -18 8 0 16 -8 18 -17 2
-10 -1 -18 -6 -18 -14 0 -21 -47 -9 -59 6 -6 9 -11 7 -12 -58 -11 -200 -2
-200 12 0 5 37 10 83 11 45 0 67 3 50 5 -34 4 -47 23 -16 23 38 0 0 12 -54 17
-32 3 -60 7 -62 9 -4 4 112 8 136 5 6 -1 14 3 18 9 3 5 -3 10 -14 10 -12 0
-21 2 -21 4 0 2 -3 11 -6 20 -5 13 1 16 29 16 27 0 34 -4 33 -17z m1584 7 c0
-14 -39 -32 -56 -26 -19 7 -18 24 4 29 31 8 52 7 52 -3z m-4985 -31 c4 -17 3
-35 -3 -41 -6 -6 -8 -17 -5 -24 7 -18 -7 -18 -45 2 -37 18 -36 17 -19 46 30
54 63 61 72 17z m3076 -31 c15 4 10 -15 -6 -22 -17 -6 -21 -36 -4 -36 5 0 8 4
4 9 -3 5 -1 12 5 16 5 3 10 -3 10 -14 0 -10 6 -21 13 -24 29 -10 -9 -20 -85
-21 -62 -1 -82 2 -80 12 1 6 -4 12 -11 12 -9 0 -12 9 -9 28 4 28 51 60 71 48
5 -4 12 -2 16 4 4 6 10 8 15 5 5 -3 12 0 16 6 5 9 11 6 21 -7 8 -10 19 -18 24
-16z m1572 13 c8 -8 0 -11 -28 -11 -59 0 -115 11 -115 23 0 13 128 3 143 -12z
m-4303 -1 c0 -5 -2 -10 -4 -10 -3 0 -8 5 -11 10 -3 6 -1 10 4 10 6 0 11 -4 11
-10z m2026 1 c-4 -5 0 -11 6 -14 7 -2 10 -8 6 -12 -10 -10 -40 14 -32 26 3 5
10 9 15 9 6 0 8 -4 5 -9z m1998 -16 c-4 -8 -8 -15 -10 -15 -2 0 -4 7 -4 15 0
8 4 15 10 15 5 0 7 -7 4 -15z m-1544 -9 c0 -8 3 -21 6 -29 8 -21 -23 -47 -57
-47 -28 0 -29 2 -29 45 l0 45 40 0 c28 0 40 -4 40 -14z m-3229 -19 c-10 -9
-11 -8 -5 6 3 10 9 15 12 12 3 -3 0 -11 -7 -18z m-1371 -8 c0 -5 -4 -9 -10 -9
-5 0 -10 7 -10 16 0 8 5 12 10 9 6 -3 10 -10 10 -16z m3144 -41 c22 -51 28
-78 17 -78 -14 0 -28 28 -36 73 -9 46 -1 48 19 5z m3666 -19 c-13 -24 -68 -59
-92 -59 -11 0 -18 8 -18 18 0 17 34 37 90 53 14 3 26 7 28 8 1 0 -2 -8 -8 -20z
m-5973 -21 c-3 -8 -6 -5 -6 6 -1 11 2 17 5 13 3 -3 4 -12 1 -19z m5123 12 c0
-5 -9 -10 -19 -10 -11 0 -23 5 -26 10 -4 6 5 10 19 10 14 0 26 -4 26 -10z m88
-17 c2 -17 -2 -23 -15 -23 -17 -1 -17 -1 0 -14 9 -7 17 -16 17 -19 0 -3 -8 -8
-17 -10 -10 -2 -6 -3 9 -1 29 4 47 -10 25 -19 -18 -7 -107 4 -107 13 0 4 10
10 22 13 18 5 19 8 9 21 -9 10 -22 14 -37 10 -15 -4 -24 -2 -24 5 0 6 13 11
29 11 21 0 30 6 34 21 8 29 51 22 55 -8z m-5954 -38 c3 -8 1 -17 -4 -20 -5 -3
-7 -11 -5 -18 3 -7 1 -18 -4 -26 -16 -26 -44 7 -37 42 3 17 1 36 -5 43 -9 11
-6 12 19 3 17 -6 33 -17 36 -24z m1751 25 c3 -5 2 -10 -4 -10 -5 0 -13 5 -16
10 -3 6 -2 10 4 10 5 0 13 -4 16 -10z m4240 0 c3 -5 1 -10 -4 -10 -6 0 -11 5
-11 10 0 6 2 10 4 10 3 0 8 -4 11 -10z m-3358 -6 c-3 -3 -12 -4 -19 -1 -8 3
-5 6 6 6 11 1 17 -2 13 -5z m1533 -19 c0 -8 -7 -15 -15 -15 -26 0 -18 20 13
29 1 1 2 -6 2 -14z m-1312 -2 c-21 -2 -55 -2 -75 0 -21 2 -4 4 37 4 41 0 58
-2 38 -4z m-1277 -52 l21 -19 -20 -11 c-25 -13 -45 -14 -38 -2 3 5 -1 14 -9
21 -8 7 -15 16 -15 21 0 16 40 9 61 -10z m1000 -3 c0 -10 2 -10 6 0 3 8 29 12
80 12 71 0 74 -1 72 -22 -2 -13 2 -33 9 -45 10 -19 9 -24 -10 -37 -19 -14 -19
-16 -5 -22 21 -8 22 -21 3 -40 -10 -10 -38 -14 -94 -14 -79 0 -80 0 -85 28 -3
15 -22 53 -41 86 -20 32 -36 60 -36 62 0 2 23 4 50 4 33 0 50 -4 51 -12z m254
2 c4 -7 13 -6 27 1 21 11 83 4 93 -11 3 -4 -2 -16 -11 -25 -21 -21 -9 -33 16
-17 26 16 31 15 24 -3 -4 -8 -1 -22 5 -29 8 -9 8 -17 2 -20 -5 -3 -11 -2 -13
2 -1 5 -15 12 -30 16 -23 5 -28 3 -28 -13 0 -16 22 -30 55 -35 6 0 10 -8 10
-16 0 -12 -19 -16 -99 -18 l-99 -3 6 34 c3 19 1 39 -5 45 -5 5 -7 29 -3 56 6
35 11 46 26 46 10 0 21 -5 24 -10z m581 -10 c55 0 57 -18 4 -26 -22 -4 -43
-11 -46 -16 -3 -5 6 -6 20 -2 20 5 26 2 26 -10 0 -9 -4 -16 -9 -16 -4 0 -6
-11 -4 -24 7 -35 -42 -46 -71 -16 -12 13 -15 20 -7 18 7 -2 16 3 18 10 3 6 0
12 -5 12 -6 0 -17 6 -24 13 -7 7 -25 20 -40 30 -47 29 -35 41 33 33 34 -3 82
-6 105 -6z m169 -5 c-34 -16 -55 -18 -80 -9 -28 11 4 24 60 23 l50 -1 -30 -13z
m225 5 c0 -6 -33 -10 -80 -10 -47 0 -80 4 -80 10 0 6 33 10 80 10 47 0 80 -4
80 -10z m340 0 c0 -15 -31 -20 -125 -20 -57 0 -96 4 -101 11 -4 7 -10 7 -16 1
-11 -11 -48 -4 -48 8 0 5 65 8 145 9 80 0 145 -4 145 -9z m-2133 -22 c-3 -8
-6 -5 -6 6 -1 11 2 17 5 13 3 -3 4 -12 1 -19z m-1763 6 c23 -9 20 -24 -4 -24
-11 0 -20 7 -20 15 0 17 2 18 24 9z m1579 -30 c0 -5 -3 -18 -5 -28 -2 -14 6
-22 29 -30 57 -20 47 -26 -36 -21 -92 5 -107 10 -91 30 8 9 8 15 0 20 -22 14
-8 23 26 18 28 -5 39 -2 46 11 10 17 34 17 31 0z m-197 -8 c7 -8 18 -16 23
-18 5 -1 11 -12 13 -22 2 -14 -3 -19 -21 -21 -31 -2 -76 36 -68 58 8 21 34 22
53 3z m4334 5 c0 -6 -5 -13 -11 -17 -6 -3 -17 -22 -25 -40 -22 -52 -41 -42
-36 19 1 11 -5 17 -18 17 -11 0 -20 7 -20 15 0 12 13 15 55 15 30 0 55 -4 55
-9z m470 -8 l25 -5 -25 -10 c-14 -6 -52 -12 -85 -15 -33 -3 -68 -9 -77 -14 -9
-5 -34 -9 -55 -9 -35 0 -39 3 -38 25 0 14 6 29 13 34 14 8 198 4 242 -6z
m-6184 -18 c-3 -8 -1 -15 3 -15 10 0 8 -157 -2 -166 -3 -3 -9 20 -12 51 -4 31
-5 59 -2 62 4 3 2 14 -4 24 -6 13 -6 25 3 39 15 24 23 26 14 5z m2921 -1 c-3
-3 -12 -4 -19 -1 -8 3 -5 6 6 6 11 1 17 -2 13 -5z m23 -34 c-14 -4 -32 -8 -40
-9 -13 -1 -13 0 0 9 8 5 26 9 40 9 l25 -1 -25 -8z m109 -4 c9 -11 4 -15 -26
-20 -21 -4 -51 -9 -68 -12 -26 -5 -24 -3 15 19 53 30 64 32 79 13z m1691 -27
c0 -5 -7 -9 -15 -9 -15 0 -20 12 -9 23 8 8 24 -1 24 -14z m1708 9 c-3 -7 -13
-15 -24 -17 -16 -3 -17 -1 -5 13 16 19 34 21 29 4z m-1867 -78 c5 0 9 -7 9
-15 0 -9 6 -12 18 -9 11 4 13 3 5 -3 -13 -9 -6 -53 8 -53 5 0 9 10 9 23 0 12
6 34 14 49 8 15 12 35 10 45 -5 17 2 19 60 18 35 0 68 -4 73 -9 5 -5 3 -6 -5
-2 -8 5 -21 0 -33 -13 l-19 -21 31 7 c30 6 32 5 26 -19 -6 -23 -4 -25 21 -22
15 2 19 1 10 -2 -13 -4 -18 -16 -18 -44 0 -32 3 -39 19 -37 15 1 17 4 9 14 -7
9 -7 22 2 43 13 32 18 34 38 21 11 -7 11 -14 -1 -43 -14 -34 -14 -34 15 -51
16 -9 37 -17 46 -17 9 0 26 -7 37 -16 18 -13 17 -14 -15 -8 -64 13 -85 21 -82
33 1 6 -7 11 -19 11 -11 0 -17 -4 -14 -10 7 -11 -24 -13 -49 -4 -13 5 -14 9
-5 20 9 12 9 13 -4 8 -20 -7 -331 -52 -336 -48 -2 2 8 8 22 13 29 11 45 54 28
74 -8 10 -5 18 12 33 12 10 28 19 36 19 8 0 16 6 19 13 3 9 -3 11 -22 6 -24
-6 -26 -4 -26 27 0 26 3 30 12 21 13 -13 39 -16 37 -4 -1 4 0 12 1 17 2 6 5
-7 7 -27 2 -21 8 -38 14 -38z m-2294 54 c-3 -3 -12 -4 -19 -1 -8 3 -5 6 6 6
11 1 17 -2 13 -5z m2651 -21 c-2 -21 1 -28 14 -27 10 1 14 -4 11 -13 -3 -8
-13 -11 -24 -8 -26 8 -24 -3 3 -25 22 -17 22 -19 5 -37 -22 -25 -22 -33 2 -33
10 0 26 11 35 25 18 27 24 29 46 15 12 -7 12 -12 2 -22 -9 -9 -12 -9 -12 5 0
9 -5 17 -11 17 -7 0 -9 -10 -5 -24 3 -14 2 -27 -4 -31 -5 -3 -8 -11 -6 -18 1
-7 1 -9 -1 -5 -3 4 -22 12 -43 18 -38 10 -38 11 -29 43 5 17 9 33 9 34 0 1
-13 9 -30 18 -22 12 -30 22 -30 43 l1 27 15 -28 c16 -30 35 -29 27 2 -3 11 1
27 9 35 18 21 20 20 16 -11z m-438 -30 c0 -29 -2 -29 -19 5 -10 18 -9 22 4 22
10 0 15 -9 15 -27z m-82 -50 c-5 -7 -5 -14 2 -18 5 -3 10 -1 10 4 0 21 20 11
34 -16 12 -24 12 -30 0 -40 -13 -12 -33 -19 -22 -7 3 3 -12 22 -34 43 -32 32
-36 39 -23 45 10 3 15 12 12 20 -10 24 6 27 18 3 7 -13 8 -27 3 -34z m650 14
c-2 -11 -8 -22 -14 -24 -15 -5 -24 20 -17 46 4 17 8 19 20 10 8 -7 13 -21 11
-32z m-688 12 c0 -4 -7 -6 -15 -3 -8 4 -15 10 -15 15 0 4 7 6 15 3 8 -4 15
-10 15 -15z m349 -186 c10 -17 10 -17 11 0 0 10 5 15 10 12 6 -4 78 -6 160 -6
l150 2 0 -100 0 -100 -160 0 c-152 0 -160 1 -160 20 0 10 -4 19 -10 19 -5 0
-10 -10 -10 -21 0 -22 -1 -22 -152 -16 -84 4 -161 7 -170 7 -16 0 -18 11 -18
100 l0 100 170 0 c150 0 170 -2 179 -17z m-4789 -94 c0 -11 -4 -17 -10 -14 -5
3 -10 15 -10 26 0 11 5 17 10 14 6 -3 10 -15 10 -26z m3390 -64 c0 -3 -10 -10
-22 -15 -22 -10 -54 -28 -125 -72 -20 -12 -33 -15 -33 -8 0 6 -5 8 -10 5 -6
-4 -8 -11 -5 -16 4 -5 -5 -9 -19 -9 -14 0 -28 -4 -31 -10 -3 -5 -15 -10 -25
-10 -10 0 -38 -18 -62 -40 -23 -23 -65 -52 -93 -67 -49 -25 -105 -45 -105 -38
0 3 51 37 113 78 94 61 192 112 232 120 5 1 14 6 20 10 62 48 165 93 165 72z
m1480 -95 c0 -5 -5 -10 -11 -10 -5 0 -7 5 -4 10 3 6 8 10 11 10 2 0 4 -4 4
-10z m110 -16 c0 -2 -7 -4 -15 -4 -8 0 -15 4 -15 10 0 5 7 7 15 4 8 -4 15 -8
15 -10z m80 0 c0 -8 -5 -12 -10 -9 -6 4 -8 11 -5 16 9 14 15 11 15 -7z m-241
-26 c5 -13 26 -42 47 -65 43 -47 83 -59 135 -40 41 16 36 27 -10 27 -22 0 -43
5 -47 11 -4 8 3 9 25 4 17 -4 45 -4 61 0 32 7 80 51 80 72 0 7 4 13 9 13 6 0
9 -36 8 -82 l-2 -83 -40 1 c-33 1 -41 -3 -41 -18 0 -10 5 -18 11 -19 5 0 18
-2 28 -4 9 -2 17 1 17 5 0 5 -8 11 -17 13 -11 3 -7 5 10 6 23 1 27 -3 27 -26
0 -62 -25 -98 -37 -54 -4 18 -6 18 -27 -3 -12 -11 -20 -25 -18 -30 3 -5 11 -1
18 9 18 25 29 12 12 -14 -17 -27 -29 -26 -57 3 -17 18 -19 25 -9 30 7 3 3 3
-10 0 -15 -4 -24 0 -29 12 -4 10 -2 19 5 22 14 4 16 22 2 22 -5 0 -17 -14 -25
-30 -15 -28 -14 -31 2 -37 20 -7 69 -43 59 -43 -3 0 -35 14 -71 31 -35 16 -66
29 -69 27 -8 -6 -46 35 -46 49 0 8 -4 11 -10 8 -5 -3 -38 1 -72 10 -47 12 -64
13 -72 4 -8 -9 -8 -10 1 -5 7 4 23 4 37 0 l25 -6 -29 -30 c-17 -16 -30 -33
-30 -37 0 -4 -12 -13 -26 -20 -29 -13 -54 -4 -33 11 11 8 10 9 -3 4 -10 -3
-20 -1 -23 5 -4 5 -11 7 -16 3 -6 -3 -7 5 -3 21 4 18 1 32 -11 45 -14 16 -15
20 -4 20 205 7 229 6 229 -7 0 -7 5 -13 11 -13 5 0 7 5 4 10 -3 6 6 11 22 11
113 6 140 19 40 19 l-67 0 0 80 c0 80 12 103 29 58z m141 -18 c0 -11 -2 -20
-4 -20 -2 0 -6 9 -9 20 -3 11 -1 20 4 20 5 0 9 -9 9 -20z m75 -10 c-3 -5 -11
-10 -16 -10 -6 0 -7 5 -4 10 3 6 11 10 16 10 6 0 7 -4 4 -10z m-115 -26 c0 -2
-7 -4 -15 -4 -8 0 -15 4 -15 10 0 5 7 7 15 4 8 -4 15 -8 15 -10z m-395 -100
c0 -6 8 -18 18 -28 11 -12 15 -25 11 -42 -5 -20 -2 -26 15 -31 11 -3 18 -9 15
-14 -3 -5 0 -9 5 -9 6 0 11 -4 11 -10 0 -5 -7 -10 -15 -10 -8 0 -15 5 -15 10
0 6 -12 10 -27 9 l-28 -1 25 -8 c20 -6 14 -8 -27 -9 -29 -1 -53 1 -53 3 0 2
-4 27 -10 56 -15 77 -7 97 38 95 20 0 37 -5 37 -11z m-1680 -4 c-3 -5 -11 -10
-16 -10 -6 0 -7 5 -4 10 3 6 11 10 16 10 6 0 7 -4 4 -10z m155 -26 c0 -8 -4
-12 -10 -9 -5 3 -10 10 -10 16 0 5 5 9 10 9 6 0 10 -7 10 -16z m1765 -54 c-5
-8 -11 -8 -17 -2 -6 6 -7 16 -3 22 5 8 11 8 17 2 6 -6 7 -16 3 -22z m-2065 12
c0 -16 -36 -42 -68 -48 -20 -4 -32 -13 -32 -22 0 -12 -3 -13 -12 -4 -14 14
-16 11 42 50 45 31 70 40 70 24z m120 -16 c0 -3 -4 -8 -10 -11 -5 -3 -10 -1
-10 4 0 6 5 11 10 11 6 0 10 -2 10 -4z m-270 -10 c0 -11 -19 -15 -25 -6 -3 5
1 10 9 10 9 0 16 -2 16 -4z m2544 -40 c-3 -9 -10 -16 -15 -16 -5 0 -4 9 3 20
14 22 21 20 12 -4z m-1934 -26 c0 -5 -2 -10 -4 -10 -3 0 -8 5 -11 10 -3 6 -1
10 4 10 6 0 11 -4 11 -10z m-590 -9 c-24 -13 -80 -21 -80 -11 0 10 24 17 65
19 21 0 26 -2 15 -8z m144 -20 c8 -13 -3 -19 -24 -14 -11 3 -17 9 -14 14 7 11
31 12 38 0z m-236 -19 c2 -7 -6 -12 -17 -12 -21 0 -27 11 -14 24 9 9 26 2 31
-12z m2198 -17 c4 -8 18 -15 34 -15 16 0 30 7 34 15 3 10 19 15 45 15 25 0 41
-5 45 -15 6 -17 61 -21 71 -5 3 6 19 10 36 10 16 0 29 -4 29 -10 0 -5 11 -10
25 -10 14 0 25 -4 25 -10 0 -5 -11 -10 -25 -10 -14 0 -25 5 -25 10 0 16 -67
12 -74 -5 -3 -9 -18 -15 -35 -15 -16 0 -31 6 -35 15 -6 17 -62 21 -68 4 -5
-15 -94 -24 -102 -10 -4 6 -2 11 4 11 6 0 8 5 5 10 -8 12 -65 13 -65 1 0 -13
-63 -20 -77 -9 -19 15 -16 28 7 28 11 0 20 -4 20 -10 0 -16 27 -12 34 5 3 10
19 15 46 15 27 0 43 -5 46 -15z m-2286 -15 c-24 -15 -36 -11 -14 4 10 8 21 12
24 10 2 -3 -2 -9 -10 -14z m40 10 c0 -5 -4 -10 -10 -10 -5 0 -10 5 -10 10 0 6
5 10 10 10 6 0 10 -4 10 -10z m151 -37 c-30 -17 -36 -16 -22 0 6 8 8 17 5 20
-3 3 -3 10 0 16 4 6 13 4 24 -7 16 -16 16 -18 -7 -29z m2469 37 c0 -5 -5 -10
-11 -10 -5 0 -7 5 -4 10 3 6 8 10 11 10 2 0 4 -4 4 -10z m-4810 -63 c0 -6 7
-19 17 -29 18 -20 17 -25 -12 -30 -19 -3 -21 1 -24 42 0 11 -8 20 -16 20 -18
0 -20 17 -2 23 14 5 37 -11 37 -26z m1910 3 c0 -5 -7 -10 -15 -10 -8 0 -15 5
-15 10 0 6 7 10 15 10 8 0 15 -4 15 -10z m330 0 c0 -5 -4 -10 -9 -10 -5 0 -18
-3 -28 -6 -16 -5 -16 -4 1 10 23 18 36 20 36 6z m-1772 -48 c2 -14 10 -22 23
-22 28 0 27 -56 -1 -65 -12 -4 -20 -15 -20 -29 0 -29 -26 -82 -44 -89 -10 -4
-16 5 -20 26 -3 18 -13 45 -21 61 -19 36 -4 60 32 51 13 -3 23 -1 23 5 0 5 -7
10 -15 10 -8 0 -14 3 -13 8 0 4 -3 16 -7 26 -6 14 -3 23 11 33 26 19 48 12 52
-15z m1487 -32 c-10 -11 -24 -20 -32 -20 -8 0 -12 -4 -9 -9 3 -5 -1 -11 -9
-14 -7 -3 -21 -19 -29 -36 -14 -25 -14 -33 -2 -56 10 -20 16 -23 22 -13 5 7 7
20 6 28 -1 9 9 27 23 40 24 22 37 16 14 -7 -13 -13 -19 -73 -7 -73 4 0 8 8 8
17 0 9 3 13 8 9 4 -4 7 -19 7 -33 0 -23 8 -29 65 -51 142 -54 166 -61 193 -62
16 0 49 -6 75 -14 41 -12 175 -36 363 -64 31 -5 66 -5 77 -1 20 7 228 -23 262
-38 8 -3 36 -5 61 -4 26 2 49 -2 53 -7 3 -6 -20 -10 -59 -10 -36 0 -67 4 -70
9 -4 5 -12 9 -18 9 -7 0 -6 -4 3 -11 11 -7 -17 -9 -93 -5 -60 3 -112 8 -117
11 -5 3 -12 1 -15 -5 -5 -8 -11 -7 -21 1 -17 14 -85 23 -176 24 -36 0 -61 3
-55 7 11 6 -9 11 -118 27 -33 5 -89 17 -125 25 -36 9 -99 23 -140 31 -41 8
-95 21 -120 29 -115 36 -205 91 -178 108 8 4 2 7 -14 5 -15 -1 -28 2 -30 8 -2
5 4 10 12 11 35 3 60 17 60 35 0 11 6 19 14 19 19 0 61 53 46 58 -6 2 -18 -4
-25 -14 -8 -11 -15 -14 -15 -7 0 7 -7 10 -15 7 -8 -4 -15 -2 -15 2 1 23 21 36
60 40 24 2 46 6 48 9 3 3 14 5 25 5 19 0 20 -1 2 -20z m260 -10 c-3 -5 -11
-10 -16 -10 -6 0 -7 5 -4 10 3 6 11 10 16 10 6 0 7 -4 4 -10z m1988 -7 c-7 -2
-19 -2 -25 0 -7 3 -2 5 12 5 14 0 19 -2 13 -5z m-176 -9 c-3 -3 -12 -4 -19 -1
-8 3 -5 6 6 6 11 1 17 -2 13 -5z m233 -8 c-1 -5 4 -13 12 -17 10 -7 10 -9 -2
-9 -8 0 -21 9 -28 21 -11 18 -11 20 3 17 9 -1 15 -7 15 -12z m598 2 c-16 -5
-28 -14 -28 -19 0 -5 -4 -9 -10 -9 -15 0 -7 24 10 32 8 4 24 7 35 7 15 -1 13
-3 -7 -11z m-531 -11 c7 0 10 -4 7 -8 -2 -4 0 -9 5 -11 5 -1 3 -16 -5 -33 -8
-16 -12 -21 -9 -11 7 26 -3 56 -20 56 -8 0 -17 5 -21 12 -5 8 -2 9 12 4 10 -5
24 -9 31 -9z m750 7 c-3 -3 -12 -4 -19 -1 -8 3 -5 6 6 6 11 1 17 -2 13 -5z
m-2969 -29 l3 -20 -17 20 c-16 20 -16 20 -9 -4 6 -20 4 -23 -9 -18 -10 4 -15
3 -12 -2 3 -5 -2 -15 -11 -22 -13 -11 -15 -11 -9 -1 5 8 1 21 -9 32 -24 26
-10 42 33 38 28 -2 38 -8 40 -23z m2686 9 c5 -13 3 -14 -6 -7 -7 6 -20 13 -28
16 -10 4 -8 6 6 6 12 1 25 -6 28 -15z m-184 -24 c-20 -13 -40 -12 -40 1 0 5 4
8 8 5 4 -2 14 -1 22 4 8 5 17 7 19 4 3 -3 -1 -9 -9 -14z m113 13 c-7 -2 -19
-2 -25 0 -7 3 -2 5 12 5 14 0 19 -2 13 -5z m-240 -10 c-13 -2 -23 -9 -23 -14
0 -5 -9 -9 -20 -9 -11 0 -20 4 -20 10 0 5 7 7 15 4 8 -4 15 -1 15 5 0 6 12 10
28 10 23 -2 24 -2 5 -6z m-2721 -25 c-7 -7 -12 -8 -12 -2 0 14 12 26 19 19 2
-3 -1 -11 -7 -17z m2947 -20 c1 -5 -3 -8 -9 -8 -5 0 -10 12 -9 28 0 24 1 25 9
7 5 -11 9 -23 9 -27z m-676 25 c-7 -2 -13 -11 -13 -19 0 -8 -5 -14 -10 -14 -7
0 -7 6 0 20 6 11 16 20 23 19 9 0 9 -2 0 -6z m2220 -24 c-6 -6 -17 -8 -24 -3
-9 5 -8 9 7 14 23 9 31 3 17 -11z m-4543 -14 c0 -14 -4 -25 -9 -25 -5 0 -8 11
-8 25 0 14 3 25 8 25 5 0 9 -11 9 -25z m2390 15 c0 -5 -2 -10 -4 -10 -3 0 -8
5 -11 10 -3 6 -1 10 4 10 6 0 11 -4 11 -10z m420 -11 c0 -5 -4 -9 -10 -9 -5 0
-10 7 -10 16 0 8 5 12 10 9 6 -3 10 -10 10 -16z m228 -4 c-3 -3 -9 2 -12 12
-6 14 -5 15 5 6 7 -7 10 -15 7 -18z m-308 5 c0 -5 -4 -10 -10 -10 -5 0 -10 5
-10 10 0 6 5 10 10 10 6 0 10 -4 10 -10z m400 6 c0 -3 -4 -8 -10 -11 -5 -3
-10 -1 -10 4 0 6 5 11 10 11 6 0 10 -2 10 -4z m210 -36 c-16 -30 -22 -19 -7
13 6 14 13 22 15 17 2 -5 -2 -19 -8 -30z m-930 20 c0 -5 -5 -10 -11 -10 -5 0
-7 5 -4 10 3 6 8 10 11 10 2 0 4 -4 4 -10z m-2515 -9 c-6 -5 -28 -12 -50 -15
l-40 -5 40 13 c49 18 62 19 50 7z m42 3 c-3 -3 -12 -4 -19 -1 -8 3 -5 6 6 6
11 1 17 -2 13 -5z m4633 -2 c0 -12 -58 -34 -77 -29 -13 3 -8 7 15 12 17 4 32
11 32 16 0 5 7 9 15 9 8 0 15 -3 15 -8z m-4900 -32 c-9 -6 -19 -5 -25 1 -6 6
-5 13 5 19 9 6 19 5 25 -1 6 -6 5 -13 -5 -19z m352 -10 c10 -8 18 -17 18 -21
0 -10 -156 -32 -169 -25 -6 4 -22 -1 -36 -10 -14 -9 -28 -14 -32 -10 -3 3 -1
6 5 6 7 0 12 5 12 10 0 6 -7 10 -15 10 -20 0 -19 26 1 34 23 9 34 7 34 -5 0
-5 -4 -7 -10 -4 -5 3 -10 -1 -10 -9 0 -19 1 -19 34 -6 17 6 26 6 26 0 0 -6 7
-10 15 -10 27 0 16 17 -17 27 l-33 10 35 16 c39 17 52 14 43 -10 -5 -13 -2
-15 22 -9 19 5 31 3 36 -6 4 -7 11 -9 14 -6 11 11 -5 28 -26 28 -19 0 -25 11
-13 23 6 6 35 -8 66 -33z m2971 33 c-7 -2 -19 -2 -25 0 -7 3 -2 5 12 5 14 0
19 -2 13 -5z m124 -15 c-3 -8 -6 -5 -6 6 -1 11 2 17 5 13 3 -3 4 -12 1 -19z
m-330 -10 c-3 -8 -6 -5 -6 6 -1 11 2 17 5 13 3 -3 4 -12 1 -19z m148 12 c3 -6
-1 -7 -9 -4 -18 7 -21 14 -7 14 6 0 13 -4 16 -10z m-3145 -8 c0 -5 -11 -14
-25 -20 -39 -18 -44 -14 -10 7 36 23 35 23 35 13z m2840 -2 c-18 -12 -40 -13
-40 -2 0 4 12 9 28 10 21 1 23 0 12 -8z m415 0 c3 -5 -1 -10 -10 -10 -9 0 -13
5 -10 10 3 6 8 10 10 10 2 0 7 -4 10 -10z m-731 -16 c3 -8 2 -12 -4 -9 -6 3
-10 10 -10 16 0 14 7 11 14 -7z m396 0 c0 -2 -11 -4 -25 -4 -14 0 -25 4 -25 9
0 4 11 6 25 3 14 -2 25 -6 25 -8z m40 6 c0 -5 42 -11 93 -13 l92 -3 -101 -2
c-84 -2 -101 1 -101 13 0 8 4 15 9 15 4 0 8 -4 8 -10z m238 -7 c-10 -2 -26 -2
-35 0 -10 3 -2 5 17 5 19 0 27 -2 18 -5z m1472 -6 c-55 -28 -118 -46 -185 -53
-79 -7 -84 -1 -10 14 28 6 82 19 120 30 83 24 110 27 75 9z m-3800 -2 c0 -1
-8 -10 -19 -19 -17 -16 -19 -16 -23 1 -4 13 1 18 19 19 12 1 23 1 23 -1z
m1734 -9 c-21 -15 -30 -14 -19 3 3 6 14 11 23 11 13 0 13 -2 -4 -14z m726 4
c0 -5 -4 -10 -10 -10 -5 0 -10 5 -10 10 0 6 5 10 10 10 6 0 10 -4 10 -10z
m210 6 c0 -3 -4 -8 -10 -11 -5 -3 -10 -1 -10 4 0 6 5 11 10 11 6 0 10 -2 10
-4z m-3611 -20 c-12 -10 -49 -16 -49 -7 0 5 10 11 23 13 22 4 34 1 26 -6z m47
-21 c-16 -16 -36 -20 -36 -7 0 14 12 22 32 22 17 0 18 -2 4 -15z m-545 -16
c21 -7 40 -17 43 -24 3 -9 -16 -7 -67 6 -95 25 -99 27 -53 28 21 1 56 -4 77
-10z m379 -13 c0 -2 -7 -7 -16 -10 -8 -3 -12 -2 -9 4 6 10 25 14 25 6z m90 -7
c0 -5 -17 -9 -37 -8 -27 0 -32 3 -20 8 28 11 57 11 57 0z m-281 -15 c2 -2 -14
-4 -37 -4 -22 0 -43 4 -46 9 -6 8 73 3 83 -5z m4656 -4 c-3 -5 -12 -7 -20 -3
-21 7 -19 13 6 13 11 0 18 -4 14 -10z m-135 -12 c0 -10 -18 -9 -45 2 -16 6
-14 8 13 7 17 0 32 -4 32 -9z m-3920 -3 c0 -3 -15 -11 -32 -19 -18 -7 -42 -23
-54 -34 -11 -11 -31 -23 -45 -26 -18 -6 -20 -5 -9 3 22 15 5 24 -20 11 -17 -9
-19 -14 -9 -26 9 -11 8 -14 -4 -14 -9 0 -21 9 -27 20 -6 11 -17 20 -25 20 -8
0 -15 5 -15 10 0 12 27 13 34 1 3 -5 16 -7 28 -3 21 5 21 6 2 14 -19 7 -19 8
1 6 11 -1 31 3 45 9 45 19 130 38 130 28z m3844 -5 c35 -13 34 -32 -1 -24 -34
9 -63 34 -39 34 8 0 26 -4 40 -10z m-34 -26 c24 -15 23 -15 -23 -11 -27 3 -54
10 -60 16 -17 17 53 13 83 -5z m-66 -13 c15 -6 16 -10 7 -15 -7 -5 -17 -4 -23
2 -6 6 -16 8 -23 6 -7 -3 -16 -1 -20 5 -7 13 30 14 59 2z m-259 -7 c-59 -11
-211 -21 -224 -15 -9 3 18 9 59 12 84 6 196 8 165 3z m-342 -21 c-7 -2 -19 -2
-25 0 -7 3 -2 5 12 5 14 0 19 -2 13 -5z m-3453 -18 c0 -8 -2 -15 -4 -15 -2 0
-6 7 -10 15 -3 8 -1 15 4 15 6 0 10 -7 10 -15z m27 -7 c-3 -8 -6 -5 -6 6 -1
11 2 17 5 13 3 -3 4 -12 1 -19z m-63 -4 c9 -23 4 -24 -16 -2 -14 14 -15 18 -4
18 8 0 17 -7 20 -16z m141 -8 c12 -12 10 -16 -16 -26 -22 -9 -33 -10 -41 -2
-8 8 -4 10 13 6 13 -2 18 -2 12 2 -18 8 -16 34 3 34 8 0 22 -6 29 -14z m1835
4 c19 -12 -82 -12 -120 0 -18 6 -8 8 40 9 36 0 72 -4 80 -9z m198 -7 c-32 -2
-86 -2 -120 0 -35 2 -9 3 57 3 66 0 94 -1 63 -3z m170 -10 c-10 -2 -26 -2 -35
0 -10 3 -2 5 17 5 19 0 27 -2 18 -5z m-2521 -19 c-3 -3 -12 -4 -19 -1 -8 3 -5
6 6 6 11 1 17 -2 13 -5z m230 0 c-3 -3 -12 -4 -19 -1 -8 3 -5 6 6 6 11 1 17
-2 13 -5z m1876 -1 c-7 -2 -21 -2 -30 0 -10 3 -4 5 12 5 17 0 24 -2 18 -5z"/>
<path d="M5323 4085 c-9 -25 4 -29 17 -6 7 15 7 21 0 21 -6 0 -13 -7 -17 -15z"/>
<path d="M5280 4010 c0 -5 6 -10 14 -10 8 0 18 5 21 10 3 6 -3 10 -14 10 -12
0 -21 -4 -21 -10z"/>
<path d="M5770 3944 c-23 -12 -23 -14 -4 -14 11 0 29 7 40 15 25 19 -1 19 -36
-1z"/>
<path d="M5786 3853 c-3 -3 -3 -10 0 -14 7 -12 34 -11 34 0 0 11 -26 22 -34
14z"/>
<path d="M5991 3791 c-21 -13 3 -41 29 -34 24 6 26 28 4 37 -19 7 -16 8 -33
-3z"/>
<path d="M6405 3759 c-11 -16 1 -22 30 -15 14 4 23 11 20 16 -8 13 -42 13 -50
-1z"/>
<path d="M3645 3720 c3 -5 8 -10 11 -10 2 0 4 5 4 10 0 6 -5 10 -11 10 -5 0
-7 -4 -4 -10z"/>
<path d="M3635 3600 c4 -6 11 -8 16 -5 14 9 11 15 -7 15 -8 0 -12 -5 -9 -10z"/>
<path d="M4780 3561 c-22 -6 -23 -8 -7 -14 24 -9 24 -9 31 8 3 8 4 15 3 14 -1
-1 -13 -4 -27 -8z"/>
<path d="M4840 3550 c0 -5 5 -10 11 -10 5 0 7 5 4 10 -3 6 -8 10 -11 10 -2 0
-4 -4 -4 -10z"/>
<path d="M3463 3509 c-7 -9 -9 -20 -3 -29 12 -19 22 -7 18 21 -2 19 -5 20 -15
8z"/>
<path d="M3660 3370 c0 -5 5 -10 10 -10 6 0 10 5 10 10 0 6 -4 10 -10 10 -5 0
-10 -4 -10 -10z"/>
<path d="M4675 3300 c-3 -5 -1 -10 4 -10 6 0 11 5 11 10 0 6 -2 10 -4 10 -3 0
-8 -4 -11 -10z"/>
<path d="M8115 3070 c3 -5 8 -10 11 -10 2 0 4 5 4 10 0 6 -5 10 -11 10 -5 0
-7 -4 -4 -10z"/>
<path d="M6090 2862 c0 -18 33 -23 49 -7 9 9 11 15 4 15 -6 0 -13 -6 -16 -12
-3 -10 -7 -10 -20 1 -10 7 -17 9 -17 3z"/>
<path d="M6320 2871 c0 -13 26 -32 33 -24 8 7 -11 33 -24 33 -5 0 -9 -4 -9 -9z"/>
<path d="M6376 2845 c4 -8 8 -15 10 -15 2 0 4 7 4 15 0 8 -4 15 -10 15 -5 0
-7 -7 -4 -15z"/>
<path d="M6337 2775 c-4 -8 -2 -17 2 -20 5 -2 11 4 14 15 6 23 -8 27 -16 5z"/>
<path d="M6300 2760 c-9 -6 -10 -10 -3 -10 6 0 15 5 18 10 8 12 4 12 -15 0z"/>
<path d="M8414 2711 c4 -5 2 -12 -4 -16 -19 -12 -10 -22 15 -17 31 5 32 13 4
30 -12 8 -18 9 -15 3z"/>
<path d="M8413 2648 c-4 -7 -8 -28 -9 -45 -1 -32 0 -33 42 -33 l44 0 -6 33
c-9 53 -12 57 -38 57 -14 0 -28 -6 -33 -12z"/>
<path d="M8247 2627 c-11 -28 5 -65 30 -72 39 -9 50 9 30 50 -17 36 -50 48
-60 22z"/>
<path d="M8230 2550 c0 -6 7 -10 15 -10 8 0 15 2 15 4 0 2 -7 6 -15 10 -8 3
-15 1 -15 -4z"/>
<path d="M8338 2553 c7 -3 16 -2 19 1 4 3 -2 6 -13 5 -11 0 -14 -3 -6 -6z"/>
<path d="M8583 2410 c-1 -11 2 -20 8 -20 5 0 9 9 9 20 0 11 -4 20 -8 20 -4 0
-8 -9 -9 -20z"/>
<path d="M8280 2350 c0 -5 5 -10 10 -10 6 0 10 5 10 10 0 6 -4 10 -10 10 -5 0
-10 -4 -10 -10z"/>
<path d="M8450 2350 c0 -5 5 -10 10 -10 6 0 10 5 10 10 0 6 -4 10 -10 10 -5 0
-10 -4 -10 -10z"/>
<path d="M8550 2351 c0 -5 5 -13 10 -16 6 -3 10 -2 10 4 0 5 -4 13 -10 16 -5
3 -10 2 -10 -4z"/>
<path d="M8620 2350 c0 -5 5 -10 10 -10 6 0 10 5 10 10 0 6 -4 10 -10 10 -5 0
-10 -4 -10 -10z"/>
<path d="M8370 2319 c0 -5 5 -7 10 -4 6 3 10 8 10 11 0 2 -4 4 -10 4 -5 0 -10
-5 -10 -11z"/>
<path d="M8525 2310 c3 -5 8 -10 11 -10 2 0 4 5 4 10 0 6 -5 10 -11 10 -5 0
-7 -4 -4 -10z"/>
<path d="M8570 2310 c0 -5 5 -10 10 -10 6 0 10 5 10 10 0 6 -4 10 -10 10 -5 0
-10 -4 -10 -10z"/>
<path d="M8620 2305 c0 -8 5 -15 10 -15 6 0 10 7 10 15 0 8 -4 15 -10 15 -5 0
-10 -7 -10 -15z"/>
<path d="M8600 2020 c0 -7 18 -9 47 -5 65 8 67 15 5 15 -29 0 -52 -5 -52 -10z"/>
<path d="M8508 1993 c7 -3 16 -2 19 1 4 3 -2 6 -13 5 -11 0 -14 -3 -6 -6z"/>
<path d="M8255 1970 c3 -5 8 -10 11 -10 2 0 4 5 4 10 0 6 -5 10 -11 10 -5 0
-7 -4 -4 -10z"/>
<path d="M8510 1960 c0 -5 4 -10 9 -10 5 0 18 -3 28 -6 16 -6 16 -5 -2 9 -23
19 -35 21 -35 7z"/>
<path d="M8135 1999 c-4 -6 -5 -12 -2 -15 2 -3 7 2 10 11 7 17 1 20 -8 4z"/>
<path d="M8145 1890 c3 -5 8 -10 11 -10 2 0 4 5 4 10 0 6 -5 10 -11 10 -5 0
-7 -4 -4 -10z"/>
<path d="M4354 1631 c3 -5 15 -7 26 -4 28 7 25 13 -6 13 -14 0 -23 -4 -20 -9z"/>
<path d="M5736 1482 c-2 -4 4 -8 15 -8 10 0 19 4 19 8 0 4 -6 8 -14 8 -8 0
-17 -4 -20 -8z"/>
<path d="M6810 1240 c0 -5 5 -10 10 -10 6 0 10 5 10 10 0 6 -4 10 -10 10 -5 0
-10 -4 -10 -10z"/>
<path d="M5510 1280 c0 -5 4 -10 9 -10 6 0 13 5 16 10 3 6 -1 10 -9 10 -9 0
-16 -4 -16 -10z"/>
<path d="M9270 4350 c-11 -7 -12 -12 -4 -20 16 -16 59 -8 59 10 0 18 -34 24
-55 10z"/>
<path d="M7760 4341 c0 -5 -10 -12 -22 -14 -20 -4 -19 -4 5 -6 18 -1 27 4 27
14 0 8 -2 15 -5 15 -3 0 -5 -4 -5 -9z"/>
<path d="M9354 4333 c3 -21 19 -27 51 -19 41 10 31 36 -14 36 -31 0 -39 -3
-37 -17z"/>
<path d="M7754 4299 c-9 -15 12 -33 30 -26 9 4 16 13 16 22 0 17 -35 21 -46 4z"/>
<path d="M9317 4268 c2 -5 11 -8 19 -8 8 0 14 -7 14 -15 0 -25 -4 -30 -23 -28
-10 2 -15 -2 -12 -7 8 -13 45 -13 45 0 0 6 7 10 15 10 17 0 19 -9 5 -30 -6
-11 -27 -15 -69 -15 -33 0 -63 -4 -67 -8 -4 -4 0 -7 8 -7 9 0 21 -7 28 -15 7
-8 20 -15 29 -15 18 0 51 -33 52 -53 0 -6 11 26 25 73 14 47 29 89 35 95 5 5
9 16 8 25 0 9 -4 5 -10 -9 -6 -15 -14 -21 -25 -17 -9 3 -20 6 -25 6 -4 0 -6 6
-3 14 4 9 -3 13 -24 12 -17 -1 -28 -4 -25 -8z"/>
<path d="M7820 4250 c-13 -8 -12 -10 3 -10 9 0 17 5 17 10 0 12 -1 12 -20 0z"/>
<path d="M9275 4250 c3 -5 14 -10 23 -10 15 0 15 2 2 10 -20 13 -33 13 -25 0z"/>
<path d="M7775 4220 c-11 -5 -33 -9 -48 -9 -33 -1 -29 -11 15 -43 17 -12 28
-17 24 -10 -5 8 1 12 18 12 22 0 26 4 26 30 0 32 -3 34 -35 20z"/>
<path d="M3587 4213 c-10 -3 -17 -12 -15 -21 7 -34 88 -26 88 8 0 20 -27 25
-73 13z"/>
<path d="M8745 4210 c-3 -5 -2 -10 4 -10 5 0 13 5 16 10 3 6 2 10 -4 10 -5 0
-13 -4 -16 -10z"/>
<path d="M8822 4205 c-7 -8 -22 -15 -33 -15 -27 0 -19 -24 9 -28 15 -2 22 2
22 12 0 9 5 16 10 16 14 0 13 -13 -2 -28 -17 -17 -3 -26 21 -13 19 11 20 10 7
-26 -9 -27 -20 -39 -42 -45 -32 -8 -64 -2 -64 13 0 5 -4 9 -10 9 -18 0 -11
-26 13 -47 12 -11 39 -23 61 -26 32 -5 39 -3 43 13 8 31 21 24 25 -12 l3 -33
14 24 c12 22 11 26 -10 42 -20 15 -22 20 -11 44 19 42 15 86 -8 92 -11 3 -20
9 -20 14 0 13 -13 10 -28 -6z"/>
<path d="M8712 4173 c-4 -10 -5 -36 -1 -58 6 -36 6 -37 8 -9 1 23 7 33 22 37
18 5 19 8 7 26 -16 26 -25 26 -36 4z"/>
<path d="M8257 4167 c-17 -12 -17 -14 -3 -26 22 -19 61 -10 61 14 0 24 -33 31
-58 12z"/>
<path d="M8790 4120 c19 -13 30 -13 30 0 0 6 -10 10 -22 10 -19 0 -20 -2 -8
-10z"/>
<path d="M9192 4078 c6 -18 25 -21 25 -3 0 8 -7 15 -14 15 -8 0 -13 -5 -11
-12z"/>
<path d="M8706 4057 c3 -10 9 -15 12 -12 3 3 0 11 -7 18 -10 9 -11 8 -5 -6z"/>
<path d="M9367 4056 c-12 -9 -14 -16 -7 -21 12 -7 40 11 40 26 0 13 -12 11
-33 -5z"/>
<path d="M9278 4048 c6 -6 18 -8 28 -6 14 3 12 5 -9 10 -19 3 -25 2 -19 -4z"/>
<path d="M9265 4019 c28 -11 75 -11 75 0 0 5 -21 9 -47 8 -33 0 -41 -3 -28 -8z"/>
<path d="M7920 3971 c0 -6 5 -13 10 -16 6 -3 10 1 10 9 0 9 -4 16 -10 16 -5 0
-10 -4 -10 -9z"/>
<path d="M7575 3950 c-3 -5 -1 -10 4 -10 6 0 11 5 11 10 0 6 -2 10 -4 10 -3 0
-8 -4 -11 -10z"/>
<path d="M7860 3918 c-28 -43 -29 -56 -7 -97 18 -32 20 -44 11 -68 -6 -15 -16
-27 -22 -26 -6 2 -9 -4 -6 -12 8 -20 12 -19 35 8 29 35 20 98 -17 120 -20 12
-17 22 17 62 19 21 26 35 17 35 -7 0 -20 -10 -28 -22z"/>
<path d="M7413 3912 c-24 -9 -43 -19 -43 -22 0 -3 17 -6 38 -6 30 -1 40 3 49
22 13 27 13 27 -44 6z"/>
<path d="M9140 3866 c0 -2 6 -31 14 -63 13 -52 24 -138 25 -200 1 -21 6 -23
48 -23 48 0 50 15 3 22 -21 2 -26 9 -28 41 -2 20 1 37 7 37 6 0 19 20 29 44
23 50 19 96 -8 96 -18 0 -38 18 -39 35 0 10 -51 21 -51 11z"/>
<path d="M9691 3854 c0 -11 3 -14 6 -6 3 7 2 16 -1 19 -3 4 -6 -2 -5 -13z"/>
<path d="M7750 3835 c0 -8 -8 -15 -17 -15 -15 0 -16 -2 -3 -9 8 -6 17 -8 21
-5 11 6 18 44 8 44 -5 0 -9 -7 -9 -15z"/>
<path d="M6825 3768 c-70 -55 -103 -126 -74 -155 8 -8 8 -17 1 -30 -23 -42
-11 -82 40 -136 26 -28 48 -55 48 -59 0 -5 18 -15 40 -24 29 -12 38 -20 31
-28 -17 -20 23 -48 51 -36 18 7 19 9 6 9 -20 1 -24 16 -8 26 6 4 8 11 5 16 -4
5 -1 9 6 9 17 0 64 -53 50 -58 -6 -2 -11 -8 -11 -14 0 -6 7 -7 16 -4 8 3 12 2
9 -3 -3 -5 -1 -12 4 -15 11 -7 33 18 29 32 -2 6 6 18 17 27 19 15 19 16 -12
10 -34 -7 -48 10 -15 18 14 4 14 5 -3 6 -27 2 -107 30 -122 43 -19 15 -17 19
27 68 22 25 40 50 40 56 0 6 7 17 15 24 11 9 15 33 15 86 0 71 -1 74 -38 114
-24 25 -48 40 -63 40 -13 0 -33 3 -44 5 -13 3 -34 -6 -60 -27z m112 -78 c3
-11 9 -20 14 -20 6 0 13 -10 18 -22 13 -34 -14 -46 -43 -19 -24 22 -46 28 -46
11 0 -20 -19 -9 -22 13 -2 15 5 28 22 39 33 23 51 23 57 -2z m-93 -59 c9 -16
12 -31 9 -35 -7 -6 27 -10 65 -7 17 1 22 -3 22 -24 0 -18 -5 -25 -20 -25 -21
0 -25 -13 -21 -62 2 -25 -1 -28 -27 -28 -16 0 -35 7 -42 15 -7 8 -19 15 -26
15 -8 0 -14 7 -14 16 0 8 -4 13 -9 10 -5 -3 -12 11 -16 31 -5 28 -3 38 9 45 9
5 16 16 16 25 0 14 27 53 36 53 2 0 10 -13 18 -29z"/>
<path d="M6835 3546 c-18 -13 -18 -14 3 -25 30 -16 37 -14 38 14 2 28 -13 32
-41 11z"/>
<path d="M6805 3510 c-3 -5 1 -10 9 -10 9 0 16 5 16 10 0 6 -4 10 -9 10 -6 0
-13 -4 -16 -10z"/>
<path d="M8605 3740 c-11 -13 -14 -20 -6 -20 18 0 51 19 51 30 0 17 -26 11
-45 -10z"/>
<path d="M8510 3520 c-8 -5 -11 -12 -7 -16 4 -4 13 -2 19 4 15 15 7 24 -12 12z"/>
<path d="M6580 3100 c0 -5 9 -10 20 -10 11 0 20 5 20 10 0 6 -9 10 -20 10 -11
0 -20 -4 -20 -10z"/>
<path d="M6745 3093 c-53 -6 -82 -35 -69 -72 6 -15 17 -26 27 -25 9 0 77 2
150 4 l132 4 -140 6 c-83 3 -140 9 -140 15 0 6 54 12 130 15 121 6 124 6 45 9
-47 2 -107 3 -134 1 -37 -1 -47 1 -44 11 4 11 36 14 141 14 76 0 137 3 137 8
0 4 -38 7 -84 7 -46 0 -90 1 -98 3 -7 2 -31 2 -53 0z"/>
<path d="M7000 3091 c0 -8 79 -3 89 5 2 2 -17 4 -42 4 -26 0 -47 -4 -47 -9z"/>
<path d="M6746 2961 c-5 -8 124 -3 133 5 2 2 -25 4 -62 4 -36 0 -68 -4 -71 -9z"/>
<path d="M7455 2960 c3 -5 11 -10 16 -10 6 0 7 5 4 10 -3 6 -11 10 -16 10 -6
0 -7 -4 -4 -10z"/>
</g>
</svg>
