<?xml version="1.0" encoding="UTF-8" standalone="no"?>
<svg
   xmlns:dc="http://purl.org/dc/elements/1.1/"
   xmlns:cc="http://creativecommons.org/ns#"
   xmlns:rdf="http://www.w3.org/1999/02/22-rdf-syntax-ns#"
   xmlns:svg="http://www.w3.org/2000/svg"
   xmlns="http://www.w3.org/2000/svg"
   viewBox="0 0 1122.52 793.70135"
   height="793.70135"
   width="1122.52"
   xml:space="preserve"
   id="svg2"
   version="1.1"><metadata
     id="metadata8"><rdf:RDF><cc:Work
         rdf:about=""><dc:format>image/svg+xml</dc:format><dc:type
           rdf:resource="http://purl.org/dc/dcmitype/StillImage" /></cc:Work></rdf:RDF></metadata><defs
     id="defs6"><clipPath
       id="clipPath18"
       clipPathUnits="userSpaceOnUse"><path
         id="path16"
         d="M 0,595.276 H 841.89 V 0 H 0 Z" /></clipPath></defs><g
     transform="matrix(1.3333333,0,0,-1.3333333,0,793.70133)"
     id="g10"><g
       id="g12"><g
         clip-path="url(#clipPath18)"
         id="g14"><g
           transform="translate(814.1299,266.9576)"
           id="g20"><path
             id="path22"
             style="fill:#adc646;fill-opacity:1;fill-rule:nonzero;stroke:none"
             d="m 0,0 c 0,0 -90.388,15.642 -138.412,48.555 -47.999,33.609 -130.341,58.69 -172.214,27.117 -7.804,-7.38 -11.784,-9.955 -25.101,-3.994 -29.113,16.37 -37.079,-1.206 -82.64,43.506 -3.74,3.33 -7.976,4.414 -12.493,4.227 -0.804,9.411 -8.23,14.504 -20.604,11.633 -9.229,3.509 -18.392,3.126 -27.5,-0.461 -6.574,0.104 -12.352,-2.334 -17.172,-7.831 -4.846,-4.788 -11.387,-6.909 -18.953,-7.417 -17.297,1.465 -32.3,-1.312 -41.455,-14.893 -6.155,-10.219 -34.882,-18.095 -44.358,-28.419 -21.068,-0.353 -33.394,1.523 -41.035,-13.483 -6.53,-7.43 -32.66,-11.221 -38.905,-10.092 -19.608,2.406 -63.334,-32.671 -106.23,-56.828 l 2.06,-3.543 c 276.322,2.928 758.843,2.877 776.62,9.471 z" /></g><g
           transform="translate(350.0962,266.7076)"
           id="g24"><path
             id="path26"
             style="fill:#065793;fill-opacity:1;fill-rule:nonzero;stroke:none"
             d="m 0,0 c 0.792,0 1.907,0.863 3.346,2.59 1.44,1.727 2.987,4.102 4.642,7.125 1.655,3.022 3.328,6.602 5.019,10.74 1.691,4.138 3.221,8.6 4.588,13.385 1.367,4.785 2.483,9.787 3.346,15.004 0.864,5.218 1.295,9.553 1.295,13.008 0,3.454 -0.018,5.99 -0.053,7.609 -0.037,1.62 -0.109,3.059 -0.217,4.318 -0.108,1.26 -0.287,2.267 -0.539,3.023 -0.252,0.755 -0.594,1.133 -1.026,1.133 -0.719,0 -1.511,-0.324 -2.375,-0.972 C 17.163,76.316 16.264,75.435 15.328,74.319 14.393,73.204 13.439,71.944 12.467,70.541 7.524,65.461 0.684,42.565 -0.54,39.399 -1.763,36.233 -2.771,32.707 -3.562,28.82 -4.354,24.935 -4.768,21.57 -4.804,18.728 -4.839,15.886 -4.786,13.564 -4.642,11.766 -4.498,9.967 -4.246,8.203 -3.886,6.477 -3.526,4.749 -3.041,3.238 -2.429,1.942 -1.817,0.647 -1.007,0 0,0 m 22.021,83.98 c 2.806,0 5.163,-0.738 7.07,-2.213 1.907,-1.475 3.436,-3.346 4.587,-5.613 1.152,-2.267 1.979,-4.785 2.483,-7.556 0.504,-2.771 0.756,-5.235 0.756,-7.394 0,-2.159 -0.216,-5.236 -0.648,-9.229 C 35.837,47.98 35.082,43.483 34.002,38.481 32.923,33.48 31.465,28.299 29.63,22.937 27.795,17.576 25.475,12.683 22.668,8.257 19.862,3.832 16.498,0.197 12.575,-2.646 8.653,-5.487 4.102,-6.909 -1.08,-6.909 c -4.461,0 -7.987,1.277 -10.578,3.832 -2.591,2.555 -4.425,5.901 -5.505,10.039 -1.08,4.138 -1.475,8.798 -1.188,13.978 0.289,5.182 1.098,10.399 2.429,15.653 1.332,5.253 3.077,10.29 5.235,15.112 2.159,4.821 4.57,8.959 7.233,12.413 -2.64,2.679 6.099,13.134 10.902,15.76 2.303,1.224 4.696,2.213 7.178,2.969 2.483,0.755 4.948,1.133 7.395,1.133" /></g><g
           transform="translate(634.1094,389.8405)"
           id="g28"><path
             id="path30"
             style="fill:#01437f;fill-opacity:1;fill-rule:nonzero;stroke:none"
             d="M 0,0 V 0.02 57.746 H -12.04 V 0.02 h -79.177 v -7.867 c 60.968,1.493 64.543,-4.561 78.649,-19.692 0.175,-0.372 0.565,-1.27 0.528,-2.148 v -96.826 H 0 l 0.003,96.806 c -0.038,0.878 0.351,1.776 0.527,2.149 12.153,13.727 17.525,21.801 78.649,19.691 l 0,7.867 z" /></g><g
           transform="translate(507.376,268.483)"
           id="g32"><path
             id="path34"
             style="fill:#065793;fill-opacity:1;fill-rule:nonzero;stroke:none"
             d="m 0,0 c 2.087,0 4.065,1.529 5.937,4.588 1.871,3.058 3.669,6.944 5.397,11.658 1.728,4.714 3.382,9.895 5.001,15.544 1.619,5.649 3.022,10.345 4.174,14.086 1.151,3.743 2.052,6.639 2.735,8.69 0.684,2.051 1.367,4.012 2.015,5.883 -0.432,0 8.899,20.499 -4.318,17.487 -2.015,-0.72 -2.015,-0.72 -3.634,-2.159 -1.619,-1.439 -3.382,-3.49 -5.326,-6.153 C 10.039,66.961 8.06,63.759 6.045,60.017 4.03,56.275 2.194,52.047 0.54,47.334 -1.115,42.62 -2.482,37.511 -3.526,32.006 -4.569,26.501 -5.073,20.689 -5.073,14.573 -5.073,9.823 -4.534,6.207 -3.454,3.725 -2.375,1.242 -1.224,0 0,0 m 45.12,77.504 c 0.576,-0.576 1.115,-1.277 1.655,-2.105 0.54,-0.827 0.577,-1.745 0.073,-2.753 C 43.105,64.875 40.011,57.732 37.601,51.22 35.189,44.707 33.282,38.752 31.879,33.355 30.476,27.958 29.505,23.154 28.929,18.944 28.354,14.734 27.993,11.083 27.85,7.988 c 0,-1.295 0.143,-2.23 0.431,-2.806 0.288,-0.576 0.648,-0.99 1.079,-1.242 0.432,-0.252 0.865,-0.395 1.332,-0.431 0.468,-0.036 0.9,-0.18 1.259,-0.432 C 32.312,2.825 32.527,2.394 32.599,1.781 32.671,1.17 32.563,0.307 32.312,-0.81 32.06,-1.925 31.447,-2.771 30.476,-3.346 29.505,-3.922 28.461,-4.407 27.31,-4.803 c -1.152,-0.396 -2.591,-0.738 -4.318,-1.025 -1.727,-0.288 -3.346,-0.397 -4.821,-0.324 -1.476,0.072 -2.375,0.521 -2.735,1.349 -0.36,0.827 -0.576,1.475 -0.648,1.943 -0.072,0.467 -0.143,0.954 -0.18,1.458 -0.036,0.503 -0.036,1.096 -0.036,1.78 0,0.684 -0.216,0.828 -0.647,0.432 C 13.493,0.414 12.737,-0.251 11.693,-1.187 10.65,-2.122 8.888,-3.256 6.368,-4.587 3.85,-5.919 0.972,-6.584 -2.267,-6.584 c -2.59,0 -4.822,0.504 -6.692,1.511 -1.871,1.008 -3.455,2.302 -4.75,3.886 -1.295,1.583 -2.339,3.365 -3.131,5.343 -0.791,1.98 -1.402,3.922 -1.799,5.829 -0.395,1.908 -0.647,3.689 -0.791,5.343 -0.144,1.655 -0.216,3.275 -0.216,4.858 0,1.584 0.18,4.408 0.576,8.474 0.395,4.066 1.151,8.509 2.266,13.331 1.116,4.821 2.663,9.751 4.606,14.788 1.943,5.037 4.462,9.589 7.556,13.655 3.095,4.066 6.836,7.412 11.262,10.039 4.426,2.626 9.68,3.94 15.725,3.94 2.805,0 4.965,-0.612 6.511,-1.835 1.548,-1.224 2.736,-2.699 3.527,-4.426 1.008,1.799 1.799,2.95 2.375,3.454 0.576,0.504 2.014,0.36 4.317,-0.432 2.303,-0.791 4.319,-2.015 6.045,-3.67" /></g><g
           transform="translate(757.7549,275.8795)"
           id="g36"><path
             id="path38"
             style="fill:#065793;fill-opacity:1;fill-rule:nonzero;stroke:none"
             d="M 0,0 C 0.069,-1.398 0.35,-2.203 0.839,-2.413 1.329,-2.623 1.818,-2.78 2.309,-2.886 2.798,-2.99 3.235,-3.2 3.62,-3.515 4.005,-3.83 4.162,-4.739 4.092,-6.243 4.022,-7.747 3.515,-8.989 2.57,-9.969 c -0.944,-0.979 -1.993,-1.678 -3.147,-2.098 -1.154,-0.42 -2.152,-0.664 -2.991,-0.735 -0.839,-0.07 -1.609,-0.122 -2.309,-0.157 -0.699,-0.035 -1.573,0 -2.623,0.105 -1.049,0.105 -2.203,0.804 -3.463,2.098 -1.259,1.295 -2.185,2.764 -2.78,4.407 -0.595,1.645 -0.928,3.236 -0.997,4.775 -0.071,1.539 -0.035,4.006 0.104,7.398 0.141,3.393 0.63,8.028 1.47,13.904 0.839,5.876 1.749,11.403 2.728,16.58 0.979,5.176 1.923,9.916 2.834,14.218 0.909,4.303 1.625,8.01 2.15,11.123 0.525,3.113 0.735,5.527 0.63,7.241 -0.105,1.714 -0.717,2.57 -1.836,2.57 -1.749,0 -3.411,-0.787 -4.985,-2.36 -1.574,-1.575 -3.095,-3.638 -4.565,-6.192 -1.469,-2.553 -2.833,-5.404 -4.092,-8.552 -1.26,-3.148 -2.414,-6.314 -3.463,-9.496 -1.049,-3.183 -1.959,-6.209 -2.728,-9.077 -0.77,-2.868 -1.347,-5.09 -1.732,-6.663 -0.384,-1.575 -0.681,-2.816 -0.891,-3.725 -0.21,-0.91 -0.473,-2.222 -0.787,-3.936 -0.315,-1.714 -0.648,-3.673 -0.997,-5.876 -0.35,-2.204 -0.717,-4.495 -1.102,-6.873 -0.385,-2.379 -0.734,-4.582 -1.05,-6.611 -0.314,-2.029 -0.577,-3.795 -0.787,-5.299 -0.21,-1.504 -0.367,-2.554 -0.472,-3.149 -0.105,-0.594 -0.367,-1.048 -0.787,-1.364 -0.42,-0.314 -0.926,-0.559 -1.521,-0.734 -0.595,-0.175 -1.26,-0.228 -1.994,-0.157 -0.735,0.07 -1.574,0.157 -2.519,0.262 -0.944,0.105 -1.892,0.352 -2.886,0.42 -0.84,0.057 -3.486,0.624 -3.85,0.934 0,0 -2.569,0.321 0.703,12.13 2.028,9.094 4.058,17.891 6.086,26.391 2.029,8.5 3.673,15.373 4.932,20.62 1.259,5.246 1.994,8.744 2.204,10.493 0.21,1.749 0.297,3.585 0.262,5.509 -0.035,1.924 0.122,3.708 0.472,5.352 0.35,1.644 0.857,2.85 1.521,3.62 0.666,0.769 1.347,1.259 2.047,1.469 0.7,0.21 1.469,0.28 2.308,0.21 1.26,-0.21 2.624,-0.595 4.093,-1.154 1.469,-0.56 2.64,-1.172 3.515,-1.837 0.874,-0.664 1.452,-1.381 1.732,-2.151 0.279,-0.769 0.245,-1.853 -0.106,-3.253 -0.349,-1.399 -0.506,-2.186 -0.471,-2.361 0.035,-0.175 0.104,-0.227 0.21,-0.157 0.104,0.07 0.559,0.717 1.364,1.941 0.804,1.224 1.766,2.396 2.886,3.516 1.119,1.119 2.185,1.976 3.2,2.57 1.014,0.595 1.941,0.98 2.78,1.155 0.84,0.175 1.574,0.262 2.204,0.262 4.757,0 8.22,-0.909 10.389,-2.729 C 5.631,72.79 6.978,70.219 7.503,66.896 8.027,63.573 7.922,59.568 7.187,54.881 6.453,50.194 5.544,44.965 4.46,39.193 3.375,33.422 2.344,27.178 1.364,20.462 0.385,13.747 -0.07,6.926 0,0" /></g><g
           transform="translate(664.2266,268.5377)"
           id="g40"><path
             id="path42"
             style="fill:#065793;fill-opacity:1;fill-rule:nonzero;stroke:none"
             d="m 0,0 c 2.087,0 4.065,1.529 5.937,4.587 1.871,3.059 3.669,6.945 5.397,11.658 1.727,4.714 3.382,9.896 5.001,15.544 1.619,5.649 3.022,10.345 4.174,14.087 1.151,3.742 2.051,6.639 2.734,8.689 0.684,2.051 1.367,4.012 2.016,5.883 -0.433,0 8.899,20.5 -4.319,17.487 -2.014,-0.719 -2.014,-0.719 -3.633,-2.159 -1.619,-1.439 -3.382,-3.49 -5.326,-6.152 C 10.038,66.961 8.06,63.759 6.044,60.017 4.029,56.274 2.194,52.047 0.539,47.333 -1.116,42.62 -2.483,37.51 -3.526,32.005 -4.57,26.5 -5.074,20.689 -5.074,14.572 c 0,-4.75 0.54,-8.366 1.619,-10.848 C -2.375,1.241 -1.224,0 0,0 m 45.12,77.503 c 0.575,-0.575 1.115,-1.277 1.655,-2.105 0.54,-0.827 0.576,-1.745 0.073,-2.752 C 43.105,64.874 40.011,57.732 37.6,51.219 35.189,44.707 33.282,38.751 31.879,33.354 c -1.403,-5.397 -2.375,-10.201 -2.95,-14.41 -0.576,-4.21 -0.936,-7.862 -1.08,-10.957 0,-1.295 0.144,-2.23 0.432,-2.806 0.287,-0.576 0.648,-0.99 1.079,-1.242 0.432,-0.251 0.864,-0.395 1.331,-0.431 0.468,-0.036 0.9,-0.18 1.26,-0.432 0.36,-0.252 0.575,-0.683 0.648,-1.295 0.072,-0.612 -0.036,-1.475 -0.288,-2.591 -0.252,-1.115 -0.864,-1.961 -1.835,-2.537 -0.972,-0.575 -2.015,-1.061 -3.166,-1.457 -1.152,-0.395 -2.591,-0.737 -4.319,-1.025 -1.726,-0.288 -3.345,-0.396 -4.821,-0.324 -1.475,0.072 -2.375,0.522 -2.734,1.349 -0.36,0.827 -0.577,1.476 -0.648,1.944 -0.072,0.467 -0.144,0.953 -0.18,1.457 -0.036,0.504 -0.036,1.097 -0.036,1.781 0,0.684 -0.216,0.827 -0.647,0.432 C 13.492,0.413 12.737,-0.252 11.693,-1.187 10.65,-2.123 8.887,-3.257 6.368,-4.588 3.85,-5.919 0.971,-6.585 -2.268,-6.585 c -2.589,0 -4.821,0.504 -6.692,1.512 -1.871,1.007 -3.454,2.302 -4.749,3.886 -1.296,1.583 -2.339,3.364 -3.131,5.342 -0.791,1.98 -1.403,3.922 -1.799,5.829 -0.395,1.908 -0.647,3.689 -0.792,5.344 -0.143,1.655 -0.215,3.275 -0.215,4.858 0,1.583 0.179,4.407 0.576,8.473 0.395,4.066 1.151,8.509 2.266,13.331 1.116,4.822 2.663,9.751 4.606,14.788 1.943,5.037 4.462,9.589 7.556,13.655 3.094,4.066 6.836,7.412 11.262,10.039 4.426,2.627 9.679,3.94 15.724,3.94 2.806,0 4.966,-0.612 6.512,-1.835 1.547,-1.223 2.735,-2.699 3.527,-4.426 1.008,1.799 1.799,2.951 2.375,3.454 0.575,0.504 2.014,0.36 4.317,-0.432 2.303,-0.791 4.318,-2.014 6.045,-3.67" /></g><g
           transform="translate(785.2314,270.6295)"
           id="g44"><path
             id="path46"
             style="fill:#065793;fill-opacity:1;fill-rule:nonzero;stroke:none"
             d="m 0,0 c 2.087,0 4.065,1.529 5.937,4.588 1.871,3.058 3.669,6.944 5.397,11.658 1.727,4.713 3.382,9.895 5.001,15.544 1.619,5.649 3.022,10.344 4.174,14.086 1.151,3.742 2.051,6.639 2.734,8.69 0.685,2.051 1.368,4.012 2.016,5.883 -0.432,0 8.899,20.499 -4.319,17.487 -2.014,-0.72 -2.014,-0.72 -3.633,-2.159 -1.619,-1.44 -3.382,-3.49 -5.326,-6.153 C 10.038,66.961 8.06,63.759 6.045,60.017 4.029,56.275 2.194,52.047 0.539,47.333 -1.115,42.62 -2.483,37.511 -3.526,32.005 -4.57,26.5 -5.073,20.689 -5.073,14.572 -5.073,9.823 -4.534,6.207 -3.454,3.725 -2.375,1.241 -1.224,0 0,0 m 45.12,77.504 c 0.576,-0.576 1.115,-1.277 1.655,-2.105 0.54,-0.828 0.577,-1.745 0.073,-2.753 C 43.105,64.875 40.011,57.732 37.601,51.22 35.189,44.707 33.282,38.752 31.879,33.355 30.476,27.958 29.504,23.154 28.929,18.944 28.353,14.734 27.993,11.082 27.85,7.988 c 0,-1.296 0.143,-2.231 0.431,-2.806 0.288,-0.577 0.648,-0.99 1.079,-1.242 0.432,-0.252 0.864,-0.396 1.331,-0.431 0.468,-0.036 0.9,-0.181 1.26,-0.433 0.36,-0.251 0.575,-0.683 0.648,-1.295 C 32.671,1.17 32.563,0.306 32.311,-0.81 32.059,-1.925 31.447,-2.771 30.476,-3.346 29.504,-3.922 28.461,-4.407 27.31,-4.804 26.158,-5.199 24.719,-5.541 22.992,-5.829 21.265,-6.116 19.646,-6.225 18.17,-6.152 c -1.475,0.071 -2.374,0.521 -2.734,1.348 -0.36,0.828 -0.576,1.476 -0.648,1.944 -0.072,0.467 -0.143,0.953 -0.18,1.457 -0.036,0.504 -0.036,1.097 -0.036,1.781 0,0.684 -0.216,0.828 -0.647,0.432 C 13.493,0.414 12.737,-0.252 11.693,-1.187 10.65,-2.123 8.887,-3.256 6.368,-4.588 3.85,-5.919 0.972,-6.584 -2.267,-6.584 c -2.59,0 -4.822,0.503 -6.693,1.511 -1.871,1.008 -3.454,2.302 -4.749,3.886 -1.296,1.583 -2.339,3.364 -3.131,5.343 -0.791,1.979 -1.403,3.922 -1.799,5.829 -0.395,1.907 -0.647,3.688 -0.791,5.343 -0.144,1.655 -0.216,3.275 -0.216,4.858 0,1.583 0.18,4.408 0.576,8.473 0.395,4.066 1.151,8.51 2.266,13.331 1.116,4.822 2.663,9.751 4.606,14.789 1.943,5.037 4.462,9.589 7.556,13.655 3.094,4.066 6.836,7.412 11.262,10.038 4.426,2.627 9.679,3.94 15.724,3.94 2.806,0 4.966,-0.611 6.512,-1.835 1.548,-1.223 2.735,-2.699 3.527,-4.426 1.008,1.8 1.799,2.951 2.375,3.455 0.575,0.503 2.014,0.359 4.317,-0.432 2.303,-0.792 4.319,-2.015 6.045,-3.67" /></g><g
           transform="translate(104.6387,264.8199)"
           id="g48"><path
             id="path50"
             style="fill:#065793;fill-opacity:1;fill-rule:nonzero;stroke:none"
             d="m 0,0 c 0.792,0 1.907,0.863 3.346,2.591 1.44,1.726 2.987,4.101 4.642,7.124 1.655,3.022 3.328,6.602 5.019,10.74 1.691,4.139 3.221,8.6 4.588,13.385 1.367,4.786 2.483,9.787 3.346,15.005 0.864,5.217 1.295,9.553 1.295,13.007 0,3.454 -0.018,5.991 -0.053,7.61 -0.037,1.619 -0.109,3.059 -0.217,4.318 -0.108,1.259 -0.287,2.266 -0.539,3.022 -0.252,0.756 -0.594,1.134 -1.026,1.134 -0.719,0 -1.511,-0.324 -2.375,-0.972 C 17.163,76.316 16.264,75.435 15.328,74.319 14.393,73.204 13.439,71.945 12.467,70.542 7.524,65.461 0.684,42.566 -0.54,39.399 -1.763,36.233 -2.771,32.707 -3.562,28.821 -4.354,24.936 -4.768,21.571 -4.804,18.729 -4.839,15.886 -4.786,13.565 -4.642,11.766 -4.498,9.967 -4.246,8.204 -3.886,6.477 -3.526,4.75 -3.041,3.238 -2.429,1.943 -1.817,0.647 -1.007,0 0,0 m 22.021,83.98 c 2.806,0 5.163,-0.737 7.07,-2.212 1.907,-1.476 3.436,-3.347 4.587,-5.614 1.152,-2.266 1.979,-4.785 2.483,-7.555 0.504,-2.771 0.756,-5.236 0.756,-7.395 0,-2.159 -0.216,-5.235 -0.648,-9.229 C 35.837,47.981 35.082,43.483 34.002,38.482 32.923,33.48 31.465,28.3 29.63,22.938 27.795,17.577 25.475,12.684 22.668,8.258 19.862,3.832 16.498,0.198 12.575,-2.645 8.653,-5.487 4.102,-6.908 -1.08,-6.908 c -4.461,0 -7.987,1.277 -10.578,3.832 -2.591,2.555 -4.425,5.9 -5.505,10.039 -1.08,4.138 -1.475,8.797 -1.188,13.978 0.289,5.181 1.098,10.399 2.429,15.652 1.332,5.253 3.077,10.291 5.235,15.112 2.159,4.822 4.57,8.96 7.233,12.414 -2.64,2.679 6.099,13.134 10.902,15.759 2.303,1.224 4.696,2.213 7.178,2.969 2.483,0.756 4.948,1.133 7.395,1.133" /></g><g
           transform="translate(179.4941,343.5114)"
           id="g52"><path
             id="path54"
             style="fill:#065793;fill-opacity:1;fill-rule:nonzero;stroke:none"
             d="m 0,0 c -1.583,0 -3.202,-1.134 -4.857,-3.4 -1.656,-2.267 -3.275,-5.254 -4.858,-8.96 -1.583,-3.706 -3.076,-7.933 -4.479,-12.683 -1.404,-4.75 -2.627,-9.607 -3.671,-14.573 -1.043,-4.965 -1.888,-9.822 -2.536,-14.572 -0.648,-4.75 -1.008,-8.977 -1.079,-12.683 -0.073,-3.706 0.215,-6.692 0.863,-8.96 0.647,-2.267 1.691,-3.4 3.13,-3.4 1.44,0 2.951,1.043 4.534,3.13 1.583,2.087 3.148,4.768 4.695,8.042 1.548,3.275 3.023,6.945 4.426,11.01 1.403,4.067 2.645,8.042 3.724,11.928 C 1.781,-40.155 9.267,-2.737 0,0 M 37.888,51.165 C 36.018,43.25 34.236,36.125 32.545,29.792 30.854,23.459 29.109,16.839 27.31,9.931 25.511,3.022 23.748,-4.012 22.021,-11.172 c -1.728,-7.161 -3.292,-14.141 -4.696,-20.941 -1.403,-6.801 -2.573,-13.26 -3.508,-19.376 -0.936,-6.117 -1.457,-10.777 -1.565,-13.979 -0.108,-3.203 0.125,-4.929 0.702,-5.181 0.575,-0.252 1.187,-0.468 1.835,-0.648 0.647,-0.18 1.223,-0.468 1.727,-0.864 0.503,-0.396 0.665,-1.259 0.485,-2.59 -0.18,-1.332 -0.54,-2.375 -1.079,-3.131 -0.54,-0.756 -1.133,-1.439 -1.781,-2.051 -0.648,-0.611 -1.386,-1.133 -2.213,-1.565 -0.827,-0.432 -1.925,-0.936 -3.292,-1.511 -1.367,-0.576 -2.753,-1.008 -4.156,-1.296 -1.403,-0.287 -2.465,-0.323 -3.185,-0.107 -0.719,0.216 -1.295,0.539 -1.727,0.972 -0.431,0.431 -0.737,0.88 -0.917,1.348 -0.18,0.468 -0.342,1.008 -0.486,1.619 -0.144,0.613 -0.288,1.602 -0.432,2.969 -0.144,1.367 -0.215,2.681 -0.215,3.941 0,1.258 -0.055,1.942 -0.163,2.05 -0.107,0.108 -0.233,0.054 -0.377,-0.162 -0.144,-0.216 -0.486,-0.846 -1.026,-1.888 -0.539,-1.044 -1.313,-2.375 -2.321,-3.995 -1.007,-1.619 -2.14,-3.022 -3.4,-4.21 -1.259,-1.187 -2.627,-2.123 -4.102,-2.806 -1.475,-0.684 -3.076,-1.026 -4.803,-1.026 -4.174,0 -7.592,1.314 -10.255,3.94 -2.662,2.627 -4.641,6.081 -5.937,10.363 -1.295,4.281 -1.943,9.157 -1.943,14.626 0,5.47 0.558,11.046 1.673,16.732 1.116,5.685 2.789,11.262 5.02,16.731 2.231,5.469 4.911,10.344 8.042,14.626 3.13,4.282 6.674,7.736 10.632,10.363 3.958,2.627 8.276,3.94 12.953,3.94 3.383,0 6.225,-1.044 8.528,-3.131 2.087,8.636 4.425,18.045 7.016,28.228 2.591,10.182 4.768,18.404 6.531,24.665 1.763,6.261 2.716,6.829 2.86,7.188 0.144,0.36 0.414,0.792 0.81,1.296 0.396,0.503 0.882,0.917 1.457,1.241 0.576,0.324 1.295,0.342 2.159,0.054 0.864,-0.288 1.691,-0.612 2.483,-0.971 9.147,-3.166 5.373,-8.073 4.533,-13.126" /></g><g
           transform="translate(253.3276,343.9952)"
           id="g56"><path
             id="path58"
             style="fill:#065793;fill-opacity:1;fill-rule:nonzero;stroke:none"
             d="m 0,0 c 0.144,-1.152 0.234,-2.069 0.27,-2.753 0.036,-0.684 0.036,-1.511 0,-2.482 -0.036,-0.972 -0.198,-1.961 -0.486,-2.969 -0.287,-1.007 -1.187,-1.637 -2.698,-1.889 -1.511,-0.252 -2.843,-0.216 -3.994,0.108 -1.152,0.324 -2.051,0.648 -2.699,0.971 -0.647,0.325 -1.223,0.54 -1.727,0.648 -0.503,0.108 -1.439,-0.432 -2.807,-1.619 -1.367,-1.187 -2.806,-2.914 -4.317,-5.182 -1.511,-2.266 -2.879,-4.641 -4.102,-7.124 -1.223,-2.482 -2.303,-4.983 -3.238,-7.501 -0.936,-2.52 -1.817,-5.146 -2.645,-7.881 -0.828,-2.734 -1.691,-6.35 -2.591,-10.848 -0.899,-4.498 -1.727,-8.941 -2.482,-13.331 -0.756,-4.39 -1.386,-8.401 -1.889,-12.036 -0.504,-3.634 -0.846,-6.045 -1.026,-7.232 -0.18,-1.187 -0.522,-2.015 -1.025,-2.483 -0.504,-0.468 -1.08,-0.81 -1.728,-1.025 -0.647,-0.216 -1.295,-0.324 -1.942,-0.324 -0.648,0 -1.35,0.054 -2.105,0.161 -0.756,0.109 -1.835,0.361 -3.239,0.756 -1.403,0.396 -2.447,0.738 -3.13,1.026 -0.684,0.288 -1.133,0.612 -1.349,0.971 -0.216,0.361 -0.378,0.756 -0.486,1.188 -0.108,0.432 -0.144,0.846 -0.108,1.241 0.036,0.396 0.198,1.44 0.486,3.131 0.287,1.69 0.899,4.875 1.835,9.553 0.935,4.677 1.961,9.678 3.076,15.004 1.116,5.325 2.285,10.776 3.508,16.353 1.224,5.577 2.411,10.884 3.562,15.922 1.152,5.038 2.178,9.589 3.077,13.655 0.899,4.066 1.583,7.034 2.051,8.905 0.468,1.871 0.99,3.041 1.565,3.508 0.576,0.468 1.17,0.666 1.781,0.594 0.612,-0.072 1.313,-0.234 2.105,-0.486 0.791,-0.252 1.619,-0.575 2.483,-0.971 0.863,-0.396 1.673,-0.809 2.429,-1.242 0.755,-0.431 1.421,-0.845 1.997,-1.241 0.575,-0.396 0.989,-0.827 1.241,-1.295 0.252,-0.468 0.413,-0.954 0.486,-1.457 0.071,-0.504 0.09,-0.9 0.053,-1.188 -0.035,-0.288 -0.179,-0.881 -0.431,-1.781 -0.252,-0.899 -0.45,-1.691 -0.594,-2.375 -0.144,-0.683 -0.198,-1.097 -0.162,-1.241 0.036,-0.144 0.144,-0.162 0.324,-0.054 0.18,0.108 0.45,0.45 0.81,1.025 2.158,3.455 4.318,6.135 6.476,8.042 2.159,1.907 3.67,3.131 4.534,3.67 0.863,0.54 1.583,0.936 2.159,1.188 0.575,0.252 1.223,0.413 1.942,0.486 0.72,0.071 1.422,-0.036 2.105,-0.324 0.684,-0.288 1.206,-1.08 1.566,-2.375 0.36,-1.295 0.594,-2.285 0.702,-2.968 C -0.27,1.745 -0.144,0.935 0,0" /></g><g
           transform="translate(281.2197,375.0123)"
           id="g60"><path
             id="path62"
             style="fill:#065793;fill-opacity:1;fill-rule:nonzero;stroke:none"
             d="m 0,0 c 0.475,-0.771 0.846,-1.751 1.113,-2.938 0.267,-1.187 0.386,-2.448 0.356,-3.783 -0.03,-1.336 -0.208,-2.686 -0.534,-4.051 -0.327,-1.365 -0.861,-2.611 -1.602,-3.739 -0.743,-1.128 -1.692,-2.032 -2.85,-2.715 -1.157,-0.683 -2.537,-1.024 -4.139,-1.024 -1.602,0 -2.938,0.223 -4.006,0.668 -1.068,0.445 -1.944,1.023 -2.627,1.736 -0.682,0.712 -1.201,1.484 -1.557,2.314 -0.357,0.831 -0.594,1.484 -0.713,1.959 -0.118,0.475 -0.178,0.92 -0.178,1.335 0,0.416 0.045,0.831 0.134,1.247 0.089,0.415 0.237,0.816 0.445,1.201 0.208,0.386 0.519,0.683 0.935,0.891 0.415,0.208 0.95,0.371 1.602,0.489 0.653,0.119 1.024,0.267 1.113,0.446 0.089,0.177 0.133,0.356 0.133,0.534 -0.118,2.255 0.327,4.02 1.336,5.297 1.009,1.276 2.211,2.107 3.605,2.492 1.395,0.386 2.805,0.356 4.229,-0.089 C -1.78,1.825 -0.712,1.068 0,0 m -22.178,-105.982 c -0.072,-0.577 -0.072,-1.026 0,-1.35 0.073,-0.323 0.18,-0.665 0.324,-1.025 0.144,-0.36 0.27,-0.774 0.378,-1.242 0.108,-0.467 0.144,-1.331 0.108,-2.59 -0.036,-1.259 -0.522,-2.267 -1.457,-3.023 -0.936,-0.755 -2.069,-1.079 -3.401,-0.972 -1.331,0.109 -2.788,0.307 -4.371,0.594 -1.583,0.288 -2.789,0.576 -3.616,0.864 -0.828,0.288 -1.422,0.684 -1.782,1.188 -0.359,0.503 -0.593,1.06 -0.701,1.673 -0.108,0.611 -0.162,1.097 -0.162,1.457 0,0.359 0.162,1.781 0.486,4.263 0.324,2.483 0.917,6.064 1.781,10.741 0.863,4.677 1.781,9.355 2.753,14.033 0.971,4.677 1.979,9.283 3.022,13.816 1.044,4.534 2.033,8.798 2.968,12.792 0.936,3.994 1.799,7.61 2.591,10.848 0.792,3.239 1.349,5.452 1.673,6.639 0.324,1.187 0.594,2.069 0.81,2.645 0.215,0.575 0.522,1.115 0.917,1.619 0.396,0.503 0.882,0.935 1.458,1.295 0.575,0.36 1.259,0.467 2.05,0.324 0.792,-0.144 1.89,-0.486 3.293,-1.026 1.403,-0.539 2.626,-1.133 3.67,-1.781 1.043,-0.648 1.673,-1.385 1.889,-2.213 0.216,-0.827 0.143,-1.924 -0.216,-3.292 -4.03,-16.695 -7.179,-30.494 -9.445,-41.397 -2.267,-10.902 -3.94,-19.196 -5.02,-24.88" /></g><g
           transform="translate(294.5049,278.2574)"
           id="g64"><path
             id="path66"
             style="fill:#065793;fill-opacity:1;fill-rule:nonzero;stroke:none"
             d="m 0,0 c 1.511,0 2.987,0.63 4.426,1.889 1.439,1.259 2.824,2.932 4.156,5.019 1.331,2.087 2.572,4.48 3.724,7.179 1.151,2.698 2.213,5.451 3.184,8.257 0.971,2.807 1.853,5.559 2.645,8.258 0.791,2.698 1.457,5.091 1.997,7.178 0.539,2.087 1.025,4.066 1.457,5.937 0.432,1.871 8.186,24.914 -4.642,24.072 -2.014,0 -3.94,-0.882 -5.775,-2.645 C 9.337,63.381 7.61,61.096 5.991,58.29 4.372,55.483 2.896,52.334 1.565,48.844 0.234,45.354 -0.917,41.846 -1.889,38.32 -2.86,34.793 -3.616,31.465 -4.156,28.335 c -0.539,-3.13 -0.809,-5.793 -0.809,-7.988 0,-2.195 0.036,-4.497 0.108,-6.909 0.072,-2.41 0.27,-4.605 0.593,-6.584 C -3.94,4.875 -3.436,3.238 -2.752,1.942 -2.069,0.647 -1.151,0 0,0 m -18.89,-63.472 c 1.439,0 3.077,0.487 4.911,1.458 1.835,0.972 3.778,2.788 5.83,5.451 2.05,2.663 4.155,6.369 6.314,11.119 2.159,4.749 4.282,10.902 6.369,18.458 0.144,0.504 0.126,0.845 -0.054,1.025 -0.18,0.18 -0.414,0.271 -0.702,0.271 -0.288,0 -0.756,-0.145 -1.403,-0.433 -1.943,-0.936 -4.462,-2.338 -7.556,-4.209 -3.094,-1.871 -6.063,-4.066 -8.905,-6.585 -2.843,-2.519 -5.272,-5.289 -7.287,-8.312 -2.015,-3.022 -3.022,-6.26 -3.022,-9.714 0,-1.871 0.198,-3.365 0.594,-4.48 0.395,-1.116 0.899,-1.979 1.511,-2.591 0.611,-0.612 1.223,-1.007 1.835,-1.187 0.611,-0.18 1.133,-0.271 1.565,-0.271 M 40.371,67.789 c 0.36,-0.432 0.702,-0.936 1.025,-1.512 0.325,-0.575 0.307,-1.547 -0.053,-2.914 -0.36,-1.367 -1.062,-4.12 -2.105,-8.258 C 38.194,50.967 36.989,46.146 35.622,40.641 34.254,35.135 32.797,29.217 31.25,22.884 29.703,16.551 28.156,10.272 26.608,4.048 25.061,-2.177 23.604,-8.114 22.237,-13.763 c -1.368,-5.649 -2.591,-10.705 -3.671,-15.166 -1.079,-4.462 -2.428,-9.139 -4.047,-14.033 -1.62,-4.893 -3.851,-9.301 -6.693,-13.223 -2.843,-3.922 -6.531,-7.142 -11.064,-9.661 -4.534,-2.518 -10.291,-3.778 -17.271,-3.778 -3.166,0 -5.955,0.378 -8.366,1.134 -2.411,0.755 -4.408,1.799 -5.991,3.13 -1.583,1.331 -2.77,2.896 -3.562,4.695 -0.791,1.8 -1.187,3.778 -1.187,5.937 0,2.159 0.755,4.713 2.266,7.665 1.512,2.95 3.94,6.026 7.287,9.228 3.346,3.203 7.628,6.405 12.845,9.607 5.217,3.203 11.46,6.171 18.728,8.906 0.36,0.143 0.72,0.269 1.08,0.378 0.36,0.107 0.755,0.162 1.187,0.162 0.432,0 0.828,-0.072 1.188,-0.216 0.359,-0.145 0.629,-0.414 0.809,-0.81 0.18,-0.396 0.324,-0.557 0.432,-0.486 0.108,0.072 0.252,0.523 0.432,1.35 0.18,0.827 0.539,2.411 1.079,4.749 0.54,2.339 0.954,4.12 1.241,5.343 0.289,1.224 0.558,2.375 0.81,3.455 0.252,1.079 0.09,1.619 -0.486,1.619 -0.287,0 -0.683,-0.108 -1.187,-0.325 -3.382,-1.583 -6.746,-2.392 -10.093,-2.428 -3.346,-0.035 -6.315,0.9 -8.905,2.806 -2.591,1.908 -4.66,4.876 -6.207,8.906 -1.547,4.03 -2.321,9.319 -2.321,15.868 0,7.268 0.666,13.637 1.997,19.106 1.331,5.469 3.095,10.182 5.289,14.14 2.195,3.958 4.678,7.233 7.449,9.824 2.77,2.59 5.577,4.659 8.419,6.206 2.843,1.548 5.595,2.627 8.258,3.238 2.663,0.612 5.001,0.918 7.016,0.918 2.087,0 3.832,-0.504 5.235,-1.511 1.404,-1.008 2.573,-2.231 3.509,-3.67 0.144,0.935 0.288,1.637 0.431,2.105 0.144,0.468 0.306,0.791 0.486,0.971 0.18,0.18 0.432,0.342 0.756,0.486 0.324,0.144 0.666,0.18 1.025,0.108 0.36,-0.072 0.918,-0.216 1.673,-0.432 0.756,-0.216 1.602,-0.539 2.537,-0.972 0.935,-0.431 1.907,-0.953 2.914,-1.565 1.008,-0.611 1.944,-1.349 2.807,-2.212" /></g><g
           transform="translate(82.5469,369.3698)"
           id="g68"><path
             id="path70"
             style="fill:#065793;fill-opacity:1;fill-rule:nonzero;stroke:none"
             d="m 0,0 c -0.954,-3.958 -2.627,-7.952 -5.001,-11.973 -2.375,-4.021 -5.452,-7.853 -9.194,-11.478 -3.778,-3.625 -8.185,-6.728 -13.277,-9.301 -0.323,-0.135 -0.575,-0.18 -0.737,-0.144 -0.162,0.027 -0.27,0.108 -0.342,0.243 -0.072,0.135 -0.072,0.261 -0.054,0.396 0.036,0.135 0.702,2.456 1.979,6.971 1.295,4.525 2.375,8.105 3.274,10.741 0.882,2.635 6.966,18.481 7.887,19.934 1.188,1.888 2.645,3.759 4.354,5.649 1.709,1.871 3.724,3.588 6.027,5.145 C 5.823,20.964 1.474,6.045 0,0 m 13.205,12.71 c -1.457,4.328 -3.508,7.711 -8.006,10.642 -5.244,3.17 -14.831,0.991 -18.775,-1.781 -1.439,-0.75 -2.82,-1.607 -4.156,-2.553 -0.004,0.07 0.007,0.141 10e-4,0.211 -0.078,0.787 -0.346,1.464 -0.801,2.026 -0.461,0.578 -1.08,1.012 -1.849,1.333 -0.784,0.307 -2.012,0.365 -3.702,0.166 -1.69,-0.198 -3.097,-0.542 -4.207,-1.016 -1.127,-0.481 -1.981,-1.129 -2.566,-1.938 -0.582,-0.817 -0.907,-1.55 -0.973,-2.206 -0.083,-0.663 -0.115,-1.201 -0.097,-1.616 0.206,-4.923 0.136,-15.483 0.01,-15.879 -1.583,-4.947 -3.076,-9.733 -4.443,-14.348 -0.612,-1.979 -1.224,-4.02 -1.835,-6.134 -0.63,-2.114 -1.242,-4.156 -1.835,-6.135 -0.594,-1.979 -1.152,-3.841 -1.691,-5.586 -0.522,-1.754 -0.972,-3.283 -1.368,-4.605 l -2.878,-9.796 c -2.375,-8.312 -4.408,-15.589 -6.081,-21.814 -1.691,-6.243 -3.095,-11.586 -4.21,-16.03 -1.115,-4.462 -3.884,-13.775 -4.514,-16.654 -0.611,-2.86 -1.007,-4.758 -1.133,-5.685 -0.126,-0.926 -0.216,-1.637 -0.252,-2.123 -0.018,-0.503 0.036,-1.043 0.198,-1.637 0.18,-0.593 0.468,-1.187 0.899,-1.781 0.433,-0.593 1.044,-1.125 1.835,-1.584 0.792,-0.458 1.89,-0.692 3.311,-0.692 1.403,0 2.717,0.162 3.904,0.495 1.187,0.333 2.105,0.656 2.717,0.989 0.629,0.333 1.187,0.756 1.69,1.287 0.486,0.531 0.792,1.223 0.936,2.078 0.144,0.854 0.342,2.321 0.648,4.408 0.288,2.068 2.535,10.104 2.93,12.785 0.396,2.663 0.846,5.451 1.368,8.357 0.539,2.906 1.241,6.252 2.14,10.047 0.882,3.788 1.89,7.881 3.005,12.27 1.134,4.381 1.943,7.52 2.429,9.392 0.503,1.889 0.863,3.058 1.097,3.517 0.216,0.459 0.612,0.557 1.133,0.297 1.583,-0.927 3.131,-2.079 4.66,-3.464 1.511,-1.385 2.915,-3.184 4.192,-5.388 1.295,-2.213 2.356,-4.947 3.22,-8.222 0.864,-3.256 1.44,-7.214 1.727,-11.873 0.31,-4.7 0.235,-10.068 -0.197,-16.273 -0.415,-6.198 -0.99,-11.433 -1.674,-15.678 -0.701,-4.264 -1.025,-6.729 -0.989,-7.431 0.018,-0.684 0.126,-1.349 0.288,-1.979 0.162,-0.621 0.467,-1.187 0.899,-1.673 0.414,-0.503 1.098,-0.747 2.033,-0.747 0.918,0 1.889,0.118 2.915,0.351 1.007,0.225 1.799,0.44 2.321,0.639 0.521,0.198 1.169,0.459 1.924,0.792 0.756,0.333 1.584,0.755 2.483,1.286 0.882,0.53 1.727,1.187 2.519,1.978 0.791,0.792 1.331,1.664 1.583,2.627 0.252,0.953 0.324,1.728 0.144,2.322 -0.162,0.593 -0.396,1.087 -0.737,1.483 -0.342,0.396 -0.63,0.756 -0.882,1.089 -0.27,0.333 -0.252,1.439 0.036,3.31 0.305,1.889 0.647,4.822 1.043,8.816 0.396,3.984 0.576,8.096 0.54,12.314 -0.036,4.219 -0.36,8.447 -0.989,12.665 -0.63,4.22 -1.692,8.15 -3.221,11.775 -1.511,3.626 -3.562,6.846 -6.117,9.643 -2.59,2.807 -5.847,4.903 -9.805,6.288 -1.385,0.531 -2.141,0.99 -2.284,1.385 -0.126,0.396 0,0.756 0.36,1.089 0.359,0.333 1.079,0.656 2.122,0.989 7.323,2.114 13.637,5.281 18.945,9.499 5.307,4.219 9.552,8.843 12.719,13.853 3.166,5.011 5.217,10.156 6.135,15.436 0.917,5.28 0.665,10.075 -0.792,14.392" /></g><g
           transform="translate(495.7041,370.5807)"
           id="g72"><path
             id="path74"
             style="fill:#065793;fill-opacity:1;fill-rule:nonzero;stroke:none"
             d="m 0,0 c -0.441,3.061 -1.579,14.084 -5.762,18.543 -1.428,1.636 -3.075,2.82 -4.925,3.555 -5.121,1.442 -22.629,3.513 -34.305,-18.991 -2.595,-5.047 -4.793,-8.976 -6.02,-14.943 -0.959,-6.063 -1.552,-13.198 -0.703,-16.385 2.517,-8.807 4.944,-9.612 13.238,-17.256 1.72,-1.683 10.666,-11.555 11.261,-17.564 0.57,-4.197 1.061,-13.245 0.283,-18.201 -0.772,-4.972 -2.426,-18.944 -12.509,-21.706 -1.275,-0.357 -14.403,-1.028 -11.783,36.011 0.119,1.777 -0.217,3.039 -1.008,3.786 -0.79,0.747 -1.63,1.04 -2.523,0.896 -0.905,-0.166 -1.893,-0.408 -2.995,-0.752 -1.103,-0.335 -2.168,-0.686 -3.229,-1.046 -4.833,-1.544 -6.945,-1.674 -5.163,-12.878 0.291,-1.855 0.764,-4.295 1.413,-7.3 0.653,-3.023 1.426,-5.906 2.319,-8.65 0.913,-2.756 1.956,-5.282 3.15,-7.598 1.212,-2.311 2.563,-4.24 4.088,-5.785 1.539,-1.532 3.265,-2.598 5.16,-3.203 1.926,-0.588 15.574,-4.282 24.045,6.271 3.502,3.852 6.533,9.277 8.454,15.013 2.966,11.474 12.82,38.811 -16.74,57.579 -10.951,9.348 2.788,37.04 5.756,41.563 1.893,3.94 9.436,6.135 13.153,2.709 2.67,-3.059 3.952,-9.778 3.593,-14.925 0.001,-2.857 -0.897,-6.731 -1.123,-8.492 -0.241,-1.764 0.006,-3.046 0.742,-3.846 0.737,-0.801 1.554,-1.152 2.455,-1.07 0.914,0.102 1.917,0.275 3.04,0.541 1.124,0.259 2.21,0.535 3.294,0.819 C 0.121,-12.681 0.438,-3.044 0,0" /></g><g
           transform="translate(597.5361,275.3092)"
           id="g76"><path
             id="path78"
             style="fill:#065793;fill-opacity:1;fill-rule:nonzero;stroke:none"
             d="M 0,0 C 0.07,-1.399 0.351,-2.204 0.84,-2.414 1.329,-2.624 1.819,-2.781 2.309,-2.886 2.799,-2.991 3.235,-3.201 3.62,-3.516 4.005,-3.83 4.163,-4.74 4.093,-6.244 4.022,-7.748 3.516,-8.989 2.571,-9.969 c -0.944,-0.979 -1.994,-1.679 -3.148,-2.098 -1.154,-0.42 -2.151,-0.665 -2.99,-0.736 -0.84,-0.069 -1.61,-0.122 -2.309,-0.157 -0.699,-0.035 -1.574,0 -2.623,0.106 -1.05,0.104 -2.204,0.804 -3.463,2.098 -1.26,1.294 -2.186,2.763 -2.781,4.407 -0.595,1.644 -0.927,3.236 -0.997,4.775 -0.07,1.539 -0.034,4.005 0.105,7.397 0.14,3.394 0.63,8.029 1.469,13.905 0.84,5.876 1.749,11.402 2.728,16.579 0.98,5.177 1.924,9.917 2.834,14.219 0.909,4.302 1.626,8.01 2.151,11.123 0.524,3.113 0.734,5.526 0.63,7.24 -0.106,1.714 -0.718,2.571 -1.837,2.571 -1.749,0 -3.41,-0.787 -4.985,-2.361 -1.574,-1.574 -3.095,-3.638 -4.564,-6.191 -1.469,-2.554 -2.833,-5.404 -4.093,-8.552 -1.259,-3.148 -2.413,-6.314 -3.463,-9.497 -1.048,-3.183 -1.958,-6.209 -2.727,-9.077 -0.77,-2.868 -1.347,-5.089 -1.732,-6.663 -0.384,-1.574 -0.682,-2.816 -0.892,-3.725 -0.21,-0.91 -0.472,-2.221 -0.787,-3.935 -0.315,-1.714 -0.647,-3.673 -0.996,-5.876 -0.351,-2.204 -0.718,-4.495 -1.103,-6.874 -0.385,-2.378 -0.734,-4.582 -1.049,-6.61 -0.315,-2.03 -0.577,-3.795 -0.787,-5.3 -0.21,-1.504 -0.367,-2.553 -0.473,-3.148 -0.104,-0.594 -0.367,-1.049 -0.786,-1.364 -0.42,-0.314 -0.927,-0.559 -1.522,-0.734 -0.594,-0.175 -1.259,-0.228 -1.993,-0.157 -0.735,0.069 -1.575,0.157 -2.519,0.261 -0.944,0.106 -1.893,0.353 -2.886,0.42 -0.84,0.058 -3.486,0.624 -3.851,0.935 0,0 -2.569,0.32 0.703,12.13 2.029,9.094 4.058,17.891 6.087,26.391 2.028,8.499 3.673,15.372 4.932,20.619 1.258,5.247 1.994,8.745 2.204,10.494 0.209,1.749 0.296,3.585 0.261,5.509 -0.035,1.924 0.123,3.707 0.473,5.351 0.35,1.644 0.856,2.851 1.521,3.62 0.665,0.77 1.347,1.26 2.046,1.47 0.7,0.21 1.469,0.279 2.309,0.21 1.259,-0.21 2.623,-0.595 4.093,-1.155 1.468,-0.559 2.64,-1.172 3.514,-1.836 0.875,-0.665 1.453,-1.382 1.732,-2.151 0.28,-0.77 0.245,-1.854 -0.105,-3.253 -0.349,-1.399 -0.506,-2.186 -0.472,-2.361 0.035,-0.175 0.105,-0.228 0.21,-0.157 0.105,0.069 0.559,0.716 1.364,1.94 0.805,1.225 1.767,2.396 2.886,3.516 1.119,1.119 2.186,1.976 3.2,2.571 1.014,0.595 1.941,0.979 2.781,1.154 0.84,0.175 1.574,0.262 2.203,0.262 4.758,0 8.221,-0.909 10.389,-2.728 2.169,-1.818 3.516,-4.39 4.04,-7.712 C 8.027,63.573 7.923,59.567 7.188,54.88 6.454,50.193 5.544,44.964 4.46,39.193 3.376,33.421 2.344,27.178 1.364,20.462 0.385,13.746 -0.069,6.926 0,0" /></g></g></g></g></svg>